<?xml version="1.0" encoding="utf-8"?>
<!-- Generator: Adobe Illustrator 21.0.2, SVG Export Plug-In . SVG Version: 6.00 Build 0)  -->
<svg version="1.1" xmlns="http://www.w3.org/2000/svg" xmlns:xlink="http://www.w3.org/1999/xlink" x="0px" y="0px"
	 viewBox="0 0 48.1 48" style="enable-background:new 0 0 48.1 48;" xml:space="preserve">
<style type="text/css">
	.st0{fill:none;stroke:#000000;stroke-miterlimit:10;}
	.st1{fill:none;stroke:#000000;stroke-linecap:round;stroke-miterlimit:10;}
	.st2{fill:none;stroke:#0ba360;stroke-width:2;stroke-linecap:round;stroke-miterlimit:10;}
	.st3{fill:none;stroke:#0ba360;stroke-linecap:round;stroke-linejoin:round;stroke-miterlimit:10;}
	.st4{fill:none;stroke:#000000;stroke-width:2;stroke-miterlimit:10;}
	.st5{stroke:#0ba360;stroke-linecap:round;stroke-miterlimit:10;}
	.st6{fill:#FFFFFF;}
	.st7{stroke:#0ba360;stroke-linecap:round;stroke-linejoin:round;stroke-miterlimit:10;}
	.st8{fill:none;stroke:#FFFFFF;stroke-linecap:round;stroke-linejoin:round;stroke-miterlimit:10;}
	.st9{fill:none;stroke:#000000;stroke-width:0.5;stroke-miterlimit:10;}
	.st10{fill:none;}
	.st11{fill:none;stroke:#0ba360;stroke-width:0.5;stroke-linecap:round;stroke-linejoin:round;stroke-miterlimit:10;}
	.st12{display:none;}
	.st13{display:inline;}
	.st14{fill:none;stroke:#0ba360;stroke-width:0.1;stroke-miterlimit:10;}
</style>
<g id="Layer_1">
	<g id="Layer_1_1_">
		<path class="st2" d="M31.7,19.9c0.5,3.4,0.4,6.6-2.3,9.4c-7.1,7.1-17.7-3.5-24.7,3.5"/>
		<path class="st2" d="M33,4.6c-2.8,2.8-2.8,6.1-2.3,9.5"/>
		<path class="st2" d="M17.6,34.1c0.5,3.4,0.4,6.7-2.3,9.4"/>
		<path class="st2" d="M43.6,15.2c-7.1,7.1-17.7-3.5-24.7,3.5c-2.8,2.8-2.8,6.1-2.3,9.5"/>
		<line class="st1" x1="20.9" y1="20.8" x2="27.3" y2="27.2"/>
		<line class="st1" x1="23.8" y1="19.4" x2="28.7" y2="24.4"/>
		<line class="st1" x1="27.3" y1="18.7" x2="29.4" y2="20.8"/>
		<line class="st1" x1="19.5" y1="23.6" x2="24.5" y2="28.6"/>
		<line class="st1" x1="18.8" y1="27.2" x2="20.9" y2="29.3"/>
		<line class="st1" x1="13.2" y1="32.8" x2="15.3" y2="35"/>
		<line class="st1" x1="9.6" y1="33.5" x2="14.6" y2="38.5"/>
		<line class="st1" x1="33" y1="13" x2="35.1" y2="15.2"/>
		<line class="st1" x1="33.7" y1="9.5" x2="38.6" y2="14.5"/>
		<g>
			<polyline class="st11" points="5.1,5 6.1,4 6.1,7 			"/>
			<polyline class="st11" points="8.1,5 9.1,4 9.1,7 			"/>
			<polyline class="st11" points="5.1,11 6.1,10 6.1,13 			"/>
			<polyline class="st11" points="8.1,11 9.1,10 9.1,13 			"/>
			<polyline class="st11" points="15.1,5 16.1,4 16.1,7 			"/>
			<polyline class="st11" points="18.1,5 19.1,4 19.1,7 			"/>
			<polyline class="st11" points="25.1,5 26.1,4 26.1,7 			"/>
			<polyline class="st11" points="25.1,11 26.1,10 26.1,13 			"/>
			<path class="st11" d="M2.1,4c-1,0-1,1.5-1,1.5s0,1.5,1,1.5s1-1.5,1-1.5S3.1,4,2.1,4z"/>
			<path class="st11" d="M2.1,10c-1,0-1,1.5-1,1.5s0,1.5,1,1.5s1-1.5,1-1.5S3.1,10,2.1,10z"/>
			<path class="st11" d="M12.1,10c-1,0-1,1.5-1,1.5s0,1.5,1,1.5s1-1.5,1-1.5S13.1,10,12.1,10z"/>
			<polyline class="st11" points="5.1,17 6.1,16 6.1,19 			"/>
			<polyline class="st11" points="1.1,23 2.1,22 2.1,25 			"/>
			<polyline class="st11" points="11.6,23 12.6,22 12.6,25 			"/>
			<polyline class="st11" points="8.1,17 9.1,16 9.1,19 			"/>
			<path class="st11" d="M2.1,16c-1,0-1,1.5-1,1.5s0,1.5,1,1.5s1-1.5,1-1.5S3.1,16,2.1,16z"/>
			<path class="st11" d="M12.1,16c-1,0-1,1.5-1,1.5s0,1.5,1,1.5s1-1.5,1-1.5S13.1,16,12.1,16z"/>
			<polyline class="st11" points="26.1,42 27.1,41 27.1,44 			"/>
			<polyline class="st11" points="29.1,42 30.1,41 30.1,44 			"/>
			<path class="st11" d="M23.1,41c-1,0-1,1.5-1,1.5s0,1.5,1,1.5s1-1.5,1-1.5S24.1,41,23.1,41z"/>
			<path class="st11" d="M33.1,41c-1,0-1,1.5-1,1.5s0,1.5,1,1.5s1-1.5,1-1.5S34.1,41,33.1,41z"/>
			<polyline class="st11" points="39.1,24 40.1,23 40.1,26 			"/>
			<polyline class="st11" points="42.1,24 43.1,23 43.1,26 			"/>
			<path class="st11" d="M36.6,23c-1,0-1,1.5-1,1.5s0,1.5,1,1.5s1-1.5,1-1.5S37.6,23,36.6,23z"/>
			<path class="st11" d="M46.1,23c-1,0-1,1.5-1,1.5s0,1.5,1,1.5s1-1.5,1-1.5S47.1,23,46.1,23z"/>
			<polyline class="st11" points="26.1,36 27.1,35 27.1,38 			"/>
			<polyline class="st11" points="29.1,36 30.1,35 30.1,38 			"/>
			<path class="st11" d="M23.1,35c-1,0-1,1.5-1,1.5s0,1.5,1,1.5s1-1.5,1-1.5S24.1,35,23.1,35z"/>
			<path class="st11" d="M33.1,35c-1,0-1,1.5-1,1.5s0,1.5,1,1.5s1-1.5,1-1.5S34.1,35,33.1,35z"/>
			<path class="st11" d="M5.1,22c-1,0-1,1.5-1,1.5s0,1.5,1,1.5s1-1.5,1-1.5S6.1,22,5.1,22z"/>
			<path class="st11" d="M8.6,22c-1,0-1,1.5-1,1.5s0,1.5,1,1.5s1-1.5,1-1.5S9.6,22,8.6,22z"/>
			<polyline class="st11" points="36.1,42 37.1,41 37.1,44 			"/>
			<polyline class="st11" points="46.1,42 47.1,41 47.1,44 			"/>
			<path class="st11" d="M40.1,41c-1,0-1,1.5-1,1.5s0,1.5,1,1.5s1-1.5,1-1.5S41.1,41,40.1,41z"/>
			<path class="st11" d="M43.6,41c-1,0-1,1.5-1,1.5s0,1.5,1,1.5s1-1.5,1-1.5S44.6,41,43.6,41z"/>
			<path class="st11" d="M15.6,10c-1,0-1,1.5-1,1.5s0,1.5,1,1.5s1-1.5,1-1.5S16.6,10,15.6,10z"/>
			<path class="st11" d="M19.1,10c-1,0-1,1.5-1,1.5s0,1.5,1,1.5s1-1.5,1-1.5S20.1,10,19.1,10z"/>
			<path class="st11" d="M22.6,10c-1,0-1,1.5-1,1.5s0,1.5,1,1.5s1-1.5,1-1.5S23.6,10,22.6,10z"/>
			<path class="st11" d="M12.1,4c-1,0-1,1.5-1,1.5s0,1.5,1,1.5s1-1.5,1-1.5S13.1,4,12.1,4z"/>
			<path class="st11" d="M22.1,4c-1,0-1,1.5-1,1.5s0,1.5,1,1.5s1-1.5,1-1.5S23.1,4,22.1,4z"/>
			<polyline class="st11" points="36.1,30 37.1,29 37.1,32 			"/>
			<polyline class="st11" points="43.1,30 44.1,29 44.1,32 			"/>
			<polyline class="st11" points="46.1,30 47.1,29 47.1,32 			"/>
			<path class="st11" d="M40.1,29c-1,0-1,1.5-1,1.5s0,1.5,1,1.5s1-1.5,1-1.5S41.1,29,40.1,29z"/>
			<polyline class="st11" points="36.1,36 37.1,35 37.1,38 			"/>
			<polyline class="st11" points="43.1,36 44.1,35 44.1,38 			"/>
			<polyline class="st11" points="46.1,36 47.1,35 47.1,38 			"/>
			<path class="st11" d="M40.1,35c-1,0-1,1.5-1,1.5s0,1.5,1,1.5s1-1.5,1-1.5S41.1,35,40.1,35z"/>
		</g>
	</g>
</g>
<g id="Layer_2_1_" class="st12">
	<g id="Layer_2" class="st13">
		<rect x="-0.9" y="-1" class="st14" width="50" height="50"/>
	</g>
</g>
</svg>
