<?xml version="1.0" encoding="utf-8"?>
<!-- Generator: Adobe Illustrator 21.0.2, SVG Export Plug-In . SVG Version: 6.00 Build 0)  -->
<svg version="1.1" id="Layer_1" xmlns="http://www.w3.org/2000/svg" xmlns:xlink="http://www.w3.org/1999/xlink" x="0px" y="0px"
	 viewBox="0 0 48.1 48" style="enable-background:new 0 0 48.1 48;" xml:space="preserve">
<style type="text/css">
	.st0{fill:url(#SVGID_1_);}
	.st1{fill:url(#SVGID_2_);}
	.st2{fill:url(#SVGID_3_);}
	.st3{fill:url(#SVGID_4_);}
	.st4{fill:url(#SVGID_5_);}
	.st5{fill:url(#SVGID_6_);}
	.st6{fill:url(#SVGID_7_);}
	.st7{fill:url(#SVGID_8_);}
	.st8{fill:url(#SVGID_9_);}
	.st9{fill:url(#SVGID_10_);}
	.st10{fill:url(#SVGID_11_);}
	.st11{fill:url(#SVGID_12_);}
	.st12{fill:url(#SVGID_13_);}
	.st13{fill:url(#SVGID_14_);}
	.st14{fill:url(#SVGID_15_);}
	.st15{fill:url(#SVGID_16_);}
	.st16{fill:url(#SVGID_17_);}
	.st17{fill:url(#SVGID_18_);}
	.st18{fill:url(#SVGID_19_);}
	.st19{fill:url(#SVGID_20_);}
	.st20{fill:url(#SVGID_21_);}
	.st21{fill:url(#SVGID_22_);}
	.st22{fill:url(#SVGID_23_);}
	.st23{fill:url(#SVGID_24_);}
	.st24{fill:url(#SVGID_25_);}
	.st25{fill:url(#SVGID_26_);}
	.st26{fill:url(#SVGID_27_);}
	.st27{fill:url(#SVGID_28_);}
	.st28{fill:url(#SVGID_29_);}
	.st29{fill:url(#SVGID_30_);}
	.st30{fill:url(#SVGID_31_);}
	.st31{fill:url(#SVGID_32_);}
	.st32{fill:url(#SVGID_33_);}
	.st33{fill:url(#SVGID_34_);}
	.st34{fill:url(#SVGID_35_);}
	.st35{fill:url(#SVGID_36_);}
	.st36{fill:url(#SVGID_37_);}
	.st37{fill:url(#SVGID_38_);}
	.st38{fill:url(#SVGID_39_);}
	.st39{fill:url(#SVGID_40_);}
	.st40{fill:url(#SVGID_41_);}
	.st41{fill:url(#SVGID_42_);}
	.st42{fill:url(#SVGID_43_);}
	.st43{fill:url(#SVGID_44_);}
	.st44{fill:url(#SVGID_45_);}
	.st45{fill:url(#SVGID_46_);}
	.st46{fill:url(#SVGID_47_);}
	.st47{fill:url(#SVGID_48_);}
	.st48{fill:url(#SVGID_49_);}
	.st49{fill:url(#SVGID_50_);}
	.st50{fill:url(#SVGID_51_);}
	.st51{fill:url(#SVGID_52_);}
	.st52{fill:url(#SVGID_53_);}
	.st53{fill:url(#SVGID_54_);}
	.st54{fill:url(#SVGID_55_);}
	.st55{fill:url(#SVGID_56_);}
	.st56{fill:url(#SVGID_57_);}
	.st57{fill:url(#SVGID_58_);}
	.st58{fill:url(#SVGID_59_);}
	.st59{fill:url(#SVGID_60_);}
	.st60{fill:url(#SVGID_61_);}
	.st61{display:none;}
	.st62{display:inline;}
	.st63{fill:none;stroke:#000000;stroke-width:0.1;stroke-miterlimit:10;}
</style>
<g>
	<linearGradient id="SVGID_1_" gradientUnits="userSpaceOnUse" x1="10.0019" y1="21.6166" x2="28.9869" y2="32.5776">
		<stop  offset="0" style="stop-color:#01A360"/>
		<stop  offset="1" style="stop-color:#45B490"/>
	</linearGradient>
	<path class="st0" d="M16.8,32.1c4.4,0.9,9.4,1.9,13.4-2.1c3.1-3.2,3-7,2.6-10.2c-0.1-0.5-0.6-0.9-1.1-0.8C31,19,30.6,19.5,30.7,20
		c0.5,3.4,0.3,6.1-2,8.5c-3.2,3.2-7.2,2.4-11.5,1.5c-4.6-0.9-9.3-1.9-13.2,2c-0.4,0.4-0.4,1,0,1.4c0.2,0.2,0.5,0.3,0.7,0.3
		s0.5-0.1,0.7-0.3C8.5,30.4,12.5,31.2,16.8,32.1z"/>
	<linearGradient id="SVGID_2_" gradientUnits="userSpaceOnUse" x1="29.5173" y1="8.0031" x2="33.9106" y2="10.5396">
		<stop  offset="0" style="stop-color:#01A360"/>
		<stop  offset="1" style="stop-color:#45B490"/>
	</linearGradient>
	<path class="st1" d="M30.7,15.1c0,0,0.1,0,0.1,0c0.5-0.1,0.9-0.6,0.8-1.1c-0.5-3.5-0.4-6.3,2-8.6c0.4-0.4,0.4-1,0-1.4s-1-0.4-1.4,0
		c-3.1,3.1-3.1,6.8-2.6,10.4C29.8,14.7,30.2,15.1,30.7,15.1z"/>
	<linearGradient id="SVGID_3_" gradientUnits="userSpaceOnUse" x1="14.4116" y1="37.6219" x2="18.7542" y2="40.1291">
		<stop  offset="0" style="stop-color:#01A360"/>
		<stop  offset="1" style="stop-color:#45B490"/>
	</linearGradient>
	<path class="st2" d="M17.5,33.1c-0.5,0.1-0.9,0.6-0.8,1.1c0.4,3,0.5,6-2,8.5c-0.4,0.4-0.4,1,0,1.4c0.2,0.2,0.5,0.3,0.7,0.3
		s0.5-0.1,0.7-0.3c3.1-3.1,3.1-6.9,2.6-10.3C18.5,33.4,18,33,17.5,33.1z"/>
	<linearGradient id="SVGID_4_" gradientUnits="userSpaceOnUse" x1="19.2624" y1="15.4431" x2="38.2763" y2="26.4208">
		<stop  offset="0" style="stop-color:#01A360"/>
		<stop  offset="1" style="stop-color:#45B490"/>
	</linearGradient>
	<path class="st3" d="M31.4,16c-4.6-0.9-9.3-1.9-13.2,2c-3.1,3.1-3.1,6.8-2.6,10.4c0.1,0.5,0.5,0.9,1,0.9c0,0,0.1,0,0.1,0
		c0.5-0.1,0.9-0.6,0.8-1.1c-0.5-3.5-0.4-6.3,2-8.6c3.1-3.1,7.1-2.3,11.4-1.4c4.4,0.9,9.4,1.9,13.3-2.1c0.4-0.4,0.4-1,0-1.4
		s-1-0.4-1.4,0C39.7,17.7,35.7,16.9,31.4,16z"/>
	<linearGradient id="SVGID_5_" gradientUnits="userSpaceOnUse" x1="19.8811" y1="21.5643" x2="28.3186" y2="26.4357">
		<stop  offset="0" style="stop-color:#01A360"/>
		<stop  offset="1" style="stop-color:#45B490"/>
	</linearGradient>
	<path class="st4" d="M27.3,27.7c0.1,0,0.3,0,0.4-0.1c0.2-0.2,0.2-0.5,0-0.7l-6.4-6.4c-0.2-0.2-0.5-0.2-0.7,0s-0.2,0.5,0,0.7
		l6.4,6.4C27,27.7,27.2,27.7,27.3,27.7z"/>
	<linearGradient id="SVGID_6_" gradientUnits="userSpaceOnUse" x1="22.8967" y1="19.9639" x2="29.603" y2="23.8358">
		<stop  offset="0" style="stop-color:#01A360"/>
		<stop  offset="1" style="stop-color:#45B490"/>
	</linearGradient>
	<path class="st5" d="M28.7,24.9c0.1,0,0.3,0,0.3-0.1c0.2-0.2,0.2-0.5,0-0.7l-4.9-5c-0.2-0.2-0.5-0.2-0.7,0c-0.2,0.2-0.2,0.5,0,0.7
		l4.9,5C28.4,24.8,28.6,24.9,28.7,24.9z"/>
	<linearGradient id="SVGID_7_" gradientUnits="userSpaceOnUse" x1="26.6747" y1="18.7827" x2="30.0255" y2="20.7173">
		<stop  offset="0" style="stop-color:#01A360"/>
		<stop  offset="1" style="stop-color:#45B490"/>
	</linearGradient>
	<path class="st6" d="M29.8,21.2c0.2-0.2,0.2-0.5,0-0.7l-2.1-2.1c-0.2-0.2-0.5-0.2-0.7,0s-0.2,0.5,0,0.7l2.1,2.1
		c0.1,0.1,0.2,0.1,0.4,0.1S29.7,21.3,29.8,21.2z"/>
	<linearGradient id="SVGID_8_" gradientUnits="userSpaceOnUse" x1="18.6095" y1="24.1423" x2="25.3905" y2="28.0574">
		<stop  offset="0" style="stop-color:#01A360"/>
		<stop  offset="1" style="stop-color:#45B490"/>
	</linearGradient>
	<path class="st7" d="M24.5,29.1c0.1,0,0.3,0,0.4-0.1c0.2-0.2,0.2-0.5,0-0.7l-5-5c-0.2-0.2-0.5-0.2-0.7,0s-0.2,0.5,0,0.7l5,5
		C24.2,29.1,24.4,29.1,24.5,29.1z"/>
	<linearGradient id="SVGID_9_" gradientUnits="userSpaceOnUse" x1="18.1747" y1="27.2828" x2="21.5251" y2="29.2172">
		<stop  offset="0" style="stop-color:#01A360"/>
		<stop  offset="1" style="stop-color:#45B490"/>
	</linearGradient>
	<path class="st8" d="M18.4,26.8c-0.2,0.2-0.2,0.5,0,0.7l2.1,2.1c0.1,0.1,0.2,0.1,0.4,0.1s0.3,0,0.4-0.1c0.2-0.2,0.2-0.5,0-0.7
		l-2.1-2.1C19,26.7,18.6,26.7,18.4,26.8z"/>
	<linearGradient id="SVGID_10_" gradientUnits="userSpaceOnUse" x1="12.5533" y1="32.9202" x2="15.9467" y2="34.8794">
		<stop  offset="0" style="stop-color:#01A360"/>
		<stop  offset="1" style="stop-color:#45B490"/>
	</linearGradient>
	<path class="st9" d="M12.9,32.4c-0.2,0.2-0.2,0.5,0,0.7l2.1,2.2c0.1,0.1,0.2,0.2,0.4,0.2c0.1,0,0.2,0,0.3-0.1
		c0.2-0.2,0.2-0.5,0-0.7l-2.1-2.2C13.4,32.3,13.1,32.2,12.9,32.4z"/>
	<linearGradient id="SVGID_11_" gradientUnits="userSpaceOnUse" x1="8.7095" y1="34.0424" x2="15.4907" y2="37.9576">
		<stop  offset="0" style="stop-color:#01A360"/>
		<stop  offset="1" style="stop-color:#45B490"/>
	</linearGradient>
	<path class="st10" d="M15,38.9c0.2-0.2,0.2-0.5,0-0.7l-5-5c-0.2-0.2-0.5-0.2-0.7,0s-0.2,0.5,0,0.7l5,5c0.1,0.1,0.2,0.1,0.4,0.1
		S14.9,39,15,38.9z"/>
	<linearGradient id="SVGID_12_" gradientUnits="userSpaceOnUse" x1="32.3532" y1="13.1205" x2="35.7465" y2="15.0796">
		<stop  offset="0" style="stop-color:#01A360"/>
		<stop  offset="1" style="stop-color:#45B490"/>
	</linearGradient>
	<path class="st11" d="M35.1,15.7c0.1,0,0.2,0,0.3-0.1c0.2-0.2,0.2-0.5,0-0.7l-2.1-2.2c-0.2-0.2-0.5-0.2-0.7,0
		c-0.2,0.2-0.2,0.5,0,0.7l2.1,2.2C34.8,15.6,35,15.7,35.1,15.7z"/>
	<linearGradient id="SVGID_13_" gradientUnits="userSpaceOnUse" x1="32.7971" y1="10.0644" x2="39.5025" y2="13.9358">
		<stop  offset="0" style="stop-color:#01A360"/>
		<stop  offset="1" style="stop-color:#45B490"/>
	</linearGradient>
	<path class="st12" d="M33.4,9.1c-0.2,0.2-0.2,0.5,0,0.7l4.9,5c0.1,0.1,0.2,0.1,0.4,0.1c0.1,0,0.3,0,0.3-0.1c0.2-0.2,0.2-0.5,0-0.7
		l-4.9-5C33.9,9,33.5,8.9,33.4,9.1z"/>
	<linearGradient id="SVGID_14_" gradientUnits="userSpaceOnUse" x1="4.917" y1="4.817" x2="6.9662" y2="6.0001">
		<stop  offset="0" style="stop-color:#01A360"/>
		<stop  offset="1" style="stop-color:#45B490"/>
	</linearGradient>
	<path class="st13" d="M5.3,5.2l0.6-0.6V7c0,0.1,0.1,0.3,0.3,0.3S6.4,7.1,6.4,7V4c0-0.1-0.1-0.2-0.2-0.2c-0.1,0-0.2,0-0.3,0.1l-1,1
		c-0.1,0.1-0.1,0.3,0,0.4S5.2,5.3,5.3,5.2z"/>
	<linearGradient id="SVGID_15_" gradientUnits="userSpaceOnUse" x1="7.917" y1="4.817" x2="9.9662" y2="6.0001">
		<stop  offset="0" style="stop-color:#01A360"/>
		<stop  offset="1" style="stop-color:#45B490"/>
	</linearGradient>
	<path class="st14" d="M8.3,5.2l0.6-0.6V7c0,0.1,0.1,0.3,0.3,0.3S9.4,7.1,9.4,7V4c0-0.1-0.1-0.2-0.2-0.2S9,3.8,8.9,3.8l-1,1
		c-0.1,0.1-0.1,0.3,0,0.4S8.2,5.3,8.3,5.2z"/>
	<linearGradient id="SVGID_16_" gradientUnits="userSpaceOnUse" x1="4.917" y1="10.817" x2="6.9662" y2="12.0001">
		<stop  offset="0" style="stop-color:#01A360"/>
		<stop  offset="1" style="stop-color:#45B490"/>
	</linearGradient>
	<path class="st15" d="M5.3,11.2l0.6-0.6V13c0,0.1,0.1,0.3,0.3,0.3s0.3-0.1,0.3-0.3v-3c0-0.1-0.1-0.2-0.2-0.2c-0.1,0-0.2,0-0.3,0.1
		l-1,1c-0.1,0.1-0.1,0.3,0,0.4S5.2,11.3,5.3,11.2z"/>
	<linearGradient id="SVGID_17_" gradientUnits="userSpaceOnUse" x1="7.917" y1="10.817" x2="9.9662" y2="12.0001">
		<stop  offset="0" style="stop-color:#01A360"/>
		<stop  offset="1" style="stop-color:#45B490"/>
	</linearGradient>
	<path class="st16" d="M8.3,11.2l0.6-0.6V13c0,0.1,0.1,0.3,0.3,0.3s0.3-0.1,0.3-0.3v-3c0-0.1-0.1-0.2-0.2-0.2c-0.1,0-0.2,0-0.3,0.1
		l-1,1c-0.1,0.1-0.1,0.3,0,0.4S8.2,11.3,8.3,11.2z"/>
	<linearGradient id="SVGID_18_" gradientUnits="userSpaceOnUse" x1="14.917" y1="4.817" x2="16.9662" y2="6.0001">
		<stop  offset="0" style="stop-color:#01A360"/>
		<stop  offset="1" style="stop-color:#45B490"/>
	</linearGradient>
	<path class="st17" d="M15.3,5.2l0.6-0.6V7c0,0.1,0.1,0.3,0.3,0.3s0.3-0.1,0.3-0.3V4c0-0.1-0.1-0.2-0.2-0.2c-0.1,0-0.2,0-0.3,0.1
		l-1,1c-0.1,0.1-0.1,0.3,0,0.4S15.2,5.3,15.3,5.2z"/>
	<linearGradient id="SVGID_19_" gradientUnits="userSpaceOnUse" x1="17.917" y1="4.817" x2="19.9662" y2="6.0001">
		<stop  offset="0" style="stop-color:#01A360"/>
		<stop  offset="1" style="stop-color:#45B490"/>
	</linearGradient>
	<path class="st18" d="M18.3,5.2l0.6-0.6V7c0,0.1,0.1,0.3,0.3,0.3s0.3-0.1,0.3-0.3V4c0-0.1-0.1-0.2-0.2-0.2c-0.1,0-0.2,0-0.3,0.1
		l-1,1c-0.1,0.1-0.1,0.3,0,0.4S18.2,5.3,18.3,5.2z"/>
	<linearGradient id="SVGID_20_" gradientUnits="userSpaceOnUse" x1="24.9166" y1="4.8169" x2="26.9657" y2="6">
		<stop  offset="0" style="stop-color:#01A360"/>
		<stop  offset="1" style="stop-color:#45B490"/>
	</linearGradient>
	<path class="st19" d="M25.3,5.2l0.6-0.6V7c0,0.1,0.1,0.3,0.3,0.3s0.3-0.1,0.3-0.3V4c0-0.1-0.1-0.2-0.2-0.2c-0.1,0-0.2,0-0.3,0.1
		l-1,1c-0.1,0.1-0.1,0.3,0,0.4S25.2,5.3,25.3,5.2z"/>
	<linearGradient id="SVGID_21_" gradientUnits="userSpaceOnUse" x1="24.9166" y1="10.8169" x2="26.9657" y2="12">
		<stop  offset="0" style="stop-color:#01A360"/>
		<stop  offset="1" style="stop-color:#45B490"/>
	</linearGradient>
	<path class="st20" d="M25.3,11.2l0.6-0.6V13c0,0.1,0.1,0.3,0.3,0.3s0.3-0.1,0.3-0.3v-3c0-0.1-0.1-0.2-0.2-0.2c-0.1,0-0.2,0-0.3,0.1
		l-1,1c-0.1,0.1-0.1,0.3,0,0.4S25.2,11.3,25.3,11.2z"/>
	<linearGradient id="SVGID_22_" gradientUnits="userSpaceOnUse" x1="0.8747" y1="4.7925" x2="3.3255" y2="6.2075">
		<stop  offset="0" style="stop-color:#01A360"/>
		<stop  offset="1" style="stop-color:#45B490"/>
	</linearGradient>
	<path class="st21" d="M2.1,3.8c-1,0-1.3,1.1-1.3,1.8s0.3,1.8,1.3,1.8s1.3-1.1,1.3-1.8S3.1,3.8,2.1,3.8z M2.1,6.8
		c-0.7,0-0.8-1.2-0.8-1.2c0,0,0-1.3,0.8-1.3s0.8,1.2,0.8,1.2C2.9,5.5,2.8,6.8,2.1,6.8z"/>
	<linearGradient id="SVGID_23_" gradientUnits="userSpaceOnUse" x1="0.8747" y1="10.7925" x2="3.3255" y2="12.2075">
		<stop  offset="0" style="stop-color:#01A360"/>
		<stop  offset="1" style="stop-color:#45B490"/>
	</linearGradient>
	<path class="st22" d="M2.1,9.8c-1,0-1.3,1.1-1.3,1.8s0.3,1.8,1.3,1.8s1.3-1.1,1.3-1.8S3.1,9.8,2.1,9.8z M2.1,12.8
		c-0.7,0-0.8-1.2-0.8-1.2c0,0,0-1.3,0.8-1.3s0.8,1.2,0.8,1.2C2.9,11.5,2.8,12.8,2.1,12.8z"/>
	<linearGradient id="SVGID_24_" gradientUnits="userSpaceOnUse" x1="10.8747" y1="10.7925" x2="13.3255" y2="12.2075">
		<stop  offset="0" style="stop-color:#01A360"/>
		<stop  offset="1" style="stop-color:#45B490"/>
	</linearGradient>
	<path class="st23" d="M12.1,13.3c1,0,1.3-1.1,1.3-1.8s-0.3-1.8-1.3-1.8s-1.3,1.1-1.3,1.8S11.1,13.3,12.1,13.3z M12.1,10.3
		c0.7,0,0.8,1.2,0.8,1.2c0,0,0,1.3-0.8,1.3s-0.8-1.2-0.8-1.2C11.4,11.5,11.4,10.3,12.1,10.3z"/>
	<linearGradient id="SVGID_25_" gradientUnits="userSpaceOnUse" x1="4.917" y1="16.817" x2="6.9662" y2="18.0001">
		<stop  offset="0" style="stop-color:#01A360"/>
		<stop  offset="1" style="stop-color:#45B490"/>
	</linearGradient>
	<path class="st24" d="M5.3,17.2l0.6-0.6V19c0,0.1,0.1,0.3,0.3,0.3s0.3-0.1,0.3-0.3v-3c0-0.1-0.1-0.2-0.2-0.2c-0.1,0-0.2,0-0.3,0.1
		l-1,1c-0.1,0.1-0.1,0.3,0,0.4S5.2,17.3,5.3,17.2z"/>
	<linearGradient id="SVGID_26_" gradientUnits="userSpaceOnUse" x1="0.9171" y1="22.817" x2="2.9661" y2="24">
		<stop  offset="0" style="stop-color:#01A360"/>
		<stop  offset="1" style="stop-color:#45B490"/>
	</linearGradient>
	<path class="st25" d="M2.2,21.8c-0.1,0-0.2,0-0.3,0.1l-1,1c-0.1,0.1-0.1,0.3,0,0.4s0.3,0.1,0.4,0l0.6-0.6V25c0,0.1,0.1,0.3,0.3,0.3
		s0.3-0.1,0.3-0.3v-3C2.4,21.9,2.3,21.8,2.2,21.8z"/>
	<linearGradient id="SVGID_27_" gradientUnits="userSpaceOnUse" x1="11.4171" y1="22.817" x2="13.4661" y2="24">
		<stop  offset="0" style="stop-color:#01A360"/>
		<stop  offset="1" style="stop-color:#45B490"/>
	</linearGradient>
	<path class="st26" d="M12.6,25.3c0.1,0,0.3-0.1,0.3-0.3v-3c0-0.1-0.1-0.2-0.2-0.2c-0.1,0-0.2,0-0.3,0.1l-1,1
		c-0.1,0.1-0.1,0.3,0,0.4s0.3,0.1,0.4,0l0.6-0.6V25C12.4,25.1,12.5,25.3,12.6,25.3z"/>
	<linearGradient id="SVGID_28_" gradientUnits="userSpaceOnUse" x1="7.917" y1="16.817" x2="9.9662" y2="18.0001">
		<stop  offset="0" style="stop-color:#01A360"/>
		<stop  offset="1" style="stop-color:#45B490"/>
	</linearGradient>
	<path class="st27" d="M8.3,17.2l0.6-0.6V19c0,0.1,0.1,0.3,0.3,0.3s0.3-0.1,0.3-0.3v-3c0-0.1-0.1-0.2-0.2-0.2c-0.1,0-0.2,0-0.3,0.1
		l-1,1c-0.1,0.1-0.1,0.3,0,0.4S8.2,17.3,8.3,17.2z"/>
	<linearGradient id="SVGID_29_" gradientUnits="userSpaceOnUse" x1="0.8747" y1="16.7925" x2="3.3255" y2="18.2075">
		<stop  offset="0" style="stop-color:#01A360"/>
		<stop  offset="1" style="stop-color:#45B490"/>
	</linearGradient>
	<path class="st28" d="M2.1,15.8c-1,0-1.3,1.1-1.3,1.8s0.3,1.8,1.3,1.8s1.3-1.1,1.3-1.8S3.1,15.8,2.1,15.8z M2.1,18.8
		c-0.7,0-0.8-1.2-0.8-1.2c0,0,0-1.3,0.8-1.3s0.8,1.2,0.8,1.2C2.9,17.5,2.8,18.8,2.1,18.8z"/>
	<linearGradient id="SVGID_30_" gradientUnits="userSpaceOnUse" x1="10.8747" y1="16.7925" x2="13.3255" y2="18.2075">
		<stop  offset="0" style="stop-color:#01A360"/>
		<stop  offset="1" style="stop-color:#45B490"/>
	</linearGradient>
	<path class="st29" d="M12.1,19.3c1,0,1.3-1.1,1.3-1.8s-0.3-1.8-1.3-1.8s-1.3,1.1-1.3,1.8S11.1,19.3,12.1,19.3z M12.1,16.3
		c0.7,0,0.8,1.2,0.8,1.2c0,0,0,1.3-0.8,1.3s-0.8-1.2-0.8-1.2C11.4,17.5,11.4,16.3,12.1,16.3z"/>
	<linearGradient id="SVGID_31_" gradientUnits="userSpaceOnUse" x1="25.9167" y1="41.8167" x2="27.9657" y2="42.9997">
		<stop  offset="0" style="stop-color:#01A360"/>
		<stop  offset="1" style="stop-color:#45B490"/>
	</linearGradient>
	<path class="st30" d="M27.2,40.8c-0.1,0-0.2,0-0.3,0.1l-1,1c-0.1,0.1-0.1,0.3,0,0.4s0.3,0.1,0.4,0l0.6-0.6V44
		c0,0.1,0.1,0.3,0.3,0.3s0.3-0.1,0.3-0.3v-3C27.3,40.9,27.3,40.8,27.2,40.8z"/>
	<linearGradient id="SVGID_32_" gradientUnits="userSpaceOnUse" x1="28.9167" y1="41.8167" x2="30.9657" y2="42.9997">
		<stop  offset="0" style="stop-color:#01A360"/>
		<stop  offset="1" style="stop-color:#45B490"/>
	</linearGradient>
	<path class="st31" d="M30.2,40.8c-0.1,0-0.2,0-0.3,0.1l-1,1c-0.1,0.1-0.1,0.3,0,0.4s0.3,0.1,0.4,0l0.6-0.6V44
		c0,0.1,0.1,0.3,0.3,0.3s0.3-0.1,0.3-0.3v-3C30.3,40.9,30.3,40.8,30.2,40.8z"/>
	<linearGradient id="SVGID_33_" gradientUnits="userSpaceOnUse" x1="21.8747" y1="41.7925" x2="24.3255" y2="43.2075">
		<stop  offset="0" style="stop-color:#01A360"/>
		<stop  offset="1" style="stop-color:#45B490"/>
	</linearGradient>
	<path class="st32" d="M23.1,40.8c-1,0-1.3,1.1-1.3,1.8s0.3,1.8,1.3,1.8s1.3-1.1,1.3-1.8S24.1,40.8,23.1,40.8z M23.1,43.8
		c-0.7,0-0.8-1.2-0.8-1.3s0-1.3,0.8-1.3s0.8,1.2,0.8,1.3S23.8,43.8,23.1,43.8z"/>
	<linearGradient id="SVGID_34_" gradientUnits="userSpaceOnUse" x1="31.8744" y1="41.7926" x2="34.3248" y2="43.2074">
		<stop  offset="0" style="stop-color:#01A360"/>
		<stop  offset="1" style="stop-color:#45B490"/>
	</linearGradient>
	<path class="st33" d="M33.1,40.8c-1,0-1.3,1.1-1.3,1.8s0.3,1.8,1.3,1.8s1.3-1.1,1.3-1.8S34.1,40.8,33.1,40.8z M33.1,43.8
		c-0.7,0-0.8-1.2-0.8-1.3s0-1.3,0.8-1.3s0.8,1.2,0.8,1.3S33.8,43.8,33.1,43.8z"/>
	<linearGradient id="SVGID_35_" gradientUnits="userSpaceOnUse" x1="38.9166" y1="23.8169" x2="40.9656" y2="24.9999">
		<stop  offset="0" style="stop-color:#01A360"/>
		<stop  offset="1" style="stop-color:#45B490"/>
	</linearGradient>
	<path class="st34" d="M40.1,26.3c0.1,0,0.3-0.1,0.3-0.3v-3c0-0.1-0.1-0.2-0.2-0.2s-0.2,0-0.3,0.1l-1,1c-0.1,0.1-0.1,0.3,0,0.4
		s0.3,0.1,0.4,0l0.6-0.6V26C39.8,26.1,40,26.3,40.1,26.3z"/>
	<linearGradient id="SVGID_36_" gradientUnits="userSpaceOnUse" x1="41.9166" y1="23.8169" x2="43.9656" y2="24.9999">
		<stop  offset="0" style="stop-color:#01A360"/>
		<stop  offset="1" style="stop-color:#45B490"/>
	</linearGradient>
	<path class="st35" d="M42.8,26c0,0.1,0.1,0.3,0.3,0.3s0.3-0.1,0.3-0.3v-3c0-0.1-0.1-0.2-0.2-0.2c-0.1,0-0.2,0-0.3,0.1l-1,1
		c-0.1,0.1-0.1,0.3,0,0.4s0.3,0.1,0.4,0l0.6-0.6V26z"/>
	<linearGradient id="SVGID_37_" gradientUnits="userSpaceOnUse" x1="35.3744" y1="23.7926" x2="37.8248" y2="25.2074">
		<stop  offset="0" style="stop-color:#01A360"/>
		<stop  offset="1" style="stop-color:#45B490"/>
	</linearGradient>
	<path class="st36" d="M36.6,22.8c-1,0-1.3,1.1-1.3,1.8s0.3,1.8,1.3,1.8s1.3-1.1,1.3-1.8S37.6,22.8,36.6,22.8z M36.6,25.8
		c-0.7,0-0.8-1.2-0.8-1.2c0,0,0-1.3,0.8-1.3s0.8,1.2,0.8,1.2C37.3,24.5,37.3,25.8,36.6,25.8z"/>
	<linearGradient id="SVGID_38_" gradientUnits="userSpaceOnUse" x1="44.8744" y1="23.7926" x2="47.3248" y2="25.2074">
		<stop  offset="0" style="stop-color:#01A360"/>
		<stop  offset="1" style="stop-color:#45B490"/>
	</linearGradient>
	<path class="st37" d="M47.3,24.5c0-0.6-0.3-1.8-1.3-1.8s-1.3,1.1-1.3,1.8s0.3,1.8,1.3,1.8S47.3,25.1,47.3,24.5z M45.3,24.5
		c0,0,0-1.3,0.8-1.3s0.8,1.2,0.8,1.2c0,0,0,1.3-0.8,1.3S45.3,24.5,45.3,24.5z"/>
	<linearGradient id="SVGID_39_" gradientUnits="userSpaceOnUse" x1="25.9167" y1="35.8167" x2="27.9657" y2="36.9997">
		<stop  offset="0" style="stop-color:#01A360"/>
		<stop  offset="1" style="stop-color:#45B490"/>
	</linearGradient>
	<path class="st38" d="M27.2,34.8c-0.1,0-0.2,0-0.3,0.1l-1,1c-0.1,0.1-0.1,0.3,0,0.4s0.3,0.1,0.4,0l0.6-0.6V38
		c0,0.1,0.1,0.3,0.3,0.3s0.3-0.1,0.3-0.3v-3C27.3,34.9,27.3,34.8,27.2,34.8z"/>
	<linearGradient id="SVGID_40_" gradientUnits="userSpaceOnUse" x1="28.9167" y1="35.8167" x2="30.9657" y2="36.9997">
		<stop  offset="0" style="stop-color:#01A360"/>
		<stop  offset="1" style="stop-color:#45B490"/>
	</linearGradient>
	<path class="st39" d="M30.2,34.8c-0.1,0-0.2,0-0.3,0.1l-1,1c-0.1,0.1-0.1,0.3,0,0.4s0.3,0.1,0.4,0l0.6-0.6V38
		c0,0.1,0.1,0.3,0.3,0.3s0.3-0.1,0.3-0.3v-3C30.3,34.9,30.3,34.8,30.2,34.8z"/>
	<linearGradient id="SVGID_41_" gradientUnits="userSpaceOnUse" x1="21.8747" y1="35.7925" x2="24.3255" y2="37.2075">
		<stop  offset="0" style="stop-color:#01A360"/>
		<stop  offset="1" style="stop-color:#45B490"/>
	</linearGradient>
	<path class="st40" d="M23.1,34.8c-1,0-1.3,1.1-1.3,1.8s0.3,1.8,1.3,1.8s1.3-1.1,1.3-1.8S24.1,34.8,23.1,34.8z M23.1,37.8
		c-0.7,0-0.8-1.2-0.8-1.3s0-1.3,0.8-1.3s0.8,1.2,0.8,1.3S23.8,37.8,23.1,37.8z"/>
	<linearGradient id="SVGID_42_" gradientUnits="userSpaceOnUse" x1="31.8744" y1="35.7926" x2="34.3248" y2="37.2074">
		<stop  offset="0" style="stop-color:#01A360"/>
		<stop  offset="1" style="stop-color:#45B490"/>
	</linearGradient>
	<path class="st41" d="M33.1,34.8c-1,0-1.3,1.1-1.3,1.8s0.3,1.8,1.3,1.8s1.3-1.1,1.3-1.8S34.1,34.8,33.1,34.8z M33.1,37.8
		c-0.7,0-0.8-1.2-0.8-1.3s0-1.3,0.8-1.3s0.8,1.2,0.8,1.3S33.8,37.8,33.1,37.8z"/>
	<linearGradient id="SVGID_43_" gradientUnits="userSpaceOnUse" x1="3.8747" y1="22.7925" x2="6.3255" y2="24.2075">
		<stop  offset="0" style="stop-color:#01A360"/>
		<stop  offset="1" style="stop-color:#45B490"/>
	</linearGradient>
	<path class="st42" d="M5.1,25.3c1,0,1.3-1.1,1.3-1.8s-0.3-1.8-1.3-1.8s-1.3,1.1-1.3,1.8S4.1,25.3,5.1,25.3z M5.1,22.3
		c0.7,0,0.8,1.2,0.8,1.2c0,0,0,1.3-0.8,1.3s-0.8-1.2-0.8-1.2C4.4,23.5,4.4,22.3,5.1,22.3z"/>
	<linearGradient id="SVGID_44_" gradientUnits="userSpaceOnUse" x1="7.3747" y1="22.7925" x2="9.8255" y2="24.2075">
		<stop  offset="0" style="stop-color:#01A360"/>
		<stop  offset="1" style="stop-color:#45B490"/>
	</linearGradient>
	<path class="st43" d="M8.6,25.3c1,0,1.3-1.1,1.3-1.8s-0.3-1.8-1.3-1.8s-1.3,1.1-1.3,1.8S7.6,25.3,8.6,25.3z M8.6,22.3
		c0.7,0,0.8,1.2,0.8,1.2c0,0,0,1.3-0.8,1.3s-0.8-1.2-0.8-1.2C7.9,23.5,7.9,22.3,8.6,22.3z"/>
	<linearGradient id="SVGID_45_" gradientUnits="userSpaceOnUse" x1="35.9167" y1="41.8167" x2="37.9657" y2="42.9997">
		<stop  offset="0" style="stop-color:#01A360"/>
		<stop  offset="1" style="stop-color:#45B490"/>
	</linearGradient>
	<path class="st44" d="M37.2,40.8c-0.1,0-0.2,0-0.3,0.1l-1,1c-0.1,0.1-0.1,0.3,0,0.4s0.3,0.1,0.4,0l0.6-0.6V44
		c0,0.1,0.1,0.3,0.3,0.3s0.3-0.1,0.3-0.3v-3C37.3,40.9,37.3,40.8,37.2,40.8z"/>
	<linearGradient id="SVGID_46_" gradientUnits="userSpaceOnUse" x1="45.9167" y1="41.8167" x2="47.9657" y2="42.9997">
		<stop  offset="0" style="stop-color:#01A360"/>
		<stop  offset="1" style="stop-color:#45B490"/>
	</linearGradient>
	<path class="st45" d="M47.2,40.8c-0.1,0-0.2,0-0.3,0.1l-1,1c-0.1,0.1-0.1,0.3,0,0.4s0.3,0.1,0.4,0l0.6-0.6V44
		c0,0.1,0.1,0.3,0.3,0.3s0.3-0.1,0.3-0.3v-3C47.3,40.9,47.3,40.8,47.2,40.8z"/>
	<linearGradient id="SVGID_47_" gradientUnits="userSpaceOnUse" x1="38.8744" y1="41.7926" x2="41.3248" y2="43.2074">
		<stop  offset="0" style="stop-color:#01A360"/>
		<stop  offset="1" style="stop-color:#45B490"/>
	</linearGradient>
	<path class="st46" d="M40.1,40.8c-1,0-1.3,1.1-1.3,1.8s0.3,1.8,1.3,1.8s1.3-1.1,1.3-1.8S41.1,40.8,40.1,40.8z M40.1,43.8
		c-0.7,0-0.8-1.2-0.8-1.3s0-1.3,0.8-1.3s0.8,1.2,0.8,1.3S40.8,43.8,40.1,43.8z"/>
	<linearGradient id="SVGID_48_" gradientUnits="userSpaceOnUse" x1="42.3744" y1="41.7926" x2="44.8248" y2="43.2074">
		<stop  offset="0" style="stop-color:#01A360"/>
		<stop  offset="1" style="stop-color:#45B490"/>
	</linearGradient>
	<path class="st47" d="M43.6,40.8c-1,0-1.3,1.1-1.3,1.8s0.3,1.8,1.3,1.8s1.3-1.1,1.3-1.8S44.6,40.8,43.6,40.8z M43.6,43.8
		c-0.7,0-0.8-1.2-0.8-1.3s0-1.3,0.8-1.3s0.8,1.2,0.8,1.3S44.3,43.8,43.6,43.8z"/>
	<linearGradient id="SVGID_49_" gradientUnits="userSpaceOnUse" x1="14.3747" y1="10.7925" x2="16.8255" y2="12.2075">
		<stop  offset="0" style="stop-color:#01A360"/>
		<stop  offset="1" style="stop-color:#45B490"/>
	</linearGradient>
	<path class="st48" d="M15.6,13.3c1,0,1.3-1.1,1.3-1.8s-0.3-1.8-1.3-1.8s-1.3,1.1-1.3,1.8S14.6,13.3,15.6,13.3z M15.6,10.3
		c0.7,0,0.8,1.2,0.8,1.2c0,0,0,1.3-0.8,1.3s-0.8-1.2-0.8-1.2C14.9,11.5,14.9,10.3,15.6,10.3z"/>
	<linearGradient id="SVGID_50_" gradientUnits="userSpaceOnUse" x1="17.8747" y1="10.7925" x2="20.3255" y2="12.2075">
		<stop  offset="0" style="stop-color:#01A360"/>
		<stop  offset="1" style="stop-color:#45B490"/>
	</linearGradient>
	<path class="st49" d="M19.1,13.3c1,0,1.3-1.1,1.3-1.8s-0.3-1.8-1.3-1.8s-1.3,1.1-1.3,1.8S18.1,13.3,19.1,13.3z M19.1,10.3
		c0.7,0,0.8,1.2,0.8,1.2c0,0,0,1.3-0.8,1.3s-0.8-1.2-0.8-1.2C18.4,11.5,18.4,10.3,19.1,10.3z"/>
	<linearGradient id="SVGID_51_" gradientUnits="userSpaceOnUse" x1="21.3747" y1="10.7925" x2="23.8255" y2="12.2075">
		<stop  offset="0" style="stop-color:#01A360"/>
		<stop  offset="1" style="stop-color:#45B490"/>
	</linearGradient>
	<path class="st50" d="M21.4,11.5c0,0.6,0.3,1.8,1.3,1.8s1.3-1.1,1.3-1.8s-0.3-1.8-1.3-1.8S21.4,10.9,21.4,11.5z M23.4,11.5
		c0,0,0,1.3-0.8,1.3s-0.8-1.2-0.8-1.2c0,0,0-1.3,0.8-1.3S23.4,11.5,23.4,11.5z"/>
	<linearGradient id="SVGID_52_" gradientUnits="userSpaceOnUse" x1="10.8747" y1="4.7925" x2="13.3255" y2="6.2075">
		<stop  offset="0" style="stop-color:#01A360"/>
		<stop  offset="1" style="stop-color:#45B490"/>
	</linearGradient>
	<path class="st51" d="M12.1,7.3c1,0,1.3-1.1,1.3-1.8s-0.3-1.8-1.3-1.8s-1.3,1.1-1.3,1.8S11.1,7.3,12.1,7.3z M12.1,4.3
		c0.7,0,0.8,1.2,0.8,1.2c0,0,0,1.3-0.8,1.3s-0.8-1.2-0.8-1.2C11.4,5.5,11.4,4.3,12.1,4.3z"/>
	<linearGradient id="SVGID_53_" gradientUnits="userSpaceOnUse" x1="20.8747" y1="4.7925" x2="23.3255" y2="6.2075">
		<stop  offset="0" style="stop-color:#01A360"/>
		<stop  offset="1" style="stop-color:#45B490"/>
	</linearGradient>
	<path class="st52" d="M22.1,7.3c1,0,1.3-1.1,1.3-1.8s-0.3-1.8-1.3-1.8s-1.3,1.1-1.3,1.8S21.1,7.3,22.1,7.3z M22.1,4.3
		c0.7,0,0.8,1.2,0.8,1.2c0,0,0,1.3-0.8,1.3s-0.8-1.2-0.8-1.2C21.4,5.5,21.4,4.3,22.1,4.3z"/>
	<linearGradient id="SVGID_54_" gradientUnits="userSpaceOnUse" x1="35.9167" y1="29.8167" x2="37.9657" y2="30.9997">
		<stop  offset="0" style="stop-color:#01A360"/>
		<stop  offset="1" style="stop-color:#45B490"/>
	</linearGradient>
	<path class="st53" d="M37.2,28.8c-0.1,0-0.2,0-0.3,0.1l-1,1c-0.1,0.1-0.1,0.3,0,0.4s0.3,0.1,0.4,0l0.6-0.6V32
		c0,0.1,0.1,0.3,0.3,0.3s0.3-0.1,0.3-0.3v-3C37.3,28.9,37.3,28.8,37.2,28.8z"/>
	<linearGradient id="SVGID_55_" gradientUnits="userSpaceOnUse" x1="42.9167" y1="29.8167" x2="44.9657" y2="30.9997">
		<stop  offset="0" style="stop-color:#01A360"/>
		<stop  offset="1" style="stop-color:#45B490"/>
	</linearGradient>
	<path class="st54" d="M44.3,29c0-0.1-0.1-0.2-0.2-0.2c-0.1,0-0.2,0-0.3,0.1l-1,1c-0.1,0.1-0.1,0.3,0,0.4s0.3,0.1,0.4,0l0.6-0.6V32
		c0,0.1,0.1,0.3,0.3,0.3s0.3-0.1,0.3-0.3V29z"/>
	<linearGradient id="SVGID_56_" gradientUnits="userSpaceOnUse" x1="45.9167" y1="29.8167" x2="47.9657" y2="30.9997">
		<stop  offset="0" style="stop-color:#01A360"/>
		<stop  offset="1" style="stop-color:#45B490"/>
	</linearGradient>
	<path class="st55" d="M47.2,28.8c-0.1,0-0.2,0-0.3,0.1l-1,1c-0.1,0.1-0.1,0.3,0,0.4s0.3,0.1,0.4,0l0.6-0.6V32
		c0,0.1,0.1,0.3,0.3,0.3s0.3-0.1,0.3-0.3v-3C47.3,28.9,47.3,28.8,47.2,28.8z"/>
	<linearGradient id="SVGID_57_" gradientUnits="userSpaceOnUse" x1="38.8744" y1="29.7926" x2="41.3248" y2="31.2074">
		<stop  offset="0" style="stop-color:#01A360"/>
		<stop  offset="1" style="stop-color:#45B490"/>
	</linearGradient>
	<path class="st56" d="M40.1,28.8c-1,0-1.3,1.1-1.3,1.8s0.3,1.8,1.3,1.8s1.3-1.1,1.3-1.8S41.1,28.8,40.1,28.8z M40.1,31.8
		c-0.7,0-0.8-1.2-0.8-1.3s0-1.3,0.8-1.3s0.8,1.2,0.8,1.3S40.8,31.8,40.1,31.8z"/>
	<linearGradient id="SVGID_58_" gradientUnits="userSpaceOnUse" x1="35.9167" y1="35.8167" x2="37.9657" y2="36.9997">
		<stop  offset="0" style="stop-color:#01A360"/>
		<stop  offset="1" style="stop-color:#45B490"/>
	</linearGradient>
	<path class="st57" d="M37.2,34.8c-0.1,0-0.2,0-0.3,0.1l-1,1c-0.1,0.1-0.1,0.3,0,0.4s0.3,0.1,0.4,0l0.6-0.6V38
		c0,0.1,0.1,0.3,0.3,0.3s0.3-0.1,0.3-0.3v-3C37.3,34.9,37.3,34.8,37.2,34.8z"/>
	<linearGradient id="SVGID_59_" gradientUnits="userSpaceOnUse" x1="42.9167" y1="35.8167" x2="44.9657" y2="36.9997">
		<stop  offset="0" style="stop-color:#01A360"/>
		<stop  offset="1" style="stop-color:#45B490"/>
	</linearGradient>
	<path class="st58" d="M44.1,38.3c0.1,0,0.3-0.1,0.3-0.3v-3c0-0.1-0.1-0.2-0.2-0.2c-0.1,0-0.2,0-0.3,0.1l-1,1
		c-0.1,0.1-0.1,0.3,0,0.4s0.3,0.1,0.4,0l0.6-0.6V38C43.8,38.1,44,38.3,44.1,38.3z"/>
	<linearGradient id="SVGID_60_" gradientUnits="userSpaceOnUse" x1="45.9167" y1="35.8167" x2="47.9657" y2="36.9997">
		<stop  offset="0" style="stop-color:#01A360"/>
		<stop  offset="1" style="stop-color:#45B490"/>
	</linearGradient>
	<path class="st59" d="M47.2,34.8c-0.1,0-0.2,0-0.3,0.1l-1,1c-0.1,0.1-0.1,0.3,0,0.4s0.3,0.1,0.4,0l0.6-0.6V38
		c0,0.1,0.1,0.3,0.3,0.3s0.3-0.1,0.3-0.3v-3C47.3,34.9,47.3,34.8,47.2,34.8z"/>
	<linearGradient id="SVGID_61_" gradientUnits="userSpaceOnUse" x1="38.8744" y1="35.7926" x2="41.3248" y2="37.2074">
		<stop  offset="0" style="stop-color:#01A360"/>
		<stop  offset="1" style="stop-color:#45B490"/>
	</linearGradient>
	<path class="st60" d="M40.1,34.8c-1,0-1.3,1.1-1.3,1.8s0.3,1.8,1.3,1.8s1.3-1.1,1.3-1.8S41.1,34.8,40.1,34.8z M40.1,37.8
		c-0.7,0-0.8-1.2-0.8-1.3s0-1.3,0.8-1.3s0.8,1.2,0.8,1.3S40.8,37.8,40.1,37.8z"/>
</g>
<g id="Layer_2_1_" class="st61">
	<g id="Layer_2" class="st62">
		<rect x="-0.9" y="-1" class="st63" width="50" height="50"/>
	</g>
</g>
</svg>
