<?xml version="1.0" encoding="utf-8"?>
<!-- Generator: Adobe Illustrator 21.0.2, SVG Export Plug-In . SVG Version: 6.00 Build 0)  -->
<svg version="1.1" id="Layer_1" xmlns="http://www.w3.org/2000/svg" xmlns:xlink="http://www.w3.org/1999/xlink" x="0px" y="0px"
	 viewBox="0 0 149.1 148.8" style="enable-background:new 0 0 149.1 148.8;" xml:space="preserve">
<style type="text/css">
	.st0{fill:url(#SVGID_1_);}
	.st1{fill:url(#SVGID_2_);}
	.st2{fill:url(#SVGID_3_);}
	.st3{fill:url(#SVGID_4_);}
	.st4{fill:url(#SVGID_5_);}
	.st5{fill:url(#SVGID_6_);}
	.st6{fill:url(#SVGID_7_);}
	.st7{fill:url(#SVGID_8_);}
	.st8{fill:url(#SVGID_9_);}
	.st9{fill:url(#SVGID_10_);}
	.st10{fill:url(#SVGID_11_);}
	.st11{fill:url(#SVGID_12_);}
	.st12{fill:url(#SVGID_13_);}
	.st13{fill:url(#SVGID_14_);}
	.st14{fill:url(#SVGID_15_);}
	.st15{fill:url(#SVGID_16_);}
	.st16{fill:url(#SVGID_17_);}
	.st17{fill:url(#SVGID_18_);}
	.st18{fill:url(#SVGID_19_);}
	.st19{fill:url(#SVGID_20_);}
	.st20{fill:url(#SVGID_21_);}
	.st21{fill:url(#SVGID_22_);}
	.st22{fill:url(#SVGID_23_);}
	.st23{fill:url(#SVGID_24_);}
	.st24{fill:url(#SVGID_25_);}
	.st25{fill:url(#SVGID_26_);}
	.st26{fill:url(#SVGID_27_);}
	.st27{fill:url(#SVGID_28_);}
	.st28{fill:url(#SVGID_29_);}
	.st29{fill:url(#SVGID_30_);}
	.st30{fill:url(#SVGID_31_);}
	.st31{fill:url(#SVGID_32_);}
	.st32{fill:url(#SVGID_33_);}
	.st33{fill:url(#SVGID_34_);}
	.st34{fill:url(#SVGID_35_);}
	.st35{fill:url(#SVGID_36_);}
	.st36{fill:url(#SVGID_37_);}
	.st37{fill:url(#SVGID_38_);}
	.st38{fill:url(#SVGID_39_);}
	.st39{fill:url(#SVGID_40_);}
	.st40{fill:url(#SVGID_41_);}
	.st41{fill:url(#SVGID_42_);}
	.st42{fill:url(#SVGID_43_);}
	.st43{fill:url(#SVGID_44_);}
	.st44{fill:url(#SVGID_45_);}
	.st45{fill:url(#SVGID_46_);}
	.st46{fill:url(#SVGID_47_);}
	.st47{fill:url(#SVGID_48_);}
	.st48{fill:url(#SVGID_49_);}
	.st49{fill:url(#SVGID_50_);}
	.st50{fill:url(#SVGID_51_);}
	.st51{fill:url(#SVGID_52_);}
	.st52{fill:url(#SVGID_53_);}
	.st53{fill:url(#SVGID_54_);}
	.st54{fill:url(#SVGID_55_);}
	.st55{fill:url(#SVGID_56_);}
	.st56{fill:url(#SVGID_57_);}
	.st57{fill:url(#SVGID_58_);}
	.st58{fill:url(#SVGID_59_);}
	.st59{fill:url(#SVGID_60_);}
	.st60{fill:url(#SVGID_61_);}
	.st61{display:none;}
	.st62{display:inline;}
	.st63{fill:none;stroke:#000000;stroke-width:0.1;stroke-miterlimit:10;}
</style>
<g id="Layer_1_2_">
	<g id="Layer_1_1_">
		<g>
			<linearGradient id="SVGID_1_" gradientUnits="userSpaceOnUse" x1="13.3814" y1="81.3467" x2="101.1114" y2="81.3467">
				<stop  offset="0" style="stop-color:#01A360"/>
				<stop  offset="1" style="stop-color:#45B490"/>
			</linearGradient>
			<path class="st0" d="M16.4,103.7c-0.8,0-1.5-0.3-2.1-0.9c-1.2-1.2-1.2-3.1,0-4.2c11.6-11.6,25.8-8.8,39.5-6
				c12.9,2.6,25,5,34.6-4.5c7.1-7.3,7.5-15.6,6.1-25.7c-0.2-1.6,0.9-3.2,2.5-3.4c1.7-0.2,3.2,0.9,3.4,2.5c1.4,9.8,1.6,21-7.7,30.7
				c-11.9,11.9-26.8,8.9-40.1,6.2c-12.7-2.6-24.8-5-34.1,4.3C17.9,103.4,17.2,103.7,16.4,103.7z"/>
		</g>
		<g>
			<linearGradient id="SVGID_2_" gradientUnits="userSpaceOnUse" x1="90.6435" y1="30.3305" x2="104.3097" y2="30.3305">
				<stop  offset="0" style="stop-color:#01A360"/>
				<stop  offset="1" style="stop-color:#45B490"/>
			</linearGradient>
			<path class="st1" d="M94.4,47.6c-1.5,0-2.7-1.1-3-2.6c-1.6-10.6-1.7-21.6,7.7-31.1c1.2-1.2,3.1-1.2,4.2,0c1.2,1.2,1.2,3.1,0,4.2
				c-7.1,7.1-7.6,15.5-6.1,26c0.2,1.6-0.9,3.2-2.5,3.4C94.7,47.6,94.5,47.6,94.4,47.6z"/>
		</g>
		<g>
			<linearGradient id="SVGID_3_" gradientUnits="userSpaceOnUse" x1="45.1903" y1="118.7069" x2="58.8152" y2="118.7069">
				<stop  offset="0" style="stop-color:#01A360"/>
				<stop  offset="1" style="stop-color:#45B490"/>
			</linearGradient>
			<path class="st2" d="M48.2,135.8c-0.8,0-1.5-0.3-2.1-0.9c-1.2-1.2-1.2-3.1,0-4.2c7.5-7.5,7.4-16.8,6.1-25.7
				c-0.2-1.6,0.9-3.2,2.5-3.4c1.6-0.3,3.2,0.9,3.4,2.5c1.5,9.9,1.7,21.3-7.8,30.8C49.7,135.5,49,135.8,48.2,135.8z"/>
		</g>
		<g>
			<linearGradient id="SVGID_4_" gradientUnits="userSpaceOnUse" x1="48.3294" y1="67.3919" x2="136.1187" y2="67.3919">
				<stop  offset="0" style="stop-color:#01A360"/>
				<stop  offset="1" style="stop-color:#45B490"/>
			</linearGradient>
			<path class="st3" d="M52.1,89.9c-1.5,0-2.7-1.1-3-2.6c-1.6-10.6-1.7-21.6,7.7-31.1c11.6-11.6,25.8-8.7,39.5-6
				c12.9,2.6,25.1,5,34.6-4.5c1.2-1.2,3.1-1.2,4.2,0c1.2,1.2,1.2,3.1,0,4.2c-11.8,11.8-26.8,8.8-40,6.2c-12.7-2.6-24.8-5-34.1,4.3
				c-7.1,7.1-7.6,15.5-6.1,25.9c0.2,1.6-0.9,3.2-2.5,3.4C52.4,89.9,52.2,89.9,52.1,89.9z"/>
		</g>
		<g>
			<linearGradient id="SVGID_5_" gradientUnits="userSpaceOnUse" x1="63.4965" y1="74.2942" x2="85.7032" y2="74.2942">
				<stop  offset="0" style="stop-color:#01A360"/>
				<stop  offset="1" style="stop-color:#45B490"/>
			</linearGradient>
			<path class="st4" d="M84.2,85.4c-0.4,0-0.8-0.1-1.1-0.4L63.9,65.8c-0.6-0.6-0.6-1.5,0-2.1c0.6-0.6,1.5-0.6,2.1,0l19.2,19.2
				c0.6,0.6,0.6,1.5,0,2.1C85,85.3,84.6,85.4,84.2,85.4z"/>
		</g>
		<g>
			<linearGradient id="SVGID_6_" gradientUnits="userSpaceOnUse" x1="72.1989" y1="67.9931" x2="89.9058" y2="67.9931">
				<stop  offset="0" style="stop-color:#01A360"/>
				<stop  offset="1" style="stop-color:#45B490"/>
			</linearGradient>
			<path class="st5" d="M88.4,77c-0.4,0-0.8-0.2-1.1-0.4l-14.7-15c-0.6-0.6-0.6-1.5,0-2.1c0.6-0.6,1.5-0.6,2.1,0l14.7,15
				c0.6,0.6,0.6,1.5,0,2.1C89.2,76.9,88.8,77,88.4,77z"/>
		</g>
		<g>
			<linearGradient id="SVGID_7_" gradientUnits="userSpaceOnUse" x1="82.7023" y1="61.5409" x2="92.007" y2="61.5409">
				<stop  offset="0" style="stop-color:#01A360"/>
				<stop  offset="1" style="stop-color:#45B490"/>
			</linearGradient>
			<path class="st6" d="M90.5,66.2c-0.4,0-0.8-0.1-1.1-0.4l-6.3-6.3c-0.6-0.6-0.6-1.5,0-2.1c0.6-0.6,1.5-0.6,2.1,0l6.3,6.3
				c0.6,0.6,0.6,1.5,0,2.1C91.3,66,90.9,66.2,90.5,66.2z"/>
		</g>
		<g>
			<linearGradient id="SVGID_8_" gradientUnits="userSpaceOnUse" x1="59.2954" y1="80.5965" x2="77.3012" y2="80.5965">
				<stop  offset="0" style="stop-color:#01A360"/>
				<stop  offset="1" style="stop-color:#45B490"/>
			</linearGradient>
			<path class="st7" d="M75.8,89.6c-0.4,0-0.8-0.1-1.1-0.4l-15-15c-0.6-0.6-0.6-1.5,0-2.1c0.6-0.6,1.5-0.6,2.1,0l15,15
				c0.6,0.6,0.6,1.5,0,2.1C76.6,89.5,76.2,89.6,75.8,89.6z"/>
		</g>
		<g>
			<linearGradient id="SVGID_9_" gradientUnits="userSpaceOnUse" x1="57.1942" y1="87.0483" x2="66.4974" y2="87.0483">
				<stop  offset="0" style="stop-color:#01A360"/>
				<stop  offset="1" style="stop-color:#45B490"/>
			</linearGradient>
			<path class="st8" d="M65,91.7c-0.4,0-0.8-0.1-1.1-0.4L57.6,85c-0.6-0.6-0.6-1.5,0-2.1c0.6-0.6,1.5-0.6,2.1,0l6.3,6.3
				c0.6,0.6,0.6,1.5,0,2.1C65.8,91.6,65.4,91.7,65,91.7z"/>
		</g>
		<g>
			<linearGradient id="SVGID_10_" gradientUnits="userSpaceOnUse" x1="40.3901" y1="104.0043" x2="49.6916" y2="104.0043">
				<stop  offset="0" style="stop-color:#01A360"/>
				<stop  offset="1" style="stop-color:#45B490"/>
			</linearGradient>
			<path class="st9" d="M48.2,108.8c-0.4,0-0.8-0.2-1.1-0.5l-6.3-6.6c-0.6-0.6-0.5-1.5,0-2.1c0.6-0.6,1.6-0.6,2.1,0l6.3,6.6
				c0.6,0.6,0.5,1.5,0,2.1C48.9,108.7,48.6,108.8,48.2,108.8z"/>
		</g>
		<g>
			<linearGradient id="SVGID_11_" gradientUnits="userSpaceOnUse" x1="29.5863" y1="110.3071" x2="47.592" y2="110.3071">
				<stop  offset="0" style="stop-color:#01A360"/>
				<stop  offset="1" style="stop-color:#45B490"/>
			</linearGradient>
			<path class="st10" d="M46.1,119.3c-0.4,0-0.8-0.1-1.1-0.4l-15-15c-0.6-0.6-0.6-1.5,0-2.1c0.6-0.6,1.5-0.6,2.1,0l15,15
				c0.6,0.6,0.6,1.5,0,2.1C46.9,119.2,46.5,119.3,46.1,119.3z"/>
		</g>
		<g>
			<linearGradient id="SVGID_12_" gradientUnits="userSpaceOnUse" x1="99.8083" y1="44.5848" x2="109.1102" y2="44.5848">
				<stop  offset="0" style="stop-color:#01A360"/>
				<stop  offset="1" style="stop-color:#45B490"/>
			</linearGradient>
			<path class="st11" d="M107.6,49.4c-0.4,0-0.8-0.2-1.1-0.5l-6.3-6.6c-0.6-0.6-0.6-1.5,0-2.1c0.6-0.6,1.6-0.6,2.1,0l6.3,6.6
				c0.6,0.6,0.6,1.5,0,2.1C108.4,49.2,108,49.4,107.6,49.4z"/>
		</g>
		<g>
			<linearGradient id="SVGID_13_" gradientUnits="userSpaceOnUse" x1="101.9095" y1="38.2835" x2="119.6135" y2="38.2835">
				<stop  offset="0" style="stop-color:#01A360"/>
				<stop  offset="1" style="stop-color:#45B490"/>
			</linearGradient>
			<path class="st12" d="M118.1,47.3c-0.4,0-0.8-0.2-1.1-0.4l-14.7-15c-0.6-0.6-0.6-1.5,0-2.1c0.6-0.6,1.5-0.6,2.1,0l14.7,15
				c0.6,0.6,0.6,1.5,0,2.1C118.9,47.1,118.5,47.3,118.1,47.3z"/>
		</g>
		<g>
			<g>
				<linearGradient id="SVGID_14_" gradientUnits="userSpaceOnUse" x1="16.8322" y1="18.7769" x2="21.3336" y2="18.7769">
					<stop  offset="0" style="stop-color:#01A360"/>
					<stop  offset="1" style="stop-color:#45B490"/>
				</linearGradient>
				<path class="st13" d="M20.6,24c-0.4,0-0.8-0.3-0.8-0.8v-7.2l-1.7,1.7c-0.3,0.3-0.8,0.3-1.1,0s-0.3-0.8,0-1.1l3-3
					c0.2-0.2,0.5-0.3,0.8-0.2c0.3,0.1,0.5,0.4,0.5,0.7v9C21.3,23.7,21,24,20.6,24z"/>
			</g>
			<g>
				<linearGradient id="SVGID_15_" gradientUnits="userSpaceOnUse" x1="25.8351" y1="18.7769" x2="30.3365" y2="18.7769">
					<stop  offset="0" style="stop-color:#01A360"/>
					<stop  offset="1" style="stop-color:#45B490"/>
				</linearGradient>
				<path class="st14" d="M29.6,24c-0.4,0-0.8-0.3-0.8-0.8v-7.2l-1.7,1.7c-0.3,0.3-0.8,0.3-1.1,0s-0.3-0.8,0-1.1l3-3
					c0.2-0.2,0.5-0.3,0.8-0.2c0.3,0.1,0.5,0.4,0.5,0.7v9C30.3,23.7,30,24,29.6,24z"/>
			</g>
			<g>
				<linearGradient id="SVGID_16_" gradientUnits="userSpaceOnUse" x1="16.8322" y1="36.7823" x2="21.3336" y2="36.7823">
					<stop  offset="0" style="stop-color:#01A360"/>
					<stop  offset="1" style="stop-color:#45B490"/>
				</linearGradient>
				<path class="st15" d="M20.6,42c-0.4,0-0.8-0.3-0.8-0.8v-7.2l-1.7,1.7c-0.3,0.3-0.8,0.3-1.1,0c-0.3-0.3-0.3-0.8,0-1.1l3-3
					c0.2-0.2,0.5-0.3,0.8-0.2c0.3,0.1,0.5,0.4,0.5,0.7v9C21.3,41.7,21,42,20.6,42z"/>
			</g>
			<g>
				<linearGradient id="SVGID_17_" gradientUnits="userSpaceOnUse" x1="25.8351" y1="36.7823" x2="30.3365" y2="36.7823">
					<stop  offset="0" style="stop-color:#01A360"/>
					<stop  offset="1" style="stop-color:#45B490"/>
				</linearGradient>
				<path class="st16" d="M29.6,42c-0.4,0-0.8-0.3-0.8-0.8v-7.2l-1.7,1.7c-0.3,0.3-0.8,0.3-1.1,0c-0.3-0.3-0.3-0.8,0-1.1l3-3
					c0.2-0.2,0.5-0.3,0.8-0.2s0.5,0.4,0.5,0.7v9C30.3,41.7,30,42,29.6,42z"/>
			</g>
			<g>
				<linearGradient id="SVGID_18_" gradientUnits="userSpaceOnUse" x1="46.8418" y1="18.7769" x2="51.3432" y2="18.7769">
					<stop  offset="0" style="stop-color:#01A360"/>
					<stop  offset="1" style="stop-color:#45B490"/>
				</linearGradient>
				<path class="st17" d="M50.6,24c-0.4,0-0.8-0.3-0.8-0.8v-7.2l-1.7,1.7c-0.3,0.3-0.8,0.3-1.1,0c-0.3-0.3-0.3-0.8,0-1.1l3-3
					c0.2-0.2,0.5-0.3,0.8-0.2c0.3,0.1,0.5,0.4,0.5,0.7v9C51.3,23.7,51,24,50.6,24z"/>
			</g>
			<g>
				<linearGradient id="SVGID_19_" gradientUnits="userSpaceOnUse" x1="55.8446" y1="18.7769" x2="60.3461" y2="18.7769">
					<stop  offset="0" style="stop-color:#01A360"/>
					<stop  offset="1" style="stop-color:#45B490"/>
				</linearGradient>
				<path class="st18" d="M59.6,24c-0.4,0-0.8-0.3-0.8-0.8v-7.2l-1.7,1.7c-0.3,0.3-0.8,0.3-1.1,0c-0.3-0.3-0.3-0.8,0-1.1l3-3
					c0.2-0.2,0.5-0.3,0.8-0.2c0.3,0.1,0.5,0.4,0.5,0.7v9C60.3,23.7,60,24,59.6,24z"/>
			</g>
			<g>
				<linearGradient id="SVGID_20_" gradientUnits="userSpaceOnUse" x1="76.8498" y1="18.7773" x2="81.3513" y2="18.7773">
					<stop  offset="0" style="stop-color:#01A360"/>
					<stop  offset="1" style="stop-color:#45B490"/>
				</linearGradient>
				<path class="st19" d="M80.6,24c-0.4,0-0.8-0.3-0.8-0.8v-7.2l-1.7,1.7c-0.3,0.3-0.8,0.3-1.1,0s-0.3-0.8,0-1.1l3-3
					c0.2-0.2,0.5-0.3,0.8-0.2c0.3,0.1,0.5,0.4,0.5,0.7v9C81.4,23.7,81,24,80.6,24z"/>
			</g>
			<g>
				<linearGradient id="SVGID_21_" gradientUnits="userSpaceOnUse" x1="76.8498" y1="36.7831" x2="81.3513" y2="36.7831">
					<stop  offset="0" style="stop-color:#01A360"/>
					<stop  offset="1" style="stop-color:#45B490"/>
				</linearGradient>
				<path class="st20" d="M80.6,42c-0.4,0-0.8-0.3-0.8-0.8v-7.2l-1.7,1.7c-0.3,0.3-0.8,0.3-1.1,0c-0.3-0.3-0.3-0.8,0-1.1l3-3
					c0.2-0.2,0.5-0.3,0.8-0.2c0.3,0.1,0.5,0.4,0.5,0.7v9C81.4,41.7,81,42,80.6,42z"/>
			</g>
			<g>
				<linearGradient id="SVGID_22_" gradientUnits="userSpaceOnUse" x1="4.8284" y1="18.7765" x2="12.3308" y2="18.7765">
					<stop  offset="0" style="stop-color:#01A360"/>
					<stop  offset="1" style="stop-color:#45B490"/>
				</linearGradient>
				<path class="st21" d="M8.6,24c-3,0-3.8-3.4-3.8-5.3s0.8-5.3,3.8-5.3s3.8,3.4,3.8,5.3S11.5,24,8.6,24z M8.6,15
					c-2.2,0-2.3,3.7-2.3,3.8c0,0,0,3.7,2.3,3.7s2.3-3.7,2.3-3.8C10.8,18.7,10.8,15,8.6,15z"/>
			</g>
			<g>
				<linearGradient id="SVGID_23_" gradientUnits="userSpaceOnUse" x1="4.8284" y1="36.7823" x2="12.3308" y2="36.7823">
					<stop  offset="0" style="stop-color:#01A360"/>
					<stop  offset="1" style="stop-color:#45B490"/>
				</linearGradient>
				<path class="st22" d="M8.6,42c-3,0-3.8-3.4-3.8-5.3c0-1.8,0.8-5.3,3.8-5.3s3.8,3.4,3.8,5.3C12.3,38.6,11.5,42,8.6,42z M8.6,33
					c-2.2,0-2.3,3.7-2.3,3.8c0,0,0,3.7,2.3,3.7s2.3-3.7,2.3-3.8C10.8,36.7,10.8,33,8.6,33z"/>
			</g>
			<g>
				<linearGradient id="SVGID_24_" gradientUnits="userSpaceOnUse" x1="34.8379" y1="36.7823" x2="42.3403" y2="36.7823">
					<stop  offset="0" style="stop-color:#01A360"/>
					<stop  offset="1" style="stop-color:#45B490"/>
				</linearGradient>
				<path class="st23" d="M38.6,42c-3,0-3.8-3.4-3.8-5.3c0-1.8,0.8-5.3,3.8-5.3c3,0,3.8,3.4,3.8,5.3C42.3,38.6,41.6,42,38.6,42z
					 M38.6,33c-2.2,0-2.3,3.7-2.3,3.8c0,0,0,3.7,2.3,3.7c2.2,0,2.3-3.7,2.3-3.8C40.8,36.7,40.8,33,38.6,33z"/>
			</g>
			<g>
				<linearGradient id="SVGID_25_" gradientUnits="userSpaceOnUse" x1="16.8322" y1="54.7888" x2="21.3336" y2="54.7888">
					<stop  offset="0" style="stop-color:#01A360"/>
					<stop  offset="1" style="stop-color:#45B490"/>
				</linearGradient>
				<path class="st24" d="M20.6,60c-0.4,0-0.8-0.3-0.8-0.8v-7.2l-1.7,1.7c-0.3,0.3-0.8,0.3-1.1,0c-0.3-0.3-0.3-0.8,0-1.1l3-3
					c0.2-0.2,0.5-0.3,0.8-0.2c0.3,0.1,0.5,0.4,0.5,0.7v9C21.3,59.7,21,60,20.6,60z"/>
			</g>
			<g>
				<linearGradient id="SVGID_26_" gradientUnits="userSpaceOnUse" x1="4.8284" y1="72.7948" x2="9.3298" y2="72.7948">
					<stop  offset="0" style="stop-color:#01A360"/>
					<stop  offset="1" style="stop-color:#45B490"/>
				</linearGradient>
				<path class="st25" d="M8.6,78c-0.4,0-0.8-0.3-0.8-0.8v-7.2l-1.7,1.7c-0.3,0.3-0.8,0.3-1.1,0c-0.3-0.3-0.3-0.8,0-1.1l3-3
					c0.2-0.2,0.5-0.3,0.8-0.2c0.3,0.1,0.5,0.4,0.5,0.7v9C9.3,77.7,9,78,8.6,78z"/>
			</g>
			<g>
				<linearGradient id="SVGID_27_" gradientUnits="userSpaceOnUse" x1="36.3384" y1="72.7948" x2="40.8398" y2="72.7948">
					<stop  offset="0" style="stop-color:#01A360"/>
					<stop  offset="1" style="stop-color:#45B490"/>
				</linearGradient>
				<path class="st26" d="M40.1,78c-0.4,0-0.8-0.3-0.8-0.8v-7.2l-1.7,1.7c-0.3,0.3-0.8,0.3-1.1,0c-0.3-0.3-0.3-0.8,0-1.1l3-3
					c0.2-0.2,0.5-0.3,0.8-0.2c0.3,0.1,0.5,0.4,0.5,0.7v9C40.8,77.7,40.5,78,40.1,78z"/>
			</g>
			<g>
				<linearGradient id="SVGID_28_" gradientUnits="userSpaceOnUse" x1="25.8351" y1="54.7888" x2="30.3365" y2="54.7888">
					<stop  offset="0" style="stop-color:#01A360"/>
					<stop  offset="1" style="stop-color:#45B490"/>
				</linearGradient>
				<path class="st27" d="M29.6,60c-0.4,0-0.8-0.3-0.8-0.8v-7.2l-1.7,1.7c-0.3,0.3-0.8,0.3-1.1,0c-0.3-0.3-0.3-0.8,0-1.1l3-3
					c0.2-0.2,0.5-0.3,0.8-0.2c0.3,0.1,0.5,0.4,0.5,0.7v9C30.3,59.7,30,60,29.6,60z"/>
			</g>
			<g>
				<linearGradient id="SVGID_29_" gradientUnits="userSpaceOnUse" x1="4.8284" y1="54.788" x2="12.3308" y2="54.788">
					<stop  offset="0" style="stop-color:#01A360"/>
					<stop  offset="1" style="stop-color:#45B490"/>
				</linearGradient>
				<path class="st28" d="M8.6,60c-3,0-3.8-3.4-3.8-5.3s0.8-5.3,3.8-5.3s3.8,3.4,3.8,5.3S11.5,60,8.6,60z M8.6,51
					c-2.2,0-2.3,3.7-2.3,3.8c0,0,0,3.7,2.3,3.7s2.3-3.7,2.3-3.8C10.8,54.8,10.8,51,8.6,51z"/>
			</g>
			<g>
				<linearGradient id="SVGID_30_" gradientUnits="userSpaceOnUse" x1="34.8379" y1="54.788" x2="42.3403" y2="54.788">
					<stop  offset="0" style="stop-color:#01A360"/>
					<stop  offset="1" style="stop-color:#45B490"/>
				</linearGradient>
				<path class="st29" d="M38.6,60c-3,0-3.8-3.4-3.8-5.3s0.8-5.3,3.8-5.3c3,0,3.8,3.4,3.8,5.3S41.6,60,38.6,60z M38.6,51
					c-2.2,0-2.3,3.7-2.3,3.8c0,0,0,3.7,2.3,3.7c2.2,0,2.3-3.7,2.3-3.8C40.8,54.8,40.8,51,38.6,51z"/>
			</g>
			<g>
				<linearGradient id="SVGID_31_" gradientUnits="userSpaceOnUse" x1="79.8508" y1="129.8133" x2="84.3522" y2="129.8133">
					<stop  offset="0" style="stop-color:#01A360"/>
					<stop  offset="1" style="stop-color:#45B490"/>
				</linearGradient>
				<path class="st30" d="M83.6,135.1c-0.4,0-0.8-0.3-0.8-0.8v-7.2l-1.7,1.7c-0.3,0.3-0.8,0.3-1.1,0c-0.3-0.3-0.3-0.8,0-1.1l3-3
					c0.2-0.2,0.5-0.3,0.8-0.2c0.3,0.1,0.5,0.4,0.5,0.7v9C84.4,134.7,84,135.1,83.6,135.1z"/>
			</g>
			<g>
				<linearGradient id="SVGID_32_" gradientUnits="userSpaceOnUse" x1="88.8537" y1="129.8133" x2="93.3551" y2="129.8133">
					<stop  offset="0" style="stop-color:#01A360"/>
					<stop  offset="1" style="stop-color:#45B490"/>
				</linearGradient>
				<path class="st31" d="M92.6,135.1c-0.4,0-0.8-0.3-0.8-0.8v-7.2l-1.7,1.7c-0.3,0.3-0.8,0.3-1.1,0c-0.3-0.3-0.3-0.8,0-1.1l3-3
					c0.2-0.2,0.5-0.3,0.8-0.2c0.3,0.1,0.5,0.4,0.5,0.7v9C93.4,134.7,93,135.1,92.6,135.1z"/>
			</g>
			<g>
				<linearGradient id="SVGID_33_" gradientUnits="userSpaceOnUse" x1="67.8484" y1="129.8133" x2="75.3508" y2="129.8133">
					<stop  offset="0" style="stop-color:#01A360"/>
					<stop  offset="1" style="stop-color:#45B490"/>
				</linearGradient>
				<path class="st32" d="M71.6,135.1c-3,0-3.8-3.4-3.8-5.3s0.8-5.3,3.8-5.3s3.8,3.4,3.8,5.3S74.6,135.1,71.6,135.1z M71.6,126.1
					c-2.2,0-2.3,3.7-2.3,3.8s0,3.8,2.3,3.8s2.3-3.7,2.3-3.8S73.8,126.1,71.6,126.1z"/>
			</g>
			<g>
				<linearGradient id="SVGID_34_" gradientUnits="userSpaceOnUse" x1="97.8565" y1="129.8133" x2="105.3589" y2="129.8133">
					<stop  offset="0" style="stop-color:#01A360"/>
					<stop  offset="1" style="stop-color:#45B490"/>
				</linearGradient>
				<path class="st33" d="M101.6,135.1c-3,0-3.8-3.4-3.8-5.3s0.8-5.3,3.8-5.3c3,0,3.8,3.4,3.8,5.3S104.6,135.1,101.6,135.1z
					 M101.6,126.1c-2.2,0-2.3,3.7-2.3,3.8s0,3.8,2.3,3.8c2.2,0,2.3-3.7,2.3-3.8S103.8,126.1,101.6,126.1z"/>
			</g>
			<g>
				<linearGradient id="SVGID_35_" gradientUnits="userSpaceOnUse" x1="118.8632" y1="75.7952" x2="123.3646" y2="75.7952">
					<stop  offset="0" style="stop-color:#01A360"/>
					<stop  offset="1" style="stop-color:#45B490"/>
				</linearGradient>
				<path class="st34" d="M122.6,81c-0.4,0-0.8-0.3-0.8-0.8v-7.2l-1.7,1.7c-0.3,0.3-0.8,0.3-1.1,0c-0.3-0.3-0.3-0.8,0-1.1l3-3
					c0.2-0.2,0.5-0.3,0.8-0.2c0.3,0.1,0.5,0.4,0.5,0.7v9C123.4,80.7,123,81,122.6,81z"/>
			</g>
			<g>
				<linearGradient id="SVGID_36_" gradientUnits="userSpaceOnUse" x1="127.8661" y1="75.7952" x2="132.3675" y2="75.7952">
					<stop  offset="0" style="stop-color:#01A360"/>
					<stop  offset="1" style="stop-color:#45B490"/>
				</linearGradient>
				<path class="st35" d="M131.6,81c-0.4,0-0.8-0.3-0.8-0.8v-7.2l-1.7,1.7c-0.3,0.3-0.8,0.3-1.1,0c-0.3-0.3-0.3-0.8,0-1.1l3-3
					c0.2-0.2,0.5-0.3,0.8-0.2c0.3,0.1,0.5,0.4,0.5,0.7v9C132.4,80.7,132,81,131.6,81z"/>
			</g>
			<g>
				<linearGradient id="SVGID_37_" gradientUnits="userSpaceOnUse" x1="108.3599" y1="75.7954" x2="115.8623" y2="75.7954">
					<stop  offset="0" style="stop-color:#01A360"/>
					<stop  offset="1" style="stop-color:#45B490"/>
				</linearGradient>
				<path class="st36" d="M112.1,81c-3,0-3.8-3.4-3.8-5.3s0.8-5.3,3.8-5.3c3,0,3.8,3.4,3.8,5.3S115.1,81,112.1,81z M112.1,72
					c-2.2,0-2.3,3.7-2.3,3.8c0,0,0,3.8,2.3,3.8c2.2,0,2.3-3.7,2.3-3.8C114.4,75.8,114.3,72,112.1,72z"/>
			</g>
			<g>
				<linearGradient id="SVGID_38_" gradientUnits="userSpaceOnUse" x1="136.8689" y1="75.7954" x2="144.3713" y2="75.7954">
					<stop  offset="0" style="stop-color:#01A360"/>
					<stop  offset="1" style="stop-color:#45B490"/>
				</linearGradient>
				<path class="st37" d="M140.6,81c-3,0-3.8-3.4-3.8-5.3s0.8-5.3,3.8-5.3s3.8,3.4,3.8,5.3S143.6,81,140.6,81z M140.6,72
					c-2.2,0-2.3,3.7-2.3,3.8c0,0,0,3.8,2.3,3.8s2.3-3.7,2.3-3.8C142.9,75.8,142.8,72,140.6,72z"/>
			</g>
			<g>
				<linearGradient id="SVGID_39_" gradientUnits="userSpaceOnUse" x1="79.8508" y1="111.8075" x2="84.3522" y2="111.8075">
					<stop  offset="0" style="stop-color:#01A360"/>
					<stop  offset="1" style="stop-color:#45B490"/>
				</linearGradient>
				<path class="st38" d="M83.6,117.1c-0.4,0-0.8-0.3-0.8-0.8v-7.2l-1.7,1.7c-0.3,0.3-0.8,0.3-1.1,0s-0.3-0.8,0-1.1l3-3
					c0.2-0.2,0.5-0.3,0.8-0.2c0.3,0.1,0.5,0.4,0.5,0.7v9C84.4,116.7,84,117.1,83.6,117.1z"/>
			</g>
			<g>
				<linearGradient id="SVGID_40_" gradientUnits="userSpaceOnUse" x1="88.8537" y1="111.8075" x2="93.3551" y2="111.8075">
					<stop  offset="0" style="stop-color:#01A360"/>
					<stop  offset="1" style="stop-color:#45B490"/>
				</linearGradient>
				<path class="st39" d="M92.6,117.1c-0.4,0-0.8-0.3-0.8-0.8v-7.2l-1.7,1.7c-0.3,0.3-0.8,0.3-1.1,0s-0.3-0.8,0-1.1l3-3
					c0.2-0.2,0.5-0.3,0.8-0.2c0.3,0.1,0.5,0.4,0.5,0.7v9C93.4,116.7,93,117.1,92.6,117.1z"/>
			</g>
			<g>
				<linearGradient id="SVGID_41_" gradientUnits="userSpaceOnUse" x1="67.8484" y1="111.8076" x2="75.3508" y2="111.8076">
					<stop  offset="0" style="stop-color:#01A360"/>
					<stop  offset="1" style="stop-color:#45B490"/>
				</linearGradient>
				<path class="st40" d="M71.6,117.1c-3,0-3.8-3.4-3.8-5.3c0-1.8,0.8-5.3,3.8-5.3s3.8,3.4,3.8,5.3
					C75.4,113.6,74.6,117.1,71.6,117.1z M71.6,108.1c-2.2,0-2.3,3.7-2.3,3.8c0,0,0,3.8,2.3,3.8s2.3-3.7,2.3-3.8
					C73.9,111.8,73.8,108.1,71.6,108.1z"/>
			</g>
			<g>
				<linearGradient id="SVGID_42_" gradientUnits="userSpaceOnUse" x1="97.8565" y1="111.8076" x2="105.3589" y2="111.8076">
					<stop  offset="0" style="stop-color:#01A360"/>
					<stop  offset="1" style="stop-color:#45B490"/>
				</linearGradient>
				<path class="st41" d="M101.6,117.1c-3,0-3.8-3.4-3.8-5.3c0-1.8,0.8-5.3,3.8-5.3c3,0,3.8,3.4,3.8,5.3
					C105.4,113.6,104.6,117.1,101.6,117.1z M101.6,108.1c-2.2,0-2.3,3.7-2.3,3.8c0,0,0,3.8,2.3,3.8c2.2,0,2.3-3.7,2.3-3.8
					C103.9,111.8,103.8,108.1,101.6,108.1z"/>
			</g>
			<g>
				<linearGradient id="SVGID_43_" gradientUnits="userSpaceOnUse" x1="13.8312" y1="72.7945" x2="21.3336" y2="72.7945">
					<stop  offset="0" style="stop-color:#01A360"/>
					<stop  offset="1" style="stop-color:#45B490"/>
				</linearGradient>
				<path class="st42" d="M17.6,78c-3,0-3.8-3.4-3.8-5.3s0.8-5.3,3.8-5.3s3.8,3.4,3.8,5.3S20.5,78,17.6,78z M17.6,69
					c-2.2,0-2.3,3.7-2.3,3.8c0,0,0,3.7,2.3,3.7s2.3-3.7,2.3-3.8C19.8,72.8,19.8,69,17.6,69z"/>
			</g>
			<g>
				<linearGradient id="SVGID_44_" gradientUnits="userSpaceOnUse" x1="24.3346" y1="72.7945" x2="31.837" y2="72.7945">
					<stop  offset="0" style="stop-color:#01A360"/>
					<stop  offset="1" style="stop-color:#45B490"/>
				</linearGradient>
				<path class="st43" d="M28.1,78c-3,0-3.8-3.4-3.8-5.3s0.8-5.3,3.8-5.3s3.8,3.4,3.8,5.3S31.1,78,28.1,78z M28.1,69
					c-2.2,0-2.3,3.7-2.3,3.8c0,0,0,3.7,2.3,3.7s2.3-3.7,2.3-3.8C30.3,72.8,30.3,69,28.1,69z"/>
			</g>
			<g>
				<linearGradient id="SVGID_45_" gradientUnits="userSpaceOnUse" x1="109.8603" y1="129.8133" x2="114.3618" y2="129.8133">
					<stop  offset="0" style="stop-color:#01A360"/>
					<stop  offset="1" style="stop-color:#45B490"/>
				</linearGradient>
				<path class="st44" d="M113.6,135.1c-0.4,0-0.8-0.3-0.8-0.8v-7.2l-1.7,1.7c-0.3,0.3-0.8,0.3-1.1,0c-0.3-0.3-0.3-0.8,0-1.1l3-3
					c0.2-0.2,0.5-0.3,0.8-0.2c0.3,0.1,0.5,0.4,0.5,0.7v9C114.4,134.7,114,135.1,113.6,135.1z"/>
			</g>
			<g>
				<linearGradient id="SVGID_46_" gradientUnits="userSpaceOnUse" x1="139.8699" y1="129.8133" x2="144.3713" y2="129.8133">
					<stop  offset="0" style="stop-color:#01A360"/>
					<stop  offset="1" style="stop-color:#45B490"/>
				</linearGradient>
				<path class="st45" d="M143.6,135.1c-0.4,0-0.8-0.3-0.8-0.8v-7.2l-1.7,1.7c-0.3,0.3-0.8,0.3-1.1,0c-0.3-0.3-0.3-0.8,0-1.1l3-3
					c0.2-0.2,0.5-0.3,0.8-0.2c0.3,0.1,0.5,0.4,0.5,0.7v9C144.4,134.7,144,135.1,143.6,135.1z"/>
			</g>
			<g>
				<linearGradient id="SVGID_47_" gradientUnits="userSpaceOnUse" x1="118.8632" y1="129.8133" x2="126.3656" y2="129.8133">
					<stop  offset="0" style="stop-color:#01A360"/>
					<stop  offset="1" style="stop-color:#45B490"/>
				</linearGradient>
				<path class="st46" d="M122.6,135.1c-3,0-3.8-3.4-3.8-5.3s0.8-5.3,3.8-5.3s3.8,3.4,3.8,5.3S125.6,135.1,122.6,135.1z
					 M122.6,126.1c-2.2,0-2.3,3.7-2.3,3.8s0,3.8,2.3,3.8s2.3-3.7,2.3-3.8S124.8,126.1,122.6,126.1z"/>
			</g>
			<g>
				<linearGradient id="SVGID_48_" gradientUnits="userSpaceOnUse" x1="129.3665" y1="129.8133" x2="136.8689" y2="129.8133">
					<stop  offset="0" style="stop-color:#01A360"/>
					<stop  offset="1" style="stop-color:#45B490"/>
				</linearGradient>
				<path class="st47" d="M133.1,135.1c-3,0-3.8-3.4-3.8-5.3s0.8-5.3,3.8-5.3c3,0,3.8,3.4,3.8,5.3S136.1,135.1,133.1,135.1z
					 M133.1,126.1c-2.2,0-2.3,3.7-2.3,3.8s0,3.8,2.3,3.8c2.2,0,2.3-3.7,2.3-3.8S135.3,126.1,133.1,126.1z"/>
			</g>
			<g>
				<linearGradient id="SVGID_49_" gradientUnits="userSpaceOnUse" x1="45.3413" y1="36.7823" x2="52.8437" y2="36.7823">
					<stop  offset="0" style="stop-color:#01A360"/>
					<stop  offset="1" style="stop-color:#45B490"/>
				</linearGradient>
				<path class="st48" d="M49.1,42c-3,0-3.8-3.4-3.8-5.3c0-1.8,0.8-5.3,3.8-5.3s3.8,3.4,3.8,5.3C52.8,38.6,52.1,42,49.1,42z
					 M49.1,33c-2.2,0-2.3,3.7-2.3,3.8c0,0,0,3.7,2.3,3.7s2.3-3.7,2.3-3.8C51.3,36.7,51.3,33,49.1,33z"/>
			</g>
			<g>
				<linearGradient id="SVGID_50_" gradientUnits="userSpaceOnUse" x1="55.8446" y1="36.7823" x2="63.347" y2="36.7823">
					<stop  offset="0" style="stop-color:#01A360"/>
					<stop  offset="1" style="stop-color:#45B490"/>
				</linearGradient>
				<path class="st49" d="M59.6,42c-3,0-3.8-3.4-3.8-5.3c0-1.8,0.8-5.3,3.8-5.3c3,0,3.8,3.4,3.8,5.3C63.3,38.6,62.6,42,59.6,42z
					 M59.6,33c-2.2,0-2.3,3.7-2.3,3.8c0,0,0,3.7,2.3,3.7c2.2,0,2.3-3.7,2.3-3.8C61.8,36.7,61.8,33,59.6,33z"/>
			</g>
			<g>
				<linearGradient id="SVGID_51_" gradientUnits="userSpaceOnUse" x1="66.348" y1="36.7823" x2="73.8503" y2="36.7823">
					<stop  offset="0" style="stop-color:#01A360"/>
					<stop  offset="1" style="stop-color:#45B490"/>
				</linearGradient>
				<path class="st50" d="M70.1,42c-3,0-3.8-3.4-3.8-5.3c0-1.8,0.8-5.3,3.8-5.3s3.8,3.4,3.8,5.3C73.9,38.6,73.1,42,70.1,42z
					 M70.1,33c-2.2,0-2.3,3.7-2.3,3.8c0,0,0,3.7,2.3,3.7c2.2,0,2.3-3.7,2.3-3.8C72.3,36.7,72.3,33,70.1,33z"/>
			</g>
			<g>
				<linearGradient id="SVGID_52_" gradientUnits="userSpaceOnUse" x1="34.8379" y1="18.7765" x2="42.3403" y2="18.7765">
					<stop  offset="0" style="stop-color:#01A360"/>
					<stop  offset="1" style="stop-color:#45B490"/>
				</linearGradient>
				<path class="st51" d="M38.6,24c-3,0-3.8-3.4-3.8-5.3s0.8-5.3,3.8-5.3c3,0,3.8,3.4,3.8,5.3S41.6,24,38.6,24z M38.6,15
					c-2.2,0-2.3,3.7-2.3,3.8c0,0,0,3.7,2.3,3.7c2.2,0,2.3-3.7,2.3-3.8C40.8,18.7,40.8,15,38.6,15z"/>
			</g>
			<g>
				<linearGradient id="SVGID_53_" gradientUnits="userSpaceOnUse" x1="64.8475" y1="18.7765" x2="72.3499" y2="18.7765">
					<stop  offset="0" style="stop-color:#01A360"/>
					<stop  offset="1" style="stop-color:#45B490"/>
				</linearGradient>
				<path class="st52" d="M68.6,24c-3,0-3.8-3.4-3.8-5.3s0.8-5.3,3.8-5.3c3,0,3.8,3.4,3.8,5.3S71.6,24,68.6,24z M68.6,15
					c-2.2,0-2.3,3.7-2.3,3.8c0,0,0,3.7,2.3,3.7c2.2,0,2.3-3.7,2.3-3.8C70.8,18.7,70.8,15,68.6,15z"/>
			</g>
			<g>
				<linearGradient id="SVGID_54_" gradientUnits="userSpaceOnUse" x1="109.8603" y1="93.8008" x2="114.3618" y2="93.8008">
					<stop  offset="0" style="stop-color:#01A360"/>
					<stop  offset="1" style="stop-color:#45B490"/>
				</linearGradient>
				<path class="st53" d="M113.6,99.1c-0.4,0-0.8-0.3-0.8-0.8v-7.2l-1.7,1.7c-0.3,0.3-0.8,0.3-1.1,0s-0.3-0.8,0-1.1l3-3
					c0.2-0.2,0.5-0.3,0.8-0.2c0.3,0.1,0.5,0.4,0.5,0.7v9C114.4,98.7,114,99.1,113.6,99.1z"/>
			</g>
			<g>
				<linearGradient id="SVGID_55_" gradientUnits="userSpaceOnUse" x1="130.867" y1="93.8008" x2="135.3685" y2="93.8008">
					<stop  offset="0" style="stop-color:#01A360"/>
					<stop  offset="1" style="stop-color:#45B490"/>
				</linearGradient>
				<path class="st54" d="M134.6,99.1c-0.4,0-0.8-0.3-0.8-0.8v-7.2l-1.7,1.7c-0.3,0.3-0.8,0.3-1.1,0s-0.3-0.8,0-1.1l3-3
					c0.2-0.2,0.5-0.3,0.8-0.2c0.3,0.1,0.5,0.4,0.5,0.7v9C135.4,98.7,135,99.1,134.6,99.1z"/>
			</g>
			<g>
				<linearGradient id="SVGID_56_" gradientUnits="userSpaceOnUse" x1="139.8699" y1="93.8008" x2="144.3713" y2="93.8008">
					<stop  offset="0" style="stop-color:#01A360"/>
					<stop  offset="1" style="stop-color:#45B490"/>
				</linearGradient>
				<path class="st55" d="M143.6,99.1c-0.4,0-0.8-0.3-0.8-0.8v-7.2l-1.7,1.7c-0.3,0.3-0.8,0.3-1.1,0s-0.3-0.8,0-1.1l3-3
					c0.2-0.2,0.5-0.3,0.8-0.2c0.3,0.1,0.5,0.4,0.5,0.7v9C144.4,98.7,144,99.1,143.6,99.1z"/>
			</g>
			<g>
				<linearGradient id="SVGID_57_" gradientUnits="userSpaceOnUse" x1="118.8632" y1="93.8019" x2="126.3656" y2="93.8019">
					<stop  offset="0" style="stop-color:#01A360"/>
					<stop  offset="1" style="stop-color:#45B490"/>
				</linearGradient>
				<path class="st56" d="M122.6,99.1c-3,0-3.8-3.4-3.8-5.3c0-1.8,0.8-5.3,3.8-5.3s3.8,3.4,3.8,5.3
					C126.4,95.6,125.6,99.1,122.6,99.1z M122.6,90.1c-2.2,0-2.3,3.7-2.3,3.8c0,0,0,3.8,2.3,3.8s2.3-3.7,2.3-3.8
					C124.9,93.8,124.8,90.1,122.6,90.1z"/>
			</g>
			<g>
				<linearGradient id="SVGID_58_" gradientUnits="userSpaceOnUse" x1="109.8603" y1="111.8075" x2="114.3618" y2="111.8075">
					<stop  offset="0" style="stop-color:#01A360"/>
					<stop  offset="1" style="stop-color:#45B490"/>
				</linearGradient>
				<path class="st57" d="M113.6,117.1c-0.4,0-0.8-0.3-0.8-0.8v-7.2l-1.7,1.7c-0.3,0.3-0.8,0.3-1.1,0s-0.3-0.8,0-1.1l3-3
					c0.2-0.2,0.5-0.3,0.8-0.2c0.3,0.1,0.5,0.4,0.5,0.7v9C114.4,116.7,114,117.1,113.6,117.1z"/>
			</g>
			<g>
				<linearGradient id="SVGID_59_" gradientUnits="userSpaceOnUse" x1="130.867" y1="111.8075" x2="135.3685" y2="111.8075">
					<stop  offset="0" style="stop-color:#01A360"/>
					<stop  offset="1" style="stop-color:#45B490"/>
				</linearGradient>
				<path class="st58" d="M134.6,117.1c-0.4,0-0.8-0.3-0.8-0.8v-7.2l-1.7,1.7c-0.3,0.3-0.8,0.3-1.1,0s-0.3-0.8,0-1.1l3-3
					c0.2-0.2,0.5-0.3,0.8-0.2c0.3,0.1,0.5,0.4,0.5,0.7v9C135.4,116.7,135,117.1,134.6,117.1z"/>
			</g>
			<g>
				<linearGradient id="SVGID_60_" gradientUnits="userSpaceOnUse" x1="139.8699" y1="111.8075" x2="144.3713" y2="111.8075">
					<stop  offset="0" style="stop-color:#01A360"/>
					<stop  offset="1" style="stop-color:#45B490"/>
				</linearGradient>
				<path class="st59" d="M143.6,117.1c-0.4,0-0.8-0.3-0.8-0.8v-7.2l-1.7,1.7c-0.3,0.3-0.8,0.3-1.1,0s-0.3-0.8,0-1.1l3-3
					c0.2-0.2,0.5-0.3,0.8-0.2c0.3,0.1,0.5,0.4,0.5,0.7v9C144.4,116.7,144,117.1,143.6,117.1z"/>
			</g>
			<g>
				<linearGradient id="SVGID_61_" gradientUnits="userSpaceOnUse" x1="118.8632" y1="111.8076" x2="126.3656" y2="111.8076">
					<stop  offset="0" style="stop-color:#01A360"/>
					<stop  offset="1" style="stop-color:#45B490"/>
				</linearGradient>
				<path class="st60" d="M122.6,117.1c-3,0-3.8-3.4-3.8-5.3c0-1.8,0.8-5.3,3.8-5.3s3.8,3.4,3.8,5.3
					C126.4,113.6,125.6,117.1,122.6,117.1z M122.6,108.1c-2.2,0-2.3,3.7-2.3,3.8c0,0,0,3.8,2.3,3.8s2.3-3.7,2.3-3.8
					C124.9,111.8,124.8,108.1,122.6,108.1z"/>
			</g>
		</g>
	</g>
</g>
<g id="Layer_2_1_" class="st61">
	<g id="Layer_2" class="st62">
		<rect x="49.6" y="49.4" class="st63" width="50" height="50"/>
	</g>
</g>
</svg>
