<?xml version="1.0" encoding="utf-8"?>
<!-- Generator: Adobe Illustrator 21.0.2, SVG Export Plug-In . SVG Version: 6.00 Build 0)  -->
<svg version="1.1" id="Layer_1" xmlns="http://www.w3.org/2000/svg" xmlns:xlink="http://www.w3.org/1999/xlink" x="0px" y="0px"
	 viewBox="0 0 49 49" style="enable-background:new 0 0 49 49;" xml:space="preserve">
<style type="text/css">
	.st0{fill:none;stroke:#0ba360;stroke-width:2;stroke-linecap:round;stroke-miterlimit:10;}
	.st1{fill:none;stroke:#0ba360;stroke-linecap:round;stroke-miterlimit:10;}
	.st2{fill:none;stroke:#0ba360;stroke-width:2;stroke-miterlimit:10;}
	.st3{fill:none;stroke:#000000;stroke-linecap:round;stroke-linejoin:round;stroke-miterlimit:10;}
</style>
<g id="Layer_1_1_">
	<path class="st0" d="M40.3,28.7h-32c-1.1,0-2-0.9-2-2v-16c0-1.1,0.9-2,2-2h32c1.1,0,2,0.9,2,2v16C42.3,27.8,41.4,28.7,40.3,28.7z"
		/>
	<path class="st1" d="M28.3,33.2h-8c-0.3,0-0.5-0.2-0.5-0.5l0,0c0-0.3,0.2-0.5,0.5-0.5h8c0.3,0,0.5,0.2,0.5,0.5l0,0
		C28.8,32.9,28.6,33.2,28.3,33.2z"/>
	<line class="st2" x1="24.3" y1="32.2" x2="24.3" y2="28.7"/>
	<path class="st3" d="M13.8,21.7c0,0,3.5,0,4.5,0c0,0,1-1,2,0c0.4,0,1.5,0,1.5,0c1,1,1,1,1,1l1-11l1,14l1-4c0,0,2.1,0,2,0
		c1.1-1,2-1,3,0c1,0,4,0,4,0"/>
	<g>
		<path d="M35.8,37.2h0.5H35.8z"/>
		<path d="M39.3,33.7h-30c-0.6,0-1,0.4-1,1v5c0,0.6,0.4,1,1,1h30c0.6,0,1-0.4,1-1v-5C40.3,34.1,39.9,33.7,39.3,33.7z M10.8,38.7
			c0,0.3-0.2,0.5-0.5,0.5S9.8,39,9.8,38.7v-3c0-0.3,0.2-0.5,0.5-0.5s0.5,0.2,0.5,0.5V38.7z M13.8,38.7c0,0.3-0.2,0.5-0.5,0.5
			s-0.5-0.2-0.5-0.5v-3c0-0.3,0.2-0.5,0.5-0.5s0.5,0.2,0.5,0.5V38.7z M35.8,38.2c-0.6,0-1-0.4-1-1s0.4-1,1-1s1,0.4,1,1
			S36.4,38.2,35.8,38.2z"/>
	</g>
</g>
</svg>
