<?xml version="1.0" encoding="utf-8"?>
<!-- Generator: Adobe Illustrator 21.0.2, SVG Export Plug-In . SVG Version: 6.00 Build 0)  -->
<svg version="1.1" id="Layer_1" xmlns="http://www.w3.org/2000/svg" xmlns:xlink="http://www.w3.org/1999/xlink" x="0px" y="0px"
	 viewBox="0 0 49 49" style="enable-background:new 0 0 49 49;" xml:space="preserve">
<style type="text/css">
	.st0{fill:url(#SVGID_1_);}
	.st1{fill:url(#SVGID_2_);}
</style>
<g>
	
		<linearGradient id="SVGID_1_" gradientUnits="userSpaceOnUse" x1="-0.8351" y1="40.1601" x2="48.2959" y2="11.7944" gradientTransform="matrix(1 0 0 -1 0 49.18)">
		<stop  offset="0" style="stop-color:#01A360"/>
		<stop  offset="1" style="stop-color:#45B490"/>
	</linearGradient>
	<path class="st0" d="M44.5,3.6h-40c-2.1,0-3.8,1.6-3.8,3.8v20c0,2.1,1.6,3.8,3.8,3.8h18.8v2.5h-3.8c-0.8,0-1.3,0.5-1.3,1.3
		c0,0.7,0.5,1.3,1.3,1.3H5.8c-0.8,0-1.3,0.5-1.3,1.3v6.3c0,0.7,0.5,1.3,1.3,1.3h37.5c0.8,0,1.3-0.5,1.3-1.3v-6.3
		c0-0.8-0.5-1.3-1.3-1.3H29.5c0.8,0,1.3-0.6,1.3-1.3c0-0.8-0.5-1.3-1.3-1.3h-3.8v-2.5h18.8c2.1,0,3.8-1.6,3.8-3.8v-20
		C48.3,5.2,46.6,3.6,44.5,3.6z M7.6,42.3C7.6,42.7,7.4,43,7,43c-0.4,0-0.6-0.3-0.6-0.6v-3.8C6.4,38.2,6.6,38,7,38
		c0.4,0,0.6,0.3,0.6,0.6V42.3z M11.4,42.3c0,0.4-0.2,0.6-0.6,0.6c-0.4,0-0.6-0.3-0.6-0.6v-3.8c0-0.4,0.3-0.6,0.6-0.6
		c0.4,0,0.6,0.3,0.6,0.6V42.3z M38.9,39.2c0.8,0,1.3,0.5,1.3,1.3c0,0.7-0.5,1.3-1.3,1.3s-1.3-0.5-1.3-1.3
		C37.6,39.7,38.1,39.2,38.9,39.2z M45.8,27.3c0,0.8-0.5,1.3-1.3,1.3h-40c-0.8,0-1.3-0.5-1.3-1.3v-20c0-0.8,0.5-1.3,1.3-1.3h40
		c0.8,0,1.3,0.5,1.3,1.3V27.3z"/>
	
		<linearGradient id="SVGID_2_" gradientUnits="userSpaceOnUse" x1="15.0753" y1="35.7646" x2="35.8456" y2="23.7728" gradientTransform="matrix(1 0 0 -1 0 49.18)">
		<stop  offset="0" style="stop-color:#01A360"/>
		<stop  offset="1" style="stop-color:#45B490"/>
	</linearGradient>
	<path class="st1" d="M37.6,20.5h-4.8c-1.4-1.3-2.8-1.3-4.2,0h-2.3c-0.3,0-0.5,0.3-0.6,0.5l-0.3,1.3l-1-13.6c0-0.4-0.3-0.6-0.6-0.6
		c-0.4,0-0.6,0.3-0.6,0.6L22.1,21l-0.3-0.3c-0.1-0.1-0.3-0.1-0.5-0.1h-1.6c-1.1-0.9-2.3-0.5-3,0h-5.4c-0.4,0-0.6,0.3-0.6,0.6
		c0,0.4,0.3,0.6,0.6,0.6H17c0.1,0,0.4-0.1,0.5-0.1c0.3-0.1,0.9-0.8,1.6,0c0.1,0.1,0.3,0.1,0.5,0.1h1.6l1.1,1.1
		c0.1,0.1,0.4,0.3,0.6,0.1c0.3-0.1,0.4-0.3,0.4-0.5l0.5-6.1l0.8,9.9c0,0.3,0.3,0.5,0.6,0.6l0,0c0.3,0,0.5-0.3,0.6-0.5L27,22h2l0,0
		c0.1,0,0.4-0.1,0.5-0.3c1.1-1,1.9-1,2.9,0c0.1,0.1,0.3,0.1,0.5,0.1h5c0.4,0,0.6-0.3,0.6-0.6C38.5,20.8,38,20.5,37.6,20.5z"/>
</g>
</svg>
