<?xml version="1.0" encoding="utf-8"?>
<!-- Generator: Adobe Illustrator 21.0.2, SVG Export Plug-In . SVG Version: 6.00 Build 0)  -->
<svg version="1.1" id="Layer_1" xmlns="http://www.w3.org/2000/svg" xmlns:xlink="http://www.w3.org/1999/xlink" x="0px" y="0px"
	 viewBox="0 0 49 49" style="enable-background:new 0 0 49 49;" xml:space="preserve">
<style type="text/css">
	.st0{fill:url(#SVGID_1_);}
	.st1{fill:url(#SVGID_2_);}
</style>
<g>
	<linearGradient id="SVGID_1_" gradientUnits="userSpaceOnUse" x1="4.0434" y1="12.0736" x2="43.3319" y2="34.7568">
		<stop  offset="0" style="stop-color:#01A360"/>
		<stop  offset="1" style="stop-color:#45B490"/>
	</linearGradient>
	<path class="st0" d="M40.3,7.7h-32c-1.7,0-3,1.3-3,3v16c0,1.7,1.3,3,3,3h15v2h-3c-0.6,0-1,0.4-1,1c0,0.6,0.4,1,1,1h-11
		c-0.6,0-1,0.4-1,1v5c0,0.6,0.4,1,1,1h30c0.6,0,1-0.4,1-1v-5c0-0.6-0.4-1-1-1h-11c0.6,0,1-0.5,1-1c0-0.6-0.4-1-1-1h-3v-2h15
		c1.7,0,3-1.3,3-3v-16C43.3,9,42,7.7,40.3,7.7z M10.8,38.7c0,0.3-0.2,0.5-0.5,0.5S9.8,39,9.8,38.7v-3c0-0.3,0.2-0.5,0.5-0.5
		s0.5,0.2,0.5,0.5V38.7z M13.8,38.7c0,0.3-0.2,0.5-0.5,0.5s-0.5-0.2-0.5-0.5v-3c0-0.3,0.2-0.5,0.5-0.5s0.5,0.2,0.5,0.5V38.7z
		 M35.8,36.2c0.6,0,1,0.4,1,1c0,0.6-0.4,1-1,1c-0.6,0-1-0.4-1-1C34.8,36.6,35.2,36.2,35.8,36.2z M41.3,26.7c0,0.6-0.4,1-1,1h-32
		c-0.6,0-1-0.4-1-1v-16c0-0.6,0.4-1,1-1h32c0.6,0,1,0.4,1,1V26.7z"/>
	<linearGradient id="SVGID_2_" gradientUnits="userSpaceOnUse" x1="16.7817" y1="15.5351" x2="33.398" y2="25.1285">
		<stop  offset="0" style="stop-color:#01A360"/>
		<stop  offset="1" style="stop-color:#45B490"/>
	</linearGradient>
	<path class="st1" d="M34.8,21.2H31c-1.1-1-2.2-1-3.4,0h-1.8c-0.2,0-0.4,0.2-0.5,0.4l-0.2,1l-0.8-10.9c0-0.3-0.2-0.5-0.5-0.5
		c-0.3,0-0.5,0.2-0.5,0.5l-0.9,9.9l-0.2-0.2c-0.1-0.1-0.2-0.1-0.4-0.1h-1.3c-0.9-0.7-1.8-0.4-2.4,0h-4.3c-0.3,0-0.5,0.2-0.5,0.5
		s0.2,0.5,0.5,0.5h4.5c0.1,0,0.3-0.1,0.4-0.1c0.2-0.1,0.7-0.6,1.3,0c0.1,0.1,0.2,0.1,0.4,0.1h1.3l0.9,0.9c0.1,0.1,0.3,0.2,0.5,0.1
		c0.2-0.1,0.3-0.2,0.3-0.4l0.4-4.9l0.6,7.9c0,0.2,0.2,0.4,0.5,0.5c0,0,0,0,0,0c0.2,0,0.4-0.2,0.5-0.4l0.9-3.6h1.6h0
		c0.1,0,0.3-0.1,0.4-0.2c0.9-0.8,1.5-0.8,2.3,0c0.1,0.1,0.2,0.1,0.4,0.1h4c0.3,0,0.5-0.2,0.5-0.5S35.1,21.2,34.8,21.2z"/>
</g>
</svg>
