<?xml version="1.0" encoding="utf-8"?>
<!-- Generator: Adobe Illustrator 21.0.2, SVG Export Plug-In . SVG Version: 6.00 Build 0)  -->
<svg version="1.1" id="Layer_1" xmlns="http://www.w3.org/2000/svg" xmlns:xlink="http://www.w3.org/1999/xlink" x="0px" y="0px"
	 viewBox="0 0 48 48" style="enable-background:new 0 0 48 48;" xml:space="preserve">
<style type="text/css">
	.st0{fill:none;stroke:#0ba360;stroke-miterlimit:10;}
	.st1{fill:none;stroke:#0ba360;stroke-linecap:round;stroke-miterlimit:10;}
	.st2{fill:none;stroke:#0ba360;stroke-width:2;stroke-linecap:round;stroke-miterlimit:10;}
	.st3{fill:none;stroke:#0ba360;stroke-linecap:round;stroke-linejoin:round;stroke-miterlimit:10;}
	.st4{fill:none;stroke:#0ba360;stroke-width:2;stroke-miterlimit:10;}
	.st5{stroke:#0ba360;stroke-linecap:round;stroke-miterlimit:10;}
	.st6{fill:#FFFFFF;}
	.st7{stroke:#0ba360;stroke-linecap:round;stroke-linejoin:round;stroke-miterlimit:10;}
	.st8{fill:none;stroke:#FFFFFF;stroke-linecap:round;stroke-linejoin:round;stroke-miterlimit:10;}
	.st9{fill:none;stroke:#0ba360;stroke-width:0.5;stroke-miterlimit:10;}
	.st10{fill:none;}
	.st11{fill:none;stroke:#0ba360;stroke-width:0.5;stroke-linecap:round;stroke-linejoin:round;stroke-miterlimit:10;}
</style>
<g id="Layer_1_1_">
	<g>
		<path class="st0" d="M34.7,11.1L34,10.4L27.6,4l-0.7-0.7c-0.8-0.8-2.1-0.8-2.8,0c-0.8,0.8-0.8,2.1,0,2.8l0.7,0.7L3.2,28.4
			c-1.8,1.8-1.8,4.6,0,6.4s4.6,1.8,6.4,0l21.6-21.6l0.7,0.7c0.8,0.8,2.1,0.8,2.8,0C35.5,13.2,35.5,11.9,34.7,11.1z"/>
		<path d="M28,14.3c1-1.3-2,0.7-4-0.3c-1.3-0.6-2-2-4,0L4.3,29.5c-1.2,1.2-1.2,3.1,0,4.2s3.1,1.2,4.2,0C8.5,33.7,27,15.2,28,14.3z"
			/>
	</g>
	<path class="st0" d="M45.5,46.5h-43c-0.5,0-1-0.4-1-1v-3.1c0-0.5,0.4-1,1-1h43.1c0.5,0,1,0.4,1,1v3.1
		C46.5,46.1,46.1,46.5,45.5,46.5z"/>
	<path class="st3" d="M44.5,44.5c-18.1,0-41,0-41,0s0.9-1.1,3.9-0.8c5.1,0.8,7.7-0.6,10.5,0.1c3.8,1,9.1-1,12.6,0
		c5.6,1.4,11.5-0.1,11.5-0.1C43.7,43.5,44.5,43.5,44.5,44.5z"/>
	<path d="M35,23.8c0,4-2,4-2,7s5,3,5,0s-2-3-2-7C36,22.8,35,22.8,35,23.8z"/>
</g>
</svg>
