<?xml version="1.0" encoding="utf-8"?>
<!-- Generator: Adobe Illustrator 21.0.2, SVG Export Plug-In . SVG Version: 6.00 Build 0)  -->
<svg version="1.1" id="Layer_1" xmlns="http://www.w3.org/2000/svg" xmlns:xlink="http://www.w3.org/1999/xlink" x="0px" y="0px"
	 viewBox="0 0 48 48" style="enable-background:new 0 0 48 48;" xml:space="preserve">
<style type="text/css">
	.st0{fill:url(#SVGID_1_);}
	.st1{fill:url(#SVGID_2_);}
	.st2{fill:url(#SVGID_3_);}
	.st3{fill:url(#SVGID_4_);}
	.st4{fill:url(#SVGID_5_);}
</style>
<g id="Layer_1_1_">
	<g>
		<g>
			<linearGradient id="SVGID_1_" gradientUnits="userSpaceOnUse" x1="9.6143" y1="15.9649" x2="28.048" y2="26.6076">
				<stop  offset="0" style="stop-color:#01A360"/>
				<stop  offset="1" style="stop-color:#45B490"/>
			</linearGradient>
			<path class="st0" d="M6.4,36.6c-1.3,0-2.6-0.5-3.6-1.5c-1-1-1.5-2.2-1.5-3.6c0-1.3,0.5-2.6,1.5-3.6L24.1,6.8l-0.3-0.3
				c-0.5-0.4-0.7-1-0.7-1.6c0-0.7,0.2-1.4,0.7-1.9c0.4-0.4,1-0.7,1.6-0.7c0.7,0,1.4,0.2,1.9,0.7l7.8,7.8c0.5,0.5,0.8,1.2,0.7,1.9
				c0,0.7-0.3,1.2-0.8,1.7c-0.4,0.4-1,0.7-1.6,0.7c-0.7,0-1.4-0.2-1.9-0.7l-0.3-0.3L10,35.2C9,36.1,7.7,36.6,6.4,36.6z M25.5,3.2
				C25.4,3.2,25.4,3.2,25.5,3.2c-0.4,0-0.8,0.2-1,0.4C24.2,4,24,4.4,24,4.8c0,0.4,0.2,0.7,0.4,0.9l1.1,1.1l-22,22
				c-0.8,0.8-1.2,1.8-1.2,2.8c0,1.1,0.4,2.1,1.2,2.8c1.6,1.6,4.1,1.6,5.7,0l22-22l1.1,1.1c0.3,0.3,0.7,0.5,1.1,0.5
				c0.4,0,0.7-0.2,0.9-0.4c0.3-0.3,0.5-0.6,0.5-1c0-0.4-0.2-0.8-0.5-1.1l-7.8-7.8C26.3,3.4,25.9,3.2,25.5,3.2z"/>
		</g>
		<g>
			<linearGradient id="SVGID_2_" gradientUnits="userSpaceOnUse" x1="9.6456" y1="20.0265" x2="20.9487" y2="26.5523">
				<stop  offset="0" style="stop-color:#01A360"/>
				<stop  offset="1" style="stop-color:#45B490"/>
			</linearGradient>
			<path class="st1" d="M28,14.3c1-1.3-2,0.7-4-0.3c-1.3-0.6-2-2-4,0L4.3,29.5c-1.2,1.2-1.2,3.1,0,4.2s3.1,1.2,4.2,0
				C8.5,33.7,27,15.2,28,14.3z"/>
		</g>
	</g>
	<g>
		<linearGradient id="SVGID_3_" gradientUnits="userSpaceOnUse" x1="5.9176" y1="33.4815" x2="42.137" y2="54.3929">
			<stop  offset="0" style="stop-color:#01A360"/>
			<stop  offset="1" style="stop-color:#45B490"/>
		</linearGradient>
		<path class="st2" d="M45.5,47h-43C1.7,47,1,46.3,1,45.5v-3.1c0-0.8,0.7-1.5,1.5-1.5h43.1c0.8,0,1.5,0.7,1.5,1.5v3.1
			C47,46.4,46.3,47,45.5,47z M2.5,41.9c-0.3,0-0.5,0.3-0.5,0.5v3.1C2,45.8,2.3,46,2.5,46h43c0.4,0,0.6-0.3,0.6-0.6l0-3
			c0-0.3-0.3-0.5-0.5-0.5H2.5z"/>
	</g>
	<g>
		<linearGradient id="SVGID_4_" gradientUnits="userSpaceOnUse" x1="8.3109" y1="35.1676" x2="39.9269" y2="53.4211">
			<stop  offset="0" style="stop-color:#01A360"/>
			<stop  offset="1" style="stop-color:#45B490"/>
		</linearGradient>
		<path class="st3" d="M44.5,45h-41c-0.2,0-0.4-0.1-0.5-0.3C3,44.5,3,44.3,3.1,44.2c0.1-0.1,1.2-1.3,4.3-1c2.7,0.4,4.6,0.2,6.4,0.1
			c1.5-0.2,2.8-0.3,4.2,0.1c1.8,0.5,4.1,0.2,6.3,0c2.3-0.3,4.5-0.5,6.3,0c5.4,1.3,11.2-0.1,11.2-0.1c1.3-0.2,2.2-0.2,2.7,0.2
			c0.3,0.2,0.4,0.6,0.4,1C45,44.8,44.8,45,44.5,45z"/>
	</g>
	<g>
		<linearGradient id="SVGID_5_" gradientUnits="userSpaceOnUse" x1="33.0678" y1="26.846" x2="38.7486" y2="30.1258">
			<stop  offset="0" style="stop-color:#01A360"/>
			<stop  offset="1" style="stop-color:#45B490"/>
		</linearGradient>
		<path class="st4" d="M35,23.8c0,4-2,4-2,7s5,3,5,0s-2-3-2-7C36,22.8,35,22.8,35,23.8z"/>
	</g>
</g>
</svg>
