<?xml version="1.0" encoding="utf-8"?>
<!-- Generator: Adobe Illustrator 21.0.2, SVG Export Plug-In . SVG Version: 6.00 Build 0)  -->
<svg version="1.1" id="Layer_1" xmlns="http://www.w3.org/2000/svg" xmlns:xlink="http://www.w3.org/1999/xlink" x="0px" y="0px"
	 viewBox="0 0 48 48" style="enable-background:new 0 0 48 48;" xml:space="preserve">
<style type="text/css">
	.st0{fill:none;stroke:#0ba360;stroke-miterlimit:10;}
	.st1{fill:none;stroke:#0ba360;stroke-linecap:round;stroke-miterlimit:10;}
	.st2{fill:none;stroke:#0ba360;stroke-width:2;stroke-linecap:round;stroke-miterlimit:10;}
	.st3{fill:none;stroke:#0ba360;stroke-linecap:round;stroke-linejoin:round;stroke-miterlimit:10;}
	.st4{fill:none;stroke:#0ba360;stroke-width:2;stroke-miterlimit:10;}
	.st5{stroke:#0ba360;stroke-linecap:round;stroke-miterlimit:10;}
	.st6{fill:#FFFFFF;}
	.st7{stroke:#0ba360;stroke-linecap:round;stroke-linejoin:round;stroke-miterlimit:10;}
	.st8{fill:none;stroke:#FFFFFF;stroke-linecap:round;stroke-linejoin:round;stroke-miterlimit:10;}
	.st9{fill:none;stroke:#0ba360;stroke-width:0.5;stroke-miterlimit:10;}
	.st10{fill:none;}
	.st11{fill:none;stroke:#0ba360;stroke-width:0.5;stroke-linecap:round;stroke-linejoin:round;stroke-miterlimit:10;}
</style>
<g id="Layer_1_1_">
	<path class="st4" d="M21.3,11.8c-6.9,0-13,3.5-16.6,8.9c-0.5,0.7-0.5,1.6,0,2.3c3.6,5.3,9.7,8.9,16.6,8.9s13-3.5,16.6-8.9
		c0.5-0.7,0.5-1.6,0-2.3C34.2,15.3,28.2,11.8,21.3,11.8z"/>
	<path d="M21,18.8l-1.3-2.4c-0.1-0.2-0.4-0.3-0.6-0.2c-1.3,0.5-2.3,1.4-3,2.6c-0.2,0.3,0.1,0.8,0.4,0.8h4
		C20.9,19.5,21.2,19.1,21,18.8z"/>
	<path d="M23.7,20l1.4-2.3c0.1-0.2,0.1-0.5-0.1-0.6c-1.1-0.8-2.4-1.3-3.7-1.3c-0.4,0-0.6,0.4-0.4,0.8l2,3.5
		C23,20.4,23.5,20.4,23.7,20z"/>
	<path d="M24,23h2.7c0.2,0,0.5-0.2,0.5-0.4c0.2-1.3-0.1-2.7-0.8-3.9c-0.2-0.3-0.7-0.3-0.9,0l-2,3.5C23.4,22.6,23.6,23,24,23z"/>
	<path d="M21.6,24.7l1.3,2.4c0.1,0.2,0.4,0.3,0.6,0.2c1.3-0.5,2.3-1.4,3-2.6c0.2-0.3-0.1-0.8-0.4-0.8h-4
		C21.6,24,21.4,24.4,21.6,24.7z"/>
	<path d="M18.8,23.5l-1.4,2.3c-0.1,0.2-0.1,0.5,0.1,0.6c1.1,0.8,2.4,1.3,3.7,1.3c0.4,0,0.6-0.4,0.4-0.8l-2-3.5
		C19.5,23.2,19,23.2,18.8,23.5z"/>
	<path d="M18.5,20.5h-2.7c-0.2,0-0.5,0.2-0.5,0.4c-0.2,1.3,0.1,2.7,0.8,3.9c0.2,0.3,0.7,0.3,0.9,0l2-3.5
		C19.2,21,18.9,20.5,18.5,20.5z"/>
	<path d="M38.4,31.7c-1,1-1,2.6,0,3.5l1.8,1.8l3.5-3.5l-1.8-1.8C40.9,30.7,39.4,30.7,38.4,31.7z"/>
	<line class="st1" x1="40.1" y1="35.6" x2="41.6" y2="37"/>
	<line class="st1" x1="42.3" y1="33.5" x2="43.7" y2="34.9"/>
	<path class="st0" d="M40.5,33.8c0,0-0.7-0.7-2.1-2.1c-0.8-0.8-1.9-1.5-3.4-0.7c-2.5,1.4-5.1-0.7-5.1-0.7"/>
	<circle class="st0" cx="21.3" cy="21.8" r="7.5"/>
</g>
</svg>
