<?xml version="1.0" encoding="utf-8"?>
<!-- Generator: Adobe Illustrator 21.0.2, SVG Export Plug-In . SVG Version: 6.00 Build 0)  -->
<svg version="1.1" id="Layer_1" xmlns="http://www.w3.org/2000/svg" xmlns:xlink="http://www.w3.org/1999/xlink" x="0px" y="0px"
	 viewBox="0 0 48 48" style="enable-background:new 0 0 48 48;" xml:space="preserve">
<style type="text/css">
	.st0{fill:url(#SVGID_1_);}
	.st1{fill:url(#SVGID_2_);}
	.st2{fill:url(#SVGID_3_);}
	.st3{fill:url(#SVGID_4_);}
	.st4{fill:url(#SVGID_5_);}
	.st5{fill:url(#SVGID_6_);}
	.st6{fill:url(#SVGID_7_);}
	.st7{fill:url(#SVGID_8_);}
</style>
<g>
	<linearGradient id="SVGID_1_" gradientUnits="userSpaceOnUse" x1="17.1176" y1="16.7983" x2="21.2617" y2="19.1909">
		<stop  offset="0" style="stop-color:#01A360"/>
		<stop  offset="1" style="stop-color:#45B490"/>
	</linearGradient>
	<path class="st0" d="M16.6,19.2h4.3c0.4-0.1,0.8-0.5,0.5-0.9l-1.4-2.6c-0.1-0.2-0.4-0.3-0.6-0.2c-1.4,0.5-2.5,1.5-3.2,2.8
		C16,18.7,16.3,19.2,16.6,19.2z"/>
	<linearGradient id="SVGID_2_" gradientUnits="userSpaceOnUse" x1="20.9565" y1="16.0702" x2="25.1223" y2="18.4753">
		<stop  offset="0" style="stop-color:#01A360"/>
		<stop  offset="1" style="stop-color:#45B490"/>
	</linearGradient>
	<path class="st1" d="M23.5,19.8c0.1,0.3,0.6,0.3,0.9-0.1l1.5-2.5c0.1-0.2,0.1-0.5-0.1-0.6c-1.2-0.9-2.6-1.4-4-1.4
		c-0.4,0-0.6,0.4-0.4,0.9L23.5,19.8z"/>
	<linearGradient id="SVGID_3_" gradientUnits="userSpaceOnUse" x1="25.2018" y1="20.1533" x2="28.4093" y2="22.0051">
		<stop  offset="0" style="stop-color:#01A360"/>
		<stop  offset="1" style="stop-color:#45B490"/>
	</linearGradient>
	<path class="st2" d="M26.3,18.3L24.1,22c-0.1,0.4,0.1,0.9,0.5,0.9h2.9c0.2,0,0.5-0.2,0.5-0.4c0.2-1.4-0.1-2.9-0.9-4.2
		C27,18,26.5,18,26.3,18.3z"/>
	<linearGradient id="SVGID_4_" gradientUnits="userSpaceOnUse" x1="22.273" y1="23.8837" x2="26.446" y2="26.293">
		<stop  offset="0" style="stop-color:#01A360"/>
		<stop  offset="1" style="stop-color:#45B490"/>
	</linearGradient>
	<path class="st3" d="M26.9,23.9h-4.3c-0.5,0.1-0.8,0.5-0.5,0.9l1.4,2.6c0.1,0.2,0.4,0.3,0.6,0.2c1.4-0.5,2.5-1.5,3.2-2.8
		C27.6,24.4,27.3,23.9,26.9,23.9z"/>
	<linearGradient id="SVGID_5_" gradientUnits="userSpaceOnUse" x1="18.3224" y1="24.6362" x2="22.4882" y2="27.0413">
		<stop  offset="0" style="stop-color:#01A360"/>
		<stop  offset="1" style="stop-color:#45B490"/>
	</linearGradient>
	<path class="st4" d="M20,23.3c-0.1-0.2-0.6-0.2-0.9,0.1l-1.5,2.5c-0.1,0.2-0.1,0.5,0.1,0.6c1.2,0.9,2.6,1.4,4,1.4
		c0.4,0,0.6-0.4,0.4-0.9L20,23.3z"/>
	<linearGradient id="SVGID_6_" gradientUnits="userSpaceOnUse" x1="15.0458" y1="21.0883" x2="18.2533" y2="22.9402">
		<stop  offset="0" style="stop-color:#01A360"/>
		<stop  offset="1" style="stop-color:#45B490"/>
	</linearGradient>
	<path class="st5" d="M18.8,20.2h-2.9c-0.2,0-0.5,0.2-0.5,0.4c-0.2,1.4,0.1,2.9,0.9,4.2c0.2,0.3,0.8,0.3,1,0l2.1-3.8
		C19.5,20.7,19.2,20.2,18.8,20.2z"/>
	<linearGradient id="SVGID_7_" gradientUnits="userSpaceOnUse" x1="6.9627" y1="13.0823" x2="46.3331" y2="35.8128">
		<stop  offset="0" style="stop-color:#01A360"/>
		<stop  offset="1" style="stop-color:#45B490"/>
	</linearGradient>
	<path class="st6" d="M46.2,35.3l-0.8-0.8l0.4-0.4l-1.9-1.9c-0.9-0.9-2.3-1.1-3.3-0.3l0,0c-0.5-0.5-2-2-4.3-0.8
		c-1.4,0.8-3,0.4-3.9-0.1c3.2-1.7,6.1-4.2,8.1-7.4c0.8-1.1,0.8-2.6,0-3.7c-4.4-6.4-11.2-10-18.7-10c-7.5,0-14.5,3.7-18.7,10
		c-0.8,1.1-0.8,2.6,0,3.7c4.3,6.3,11.2,10,18.7,10c3.3,0,6.5-0.7,9.4-2c1,0.6,3.3,1.8,5.6,0.5c1.1-0.6,2-0.4,3,0.7l0,0
		c-0.7,1.1-0.6,2.5,0.3,3.3l1.9,1.9l0.3-0.3l0.8,0.7c0.1,0.1,0.2,0.1,0.4,0.1c0.1,0,0.3-0.1,0.4-0.2c0.2-0.2,0.2-0.6,0-0.8l-0.8-0.7
		l1.5-1.5l0.8,0.8c0.1,0.1,0.2,0.2,0.4,0.2s0.3-0.1,0.4-0.2C46.4,35.8,46.4,35.5,46.2,35.3z M4.9,22.3c-0.3-0.4-0.3-0.8,0-1.2
		c3.8-5.7,10.1-9.1,16.9-9.1c6.8,0,13,3.3,16.9,9.1c0.3,0.4,0.3,0.8,0,1.2c-3.8,5.7-10.1,9.1-16.9,9.1C15,31.4,8.7,28,4.9,22.3z"/>
	<linearGradient id="SVGID_8_" gradientUnits="userSpaceOnUse" x1="14.3521" y1="17.3096" x2="29.2111" y2="25.8885">
		<stop  offset="0" style="stop-color:#01A360"/>
		<stop  offset="1" style="stop-color:#45B490"/>
	</linearGradient>
	<path class="st7" d="M21.8,13c-4.7,0-8.6,3.8-8.6,8.6s3.8,8.6,8.6,8.6s8.6-3.8,8.6-8.6S26.5,13,21.8,13z M21.8,29.1
		c-4.1,0-7.5-3.4-7.5-7.5c0-4.1,3.4-7.5,7.5-7.5c4.1,0,7.5,3.4,7.5,7.5C29.3,25.7,25.9,29.1,21.8,29.1z"/>
</g>
</svg>
