<?xml version="1.0" encoding="utf-8"?>
<!-- Generator: Adobe Illustrator 21.0.2, SVG Export Plug-In . SVG Version: 6.00 Build 0)  -->
<svg version="1.1" id="Layer_1" xmlns="http://www.w3.org/2000/svg" xmlns:xlink="http://www.w3.org/1999/xlink" x="0px" y="0px"
	 viewBox="0 0 48 48" style="enable-background:new 0 0 48 48;" xml:space="preserve">
<style type="text/css">
	.st0{fill:url(#SVGID_1_);}
	.st1{fill:url(#SVGID_2_);}
	.st2{fill:url(#SVGID_3_);}
	.st3{fill:url(#SVGID_4_);}
	.st4{fill:url(#SVGID_5_);}
</style>
<g id="Layer_1_1_">
	<g>
		<g>
			
				<linearGradient id="SVGID_1_" gradientUnits="userSpaceOnUse" x1="9.8828" y1="33.6968" x2="27.9699" y2="23.2542" gradientTransform="matrix(1 0 0 -1 0 49.18)">
				<stop  offset="0" style="stop-color:#01A360"/>
				<stop  offset="1" style="stop-color:#45B490"/>
			</linearGradient>
			<path class="st0" d="M6.7,35.7c-1.3,0-2.6-0.5-3.5-1.5c-1-1-1.5-2.2-1.5-3.5c0-1.3,0.5-2.6,1.5-3.5L24.1,6.5l-0.3-0.3
				c-0.5-0.4-0.7-1-0.7-1.6c0-0.7,0.2-1.4,0.7-1.9c0.4-0.4,1-0.7,1.6-0.7c0.7,0,1.4,0.2,1.9,0.7l7.7,7.7c0.5,0.5,0.8,1.2,0.7,1.9
				c0,0.7-0.3,1.2-0.8,1.7c-0.4,0.4-1,0.7-1.6,0.7c-0.7,0-1.4-0.2-1.9-0.7l-0.3-0.3L10.3,34.4C9.3,35.2,8,35.7,6.7,35.7z M25.5,3
				C25.4,3,25.4,3,25.5,3c-0.4,0-0.8,0.2-1,0.4C24.2,3.7,24,4.1,24,4.5c0,0.4,0.2,0.7,0.4,0.9l1.1,1.1L3.9,28.1
				c-0.8,0.8-1.2,1.8-1.2,2.7c0,1.1,0.4,2.1,1.2,2.7c1.6,1.6,4,1.6,5.6,0L31.1,12l1.1,1.1c0.3,0.3,0.7,0.5,1.1,0.5
				c0.4,0,0.7-0.2,0.9-0.4c0.3-0.3,0.5-0.6,0.5-1c0-0.4-0.2-0.8-0.5-1.1l-7.7-7.7C26.3,3.1,25.9,3,25.5,3z"/>
		</g>
		<g>
			
				<linearGradient id="SVGID_2_" gradientUnits="userSpaceOnUse" x1="9.9164" y1="29.7166" x2="21.007" y2="23.3134" gradientTransform="matrix(1 0 0 -1 0 49.18)">
				<stop  offset="0" style="stop-color:#01A360"/>
				<stop  offset="1" style="stop-color:#45B490"/>
			</linearGradient>
			<path class="st1" d="M27.9,13.8c1-1.3-2,0.7-3.9-0.3c-1.3-0.6-2-2-3.9,0L4.7,28.8c-1.2,1.2-1.2,3,0,4.1s3,1.2,4.1,0
				C8.8,32.9,26.9,14.7,27.9,13.8z"/>
		</g>
	</g>
	<g>
		
			<linearGradient id="SVGID_3_" gradientUnits="userSpaceOnUse" x1="6.2679" y1="16.5094" x2="41.802" y2="-4.0063" gradientTransform="matrix(1 0 0 -1 0 49.18)">
			<stop  offset="0" style="stop-color:#01A360"/>
			<stop  offset="1" style="stop-color:#45B490"/>
		</linearGradient>
		<path class="st2" d="M45.1,45.9H2.9c-0.8,0-1.5-0.7-1.5-1.5v-3c0-0.8,0.7-1.5,1.5-1.5h42.3c0.8,0,1.5,0.7,1.5,1.5v3
			C46.6,45.3,45.9,45.9,45.1,45.9z M2.9,40.9c-0.3,0-0.5,0.3-0.5,0.5v3c0,0.3,0.3,0.5,0.5,0.5h42.2c0.4,0,0.6-0.3,0.6-0.6v-2.9
			c0-0.3-0.3-0.5-0.5-0.5H2.9z"/>
	</g>
	<g>
		
			<linearGradient id="SVGID_4_" gradientUnits="userSpaceOnUse" x1="8.5766" y1="14.8164" x2="39.5931" y2="-3.091" gradientTransform="matrix(1 0 0 -1 0 49.18)">
			<stop  offset="0" style="stop-color:#01A360"/>
			<stop  offset="1" style="stop-color:#45B490"/>
		</linearGradient>
		<path class="st3" d="M44.1,44H3.9c-0.2,0-0.4-0.1-0.5-0.3c0-0.2,0-0.4,0.1-0.5s1.2-1.3,4.2-1c2.6,0.4,4.5,0.2,6.3,0.1
			c1.5-0.2,2.7-0.3,4.1,0.1c1.8,0.5,4,0.2,6.2,0c2.3-0.3,4.4-0.5,6.2,0c5.3,1.3,11-0.1,11-0.1c1.3-0.2,2.2-0.2,2.6,0.2
			c0.3,0.2,0.4,0.6,0.4,1C44.6,43.8,44.4,44,44.1,44z"/>
	</g>
	<g>
		
			<linearGradient id="SVGID_5_" gradientUnits="userSpaceOnUse" x1="32.8983" y1="23.0253" x2="38.4722" y2="19.8072" gradientTransform="matrix(1 0 0 -1 0 49.18)">
			<stop  offset="0" style="stop-color:#01A360"/>
			<stop  offset="1" style="stop-color:#45B490"/>
		</linearGradient>
		<path class="st4" d="M34.8,23.2c0,3.9-2,3.9-2,6.9s4.9,2.9,4.9,0s-2-2.9-2-6.9C35.8,22.2,34.8,22.2,34.8,23.2z"/>
	</g>
</g>
</svg>
