<?xml version="1.0" encoding="utf-8"?>
<!-- Generator: Adobe Illustrator 21.0.2, SVG Export Plug-In . SVG Version: 6.00 Build 0)  -->
<svg version="1.1" id="Layer_1" xmlns="http://www.w3.org/2000/svg" xmlns:xlink="http://www.w3.org/1999/xlink" x="0px" y="0px"
	 viewBox="0 0 48 48" style="enable-background:new 0 0 48 48;" xml:space="preserve">
<style type="text/css">
	.st0{fill:url(#SVGID_1_);}
	.st1{fill:url(#SVGID_2_);}
	.st2{fill:url(#SVGID_3_);}
	.st3{fill:url(#SVGID_4_);}
	.st4{fill:url(#SVGID_5_);}
	.st5{fill:url(#SVGID_6_);}
	.st6{fill:url(#SVGID_7_);}
	.st7{fill:url(#SVGID_8_);}
</style>
<g>
	
		<linearGradient id="SVGID_1_" gradientUnits="userSpaceOnUse" x1="16.1633" y1="32.9744" x2="20.6192" y2="30.4017" gradientTransform="matrix(1 0 0 -1 0 49.18)">
		<stop  offset="0" style="stop-color:#01A360"/>
		<stop  offset="1" style="stop-color:#45B490"/>
	</linearGradient>
	<path class="st0" d="M15.6,18.8h4.6c0.4-0.1,0.9-0.5,0.5-1l-1.5-2.8c-0.1-0.2-0.4-0.3-0.6-0.2c-1.5,0.5-2.7,1.6-3.4,3
		C14.9,18.3,15.3,18.8,15.6,18.8z"/>
	
		<linearGradient id="SVGID_2_" gradientUnits="userSpaceOnUse" x1="20.2662" y1="33.7143" x2="24.7455" y2="31.1282" gradientTransform="matrix(1 0 0 -1 0 49.18)">
		<stop  offset="0" style="stop-color:#01A360"/>
		<stop  offset="1" style="stop-color:#45B490"/>
	</linearGradient>
	<path class="st1" d="M23,19.5c0.1,0.3,0.6,0.3,1-0.1l1.6-2.7c0.1-0.2,0.1-0.5-0.1-0.6c-1.3-1-2.8-1.5-4.3-1.5c-0.4,0-0.6,0.4-0.4,1
		L23,19.5z"/>
	
		<linearGradient id="SVGID_3_" gradientUnits="userSpaceOnUse" x1="24.806" y1="29.2806" x2="28.2549" y2="27.2894" gradientTransform="matrix(1 0 0 -1 0 49.18)">
		<stop  offset="0" style="stop-color:#01A360"/>
		<stop  offset="1" style="stop-color:#45B490"/>
	</linearGradient>
	<path class="st2" d="M26,17.9l-2.4,4c-0.1,0.4,0.1,1,0.5,1h3.1c0.2,0,0.5-0.2,0.5-0.4c0.2-1.5-0.1-3.1-1-4.5
		C26.8,17.5,26.2,17.5,26,17.9z"/>
	
		<linearGradient id="SVGID_4_" gradientUnits="userSpaceOnUse" x1="21.6508" y1="25.2591" x2="26.1379" y2="22.6685" gradientTransform="matrix(1 0 0 -1 0 49.18)">
		<stop  offset="0" style="stop-color:#01A360"/>
		<stop  offset="1" style="stop-color:#45B490"/>
	</linearGradient>
	<path class="st3" d="M26.7,23.9H22c-0.5,0.1-0.9,0.5-0.5,1l1.5,2.8c0.1,0.2,0.4,0.3,0.6,0.2c1.5-0.5,2.7-1.6,3.4-3
		C27.4,24.4,27.1,23.9,26.7,23.9z"/>
	
		<linearGradient id="SVGID_5_" gradientUnits="userSpaceOnUse" x1="17.451" y1="24.5333" x2="21.9304" y2="21.9472" gradientTransform="matrix(1 0 0 -1 0 49.18)">
		<stop  offset="0" style="stop-color:#01A360"/>
		<stop  offset="1" style="stop-color:#45B490"/>
	</linearGradient>
	<path class="st4" d="M19.2,23.2c-0.1-0.2-0.6-0.2-1,0.1L16.7,26c-0.1,0.2-0.1,0.5,0.1,0.6c1.3,1,2.8,1.5,4.3,1.5
		c0.4,0,0.6-0.4,0.4-1L19.2,23.2z"/>
	
		<linearGradient id="SVGID_6_" gradientUnits="userSpaceOnUse" x1="13.937" y1="28.3641" x2="17.3859" y2="26.3728" gradientTransform="matrix(1 0 0 -1 0 49.18)">
		<stop  offset="0" style="stop-color:#01A360"/>
		<stop  offset="1" style="stop-color:#45B490"/>
	</linearGradient>
	<path class="st5" d="M18,19.9h-3.1c-0.2,0-0.5,0.2-0.5,0.4c-0.2,1.5,0.1,3.1,1,4.5c0.2,0.3,0.9,0.3,1.1,0l2.3-4.1
		C18.7,20.4,18.4,19.9,18,19.9z"/>
	
		<linearGradient id="SVGID_7_" gradientUnits="userSpaceOnUse" x1="5.1803" y1="36.8594" x2="47.499" y2="12.4267" gradientTransform="matrix(1 0 0 -1 0 49.18)">
		<stop  offset="0" style="stop-color:#01A360"/>
		<stop  offset="1" style="stop-color:#45B490"/>
	</linearGradient>
	<path class="st6" d="M47.4,36.1l-0.9-0.9l0.4-0.4l-2-2c-1-1-2.5-1.2-3.5-0.3l0,0c-0.5-0.5-2.2-2.2-4.6-0.9
		c-1.5,0.9-3.2,0.4-4.2-0.1c3.4-1.8,6.6-4.5,8.7-8c0.9-1.2,0.9-2.8,0-4c-4.7-6.9-12-10.8-20.1-10.8s-15.6,4-20.1,10.8
		c-0.9,1.2-0.9,2.8,0,4c4.6,6.8,12,10.8,20.1,10.8c3.5,0,7-0.8,10.1-2.2c1.1,0.6,3.5,1.9,6,0.5c1.2-0.6,2.2-0.4,3.2,0.8l0,0
		c-0.8,1.2-0.6,2.7,0.3,3.5l2,2l0.3-0.3l0.9,0.8c0.1,0.1,0.2,0.1,0.4,0.1c0.1,0,0.3-0.1,0.4-0.2c0.2-0.2,0.2-0.6,0-0.9l-0.9-0.8
		l1.6-1.6l0.9,0.9c0.1,0.1,0.2,0.2,0.4,0.2c0.2,0,0.3-0.1,0.4-0.2C47.6,36.7,47.6,36.4,47.4,36.1z M3,22.2c-0.3-0.4-0.3-0.9,0-1.3
		c4.1-6.1,10.9-9.8,18.2-9.8s14,3.5,18.2,9.8c0.3,0.4,0.3,0.9,0,1.3c-4.1,6.1-10.9,9.8-18.2,9.8S7.1,28.3,3,22.2z"/>
	
		<linearGradient id="SVGID_8_" gradientUnits="userSpaceOnUse" x1="13.1601" y1="32.3907" x2="29.1373" y2="23.1662" gradientTransform="matrix(1 0 0 -1 0 49.18)">
		<stop  offset="0" style="stop-color:#01A360"/>
		<stop  offset="1" style="stop-color:#45B490"/>
	</linearGradient>
	<path class="st7" d="M21.2,12.2c-5.1,0-9.2,4.1-9.2,9.2s4.1,9.2,9.2,9.2s9.2-4.1,9.2-9.2S26.2,12.2,21.2,12.2z M21.2,29.5
		c-4.4,0-8.1-3.7-8.1-8.1s3.7-8.1,8.1-8.1s8.1,3.7,8.1,8.1S25.6,29.5,21.2,29.5z"/>
</g>
</svg>
