<?xml version="1.0" encoding="utf-8"?>
<!-- Generator: Adobe Illustrator 21.0.2, SVG Export Plug-In . SVG Version: 6.00 Build 0)  -->
<svg version="1.1" id="Layer_1" xmlns="http://www.w3.org/2000/svg" xmlns:xlink="http://www.w3.org/1999/xlink" x="0px" y="0px"
	 viewBox="0 0 48 48" style="enable-background:new 0 0 48 48;" xml:space="preserve">
<style type="text/css">
	.st0{fill:url(#SVGID_1_);}
</style>
<linearGradient id="SVGID_1_" gradientUnits="userSpaceOnUse" x1="4.3632" y1="12.1812" x2="42.9388" y2="34.4528">
	<stop  offset="0" style="stop-color:#01A360"/>
	<stop  offset="1" style="stop-color:#45B490"/>
</linearGradient>
<path class="st0" d="M43.2,31c-0.5,0-0.9,0.4-1,0.9L39,32.1l0.3-3.1c0.5-0.1,0.9-0.5,0.9-1c0-0.6-0.4-1-1-1c-0.6,0-1,0.4-1,1
	c0,0.2,0.1,0.3,0.2,0.5l-2.8,2.8C35.3,31.1,35,31,34.7,31c-0.4,0-0.7,0.1-1,0.4l-4.6-3.9c0.1-0.1,0.1-0.3,0.1-0.4c0-0.6-0.4-1-1-1
	c-0.6,0-1,0.4-1,1s0.4,1,1,1c0.2,0,0.4-0.1,0.6-0.2l4.4,3.7l-10-4.6c0-0.1,0.1-0.3,0.1-0.4c0-0.2,0-0.3-0.1-0.5l8.4-4.6
	c0.3,0.3,0.7,0.6,1.2,0.6c0.6,0,1.2-0.4,1.4-0.9l4.1,1c0,0.5,0.5,1,1,1c0.6,0,1-0.4,1-1s-0.4-1-1-1c-0.1,0-0.3,0-0.4,0.1l-2.2-2.8
	l0.9-0.6c0.2,0.2,0.4,0.3,0.7,0.3c0.6,0,1-0.4,1-1s-0.4-1-1-1c-0.3,0-0.5,0.1-0.7,0.3l-4.4-2.9c0-0.1,0.1-0.2,0.1-0.3
	c0-0.6-0.4-1-1-1c-0.6,0-1,0.4-1,1c0,0.5,0.4,0.9,0.8,1l0.3,5.1c-0.6,0.1-1,0.6-1.1,1.1l-8.7-0.5l0.3-3.7c0.8-0.1,1.4-0.7,1.4-1.5
	c0-0.4-0.1-0.7-0.4-1l3-3.6c0.1,0.1,0.3,0.1,0.4,0.1c0.5,0,0.9-0.4,1-0.9l7.1-0.8C35.4,8.7,35.8,9,36.2,9c0.6,0,1-0.4,1-1
	s-0.4-1-1-1c-0.5,0-0.9,0.4-1,0.9l-7.1,0.8C28,8.3,27.6,8,27.2,8c-0.6,0-1,0.4-1,1c0,0.2,0.1,0.4,0.2,0.6l-3,3.6
	c-0.1-0.1-0.3-0.1-0.4-0.2L23.4,8c0.5-0.1,0.8-0.5,0.8-1c0-0.6-0.4-1-1-1c-0.6,0-1,0.4-1,1c0,0.4,0.3,0.8,0.7,0.9L22.5,13
	c-0.8,0.1-1.3,0.7-1.3,1.5c0,0.7,0.5,1.3,1.1,1.4L22,19.7l-5.8-0.3c-0.1-0.7-0.7-1.3-1.5-1.3c0,0,0,0,0,0l-0.6-3.4l3.5-2.8
	c0.2,0.1,0.4,0.2,0.6,0.2c0.6,0,1-0.4,1-1s-0.4-1-1-1c-0.2,0-0.3,0.1-0.5,0.2L13,5.5c0.1-0.1,0.2-0.3,0.2-0.5c0-0.6-0.4-1-1-1
	c-0.6,0-1,0.4-1,1c0,0.5,0.4,0.9,0.9,1l0.8,4.8h-2.5l-0.5-1c0.2-0.2,0.3-0.4,0.3-0.7c0-0.6-0.4-1-1-1c-0.6,0-1,0.4-1,1s0.4,1,1,1
	c0.1,0,0.1,0,0.2,0l0.4,0.8H7.1C7,10.3,6.7,10,6.2,10c-0.6,0-1,0.4-1,1c0,0.5,0.4,1,1,1l1.5,6.1c-0.3,0.2-0.5,0.5-0.5,0.9
	c0,0.6,0.4,1,1,1c0.4,0,0.8-0.3,0.9-0.7l4.1,0.3c0,0.2,0.1,0.4,0.2,0.5l-5.5,4.1C7.6,24.1,7.4,24,7.2,24c-0.6,0-1,0.4-1,1s0.4,1,1,1
	c0.4,0,0.8-0.2,0.9-0.6l4.1,0.7c0,0.5,0.5,0.9,1,0.9c0.6,0,1-0.4,1-1c0-0.4-0.2-0.7-0.5-0.9l1-4.1c0,0,0.1,0,0.1,0
	c0.3,0,0.6-0.1,0.9-0.3l4.9,4.9c-0.2,0.2-0.3,0.5-0.3,0.9c0,0.8,0.7,1.5,1.5,1.5c0,0,0.1,0,0.1,0l1,4.1c-0.3,0.2-0.5,0.5-0.5,0.9
	c0,0.1,0,0.3,0.1,0.4l-3.6,3c-0.2-0.2-0.5-0.3-0.9-0.4l-0.6-5.6c0.4-0.1,0.7-0.5,0.7-0.9c0-0.6-0.4-1-1-1c-0.6,0-1,0.4-1,1
	c0,0.3,0.1,0.5,0.3,0.7L14,33.4L12,31.5c0.1-0.1,0.2-0.3,0.2-0.5c0-0.6-0.4-1-1-1c-0.6,0-1,0.4-1,1c0,0.5,0.3,0.8,0.8,0.9v3.2
	L7.2,34c0,0,0,0,0,0c0-0.6-0.4-1-1-1c-0.6,0-1,0.4-1,1s0.4,1,1,1c0.4,0,0.7-0.2,0.8-0.5l3.9,1.2v1.3c-0.4,0.1-0.8,0.5-0.8,0.9
	c0,0.6,0.4,1,1,1c0.5,0,0.9-0.4,1-0.8l4.1-0.3c0,0.2,0.1,0.4,0.2,0.5l-1,1.7c-0.1,0-0.2-0.1-0.3-0.1c-0.6,0-1,0.4-1,1s0.4,1,1,1
	c0.6,0,1-0.4,1-1c0-0.3-0.1-0.5-0.3-0.7l0.9-1.6c0.2,0.2,0.5,0.3,0.8,0.3c0.4,0,0.8-0.2,1.1-0.5l4.5,3.1c0,0.1-0.1,0.2-0.1,0.3
	c0,0.6,0.4,1,1,1c0.6,0,1-0.4,1-1c0-0.5-0.4-0.9-0.9-1l-0.8-7.1c0.1,0,0.1-0.1,0.1-0.1l4.7,4.7c-0.1,0.1-0.2,0.3-0.2,0.5
	c0,0.6,0.4,1,1,1c0.6,0,1-0.4,1-1s-0.4-1-1-1c-0.2,0-0.3,0.1-0.5,0.2L24,33.5c0.1-0.1,0.2-0.3,0.2-0.5c0-0.5-0.4-1-1-1l-1-4.1
	c0.3-0.1,0.5-0.3,0.7-0.5l10.3,4.8c0,0.1-0.1,0.3-0.1,0.4c0,0.8,0.6,1.4,1.3,1.5l0.3,5.1c-0.4,0.1-0.7,0.5-0.7,0.9c0,0.6,0.4,1,1,1
	c0.6,0,1-0.4,1-1c0-0.3-0.2-0.6-0.5-0.8l1.2-3.5l0.5,0.7c-0.1,0.2-0.2,0.4-0.2,0.6c0,0.6,0.4,1,1,1c0.6,0,1-0.4,1-1
	c0-0.2-0.1-0.4-0.2-0.5l3.6-3.7c0.2,0.1,0.4,0.2,0.6,0.2c0.6,0,1-0.4,1-1S43.8,31,43.2,31z M11.9,37.3l0.7-1.1l3.5,1.1
	c0,0,0,0,0,0.1l-4.1,0.3C12.1,37.6,12,37.4,11.9,37.3z M16.4,36.8l-3.4-1l1.1-1.6l2.4,2.4C16.4,36.7,16.4,36.8,16.4,36.8z
	 M16.6,30.4c0.1,0,0.1,0,0.2,0l0.6,5.6c-0.2,0-0.3,0.1-0.5,0.2l-2.5-2.5L16.6,30.4z M11.5,31.9c0.1,0,0.2-0.1,0.2-0.1l2,2l-1.2,1.8
	l-1-0.3V31.9z M12.2,36.1l-0.7,1c0,0-0.1,0-0.1,0v-1.2L12.2,36.1z M19,36.8l3.6-3c0.1,0.1,0.3,0.2,0.4,0.2l0.8,7.1
	c-0.1,0-0.2,0.1-0.3,0.2l-4.5-3.1c0.1-0.2,0.1-0.4,0.1-0.6C19.2,37.2,19.1,37,19,36.8z M32.6,13.9l3.3,4.2l-2.1,1.3
	c-0.2-0.3-0.6-0.4-1-0.5L32.6,13.9C32.5,13.9,32.6,13.9,32.6,13.9z M38.4,21.4c0,0-0.1,0.1-0.1,0.1l-4.1-1c0,0,0-0.1,0-0.1
	c0-0.2,0-0.4-0.1-0.6l2.1-1.4L38.4,21.4z M33.3,14.1l3.9,2.6c0,0.1-0.1,0.2-0.1,0.3c0,0.1,0,0.2,0.1,0.3l-0.9,0.6L33.3,14.1z
	 M31.2,20.7c0,0.1,0,0.2,0.1,0.3l-8.4,4.6c-0.2-0.3-0.5-0.4-0.8-0.5l0.4-4.9L31.2,20.7z M21.6,25c-0.3,0-0.5,0.1-0.7,0.3l-4.9-4.9
	c0.1-0.2,0.2-0.3,0.2-0.5l5.8,0.3L21.6,25z M6.7,11.8l4.5,4.5l-2.4,1.9C8.6,18.1,8.4,18,8.2,18L6.7,11.8C6.7,11.9,6.7,11.9,6.7,11.8
	z M9.1,18.6l2.4-1.9l2,2c-0.1,0.2-0.2,0.3-0.2,0.5l-4.1-0.3C9.1,18.7,9.1,18.7,9.1,18.6z M11.9,16.4l0.6-0.5l1.2,2.3L11.9,16.4z
	 M14.2,18l-1.3-2.4l0.7-0.6L14.2,18z M17.3,11.3c0,0.1,0,0.1,0,0.2L14,14l-0.5-2.8H17.3z M12.6,5.9C12.6,5.9,12.7,5.9,12.6,5.9
	l4.7,4.6c0,0.1-0.1,0.2-0.1,0.2h-3.8L12.6,5.9z M13,11.3l0.5,3.1l-0.9,0.7l-2-3.8H13z M12.3,15.4L11.6,16L7,11.5
	c0-0.1,0.1-0.2,0.1-0.2h2.9L12.3,15.4z M13.2,25c-0.4,0-0.7,0.2-0.9,0.6l-4.1-0.7c0-0.1,0-0.2-0.1-0.3l5.5-4.1
	c0.1,0.1,0.3,0.2,0.5,0.3L13.2,25z M42.3,32.4l-3.6,3.7c0,0-0.1-0.1-0.1-0.1l0.4-3.5L42.3,32.4z M36.2,32.7l1.2-0.1l-0.7,2l-0.9-1.2
	C36,33.3,36.1,33,36.2,32.7z M36.2,32.2c0-0.2-0.1-0.4-0.2-0.6l2.7-2.7l-1.1,3.2L36.2,32.2z M38.7,30.3l-0.2,1.8l-0.4,0L38.7,30.3z
	 M35.4,38.7L35,34c0.1,0,0.2-0.1,0.4-0.1l1.1,1.4L35.4,38.7z M37.9,32.6l0.5,0L38.1,36c-0.1,0-0.2,0-0.3,0.1l-0.7-0.9L37.9,32.6z"/>
</svg>
