<?xml version="1.0" encoding="utf-8"?>
<!-- Generator: Adobe Illustrator 21.0.2, SVG Export Plug-In . SVG Version: 6.00 Build 0)  -->
<svg version="1.1" id="Layer_1" xmlns="http://www.w3.org/2000/svg" xmlns:xlink="http://www.w3.org/1999/xlink" x="0px" y="0px"
	 viewBox="0 0 119.8 119.8" style="enable-background:new 0 0 119.8 119.8;" xml:space="preserve">
<style type="text/css">
	.st0{fill:url(#SVGID_1_);}
</style>
<linearGradient id="SVGID_1_" gradientUnits="userSpaceOnUse" x1="4.255" y1="59.375" x2="116.895" y2="59.375">
	<stop  offset="0" style="stop-color:#01A360"/>
	<stop  offset="1" style="stop-color:#45B490"/>
</linearGradient>
<path class="st0" d="M114,81c-1.5,0-2.7,1.2-2.8,2.6l-9.3,0.4l1-8.9c1.4-0.2,2.5-1.4,2.5-2.8c0-1.6-1.3-2.9-2.9-2.9
	c-1.6,0-2.9,1.3-2.9,2.9c0,0.5,0.2,1,0.4,1.4l-8,8c-0.7-0.5-1.6-0.8-2.5-0.8c-1.1,0-2,0.4-2.8,1L73.3,70.7c0.2-0.4,0.3-0.8,0.3-1.2
	c0-1.6-1.3-2.9-2.9-2.9c-1.6,0-2.9,1.3-2.9,2.9s1.3,2.9,2.9,2.9c0.6,0,1.2-0.2,1.6-0.6l12.6,10.7L56.1,69.2c0.1-0.4,0.2-0.7,0.2-1.1
	c0-0.5-0.1-1-0.3-1.4l24.3-13.3c0.8,1,2,1.7,3.4,1.7c1.8,0,3.3-1.1,4-2.7l11.9,2.7c0,1.6,1.3,2.8,2.9,2.8c1.6,0,2.9-1.3,2.9-2.9
	c0-1.6-1.3-2.9-2.9-2.9c-0.4,0-0.8,0.1-1.1,0.2L95,44.3l2.6-1.6c0.5,0.5,1.2,0.8,2,0.8c1.6,0,2.9-1.3,2.9-2.9s-1.3-2.9-2.9-2.9
	c-0.7,0-1.4,0.3-1.9,0.8L84.9,30c0.1-0.3,0.2-0.6,0.2-0.9c0-1.6-1.3-2.9-2.9-2.9c-1.6,0-2.9,1.3-2.9,2.9c0,1.4,1,2.5,2.4,2.8l1,14.7
	c-1.6,0.4-2.9,1.6-3.2,3.2l-25.2-1.4l0.9-10.7c2.2-0.2,4-2,4-4.3c0-1.1-0.4-2.1-1.1-2.8l8.5-10.4c0.4,0.2,0.8,0.3,1.2,0.3
	c1.4,0,2.6-1.1,2.8-2.5l20.5-2.3c0.4,1.1,1.4,1.9,2.7,1.9c1.6,0,2.9-1.3,2.9-2.9s-1.3-2.9-2.9-2.9c-1.4,0-2.6,1.1-2.8,2.5l-20.5,2.3
	c-0.4-1.1-1.4-1.9-2.7-1.9c-1.6,0-2.9,1.3-2.9,2.9c0,0.6,0.2,1.2,0.6,1.7l-8.6,10.5c-0.4-0.2-0.7-0.4-1.1-0.5l1-14.7
	c1.3-0.3,2.3-1.4,2.3-2.8c0-1.6-1.3-2.9-2.9-2.9c-1.6,0-2.9,1.3-2.9,2.9c0,1.3,0.8,2.3,2,2.7l-1,14.7c-2.2,0.2-3.9,2-3.9,4.3
	c0,2,1.4,3.7,3.3,4.2l-0.9,10.7L36,47.3c-0.2-2.2-2.1-3.8-4.3-3.8c0,0,0,0,0,0L30,33.7l10.1-8.1c0.5,0.4,1,0.6,1.7,0.6
	c1.6,0,2.9-1.3,2.9-2.9s-1.3-2.9-2.9-2.9c-0.5,0-1,0.2-1.4,0.4L26.9,7.4c0.3-0.4,0.4-0.9,0.4-1.4c0-1.6-1.3-2.9-2.9-2.9
	c-1.6,0-2.9,1.3-2.9,2.9c0,1.5,1.2,2.7,2.6,2.8l2.4,13.8h-7.3l-1.5-2.9c0.6-0.5,1-1.3,1-2.1c0-1.6-1.3-2.9-2.9-2.9
	c-1.6,0-2.9,1.3-2.9,2.9s1.3,2.9,2.9,2.9c0.2,0,0.4-0.1,0.6-0.1l1.2,2.3H9.9c-0.3-1.2-1.4-2.2-2.7-2.2c-1.6,0-2.9,1.3-2.9,2.9
	c0,1.6,1.3,2.9,2.9,2.9l4.4,17.7c-0.9,0.5-1.5,1.4-1.5,2.5c0,1.6,1.3,2.9,2.9,2.9c1.3,0,2.3-0.8,2.7-2l11.8,0.9
	c0.1,0.6,0.2,1.1,0.4,1.5l-16,11.7c-0.5-0.4-1.1-0.7-1.8-0.7c-1.6,0-2.9,1.3-2.9,2.9c0,1.6,1.3,2.9,2.9,2.9c1.2,0,2.2-0.7,2.6-1.7
	l11.9,2c0.1,1.5,1.3,2.6,2.8,2.6c1.6,0,2.9-1.3,2.9-2.9c0-1.1-0.6-2-1.6-2.5l2.8-11.9c0.1,0,0.2,0,0.3,0c0.9,0,1.8-0.3,2.5-0.8
	l14.2,14.2c-0.5,0.7-0.8,1.6-0.8,2.5c0,2.4,1.9,4.3,4.3,4.3c0.1,0,0.2,0,0.3,0l2.8,11.9c-0.9,0.5-1.6,1.4-1.6,2.5
	c0,0.4,0.1,0.8,0.3,1.2l-10.4,8.5c-0.7-0.6-1.6-1-2.5-1.1L39,79.4c1.1-0.4,1.9-1.4,1.9-2.7c0-1.6-1.3-2.9-2.9-2.9
	c-1.6,0-2.9,1.3-2.9,2.9c0,0.7,0.3,1.4,0.7,1.9L29.6,88L24,82.5c0.3-0.4,0.4-0.9,0.4-1.4c0-1.6-1.3-2.9-2.9-2.9
	c-1.6,0-2.9,1.3-2.9,2.9c0,1.3,0.9,2.4,2.2,2.7v9.3L10,89.8c0,0,0-0.1,0-0.1c0-1.6-1.3-2.9-2.9-2.9c-1.6,0-2.9,1.3-2.9,2.9
	s1.3,2.9,2.9,2.9c1,0,1.9-0.6,2.4-1.4l11.3,3.4v3.9c-1.2,0.3-2.2,1.4-2.2,2.7c0,1.6,1.3,2.9,2.9,2.9c1.4,0,2.5-1,2.8-2.4l11.8-0.9
	c0.1,0.5,0.4,1,0.7,1.5l-2.9,4.9c-0.3-0.1-0.5-0.2-0.8-0.2c-1.6,0-2.9,1.3-2.9,2.9s1.3,2.9,2.9,2.9c1.6,0,2.9-1.3,2.9-2.9
	c0-0.8-0.3-1.5-0.8-2l2.7-4.5c0.7,0.5,1.5,0.8,2.5,0.8c1.2,0,2.3-0.5,3.1-1.3l13,9c-0.1,0.3-0.2,0.6-0.2,1c0,1.6,1.3,2.9,2.9,2.9
	c1.6,0,2.9-1.3,2.9-2.9c0-1.4-1.1-2.6-2.5-2.8l-2.3-20.5c0.1-0.1,0.3-0.1,0.4-0.2l13.4,13.4c-0.3,0.4-0.4,0.9-0.4,1.4
	c0,1.6,1.3,2.9,2.9,2.9c1.6,0,2.9-1.3,2.9-2.9s-1.3-2.9-2.9-2.9c-0.5,0-1,0.2-1.4,0.4L58.7,88.2c0.3-0.4,0.4-0.9,0.4-1.4
	c0-1.6-1.3-2.8-2.8-2.9L53.6,72c0.8-0.3,1.4-0.9,1.9-1.6l29.8,13.8c-0.1,0.4-0.2,0.7-0.2,1.1c0,2.2,1.7,4.1,3.9,4.3l1,14.7
	c-1.1,0.4-2,1.4-2,2.7c0,1.6,1.3,2.9,2.9,2.9c1.6,0,2.9-1.3,2.9-2.9c0-1-0.5-1.9-1.3-2.4l3.3-10l1.5,2c-0.4,0.5-0.6,1.1-0.6,1.7
	c0,1.6,1.3,2.9,2.9,2.9c1.6,0,2.9-1.3,2.9-2.9c0-0.6-0.2-1-0.5-1.5l10.3-10.7c0.5,0.4,1.1,0.6,1.7,0.6c1.6,0,2.9-1.3,2.9-2.9
	S115.6,81,114,81z M23.7,99.4l2.1-3.2l10.2,3.1c0,0.1,0,0.1,0,0.2l-11.8,0.9C24.2,100,24,99.6,23.7,99.4z M36.5,97.9l-9.8-3l3.1-4.6
	l7,7C36.7,97.5,36.6,97.7,36.5,97.9z M37.1,79.4c0.2,0.1,0.3,0.1,0.5,0.1l1.6,16.1c-0.5,0.1-1,0.3-1.4,0.6l-7.2-7.2L37.1,79.4z
	 M22.3,83.8c0.3-0.1,0.5-0.2,0.7-0.3l5.8,5.8l-3.5,5.2l-3-0.9V83.8z M24.4,95.7l-1.9,2.8c-0.1,0-0.1,0-0.2,0v-3.4L24.4,95.7z
	 M44.1,97.7l10.5-8.6c0.4,0.3,0.8,0.4,1.3,0.5l2.3,20.5c-0.3,0.1-0.6,0.3-0.8,0.5l-13-9c0.3-0.6,0.4-1.2,0.4-1.8
	C44.7,99,44.5,98.3,44.1,97.7z M83.4,31.7L92.9,44l-6,3.8c-0.7-0.8-1.7-1.3-2.8-1.4l-1-14.7C83.2,31.7,83.3,31.7,83.4,31.7z
	 M100.2,53.3c-0.1,0.1-0.2,0.3-0.3,0.4L88,51c0-0.1,0-0.2,0-0.3c0-0.6-0.1-1.2-0.3-1.7l6.1-3.9L100.2,53.3z M85.5,32.1l11.3,7.6
	c-0.1,0.3-0.2,0.6-0.2,0.9c0,0.3,0.1,0.6,0.2,0.9l-2.7,1.7L85.5,32.1z M79.4,51.2c0,0.3,0.1,0.6,0.2,0.9L55.3,65.4
	c-0.6-0.7-1.4-1.3-2.3-1.5l1.2-14.1L79.4,51.2z M51.5,63.7c-0.8,0.1-1.5,0.3-2.1,0.8L35.2,50.3c0.3-0.5,0.6-1,0.7-1.5l16.8,0.9
	L51.5,63.7z M8.6,25.7l12.9,12.9l-6.9,5.5c-0.5-0.4-1-0.6-1.7-0.6L8.6,25.7C8.5,25.8,8.6,25.7,8.6,25.7z M15.5,45.2l6.9-5.6l5.7,5.7
	c-0.3,0.4-0.5,0.9-0.7,1.5l-11.8-0.9C15.7,45.6,15.6,45.4,15.5,45.2z M23.6,38.7l1.8-1.4l3.5,6.6L23.6,38.7z M30.2,43.4l-3.7-7
	l2.2-1.7L30.2,43.4z M39.1,24c0,0.2,0.1,0.3,0.1,0.5L29.7,32l-1.4-8H39.1z M25.7,8.6c0.1,0,0.2-0.1,0.2-0.2l13.4,13.4
	c-0.1,0.2-0.2,0.5-0.3,0.7h-11L25.7,8.6z M26.9,24l1.6,9.1l-2.6,2.1L20,24H26.9z M24.7,36l-2.1,1.7l-13-13c0.1-0.2,0.2-0.5,0.3-0.7
	h8.5L24.7,36z M27.3,63.7c-1.1,0-2.1,0.7-2.6,1.7l-11.9-2c0-0.3-0.1-0.6-0.2-0.8l16-11.7c0.4,0.4,0.8,0.7,1.3,0.9L27.3,63.7z
	 M111.3,85.1L101,95.9c-0.1-0.1-0.2-0.1-0.4-0.2l1.1-10.1L111.3,85.1z M93.7,85.9l3.5-0.2l-2,5.9l-2.6-3.4
	C93.2,87.6,93.6,86.8,93.7,85.9z M93.7,84.5c-0.1-0.6-0.4-1.1-0.7-1.6l7.8-7.8l-3.1,9.2L93.7,84.5z M101,79.1l-0.6,5.1l-1.1,0.1
	L101,79.1z M91.4,103.3l-0.9-13.7c0.4-0.1,0.7-0.2,1-0.4l3.2,4.1L91.4,103.3z M98.8,85.7l1.5-0.1l-1.1,9.9c-0.3,0-0.5,0.1-0.7,0.2
	L96.3,93L98.8,85.7z"/>
</svg>
