<?xml version="1.0" encoding="utf-8"?>
<!-- Generator: Adobe Illustrator 21.0.2, SVG Export Plug-In . SVG Version: 6.00 Build 0)  -->
<svg version="1.1" id="Layer_1" xmlns="http://www.w3.org/2000/svg" xmlns:xlink="http://www.w3.org/1999/xlink" x="0px" y="0px"
	 viewBox="0 0 48 48" style="enable-background:new 0 0 48 48;" xml:space="preserve">
<style type="text/css">
	.st0{fill:url(#SVGID_1_);}
	.st1{fill:url(#SVGID_2_);}
</style>
<g>
	<linearGradient id="SVGID_1_" gradientUnits="userSpaceOnUse" x1="9.9961" y1="16.0033" x2="38.62" y2="32.5293">
		<stop  offset="0" style="stop-color:#01A360"/>
		<stop  offset="1" style="stop-color:#45B490"/>
	</linearGradient>
	<path class="st0" d="M35.6,25.3c0.2,0.6,0.8,1,1.4,1c0.8,0,1.5-0.7,1.5-1.5s-0.7-1.5-1.5-1.5c-0.7,0-1.2,0.4-1.4,1h-3.8l-1,1h-2.3
		v-2h2.7l2.5-2.5h1.1l0.9,0.9c0.1,0.1,0.2,0.1,0.4,0.1s0.3,0,0.4-0.1c0.2-0.2,0.2-0.5,0-0.7l-1.1-1.1h-0.5l0.8-0.8v-3.8
		c0.6-0.2,1-0.8,1-1.4c0-0.8-0.7-1.5-1.5-1.5s-1.5,0.7-1.5,1.5c0,0.7,0.4,1.2,1,1.4v3.4l-1.4,1.4c0,0,0,0,0,0l-2.4,2.4h-2.3v-2h1.7
		l2.3-2.3V9.6l-3.3-3.3h-2.4l-1.3,1.3v5.3c-0.6,0.2-1,0.8-1,1.4c0,0.8,0.7,1.5,1.5,1.5s1.5-0.7,1.5-1.5c0-0.7-0.4-1.2-1-1.4V8
		l0.7-0.7h1.6L29.5,8l-1,1v2.2c0,0.3,0.2,0.5,0.5,0.5s0.5-0.2,0.5-0.5V9.5l0.8-0.8l1.3,1.3v3.8h-1.7l-1.1,1.1
		c-0.2,0.2-0.2,0.5,0,0.7c0.1,0.1,0.2,0.1,0.4,0.1s0.3,0,0.4-0.1l0.9-0.9h1.3v2.8l-1.7,1.7h-1.3v-0.5c0-0.9-0.6-1.5-1.5-1.5h-6
		c-0.9,0-1.5,0.6-1.5,1.5v0.5h-1.3l-1.7-1.7v-2.1l2.9-2.9c0.2-0.2,0.2-0.5,0-0.7s-0.5-0.2-0.7,0l-2.1,2.1V10l2.7-2.7h1.6L21.5,8v0.8
		H20c-0.3,0-0.5,0.2-0.5,0.5s0.2,0.5,0.5,0.5h1.5v3.1c-0.6,0.2-1,0.8-1,1.4c0,0.8,0.7,1.5,1.5,1.5s1.5-0.7,1.5-1.5
		c0-0.7-0.4-1.2-1-1.4V7.6l-1.3-1.3h-2.4l-3.3,3.3V18l2.3,2.3h1.7v2h-2.3l-1.4-1.4c0,0,0,0,0,0l-2.4-2.4v-3.4c0.6-0.2,1-0.8,1-1.4
		c0-0.8-0.7-1.5-1.5-1.5s-1.5,0.7-1.5,1.5c0,0.7,0.4,1.2,1,1.4V19l1.8,1.8h-1c-0.3,0-0.5,0.2-0.5,0.5s0.2,0.5,0.5,0.5h2l1.5,1.5h2.7
		v2h-2.3l-1-1h-3.8c-0.2-0.6-0.8-1-1.4-1c-0.8,0-1.5,0.7-1.5,1.5s0.7,1.5,1.5,1.5c0.7,0,1.2-0.4,1.4-1h3.4l1,1h2.7v2H16h-0.2H14
		c-0.3,0-0.5,0.2-0.5,0.5s0.2,0.5,0.5,0.5h0.8l-1,1h-1.4c-0.2-0.6-0.8-1-1.4-1c-0.8,0-1.5,0.7-1.5,1.5s0.7,1.5,1.5,1.5
		c0.7,0,1.2-0.4,1.4-1h1.8l2-2h3.3v2h-2.7l-3.1,3.1l0,0c-0.2-0.1-0.4-0.2-0.7-0.2c-0.8,0-1.5,0.7-1.5,1.5s0.7,1.5,1.5,1.5
		s1.5-0.7,1.5-1.5c0-0.2-0.1-0.5-0.2-0.7l0,0l2.9-2.9h2.3v2h-1.7l-2.3,2.3V39l2.3,2.3h2.8c0.2,0.6,0.8,1,1.4,1
		c0.8,0,1.5-0.7,1.5-1.5s-0.7-1.5-1.5-1.5c-0.7,0-1.2,0.4-1.4,1h-1.4l0.3-0.3v-1l0.6-0.6c0.2-0.2,0.2-0.5,0-0.7s-0.5-0.2-0.7,0
		l-0.8,0.8v1L18,40.1l-1.5-1.5V37l1.7-1.7h1.3v0.5c0,0.9,0.6,1.5,1.5,1.5h6c0.8,0,1.5-0.7,1.5-1.5v-0.5h1.3l1.7,1.7v0.3h-2.2
		l-0.7,0.8h-1.1c-0.3,0-0.5,0.2-0.5,0.5s0.2,0.5,0.5,0.5H29l0.7-0.8h1.8v0.3l-1.7,1.7h-2.4c-0.2-0.6-0.8-1-1.4-1
		c-0.8,0-1.5,0.7-1.5,1.5s0.7,1.5,1.5,1.5c0.7,0,1.2-0.4,1.4-1h2.8l2.3-2.3v-2.4l-2.3-2.3h-1.7v-2h2.3l2.9,2.9l0,0
		c-0.1,0.2-0.2,0.4-0.2,0.7c0,0.8,0.7,1.5,1.5,1.5s1.5-0.7,1.5-1.5s-0.7-1.5-1.5-1.5c-0.2,0-0.5,0.1-0.7,0.2l0,0l-3.1-3.1h-2.7v-2
		h3.3l2,2h1.8c0.2,0.6,0.8,1,1.4,1c0.8,0,1.5-0.7,1.5-1.5s-0.7-1.5-1.5-1.5c-0.7,0-1.2,0.4-1.4,1h-1.4l-2-2h-3.7v-2h2.3l1,1h1.7
		c0.3,0,0.5-0.2,0.5-0.5s-0.2-0.5-0.5-0.5h-1.3l-0.5-0.5l0.5-0.5H35.6z M37,24.3c0.3,0,0.5,0.2,0.5,0.5c0,0.3-0.2,0.5-0.5,0.5
		s-0.5-0.2-0.5-0.5C36.5,24.5,36.7,24.3,37,24.3z M35,13.3c0.3,0,0.5,0.2,0.5,0.5s-0.2,0.5-0.5,0.5s-0.5-0.2-0.5-0.5
		S34.7,13.3,35,13.3z M26,14.8c-0.3,0-0.5-0.2-0.5-0.5s0.2-0.5,0.5-0.5s0.5,0.2,0.5,0.5S26.3,14.8,26,14.8z M22,14.8
		c-0.3,0-0.5-0.2-0.5-0.5s0.2-0.5,0.5-0.5s0.5,0.2,0.5,0.5S22.3,14.8,22,14.8z M13,13.3c0.3,0,0.5,0.2,0.5,0.5s-0.2,0.5-0.5,0.5
		s-0.5-0.2-0.5-0.5S12.7,13.3,13,13.3z M11,25.3c-0.3,0-0.5-0.2-0.5-0.5c0-0.3,0.2-0.5,0.5-0.5s0.5,0.2,0.5,0.5
		C11.5,25.1,11.3,25.3,11,25.3z M11,31.3c-0.3,0-0.5-0.2-0.5-0.5s0.2-0.5,0.5-0.5s0.5,0.2,0.5,0.5S11.3,31.3,11,31.3z M13,36.3
		c-0.3,0-0.5-0.2-0.5-0.5s0.2-0.5,0.5-0.5s0.5,0.2,0.5,0.5S13.3,36.3,13,36.3z M22,40.3c0.3,0,0.5,0.2,0.5,0.5s-0.2,0.5-0.5,0.5
		s-0.5-0.2-0.5-0.5S21.7,40.3,22,40.3z M26,41.3c-0.3,0-0.5-0.2-0.5-0.5s0.2-0.5,0.5-0.5s0.5,0.2,0.5,0.5S26.3,41.3,26,41.3z
		 M35,35.3c0.3,0,0.5,0.2,0.5,0.5s-0.2,0.5-0.5,0.5s-0.5-0.2-0.5-0.5S34.7,35.3,35,35.3z M37,30.3c0.3,0,0.5,0.2,0.5,0.5
		s-0.2,0.5-0.5,0.5s-0.5-0.2-0.5-0.5S36.7,30.3,37,30.3z"/>
	<linearGradient id="SVGID_2_" gradientUnits="userSpaceOnUse" x1="8.5119" y1="15.2281" x2="40.8287" y2="33.8862">
		<stop  offset="0" style="stop-color:#01A360"/>
		<stop  offset="1" style="stop-color:#45B490"/>
	</linearGradient>
	<path class="st1" d="M39.8,25.1c-0.2-1.2-0.5-2.5-0.4-3.5c0.1-1.1-0.2-2.1-0.5-2.9c-0.2-0.6-0.4-1.2-0.4-1.8c0-1.1-0.3-1.8-0.5-2.6
		c-0.2-0.6-0.5-1.3-0.6-2.2c-0.1-1.4-1.3-2.5-2.4-3.5c-0.6-0.6-1.2-1.1-1.6-1.6c-1-1.5-2.1-3.1-4.3-3.1c-1.2,0-2.4,0.4-3.4,0.6
		C25,4.6,24.4,4.8,24,4.8s-1-0.2-1.6-0.4c-1-0.3-2.2-0.6-3.4-0.6c-2.1,0-3.1,1.5-4.3,3.1L14.7,7c-0.4,0.6-1,1.1-1.6,1.6
		c-1.1,1-2.3,2.1-2.4,3.5c-0.1,0.9-0.4,1.5-0.6,2.1c-0.3,0.8-0.5,1.5-0.5,2.7c0,0.6-0.2,1.2-0.4,1.8c-0.3,0.8-0.6,1.8-0.5,2.9
		c0.1,1-0.2,2.2-0.4,3.4c-0.2,1.1-0.5,2.3-0.5,3.3c0,1.2,0.3,2.7,0.5,3.9c0.2,0.9,0.3,1.6,0.3,2c0.2,3.9,2.9,7.6,5.4,7.6
		c0.5,0,1.4,0.5,2.3,0.9c1.3,0.7,2.8,1.5,4,1.5c1.2,0,1.8-0.4,2.4-0.7c0.4-0.2,0.8-0.4,1.3-0.4s0.9,0.2,1.3,0.4
		c0.6,0.3,1.2,0.7,2.4,0.7c1.2,0,2.7-0.8,4-1.5c0.9-0.5,1.8-0.9,2.3-0.9c2.7,0,5.3-4.2,5.5-7.6c0-0.4,0.1-1.1,0.3-2
		c0.2-1.2,0.5-2.7,0.5-3.9C40.3,27.3,40,26.2,39.8,25.1z M39.3,32.1C39.1,33,39,33.8,39,34.2c-0.2,3.5-2.7,7.2-5,7.2
		c-0.6,0-1.5,0.5-2.5,1c-1.3,0.7-2.7,1.4-3.8,1.4c-1,0-1.6-0.3-2.2-0.6c-0.5-0.3-0.9-0.5-1.5-0.5s-1.1,0.2-1.5,0.5
		c-0.5,0.3-1.1,0.6-2.2,0.6c-1.1,0-2.5-0.7-3.8-1.4c-1-0.5-1.9-1-2.5-1c-2.3,0-4.7-3.5-5-7.1c0-0.4-0.1-1.2-0.3-2.1
		c-0.2-1.2-0.5-2.7-0.5-3.8c0-0.9,0.2-2.1,0.5-3.2c0.2-1.2,0.5-2.5,0.4-3.5c-0.1-1,0.2-1.9,0.5-2.7c0.2-0.7,0.4-1.3,0.4-2
		c0-1.1,0.2-1.7,0.5-2.5c0.2-0.6,0.5-1.3,0.6-2.3c0.1-1.2,1.2-2.2,2.3-3.2c0.6-0.6,1.3-1.1,1.7-1.7l0-0.1c1.1-1.6,2-2.9,3.8-2.9
		c1.1,0,2.3,0.3,3.2,0.6c0.7,0.2,1.3,0.4,1.8,0.4s1.1-0.2,1.8-0.4c0.9-0.3,2.1-0.6,3.2-0.6c1.9,0,2.9,1.4,3.9,2.9
		c0.4,0.6,1,1.1,1.7,1.7c1.1,0.9,2.2,1.9,2.3,3.2c0.1,1,0.3,1.7,0.6,2.4c0.3,0.7,0.5,1.4,0.5,2.4c0,0.7,0.2,1.3,0.4,2
		c0.3,0.8,0.5,1.7,0.5,2.7c-0.1,1.1,0.2,2.4,0.5,3.7c0.2,1.1,0.4,2.2,0.4,3.2C39.8,29.4,39.5,30.9,39.3,32.1z"/>
</g>
</svg>
