<?xml version="1.0" encoding="utf-8"?>
<!-- Generator: Adobe Illustrator 21.0.2, SVG Export Plug-In . SVG Version: 6.00 Build 0)  -->
<svg version="1.1" id="Layer_1" xmlns="http://www.w3.org/2000/svg" xmlns:xlink="http://www.w3.org/1999/xlink" x="0px" y="0px"
	 viewBox="0 0 178.9 178.9" style="enable-background:new 0 0 178.9 178.9;" xml:space="preserve">
<style type="text/css">
	.st0{fill:url(#SVGID_1_);}
	.st1{fill:url(#SVGID_2_);}
</style>
<g>
	<linearGradient id="SVGID_1_" gradientUnits="userSpaceOnUse" x1="29.4264" y1="90.687" x2="149.4636" y2="90.687">
		<stop  offset="0" style="stop-color:#01A360"/>
		<stop  offset="1" style="stop-color:#45B490"/>
	</linearGradient>
	<path class="st0" d="M137.4,94.8c0.9,2.4,3.1,4.1,5.8,4.1c3.4,0,6.2-2.8,6.2-6.2c0-3.4-2.8-6.2-6.2-6.2c-2.7,0-5,1.7-5.8,4.1h-15.7
		l-4.1,4.1h-9.5v-8.3h11.2l10.3-10.3h4.5l3.5,3.5c0.4,0.4,0.9,0.6,1.5,0.6c0.5,0,1.1-0.2,1.5-0.6c0.8-0.8,0.8-2.1,0-2.9l-4.7-4.7
		h-2.1l3.3-3.3V53.1c2.4-0.9,4.1-3.1,4.1-5.8c0-3.4-2.8-6.2-6.2-6.2c-3.4,0-6.2,2.8-6.2,6.2c0,2.7,1.7,5,4.1,5.8v14l-5.6,5.6
		c0,0,0,0,0,0l-9.7,9.7h-9.5v-8.3h7.1l9.5-9.5V29.8L111,16.2h-10l-5.4,5.4v21.9c-2.4,0.9-4.1,3.1-4.1,5.8c0,3.4,2.8,6.2,6.2,6.2
		s6.2-2.8,6.2-6.2c0-2.7-1.7-5-4.1-5.8V23.2l2.9-2.9h6.6l3.1,3.1l-4.3,4.3v9.1c0,1.1,0.9,2.1,2.1,2.1s2.1-0.9,2.1-2.1v-7.4l3.1-3.1
		l5.2,5.2v15.7h-7.1l-4.7,4.7c-0.8,0.8-0.8,2.1,0,2.9c0.4,0.4,0.9,0.6,1.5,0.6c0.5,0,1.1-0.2,1.5-0.6l3.5-3.5h5.4v11.6l-7.1,7.1
		h-5.4v-2.1c0-3.6-2.6-6.2-6.2-6.2H77c-3.7,0-6.2,2.6-6.2,6.2V70h-5.4l-7.1-7.1v-8.6l11.8-11.8c0.8-0.8,0.8-2.1,0-2.9
		c-0.8-0.8-2.1-0.8-2.9,0l-8.9,8.9V31.5l11.2-11.2h6.6l2.9,2.9v3.3h-6.2c-1.1,0-2.1,0.9-2.1,2.1c0,1.1,0.9,2.1,2.1,2.1h6.2v12.8
		c-2.4,0.9-4.1,3.1-4.1,5.8c0,3.4,2.8,6.2,6.2,6.2c3.4,0,6.2-2.8,6.2-6.2c0-2.7-1.7-5-4.1-5.8V21.5l-5.4-5.4h-10L54.3,29.8v34.8
		l9.5,9.5h7.1v8.3h-9.5l-5.6-5.6c0,0,0,0,0,0L46,67.1v-14c2.4-0.9,4.1-3.1,4.1-5.8c0-3.4-2.8-6.2-6.2-6.2c-3.4,0-6.2,2.8-6.2,6.2
		c0,2.7,1.7,5,4.1,5.8v15.7l7.4,7.4h-4.1c-1.1,0-2.1,0.9-2.1,2.1c0,1.1,0.9,2.1,2.1,2.1h8.3l6.2,6.2h11.2v8.3h-9.5l-4.1-4.1H41.5
		c-0.9-2.4-3.1-4.1-5.8-4.1c-3.4,0-6.2,2.8-6.2,6.2c0,3.4,2.8,6.2,6.2,6.2c2.7,0,5-1.7,5.8-4.1h14l4.1,4.1h11.2v8.3H56.3h-0.9h-7.4
		c-1.1,0-2.1,0.9-2.1,2.1s0.9,2.1,2.1,2.1h3.3l-4.1,4.1h-5.7c-0.9-2.4-3.1-4.1-5.8-4.1c-3.4,0-6.2,2.8-6.2,6.2
		c0,3.4,2.8,6.2,6.2,6.2c2.7,0,5-1.7,5.8-4.1h7.4l8.3-8.3h13.6v8.3H59.6l-13,13l0.1,0.1c-0.8-0.4-1.7-0.7-2.7-0.7
		c-3.4,0-6.2,2.8-6.2,6.2c0,3.4,2.8,6.2,6.2,6.2c3.4,0,6.2-2.8,6.2-6.2c0-1-0.3-1.9-0.7-2.7l0.1,0.1l11.8-11.8h9.5v8.3h-7.1
		l-9.5,9.5v10l9.5,9.5h11.6c0.9,2.4,3.1,4.1,5.8,4.1c3.4,0,6.2-2.8,6.2-6.2c0-3.4-2.8-6.2-6.2-6.2c-2.7,0-5,1.7-5.8,4.1h-5.7
		l1.2-1.2v-4.1l2.3-2.3c0.8-0.8,0.8-2.1,0-2.9s-2.1-0.8-2.9,0l-3.5,3.5v4.1l-2.1,2.1l-6.2-6.2v-6.6l7.1-7.1h5.4v2.1
		c0,3.6,2.6,6.2,6.2,6.2h24.8c3.4,0,6.2-2.8,6.2-6.2v-2.1h5.4l7.1,7.1v1.2h-9.2l-2.9,3.3h-4.4c-1.1,0-2.1,0.9-2.1,2.1
		c0,1.1,0.9,2.1,2.1,2.1h6.3l2.9-3.3h7.3v1.2l-7.1,7.1h-9.9c-0.9-2.4-3.1-4.1-5.8-4.1c-3.4,0-6.2,2.8-6.2,6.2c0,3.4,2.8,6.2,6.2,6.2
		c2.7,0,5-1.7,5.8-4.1h11.6l9.5-9.5v-10l-9.5-9.5h-7.1v-8.3h9.5l11.8,11.8l0.1-0.1c-0.4,0.8-0.7,1.7-0.7,2.7c0,3.4,2.8,6.2,6.2,6.2
		c3.4,0,6.2-2.8,6.2-6.2c0-3.4-2.8-6.2-6.2-6.2c-1,0-1.9,0.3-2.7,0.7l0.1-0.1l-13-13h-11.2v-8.3h13.6l8.3,8.3h7.4
		c0.9,2.4,3.1,4.1,5.8,4.1c3.4,0,6.2-2.8,6.2-6.2c0-3.4-2.8-6.2-6.2-6.2c-2.7,0-5,1.7-5.8,4.1h-5.7l-8.3-8.3h-15.3V99h9.5l4.1,4.1
		h7.1c1.1,0,2.1-0.9,2.1-2.1s-0.9-2.1-2.1-2.1h-5.4l-2.1-2.1l2.1-2.1H137.4z M143.3,90.7c1.1,0,2.1,0.9,2.1,2.1s-0.9,2.1-2.1,2.1
		s-2.1-0.9-2.1-2.1S142.1,90.7,143.3,90.7z M135,45.2c1.1,0,2.1,0.9,2.1,2.1s-0.9,2.1-2.1,2.1c-1.1,0-2.1-0.9-2.1-2.1
		S133.8,45.2,135,45.2z M97.7,51.4c-1.1,0-2.1-0.9-2.1-2.1s0.9-2.1,2.1-2.1s2.1,0.9,2.1,2.1S98.9,51.4,97.7,51.4z M81.2,51.4
		c-1.1,0-2.1-0.9-2.1-2.1s0.9-2.1,2.1-2.1s2.1,0.9,2.1,2.1S82.3,51.4,81.2,51.4z M43.9,45.2c1.1,0,2.1,0.9,2.1,2.1s-0.9,2.1-2.1,2.1
		c-1.1,0-2.1-0.9-2.1-2.1S42.8,45.2,43.9,45.2z M35.6,94.8c-1.1,0-2.1-0.9-2.1-2.1s0.9-2.1,2.1-2.1s2.1,0.9,2.1,2.1
		S36.8,94.8,35.6,94.8z M35.6,119.7c-1.1,0-2.1-0.9-2.1-2.1s0.9-2.1,2.1-2.1s2.1,0.9,2.1,2.1S36.8,119.7,35.6,119.7z M43.9,140.4
		c-1.1,0-2.1-0.9-2.1-2.1c0-1.1,0.9-2.1,2.1-2.1c1.1,0,2.1,0.9,2.1,2.1C46,139.4,45.1,140.4,43.9,140.4z M81.2,156.9
		c1.1,0,2.1,0.9,2.1,2.1c0,1.1-0.9,2.1-2.1,2.1s-2.1-0.9-2.1-2.1C79.1,157.8,80,156.9,81.2,156.9z M97.7,161.1
		c-1.1,0-2.1-0.9-2.1-2.1c0-1.1,0.9-2.1,2.1-2.1s2.1,0.9,2.1,2.1C99.8,160.1,98.9,161.1,97.7,161.1z M135,136.2
		c1.1,0,2.1,0.9,2.1,2.1c0,1.1-0.9,2.1-2.1,2.1c-1.1,0-2.1-0.9-2.1-2.1C132.9,137.1,133.8,136.2,135,136.2z M143.3,115.5
		c1.1,0,2.1,0.9,2.1,2.1s-0.9,2.1-2.1,2.1s-2.1-0.9-2.1-2.1S142.1,115.5,143.3,115.5z"/>
	<linearGradient id="SVGID_2_" gradientUnits="userSpaceOnUse" x1="22.1828" y1="89.4451" x2="156.7072" y2="89.4451">
		<stop  offset="0" style="stop-color:#01A360"/>
		<stop  offset="1" style="stop-color:#45B490"/>
	</linearGradient>
	<path class="st1" d="M154.8,93.8c-1-5.1-2.1-10.4-1.9-14.7c0.2-4.6-1-8.5-2.1-11.9c-0.8-2.7-1.6-5.2-1.6-7.6
		c0-4.6-1.1-7.5-2.2-10.7c-1-2.6-2-5.4-2.3-9.3c-0.6-5.9-5.4-10.3-10.1-14.4c-2.6-2.3-5-4.4-6.6-6.7c-4.3-6.3-8.8-12.9-17.8-12.9
		c-5,0-10,1.5-14,2.6c-2.7,0.8-5.1,1.5-6.7,1.5s-3.9-0.7-6.7-1.5c-4-1.2-9-2.6-14-2.6c-8.7,0-13,6.3-17.6,13l-0.2,0.3
		c-1.6,2.3-4,4.5-6.6,6.8c-4.7,4.2-9.6,8.5-10.1,14.4c-0.5,3.7-1.5,6.4-2.3,8.9c-1.1,3.3-2.2,6.3-2.2,11.1c0,2.4-0.8,4.9-1.6,7.6
		c-1.1,3.5-2.3,7.4-2.1,11.9c0.2,4-0.8,9.1-1.8,14.1c-0.9,4.7-1.9,9.5-1.9,13.6c0,4.9,1.2,11.2,2.1,16.2c0.7,3.5,1.2,6.6,1.2,8.2
		c0.9,16,12.1,31.6,22.6,31.6c1.9,0,5.6,1.9,9.5,3.9c5.5,2.8,11.7,6,16.6,6c4.8,0,7.5-1.5,9.9-2.8c1.8-1,3.3-1.8,5.4-1.8
		s3.7,0.8,5.4,1.8c2.4,1.3,5.1,2.8,9.9,2.8c4.9,0,11.1-3.2,16.6-6c3.9-2,7.6-3.9,9.5-3.9c11.2,0,21.7-17.4,22.6-31.7
		c0-1.6,0.6-4.7,1.2-8.2c0.9-5,2.1-11.3,2.1-16.2C156.7,103.2,155.8,98.4,154.8,93.8z M152.6,123.1c-0.7,3.6-1.2,6.7-1.2,8.5
		c-0.8,14.4-11.4,29.7-20.5,29.7c-2.4,0-6.1,1.9-10.4,4.1c-5.3,2.7-11.2,5.8-15.6,5.8c-4.3,0-6.7-1.3-8.9-2.5c-1.9-1.1-3.7-2-6.4-2
		s-4.5,1-6.4,2c-2.3,1.2-4.6,2.5-8.9,2.5c-4.4,0-10.4-3.1-15.6-5.8c-4.3-2.2-8-4.1-10.4-4.1c-9.5,0-19.7-14.7-20.5-29.6
		c0-1.8-0.6-4.9-1.3-8.6c-0.9-4.9-2.1-11.1-2.1-15.9c0-3.8,0.9-8.6,1.9-13.1c1-5.1,2.1-10.4,1.9-14.6c-0.2-4.2,0.9-7.8,2-11.2
		c0.9-2.8,1.7-5.5,1.7-8.2c0-4.5,1-7.2,2.1-10.4c0.9-2.5,1.9-5.3,2.4-9.3c0.5-5.1,5-9.2,9.4-13.1c2.7-2.4,5.2-4.6,6.9-7.1l0.2-0.3
		c4.5-6.5,8.3-12.1,15.9-12.1c4.7,0,9.5,1.4,13.4,2.6c2.9,0.9,5.4,1.6,7.3,1.6s4.4-0.7,7.3-1.6c3.9-1.1,8.7-2.6,13.4-2.6
		c7.9,0,11.9,5.8,16.1,12c1.7,2.5,4.3,4.7,6.9,7.1c4.4,3.9,9,8,9.5,13.1c0.4,4.2,1.4,7.1,2.4,9.8c1.1,3,2.1,5.7,2.1,10
		c0,2.7,0.8,5.4,1.7,8.2c1.1,3.5,2.2,7,2,11.2c-0.2,4.5,0.9,9.9,1.9,15.2c0.9,4.5,1.8,9.2,1.8,13C154.6,112,153.5,118.2,152.6,123.1
		z"/>
</g>
</svg>
