<?xml version="1.0" encoding="utf-8"?>
<!-- Generator: Adobe Illustrator 21.0.2, SVG Export Plug-In . SVG Version: 6.00 Build 0)  -->
<svg version="1.1" id="Layer_1" xmlns="http://www.w3.org/2000/svg" xmlns:xlink="http://www.w3.org/1999/xlink" x="0px" y="0px"
	 viewBox="0 0 346.9 222.5" enable-background="new 0 0 346.9 222.5" xml:space="preserve">
<linearGradient id="SVGID_1_" gradientUnits="userSpaceOnUse" x1="-12.7896" y1="117.9332" x2="358.5438" y2="117.9332">
	<stop  offset="0" style="stop-color:#01A360"/>
	<stop  offset="1" style="stop-color:#45B490"/>
</linearGradient>
<rect x="-12.8" y="-8.4" fill="url(#SVGID_1_)" width="371.3" height="252.7"/>
<g opacity="2.000000e-02">
	<path d="M344.4,57.1c-4.2,0-8.4,0-12.8,0c0,1.7,0,3.3,0,5c-2.4,0-4.7,0-7.1,0c0-1.7,0-3.3,0-5c-2.5,0-4.8,0-7.2,0
		c0,0.6-0.1,1.2-0.1,1.8c-2.1,0-4.2,0-6.3,0c0-2.1,0-4.1,0-6.2c2.1,0,4.1,0,6.3,0c0,0.6,0.1,1.2,0.1,1.7c0.8,0.2,25.8,0.3,27.2,0.1
		c0-8.6,0-17.1,0-25.8c-4.3,0-8.5,0-12.8,0c0,1.7,0,3.4,0,5.1c-2.4,0-4.7,0-7.1,0c0-1.7,0-3.3,0-5c-0.9-0.3-5.8-0.4-7.4-0.1
		c0,0.6-0.1,1.2-0.1,1.8c-0.9,0.3-4.8,0.3-6.1,0c0-2,0-4,0-6c0.9-0.2,4.8-0.3,6.1,0c0,0.5,0.1,1.1,0.1,1.7c9.1,0,18.2,0,27.4,0
		c0-0.4,0.1-0.8,0.1-1.1c0-3.9,0-7.8,0-11.6c0-0.7-0.2-1.2-0.7-1.7c-2.2-2.2-4.4-4.3-6.5-6.5c-0.4-0.4-0.8-0.7-1.5-0.7
		c-19.5,0-39,0-58.6,0c-0.1,0-0.2,0-0.4,0c-0.7,1.4-1.7,2.3-3.4,2.3c-1.6,0-2.8-0.9-3.5-2.3c-3.4,0-6.7,0-10.1,0
		c-0.7,1.4-1.8,2.3-3.4,2.3c-1.6,0-2.7-0.8-3.4-2.3c-4.7,0-9.4,0-14.2,0c-0.4,1.7-1.5,2.8-3.3,2.8c-1.7-0.1-2.6-1.2-3-2.8
		c-8.1,0-16.2,0-24.3,0c0,1.3,0,2.6,0,4c0.8,0,1.5,0,2.2,0c0.3,0.9,0.3,5.6,0.1,7c-2.3,0-4.6,0-7,0c0-2.3,0-4.5,0-6.9
		c0.7,0,1.4,0,2.2,0c0.2-1.4,0-2.7,0.1-4.1c-8.8,0-17.4,0-26.2,0c0,0.7,0,1.3,0,1.9c0,0.6,0,1.3,0,2c0.8,0.1,1.5,0.1,2.3,0.2
		c0,2.3,0,4.6,0,6.9c-2.4,0-4.7,0-7,0c0-2.3,0-4.5,0-6.9c0.7,0,1.5,0,2.4,0c0.1-1.4,0.1-2.7,0-4.1c-12.1,0-24.2,0-36.3,0
		c0,7.2,0,14.4,0,21.7c1.2,0.6,2.1,1.5,2.1,3.1c0,1.5-0.8,2.5-2.1,3c0,6.1,0,12.2,0,18.3c1.4,0.8,2.3,2,1.9,3.8
		c-0.3,1.3-1.2,2.1-2.5,2.3c-1.5,0.3-2.7-0.4-3.4-1.8c-2.2,0-4.3,0-6.6,0c0,0.5,0,0.9,0,1.3c0,4,0,8.1,0,12.1c0,1-0.2,1.8-1,2.5
		c-0.9,0.8-1.6,1.7-2.5,2.4c-0.5,0.4-0.6,0.9-0.6,1.5c0,8.4,0,16.8,0,25.2c0,0.5,0,1,0.5,1.4c0.6,0.5,0.7,1.2,0.7,2
		c0,1.1,0,2.2,0,3.2c0,0.7-0.2,1.4-0.8,1.9c-0.4,0.3-0.4,0.7-0.4,1.2c0,1.5,0,3,0,4.6c0,0.5,0.2,0.9,0.5,1.3
		c3.5,3.5,7.1,7.1,10.6,10.6c0.2,0.2,0.5,0.5,0.8,0.5c1.2-0.2,2.4,0.1,3.5,0.6c0.7,1.5,0.9,3.2,0,4.9c-0.2,0.1-0.6,0.2-1,0.3
		c0,0.4,0,0.7,0,1.1c0,3.2,0,6.3,0,9.5c0,0.6,0.1,1,0.5,1.5c0.3,0.3,0.5,0.9,0.5,1.4c0.1,1.3,0,2.6,0,4c0,1.4-0.9,2.2-2.2,2.2
		c-1.3,0-2.3-0.8-2.3-2.2c0-1.3-0.1-2.6,0-4c0.1-0.6,0.5-1.1,0.7-1.7c0.1-0.3,0.4-0.5,0.4-0.8c0-3.6,0-7.1,0-10.7
		c-0.6-0.2-1.1-0.5-1.6-0.7c-0.4-1.1-1-2.3-0.5-3.6c-0.2-0.3-0.4-0.5-0.7-0.7c-3.5-3.5-7-7-10.5-10.5c-0.5-0.5-1-0.7-1.7-0.7
		c-2.8,0-5.6,0-8.4,0c-0.3,0-0.6,0-1.1,0c-0.1,0.4-0.2,0.8-0.3,1.2c-1.6,0.7-3.3,0.9-4.9,0c-1-1.6-1-3.3,0-4.9
		c1.6-1,3.2-0.9,4.9,0.1c0.1,0.3,0.2,0.7,0.4,1.2c3.3,0,6.5,0,9.8,0c0-0.3,0.1-0.5,0.1-0.8c0-1.2,0-2.4,0-3.6c0-0.5-0.1-0.9-0.4-1.2
		c-0.5-0.4-0.6-1-0.6-1.6c0-1.3,0-2.6,0-4c0-0.5,0.1-1.1,0.5-1.4c0.5-0.5,0.6-1.1,0.6-1.7c0-8.5,0-17,0-25.4c0-1,0.3-1.8,1.1-2.5
		c0.9-0.8,1.7-1.7,2.6-2.5c0.3-0.3,0.5-0.7,0.5-1.2c0-5.2,0-10.3,0-15.5c0-0.5-0.2-0.9-0.5-1.3c-0.7-0.7-1.4-1.3-2-2
		c-0.8-1.1-1.9-1.2-3.1-0.9c0,0.7-0.1,1.3-0.1,2.1c-1.1,0-2.1,0-3.1,0c-1,0-2,0-3.1,0c0-0.7-0.1-1.3-0.1-2.1c-1.3-0.1-2.5,0-3.9,0
		c0,0.4-0.1,0.7-0.1,1c0,6,0,12,0,18c0,0.6,0.1,1,0.5,1.4c0.4,0.4,0.6,1,0.6,1.6c0,1.3,0,2.6,0,3.8c0,1.4-0.9,2.3-2.2,2.3
		c-1.4,0-2.3-0.8-2.4-2.3c0-1.3,0-2.6,0-4c0-0.7,0.2-1.3,0.7-1.7c0.4-0.3,0.5-0.6,0.5-1c0-6.2,0-12.5,0-18.7c0-0.1-0.1-0.2-0.1-0.4
		c-1.5,0-3,0-4.6,0c0,0.7-0.1,1.3-0.1,2c-2.1,0-4.1,0-6.2,0c0-2,0-4,0-6.1c2,0,4.1,0,6.2,0c0,0.5,0.1,1,0.1,1.4
		c0.8,0.3,8.6,0.4,10.8,0.1c0-0.5,0.1-1,0.1-1.6c2,0,4.1,0,6.2,0c0,0.5,0.1,1,0.1,1.6c0.6,0,1.2,0.1,1.9,0.1c0.8-0.1,1.4,0.2,2,0.8
		c1,1.1,2,2.1,3.1,3.1c0.7,0.7,1.3,1.4,1.1,2.5c2.2,0,4.4,0,6.4,0c0.7-0.7,1.3-1.3,2-2c0-0.2,0-0.5,0-0.9c0-5.4,0-10.9,0-16.3
		c0-0.7-0.1-1.2-0.7-1.6c-1.3-1.1-1.5-3.4,0-4.6c0.6-0.5,0.8-1,0.8-1.7c0-6.5,0-13,0-19.4c0-0.4,0-0.8,0-1.3c-4,0-7.9,0-12,0
		c-0.1,1.2,0,2.5,0,3.9c0.8,0,1.5,0.1,2.4,0.1c0,2.3,0,4.5,0,6.8c-0.9,0.3-5.7,0.3-7.1,0.1c0-2.2,0-4.5,0-6.8c0.8,0,1.5-0.1,2.3-0.1
		c0-1.3,0-2.6,0-3.8c-0.9-0.2-24.9-0.3-26.3,0C98,5.1,98,5.3,98,5.5c0,1,0,2.1,0,3.2c0.8,0,1.5,0,2.4,0c0,1.2,0,2.4,0,3.5
		c0,1.1,0,2.2,0,3.3c-0.9,0.3-5.5,0.3-7,0.1c0-2.2,0-4.5,0-6.8c0.7,0,1.4-0.1,2.3-0.1c0.1-1.3,0-2.5,0-3.8
		c-0.9-0.3-24.3-0.4-26.3-0.1c0,1.2,0,2.5,0,3.9c0.7,0,1.5,0.1,2.3,0.1c0,2.3,0,4.6,0,6.9c-2.3,0-4.6,0-6.9,0
		c-0.2-0.8-0.3-4.8-0.1-6.9c0.7,0,1.4-0.1,2.2-0.1c0-1.3,0-2.6,0-3.9c-0.3,0-0.6-0.1-0.9-0.1c-5.2,0-10.5,0-15.7,0
		c-0.6,0-1.1,0.1-1.5,0.6c-0.8,0.8-1.6,1.6-2.4,2.4C46,8.1,45.9,8.5,45.9,9c0,1.8,0,3.6,0,5.4c0,0.7-0.2,1.2-0.7,1.7
		c-1.5,1.5-3,3-4.5,4.5c-0.5,0.5-1.1,0.7-1.8,0.7c-3.5,0-7,0-10.4,0c-0.7,0-1.2,0.1-1.7,0.6c-1,0.8-2.6,0.8-3.5-0.1
		c-0.6-0.5-1.1-0.5-1.8-0.5c-0.6,0-1.3-0.1-1.7,0.6c-0.1,0.2-0.5,0.3-0.7,0.5c0,0.9,0,1.7,0,2.6c0.1,0.1,0.2,0.2,0.4,0.3
		c1.4,0.8,1.7,2.7,0.1,3.9C19.1,29.6,19,30,19,30.5c0,0.6,0,1.2,0,1.8c2.1,1.6,2.1,3.1,0,4.6c0,0.4,0,0.8,0,1.3c0,0.4,0,0.9,0,1.3
		c2.2,1.3,2,3.5,0,4.6c0,8.2,0,16.4,0,24.6c0.3,0.2,0.7,0.5,1,0.8c0.9,1.1,0.8,2.4-0.3,3.3c-0.6,0.4-0.7,0.9-0.7,1.5
		c0,0.5,0,1,0,1.6c0.2,0.1,0.4,0.3,0.6,0.4C20.2,77,21,77,21.9,77c0.5,0,0.8-0.1,1.2-0.5c1-1,2.9-1,3.8,0c1.3,1.2,0.7,3.4-1,3.8
		c-1,0.3-2.1,0.2-2.9-0.7c-0.7-0.6-2.3-0.6-3,0c-0.3,0.3-0.6,0.5-1,0.8c0,0.6,0,1.3,0,2c0,0.4,0.1,0.7,0.5,0.9
		c1.6,1,1.5,3.3-0.5,4.2c0,0.7,0,1.5,0,2.2c0,0.2,0.2,0.5,0.3,0.7c1.8,1.6,1.7,2.8-0.2,4.2c0,0,0,0.1-0.1,0.2c0,0.8,0,1.6,0,2.5
		c2.1,1.8,2.1,3.1,0,4.6c0,0.3,0,0.7,0,1c0,8.4,0,16.9,0,25.3c0,0.7,0.1,1.1,0.7,1.6c1.3,1,1.2,2.7-0.1,3.7
		c-0.2,0.1-0.3,0.2-0.6,0.4c0,0.3,0,0.7,0,1.1c0,1.6,0,1.6,1.2,2.5c0.5,0.3,2.3,0.3,2.7-0.1c0.7-0.8,1.6-0.9,2.6-0.9
		c1.2,0.1,2,1,2.1,2.2c0,1.3-0.8,2.2-2.1,2.3c-0.9,0.1-1.8,0-2.5-0.8c-0.5-0.5-2.3-0.4-2.9,0c-0.3,0.3-0.6,0.5-1,0.8
		c0,0.8,0,1.7,0,2.5c0.4,0.5,1,0.9,1.3,1.4c0.5,0.9,0.4,1.9-0.5,2.6c-0.7,0.6-0.9,1.2-0.8,2.1c0,0.4,0,0.8,0,1.2
		c2.3,1.5,1.9,3.6,0,4.6c0,0.8,0,1.7,0,2.6c2.1,1.6,2.1,3.1,0,4.6c0,8.7,0,17.4,0,26.1c0.2,0.1,0.3,0.2,0.5,0.3
		c1.3,0.9,1.5,2.6,0.2,3.6c-0.7,0.5-0.9,1.1-0.8,1.8c0,0.4,0,0.9,0,1.3c0.4,0.3,0.8,0.7,1.2,1c0.6,0.4,2.3,0.3,2.9-0.2
		c1.2-1,3-1,4,0.1c0.9,1,0.7,2.7-0.6,3.4c-1,0.6-2.5,0.4-3.4-0.3c-0.9-0.7-2.3-0.7-3.2,0c-0.3,0.2-0.6,0.4-0.9,0.7c0,0.5,0,1,0,1.5
		c0,0.7,0.1,1.1,0.7,1.6c1.2,0.9,1.2,2.6,0,3.5c-0.4,0.4-0.6,0.7-0.6,1.2c0,0.5,0,1,0,1.4c0,0.4,0.1,0.6,0.4,0.9
		c1.5,1.2,1.2,3-0.1,3.8c-0.1,0.1-0.2,0.2-0.3,0.3c0,0.5,0,1.1,0,1.6c0,0.7,0.1,1.2,0.7,1.6c1,0.8,1,2.4,0,3.3
		c-0.6,0.5-0.7,1-0.7,1.6c0,3.2,0,6.5,0,9.7c0,0.6,0.2,1.1,0.6,1.6c0.8,0.8,1.6,1.6,2.4,2.4c0.4,0.5,0.9,0.6,1.5,0.6
		c9.8,0,19.7,0,29.5,0c0.6,0,1-0.2,1.5-0.6c2.4-2.5,4.8-4.9,7.3-7.3c0.4-0.4,0.5-0.7,0.5-1.3c0-1.5,0-3,0-4.6c0-0.5-0.1-0.9-0.5-1.2
		c-1-1-1.4-2.3-0.9-3.7c0.5-1.4,1.5-2.2,2.9-2.4c1.2-0.2,2.3,0.2,3.1,1.2c0.3,0.3,0.5,0.7,0.8,1.1c0.3,0,0.7,0,1.1,0
		c7.8,0,15.6,0,23.4,0c0.8,0,1.3-0.2,1.9-0.8c3.8-3.8,7.6-7.6,11.4-11.4c0.5-0.5,0.8-1,0.7-1.8c-0.1-1,0-2,0-3.1
		c-0.3-0.1-0.5-0.1-0.7-0.1c-1.3-0.3-2-1.2-2-2.5c0-1.2,0.9-2.3,2-2.5c0.7-0.1,1.4-0.1,2.1,0.1c1.8,0.4,2.5,2.4,1.4,3.9
		c-0.5,0.6-0.6,1.2-0.6,1.9c0,1.2,0,2.3,0,3.5c0,0.6-0.2,1-0.6,1.4c-1,1-2,2-3,3c-3.2,3.2-6.4,6.5-9.6,9.7c-0.7,0.7-1.4,1-2.4,1
		c-8,0-15.9,0-23.9,0c-0.5,0-1,0-1.4,0c-0.6,1.3-1.5,2.2-3,2.4c0,0.5,0,0.9,0,1.2c0,1.8,0,3.5,0,5.3c0,0.8-0.2,1-0.9,1.4
		c-0.4,0.2-0.9,0.4-1.2,0.7c-1.9,1.8-3.7,3.7-5.6,5.6c-0.3,0.3-0.7,0.6-0.7,1.2c-0.1,0.6-0.5,0.9-1.1,0.9c-0.3,0-0.6,0-0.8,0
		c-10.4,0-20.7,0-31.1,0c-1,0-1.7-0.3-2.4-1c-1.1-1.1-2.2-2.2-3.3-3.3c-0.5-0.5-0.7-1.1-0.7-1.8c0-3.4,0-6.8,0-10.2
		c0-0.4,0-0.9,0-1.3c-0.3-0.2-0.5-0.4-0.7-0.6c-1-1-1-2.4,0.1-3.3c0.6-0.5,0.7-0.9,0.6-1.5c0-0.6,0-1.1,0-1.7
		c-0.2-0.2-0.5-0.3-0.7-0.5c-1-1-1.1-2.5,0-3.4c0.6-0.5,0.7-1,0.7-1.6c0-0.6,0-1.1,0-1.7c-0.2-0.1-0.4-0.2-0.5-0.4
		c-1.1-0.9-1.3-2.4-0.3-3.3c0.6-0.6,0.7-1.2,0.7-1.9c0-0.9,0-1.6-0.8-2.3c-0.9-0.8-0.8-2.2,0.1-3c0.6-0.5,0.7-1,0.7-1.7
		c0-0.4,0-0.8,0-1.2c0-0.4-0.1-0.6-0.4-0.9c-1.4-1.3-1.3-2.6,0.2-3.8c0.1-0.1,0.1-0.1,0.2-0.2c0-0.6,0-1.2,0-1.9
		c0-7.8,0-15.5,0-23.3c0-0.6-0.1-1.1-0.6-1.6c-1.1-1-1-2.4,0.1-3.4c0.4-0.4,0.6-0.7,0.5-1.2c0-0.4,0-0.9,0-1.3
		c0-0.5-0.1-0.8-0.5-1.1c-1.2-1.2-1.2-2.5,0.1-3.6c0.3-0.3,0.4-0.5,0.4-0.9c0-0.4,0-0.7,0-1.1c0.1-0.7-0.1-1.3-0.7-1.8
		c-1-0.9-1-2.4,0-3.2c0.6-0.5,0.7-0.9,0.6-1.5c0-0.6,0-1.2,0-1.8c-0.2-0.2-0.4-0.3-0.6-0.5c-1-1-1.1-2.3-0.1-3.3
		c0.6-0.5,0.7-1.1,0.7-1.8c0-0.4,0-0.7,0-1.1c-0.1-0.3-0.2-0.7-0.4-0.9c-1.2-1.2-1.3-2.4,0-3.6c0.4-0.3,0.5-0.7,0.5-1.1
		c0-8.7,0-17.4,0-26.2c0-0.5-0.2-0.9-0.6-1.2c-1.1-1.1-1.1-2.4,0.1-3.4c0.4-0.3,0.5-0.7,0.5-1.1c0-0.4,0-0.8,0-1.2
		c0-0.6-0.1-1-0.6-1.4c-1-0.8-1.1-2.3-0.1-3.2c0.6-0.6,0.8-1.1,0.7-1.9c0-0.5,0-1,0-1.6c-0.2-0.2-0.4-0.3-0.6-0.4
		c-1-1-1.1-2.3-0.1-3.3c0.6-0.5,0.7-1.1,0.7-1.8c0-0.9,0-1.7-0.8-2.5c-0.9-0.8-0.8-2.2,0.2-3c0.6-0.5,0.7-1,0.7-1.7
		c0-0.4,0-0.8,0-1.2c0-0.3-0.2-0.6-0.4-0.8c-1.4-1.5-1.3-2.7,0.4-4.1c0-0.3,0-0.7,0-1.1c0-7.5,0-15,0-22.4c0-0.7-0.1-1.3-0.7-1.9
		c-0.9-0.8-1-2.1-0.1-2.9c0.8-0.8,0.8-1.6,0.9-2.6c0-0.7-0.1-1.2-0.7-1.7c-0.8-0.7-0.9-1.7-0.4-2.6c0.1-0.2,0.2-0.4,0.3-0.5
		c0.9-0.4,0.7-1.2,0.7-2c0-0.5,0-1,0-1.4c-0.3-0.3-0.5-0.5-0.7-0.7c-0.9-1-0.9-2.4,0.2-3.3c0.4-0.4,0.6-0.7,0.5-1.2c0-0.7,0-1.4,0-2
		c-0.2-0.2-0.3-0.3-0.5-0.4c-1.1-1-1.2-2.4-0.2-3.4c1.1-1,0.5-2.2,0.6-3.3c0-0.2-0.3-0.3-0.5-0.5c-0.7-0.7-1-1.5-0.7-2.5
		c0.4-1,1.1-1.5,2.2-1.6c0.8,0,1.6,0.1,2.2,0.7c0.9,1,0.8,2.5-0.3,3.4c-0.2,0.1-0.4,0.3-0.7,0.5c0,0.4,0.1,0.8,0,1.2
		c-0.3,1.2,0.5,1.8,1.3,2.4c0.4,0.4,2.2,0.1,2.7-0.2c1.3-1.1,2.9-1.2,4.1,0c0.3,0.3,0.6,0.4,1.1,0.4c3.4,0,6.8,0,10.2,0
		c0.5,0,0.9-0.2,1.3-0.6c1.2-1.2,2.4-2.4,3.6-3.6c0.4-0.4,0.6-0.8,0.5-1.4c0-1.8,0-3.6,0-5.4c0-0.7,0.2-1.2,0.7-1.7
		c1.2-1.1,2.3-2.3,3.5-3.5c0.5-0.5,1-0.7,1.7-0.7c0.4,0,0.7,0,1.1,0c60.4,0,120.8,0,181.2,0c0.9,0,1.7-0.1,2.5-0.6
		c1.1-0.7,2.4-0.7,3.5,0.2c0.4,0.3,0.8,0.5,1.3,0.5c4.6,0,9.1,0,13.7,0c0.2,0,0.3,0,0.5-0.1c0.7-1.5,1.8-2.3,3.4-2.3
		c1.6,0,2.7,0.9,3.4,2.3c3.3,0,6.7,0,10.1,0c0.7-1.3,1.7-2.3,3.4-2.3c1.6,0,2.8,0.8,3.5,2.4c0.5,0,0.9,0,1.4,0c19.2,0,38.5,0,57.7,0
		c1.2,0,2,0.3,2.9,1.2c2.3,2.4,4.6,4.7,6.9,7c0.7,0.7,1,1.4,1,2.3c0,66.2,0,132.3,0,198.5c0,1-0.3,1.7-1,2.4
		c-4.6,4.5-9.1,9-13.6,13.5c-0.5,0.5-0.7,0.9-0.6,1.6c0,0.9,0,1.7,0,2.7c-2.4,0-4.7,0-7,0c0-1.1,0-2.3,0-3.5
		c-0.4-0.1-0.6-0.1-0.9-0.1c-1.9,0-3.8,0-5.6,0c-0.4,0-0.8-0.1-1,0.4c0,0.1-0.3,0.2-0.4,0.2c-1.9,0-3.7,0-5.8,0c0-0.9,0-1.6,0-2.4
		c0-0.6-0.1-1-0.5-1.4c-1-0.9-1.9-1.8-2.8-2.8c-0.4-0.4-0.8-0.5-1.3-0.5c-0.3,0-0.6,0-1,0c-34.8,0-69.5,0-104.3,0
		c-1.1,0-1.9-0.2-2.6-1.1c-0.7-0.8-1.8-1.4-2.2-2.4c-0.4-1-0.2-2.2-0.2-3.3c0-0.5,0-1,0-1.4c0-0.6-0.1-1.1-0.6-1.6
		c-0.4-0.4-0.6-1.1-0.6-1.6c-0.1-1.2,0-2.5,0-3.7c0-0.7,0.2-1.4,0.8-1.9c0.3-0.3,0.4-0.6,0.4-0.9c0-8.3,0-16.6,0-25
		c0-0.1-0.1-0.2-0.1-0.4c-0.3-0.1-0.7-0.1-1-0.2c0-2.8,0-5.6,0-8.4c1.5,0,2.9,0,4.5,0c0,1,0,1.9,0,3c0.5,0,0.8,0.1,1.1,0.1
		c2.7,0,5.4,0,8.2,0c0.7,0,1.2-0.2,1.7-0.7c6.7-6.7,13.4-13.5,20.2-20.2c0.5-0.5,0.8-1,0.7-1.7c-0.1-0.9,0-1.7,0-2.7
		c-0.5,0-0.8,0-1.2-0.1c-1.2-0.2-2-1.1-2-2.3c0-1.2,0.9-2.2,2.1-2.2c1.4-0.1,2.9-0.1,4.3,0c1.3,0,2.2,1,2.2,2.2
		c0,1.1-0.9,2.2-2.2,2.3c-0.2,0-0.3,0-0.5,0c-0.1,0-0.2,0-0.5,0.1c0,1,0,2.1,0,3.1c0,0.9-0.3,1.7-0.9,2.3
		c-7.1,7.1-14.2,14.1-21.2,21.2c-0.6,0.6-1.2,0.9-2.1,0.9c-2.8,0-5.7,0-8.5,0c-0.4,0-0.8,0-1.3,0c0,1.1,0,2,0,3
		c-0.4,0.1-0.7,0.2-1,0.3c0,0.1-0.1,0.3-0.1,0.4c0,2.2,0,4.4,0,6.6c0,6,0,11.9,0,17.9c0,0.6,0,1.1,0.6,1.6c0.4,0.3,0.5,1,0.5,1.5
		c0.1,1.3,0,2.6,0,3.8c0,0.7-0.2,1.4-0.7,1.8c-0.4,0.3-0.4,0.7-0.4,1.2c0,0.6,0.1,1.2,0,1.8c-0.4,1.9,0.7,3,1.9,4
		c0.2,0.2,0.5,0.3,0.7,0.3c0.3,0.1,0.6,0,0.8,0c16.5,0,33,0,49.4,0c0.4,0,0.9,0,1.4,0c0-2.5,0-4.9,0-7.4c-0.8,0-1.6-0.1-2.4-0.1
		c0-2.3,0-4.6,0-7.1c2.3,0,4.6,0,6.9,0c0.3,0.9,0.4,5.3,0.1,7.1c-0.7,0-1.4,0.1-2.1,0.1c-0.3,0.9-0.3,6-0.1,7.3
		c11.2,0,22.4,0,33.8,0c0.1-1.2,0-2.4,0-3.7c0-1.2,0-2.5,0-3.8c-0.3-0.2-0.5-0.3-0.8-0.5c-1.2-0.8-1.8-2.3-1.5-3.8
		c0.3-1.4,1.5-2.5,2.8-2.7c1.7-0.2,3.1,0.4,3.9,1.8c0.6,1.2,0.5,3.6-1.1,4.6c-0.3,0.2-0.6,0.3-0.9,0.5c0,2.4,0,4.9,0,7.5
		c0.4,0,0.9,0.1,1.3,0.1c4.7,0,9.4,0,14,0c1,0,1.7,0.2,2.3,1c0.6,0.7,1.3,1.6,2.1,1.9c0.9,0.3,2,0.1,3,0.1c1,0,2,0,3.1,0
		c0,1.1,0,2.2,0,3.3c1.3,0.2,2.5,0.1,3.7,0.1c1.2,0,2.4,0,3.7,0c0.1-0.3,0.2-0.7,0.3-1c0.6,0,1.2,0.1,1.8,0c1.2-0.3,2.3-0.3,3.4,0
		c1.2,0.3,2.1-0.3,2.9-1.1c3.6-3.7,7.3-7.4,11-11c0.5-0.5,0.7-1,0.7-1.8c0-3.7,0-7.4,0-11.2c0-0.4,0-0.7,0-1
		c-0.9-0.3-11.4-0.3-12.9-0.1c0,1.6,0,3.3,0,5.1c-1.3,0-2.4,0-3.5,0c-1.2,0-2.3,0-3.6,0c-0.2-1.8,0-3.5-0.1-5.2c-2.4,0-4.8,0-7.2,0
		c0,0.6-0.1,1.1-0.1,1.7c-0.8,0.2-4.8,0.3-6.2,0.1c0-2,0-4,0-6.1c2.1,0,4.1,0,6.2,0c0,0.6,0.1,1.2,0.1,1.8c9.2,0,18.2,0,27.4,0
		c0-8.6,0-17.1,0-25.8c-4.3,0-8.5,0-12.9,0c0,1.7,0,3.4,0,5.1c-2.4,0-4.7,0-7.1,0c0-1.7,0-3.4,0-5.1c-2.5,0-4.9,0-7.4,0
		c-0.1,0.7-0.1,1.3-0.2,1.9c-2.1,0-4.1,0-6.2,0c0-2.1,0-4.1,0-6.3c1,0,2,0,3.1,0c1,0,2,0,3.1,0c0,0.7,0.1,1.3,0.1,2
		c9.1,0,18.2,0,27.4,0c0-8.6,0-17.1,0-25.8c-4.3,0-8.5,0-12.8,0c0,1.6,0,3.2,0,4.8c-1,0.3-5.2,0.4-7.1,0.2c0-1.6,0-3.2,0-4.9
		c-2.5,0-4.8,0-7.3,0c0,0.5-0.1,1.1-0.1,1.7c-0.8,0.3-4.5,0.3-6.3,0.1c0-2,0-4,0-6.1c2.1,0,4.1,0,6.2,0c0,0.6,0.1,1.2,0.1,1.8
		c9.1,0,18.1,0,27.1,0c0.2-0.9,0.3-23.7,0.1-25.7c-0.8-0.2-11-0.3-12.8-0.1c0,1.6,0,3.3,0,4.9c-1,0.3-5.9,0.3-7.2,0.1
		c0-1.6,0-3.3,0-5c-2.5,0-4.9,0-7.4,0c0,0.6-0.1,1.1-0.1,1.7c-0.8,0.2-4.6,0.3-6.1,0.1c0-2,0-4,0-6.1c2,0,4,0,6.1,0
		c0,0.6,0.1,1.1,0.1,1.7c0.9,0.3,25.4,0.4,27.4,0.1c0-8.5,0-17.1,0-25.6c-0.8-0.3-11.3-0.3-12.9-0.1c0,1.6,0,3.3,0,5
		c-2.4,0-4.7,0-7.1,0c0-1.7,0-3.4,0-5.1c-2.5,0-4.9,0-7.4,0c0,0.6-0.1,1.2-0.1,1.9c-2,0-4.1,0-6.2,0c0-2.1,0-4.1,0-6.2
		c2,0,4.1,0,6.2,0c0,0.6,0.1,1.2,0.1,1.8c0.8,0.3,25.5,0.4,27.3,0.1C344.6,82,344.7,58.3,344.4,57.1z"/>
	<path d="M137.1,68.6c-0.2-0.3-0.5-0.6-0.5-0.8c0-1.9,0-3.7,0-5.6c1.7-0.3,5.9-0.2,6.6,0.2c0.2-0.2,0.5-0.5,0.7-0.7
		c1.9-1.9,3.7-3.7,5.6-5.6c0.4-0.4,0.6-0.8,0.6-1.3c0-7.2,0-14.3,0-21.5c0-0.2,0-0.3-0.1-0.6c-0.6,0-1.2-0.1-1.9-0.1c0-2,0-4,0-6.1
		c0.6,0,1.2-0.1,1.9-0.1c0-0.4,0.1-0.7,0.1-1.1c0-2.3,0-4.6,0-6.8c0-0.7,0.2-1.2,0.7-1.7c1.4-1.4,2.8-2.7,4.2-4.2
		c0.5-0.5,1-0.7,1.7-0.7c1.3,0,2.6,0,4,0c0.1-0.3,0.2-0.5,0.3-0.8c0.6-1.6,1.9-2.4,3.6-2.3c1.6,0.1,2.8,1.1,3.2,2.8
		c0.3,1.5-0.3,3-1.6,3.8c-1.3,0.8-3.1,0.7-4.2-0.5c-0.6-0.6-1.1-0.8-1.9-0.7c-1.1,0-2.3-0.2-3.2,0.1c-0.9,0.4-1.6,1.4-2.4,2.2
		c-0.7,0.7-1.6,1.3-2,2.2c-0.4,0.9-0.1,2-0.1,3c0,1.5,0,3,0,4.4c0,0.1,0.1,0.1,0.1,0.3c0.5,0,1,0.1,1.7,0.1c0,1,0,2.1,0,3.1
		c0.4,0.1,0.6,0.1,0.9,0.1c0.3,0,0.6,0,0.8,0c30.2,0,60.3,0,90.5,0c0.9,0,1.5-0.1,2.1-0.9c1.1-1.5,3.4-1.3,4.5,0
		c1.1,1.2,1,3.4-0.2,4.4c-1.3,1.2-3.5,1-4.6-0.4c-0.2-0.2-0.4-0.5-0.6-0.8c-15.5,0-30.9,0-46.4,0c0,1.1,0,2.1,0,3.1
		c-1,0.3-6.5,0.3-8.5,0.1c0-1,0-2.1,0-3.2c-0.6,0-0.9-0.1-1.3-0.1c-12,0-24,0-36,0c-0.5,0-1,0-1.5,0.5c-0.3,0.3-1,0.1-1.6,0.2
		c0,0.5,0,0.9,0,1.4c0,7,0,14,0,21c0,1-0.3,1.7-1,2.4c-2.6,2.5-5,5.1-7.6,7.7c-0.6,0.6-1,1.2-0.9,2.1c0,0.3,0,0.6,0,1
		c-0.3,0-0.7,0.1-1,0.1c-0.9-0.1-1.5,0.3-2.1,0.9c-2,2.1-4.1,4.1-6.2,6.2c-0.4,0.4-0.7,0.8-0.7,1.4c0,7.9,0,15.8,0,23.8
		c0,0.1,0,0.2,0,0.4c1.2,0.6,1.5,1.7,1.4,3c-0.1,1.1,0,2.2,0,3.2c0,0.5-0.2,1.1-0.5,1.4c-0.5,0.5-0.5,1-0.6,1.6
		c-0.1,1.1,0.2,1.9,1,2.6c0.8,0.7,1.4,1.8,2.4,2.2c1,0.4,2.2,0.2,3.3,0.2c28.7,0,57.4,0,86.2,0c0.5,0,1,0,1.6,0
		c0.1-0.4,0.1-0.8,0.2-1.1c2.8,0,5.5,0,8.4,0c0.1,0.3,0.2,0.7,0.3,1.1c0.4,0,0.8,0,1.2,0c2.5,0,5,0,7.4,0c0.7,0,1.3,0.2,1.8,0.7
		c3.3,3.4,6.7,6.8,10,10.2c0.4,0.4,0.6,0.8,0.6,1.4c0,0.2,0,0.5,0,0.7c0,15.3,0,30.6,0,45.8c0,1.2-0.3,2-1.2,2.9
		c-9.2,9.2-18.5,18.4-27.7,27.6c-0.3,0.3-0.7,0.6-1.1,0.9c1.1,1.2,1.3,2.5,1,3.8c-0.2,0.9-0.8,1.6-1.6,2c-1.8,1.1-3.8,0.4-5.3-1.8
		c-5.1,0-10.2,0-15.4,0c0,1,0,2,0,3c-1.6,0-3,0-4.5,0c0-2.8,0-5.6,0-8.5c1.5,0,2.9,0,4.5,0c0,1.1,0,2.1,0,3.2c5.3,0,10.4,0,15.4,0
		c0.4-0.5,0.8-1.1,1.2-1.5c0.4-0.4,0.9-0.7,1.5-0.7c0.7-0.1,1.1-0.4,1.5-0.8c9.5-9.5,19.1-19.1,28.6-28.6c0.6-0.6,0.8-1.1,0.8-1.9
		c0-14.9,0-29.8,0-44.6c0-0.8-0.2-1.3-0.8-1.9c-2.9-2.9-5.8-5.8-8.7-8.7c-0.5-0.5-0.9-0.7-1.6-0.7c-2.3,0-4.6,0-6.8,0
		c-0.3,0-0.6,0-1,0.1c-0.1,0.3-0.1,0.6-0.2,0.9c-2.8,0-5.6,0-8.4,0c-0.1-0.3-0.1-0.6-0.2-0.9c-26.7,0-53.4,0-80,0
		c-0.2,0.9-0.3,7.9-0.1,9.2c0.8,0.2,1.5,0.5,2.2,0.7c0.9,1.6,1.1,3.3,0,5c-0.6,0.2-1.5,0.5-2.3,0.8c0,3.5,0,6.9,0,10.3
		c0,0.3,0.2,0.7,0.4,0.9c0.5,0.6,0.8,1.2,0.8,2c0,1.2,0,2.4,0,3.6c0,1.6-0.9,2.4-2.4,2.4c-1.3,0-2.1-0.9-2.2-2.3c0-1.2,0-2.4,0-3.6
		c0-0.7,0.1-1.4,0.7-1.8c0.4-0.3,0.4-0.7,0.4-1.2c0-3.4,0-6.7,0-10.1c0-0.7-0.3-1.4-0.6-2c-0.3-0.9-0.4-1.8,0-2.8
		c0.4-1.1,0.7-2.1,0.6-3.3c-0.1-2.1,0-4.2,0-6.4c0-0.4,0-0.8,0-1.3c-0.5,0-0.9-0.1-1.2-0.1c-2.4,0-4.7,0-7.1,0c-1,0-1.7-0.3-2.3-1
		c-0.9-1-1.9-2-2.9-2.9c-0.6-0.5-0.9-1.1-0.8-1.9c0.1-0.5,0-1,0-1.6c0-0.6-0.1-1-0.5-1.5c-0.4-0.5-0.6-1.1-0.6-1.7
		c-0.1-1.2-0.1-2.3,0-3.5c0-0.5,0.1-1,0.4-1.4c0.5-0.6,0.5-1.3,0.5-2c0-7.9,0-15.8,0-23.6c0-1.1,0.3-1.9,1.1-2.6
		C133.6,72.1,135.4,70.3,137.1,68.6z"/>
	<path d="M316.9,15.1c2.6,0,5.1,0,7.7,0c0.6-1,1.3-1.9,2.5-2.2c0.8-0.2,1.6-0.1,2.3,0.1c1.3,0.5,2.3,2,2.2,3.4
		c-0.1,1.6-1.2,2.9-2.7,3.3c-1.7,0.4-3.1-0.3-4.3-2.3c-2.5,0-5.1,0-7.6,0c-1.4,2.1-3,2.6-5.5,1c-1.3,1.3-2.7,2.7-4,4.1
		c-0.2,0.2-0.2,0.7-0.2,1.1c0,3.2,0,6.5,0,9.7c0,1.1-0.3,2-1.1,2.7c-1.5,1.4-3,2.9-4.4,4.4c-0.6,0.7-1.3,0.9-2.2,0.9
		c-28.3,0-56.6,0-85,0c-4.1,0-8.2,0-12.4,0c-0.6,0-1.1,0-1.5,0.5c-0.5,0.6-1.3,0.7-2,0.7c-1,0-2.1,0-3.1,0c-0.8,0-1.6-0.2-2.2-0.8
		c-0.2-0.2-0.6-0.4-0.9-0.4c-3.8,0-7.7,0-11.5,0c-0.4,0-0.7,0.1-1.1,0.4c-3.7,3.7-7.3,7.4-11,11.1c-0.3,0.3-0.5,0.5-0.8,0.8
		c-8.9,8.9-17.8,17.8-26.7,26.7c-0.6,0.6-0.8,1.2-0.8,2c0,5.9,0,11.8,0,17.8c0,0.7,0.1,1.2,0.6,1.7c0.3,0.3,0.4,0.9,0.4,1.3
		c0.1,1.3,0,2.6,0,4c0,1.4-0.9,2.2-2.2,2.3c-1.3,0-2.3-0.8-2.3-2.2c0-1.3-0.1-2.6,0-4c0-0.5,0.2-1.2,0.6-1.5
		c0.5-0.5,0.6-1.1,0.6-1.7c0-6.2,0-12.3,0-18.5c0-0.8,0.2-1.4,0.8-2c5.5-5.5,11-11.1,16.5-16.6c7.6-7.6,15.3-15.3,22.9-22.9
		c0.7-0.7,1.4-1,2.3-0.9c3.8,0,7.5,0,11.3,0c0.6,0,1.1-0.1,1.6-0.5c0.3-0.3,0.8-0.5,1.3-0.5c1.4-0.1,2.9,0,4.3,0
		c0.6,0,1.1,0.1,1.4,0.5c0.4,0.5,0.8,0.6,1.4,0.5c0.2,0,0.4,0,0.6,0c31.9,0,63.8,0,95.8,0c1,0,1.8-0.3,2.5-1
		c1.1-1.2,2.3-2.4,3.5-3.5c0.4-0.4,0.6-0.9,0.6-1.5c0-3.4,0-6.9,0-10.3c0-0.7,0.2-1.3,0.7-1.8c1.5-1.5,3-3,4.5-4.5
		c0.3-0.3,0.6-0.7,0.7-1.1c0.4-1.3,1.3-2,2.6-2.2c1.3-0.2,2.3,0.4,3.1,1.4C316.7,14.8,316.8,14.9,316.9,15.1z"/>
	<path d="M316.9,212.8c2.6,0,5.1,0,7.7,0c1.2-2,2.7-2.7,4.4-2.3c1.5,0.4,2.6,1.8,2.6,3.4c0,1.6-1,3-2.5,3.4
		c-1.8,0.6-3.2-0.1-4.6-2.2c-2.5,0-5,0-7.6,0c-0.6,1-1.4,1.8-2.6,1.9c-0.6,0-1.3-0.1-1.8-0.3c-1.4-0.6-1.9-2-1.5-4.3
		c-0.2-0.1-0.6-0.4-0.9-0.7c-5.5-5.4-10.9-10.9-16.4-16.4c-0.7-0.7-1-1.4-1-2.4c0-8,0-16.1,0-24.1c0-0.8-0.2-1.3-0.8-1.9
		c-7.3-7.2-14.5-14.5-21.7-21.7c-0.8-0.8-1.2-1.6-1.2-2.8c0-12.7,0-25.4,0-38c0-0.9-0.3-1.6-0.9-2.2c-3.3-3.3-6.6-6.6-9.9-9.9
		c-0.5-0.5-1-0.7-1.7-0.7c-18.1,0-36.2,0-54.4,0c-0.6,0-1,0.1-1.5,0.5c-0.4,0.4-1.1,0.6-1.7,0.7c-1.2,0.1-2.5,0.1-3.7,0
		c-0.6,0-1.3-0.3-2.1-0.6c-0.6,0.6-1.4,1.3-2,2.1c-0.2,0.2-0.3,0.6-0.3,1c0,1.8,0,3.6,0,5.4c0,0.5,0.2,0.8,0.4,1.2
		c0.3,0.4,0.5,0.9,0.5,1.4c0.1,1.3,0,2.6,0,4c0,1.4-0.8,2.2-2.1,2.3c-1.4,0-2.4-0.8-2.4-2.2c0-1.3,0-2.6,0-4c0-0.7,0.3-1.3,0.9-1.8
		c0.4-0.3,0.5-0.7,0.5-1.1c0-1.9,0-3.8,0-5.8c0-0.8,0.2-1.5,0.8-2c0.9-0.8,1.7-1.7,2.6-2.5c0.6-0.6,1.3-1.1,2-1.5
		c0.3-0.2,0.8-0.3,1.1-0.3c1.4,0,2.7,0,4.1,0c0.6,0,1.1,0.2,1.6,0.6c0.3,0.2,0.7,0.3,1.1,0.4c0.3,0.1,0.6,0,1,0
		c18.1,0,36.2,0,54.2,0c1,0,1.7,0.3,2.4,1c3.6,3.7,7.3,7.4,11,11c0.6,0.6,0.9,1.3,0.9,2.2c0,12.8,0,25.6,0,38.4
		c0,0.9,0.2,1.5,0.9,2.1c7.3,7.3,14.6,14.6,21.9,21.9c0.6,0.6,0.9,1.2,0.9,2.1c0,8,0,16,0,24c0,0.9,0.2,1.5,0.9,2.2
		c5.3,5.3,10.6,10.6,15.9,16c0.5,0.5,1,0.9,1.9,0.7C315.2,210.6,316.2,211.4,316.9,212.8z"/>
	<path d="M312.1,183.1c2.4-0.9,3.4-0.6,4.9,1.4c2.5,0,5.1,0,7.6,0c1.6-2.2,2.9-2.8,4.7-2.1c1.4,0.5,2.4,2,2.4,3.4
		c-0.1,1.6-1.1,2.9-2.6,3.3c-1.7,0.5-3.1-0.2-4.4-2.2c-2.5,0-5,0-7.7,0c-0.2,0.3-0.4,0.6-0.7,0.9c-0.9,1-2,1.3-3.3,0.9
		c-1.3-0.4-2.1-1.3-2.1-2.6c0-0.8-0.4-1.3-0.9-1.8c-2.4-2.4-4.7-4.8-7.1-7.1c-0.5-0.5-0.8-1-0.8-1.8c0-3.6,0-7.2,0-10.8
		c0-0.7-0.2-1.3-0.8-1.8c-5.9-5.9-11.8-11.8-17.7-17.6c-1.8-1.8-3.6-3.7-5.5-5.5c-0.5-0.5-0.5-1.1-0.5-1.7c0-12.6,0-25.2,0-37.8
		c0-1.3-0.4-2.2-1.3-3.1c-3.9-3.8-7.8-7.7-11.6-11.6c-0.6-0.6-1.1-0.9-2-0.9c-20.2,0-40.4,0-60.6,0c-0.6,0-1.1,0-1.6,0.6
		c-0.4,0.5-1,0.6-1.6,0.6c-1.2,0-2.5,0-3.7,0c-0.7,0-1.2-0.2-1.7-0.6c-0.9-0.7-1.5-0.7-2.3,0c-2.4,2.3-4.7,4.7-7.1,7
		c-0.4,0.4-0.6,0.9-0.6,1.5c0,2.3,0,4.6,0,7c0,0.5,0.1,0.9,0.5,1.3c0.4,0.4,0.6,0.9,0.6,1.5c0,1.4,0,2.7,0,4.1c0,1.1-0.7,2-1.7,2.1
		c-1.3,0.2-2.3-0.3-2.7-1.5c-0.1-0.4-0.2-0.9-0.2-1.3c0-1,0-1.9,0-2.9c0-0.9,0.2-1.6,0.9-2.3c0.2-0.2,0.3-0.7,0.3-1.1
		c0-2.5,0-5,0-7.6c0-0.8,0.2-1.4,0.8-2c2.6-2.5,5.2-5.1,7.7-7.7c0.6-0.7,1.3-1,2.2-0.9c0.6,0.1,1.1,0,1.6-0.6c0.4-0.5,1-0.6,1.6-0.6
		c1.3,0,2.6,0,3.8,0c0.7,0,1.4,0.2,1.8,0.8c0.3,0.4,0.7,0.5,1.2,0.4c0.3,0,0.6,0,1,0c20.2,0,40.3,0,60.5,0c1.2,0,2,0.3,2.8,1.2
		c4.2,4.3,8.5,8.5,12.7,12.7c0.7,0.7,1.1,1.5,1,2.5c0,12.7,0,25.4,0,38.2c0,0.9,0.3,1.5,0.9,2.2c7.5,7.4,14.9,14.9,22.3,22.3
		c0.8,0.8,1.1,1.5,1.1,2.6c-0.1,3.4,0,6.9,0,10.3c0,0.8,0.2,1.3,0.7,1.9C307.4,178.4,309.7,180.8,312.1,183.1z"/>
	<path d="M311.8,155c1.1-0.5,1.9-1,2.8-0.6c0.6,0.3,1.2,0.5,1.6,0.9c0.4,0.5,0.9,0.6,1.5,0.6c2.4,0,4.7,0,7,0c1.5-1.9,3-2.5,4.7-1.8
		c1.8,0.7,2.3,2.5,2.2,3.6c-0.1,1.6-1.4,2.9-3,3.2c-1.7,0.3-3.1-0.6-4.1-2.6c-2.5,0-4.9,0-7.4,0c-0.2,0.3-0.3,0.5-0.5,0.8
		c-0.8,1.2-2.1,1.7-3.5,1.3c-1.2-0.3-2.2-1.4-2.3-2.6c0-0.7-0.4-1.1-0.8-1.5c-7.8-7.8-15.7-15.7-23.5-23.5c-0.7-0.7-1-1.4-1-2.4
		c0-12.5,0-25,0-37.6c0-0.9-0.2-1.5-0.9-2.1c-4.2-4.2-8.5-8.4-12.6-12.6c-0.5-0.5-1-0.7-1.8-0.7c-22.7,0-45.4,0-68.2,0
		c-0.6,0-1.1,0-1.6,0.5c-0.3,0.3-0.8,0.4-1.2,0.4c-1.4,0-2.9,0.1-4.3,0c-0.4,0-0.9-0.2-1.2-0.4c-0.5-0.4-1-0.4-1.5-0.5
		c-1.9-0.3-3.3,0.4-4.6,1.8c-3.4,3.6-7,7.1-10.5,10.5c-0.6,0.6-0.9,1.1-0.8,2c0,2.8,0,5.7,0,8.5c0,0.5,0,0.9,0.5,1.4
		c0.4,0.4,0.6,1.1,0.7,1.7c0.1,1.2,0.1,2.4,0,3.6c-0.1,1.6-1.1,2.6-2.6,2.4c-1-0.1-1.9-0.9-1.9-1.9c0-1.5,0-3,0-4.6
		c0-0.4,0.2-0.9,0.5-1.2c0.5-0.5,0.5-1,0.5-1.6c0-3.1,0-6.2,0-9.4c0-0.8,0.3-1.4,0.8-2c4.3-4.3,8.6-8.5,12.8-12.8
		c0.6-0.6,1.3-0.9,2.1-0.9c0.6,0,1.2,0,1.8,0c0.8,0,1.5,0,2.1-0.7c0.3-0.4,1.1-0.5,1.6-0.5c1.2-0.1,2.3,0,3.5,0c0.8,0,1.5,0.2,2,0.8
		c0.3,0.3,0.6,0.5,1,0.4c0.3,0,0.6,0,1,0c22.6,0,45.3,0,67.9,0c1,0,1.8,0.3,2.5,1c4.5,4.5,9,9,13.5,13.5c0.7,0.7,1,1.4,1,2.4
		c0,12.5,0,25,0,37.6c0,0.9,0.3,1.5,0.9,2.2c7.4,7.4,14.8,14.8,22.2,22.2C311.2,154.3,311.5,154.7,311.8,155z"/>
	<path d="M311.7,126.8c2.6-1.1,3.7-0.8,5.2,1.3c2.5,0,5.1,0,7.6,0c1.6-2.2,2.8-2.8,4.6-2.1c1.5,0.5,2.5,1.9,2.4,3.4
		c0,1.6-1.1,3-2.6,3.4c-1.8,0.5-3.2-0.2-4.5-2.3c-2.5,0-5.1,0-7.6,0c-0.5,0.8-1.1,1.5-2.1,1.8c-1.6,0.5-3.6-0.6-3.9-2.2
		c-0.1-0.8-0.5-1.3-1.1-1.8c-5.4-5.4-10.9-10.9-16.3-16.3c-0.6-0.6-0.9-1.2-0.9-2.1c0-7.8,0-15.6,0-23.4c0-0.8-0.2-1.4-0.8-2
		c-4.4-4.4-8.8-8.8-13.2-13.2c-0.6-0.6-1.1-0.8-1.9-0.8c-25,0-49.9,0-74.9,0c-0.6,0-1.1,0-1.7,0.4c-0.4,0.3-0.9,0.3-1.4,0.4
		c-0.9,0.1-1.8,0-2.8,0c-0.9,0-1.8,0-2.6-0.6c-0.2-0.2-0.6-0.2-0.9-0.2c-1.5,0-3,0-4.6,0c-0.6,0-1,0.2-1.4,0.6
		c-5.6,5.7-11.3,11.3-17,17c-0.4,0.4-0.6,0.9-0.6,1.5c0,3.6,0,7.2,0,10.8c0,0.5,0.2,0.9,0.5,1.4c0.4,0.5,0.6,1.1,0.7,1.7
		c0.1,1.2,0.1,2.5,0,3.7c0,1.5-1.1,2.4-2.6,2.3c-1.1-0.1-1.9-0.8-2-1.9c-0.1-1.6,0-3.1,0-4.7c0-0.3,0.2-0.7,0.4-1
		c0.6-0.5,0.6-1.1,0.6-1.7c0-3.7,0-7.4,0-11c0-1,0.3-1.7,1-2.4c5.9-5.9,11.8-11.8,17.7-17.7c0.6-0.6,1.2-0.9,2-0.8
		c1.5,0.1,3,0,4.6,0c0.5,0,0.9-0.1,1.2-0.5c0.4-0.7,1.1-0.9,2-0.9c1.3,0,2.6,0,3.8,0c0.8,0,1.4,0.2,1.8,0.9c0.3,0.4,0.6,0.6,1.1,0.5
		c0.3,0,0.6,0,1,0c24.8,0,49.7,0,74.5,0c1,0,1.8,0.3,2.5,1c4.6,4.7,9.2,9.3,13.9,13.9c0.8,0.8,1.1,1.6,1.1,2.6c0,7.8,0,15.5,0,23.3
		c0,0.7,0.1,1.2,0.6,1.7c5.3,5.2,10.5,10.5,15.7,15.7C311.4,126.5,311.6,126.6,311.7,126.8z"/>
	<path d="M310.9,43.3c1.5-2.6,4.5-2.6,6.1,0c2.5,0,5,0,7.6,0c0.2-0.3,0.4-0.7,0.7-1c1-1.2,2.4-1.6,3.9-1.1c1.4,0.5,2.4,1.7,2.5,3.2
		c0,1.3-0.5,2.7-2.2,3.4c-1.4,0.6-3.4,0.2-4.3-1.3c-0.2-0.3-0.3-0.5-0.5-0.8c-0.2,0-0.5,0-0.7,0c-2.3,0-4.6,0-6.9,0
		c-0.6,1.2-1.6,2-3,2.1c-1.4,0-2.4-0.7-3-2c-0.2,0-0.3,0-0.5,0c-1,0-2.1-0.2-3,0.1c-0.8,0.3-1.5,1.2-2.1,1.9c-0.7,0.8-1.5,1-2.5,1
		c-33.4,0-66.8,0-100.2,0c-0.8,0-1.6,0-2.3,0.7c-0.3,0.3-0.8,0.3-1.2,0.3c-1.3,0-2.6,0-4,0c-0.7,0-1.2-0.2-1.7-0.6
		c-0.3-0.2-0.7-0.4-1.1-0.4c-3.1,0-6.2,0-9.4,0c-0.7,0-1,0.3-1.4,0.7c-4.9,4.9-9.7,9.7-14.6,14.6c-6.2,6.2-12.4,12.4-18.6,18.6
		c-0.6,0.6-0.9,1.2-0.9,2.1c0,5.1,0,10.2,0,15.4c0,0.7,0.1,1.3,0.6,1.8c0.4,0.3,0.5,1,0.6,1.5c0.1,1.3,0.1,2.6,0,4
		c0,1.4-0.9,2.2-2.3,2.2c-1.3,0-2.2-0.9-2.2-2.2c0-1.4-0.1-2.7,0-4.1c0-0.5,0.2-1.1,0.5-1.4c0.6-0.5,0.6-1.1,0.6-1.7
		c0-5.4,0-10.7,0-16.1c0-1.1,0.3-1.9,1.1-2.7C157.8,70,169,58.7,180.3,47.3c0.7-0.7,1.5-1.1,2.5-1c3.1,0.1,6.2,0,9.4,0
		c0.5,0,0.9-0.1,1.4-0.5c0.4-0.4,1.1-0.6,1.7-0.7c1.2-0.1,2.5-0.1,3.7,0c0.6,0.1,1.2,0.3,1.7,0.7c0.5,0.3,0.9,0.5,1.4,0.5
		c0.2,0,0.4,0,0.6,0c33.1,0,66.1,0,99.2,0c1,0,1.8-0.3,2.5-1c2.4-2.4,1.3-1.9,4.6-1.9C309.7,43.3,310.3,43.3,310.9,43.3z"/>
	<path d="M317,71.6c2.5,0,5,0,7.5,0c1.5-2.2,2.9-2.8,4.7-2.3c1.5,0.5,2.5,1.9,2.4,3.5c-0.1,1.5-1.1,2.9-2.7,3.3
		c-1.7,0.5-3.1-0.2-4.4-2.2c-2.5,0-5.1,0-7.6,0c-2.1,2.6-4.1,2.6-6.1,0c-0.8,0-1.7,0-2.6,0c-0.8,0-1.4-0.2-1.9-0.8
		c-2.4-2.4-4.8-4.8-7.2-7.2c-3.1-3.1-6.2-6.2-9.3-9.3c-0.5-0.5-1-0.8-1.8-0.8c-28.6,0-57.3,0-85.9,0c-0.6,0-1,0.1-1.5,0.5
		c-0.3,0.3-0.9,0.5-1.4,0.5c-1.4,0.1-2.8,0.1-4.2,0c-0.5,0-1-0.2-1.4-0.5c-0.4-0.4-0.9-0.5-1.4-0.5c-2.6,0-5.1,0-7.7,0
		c-0.7,0-1.2,0.2-1.7,0.7c-2.3,2.3-4.6,4.6-6.9,7c-6.7,6.8-13.5,13.6-20.2,20.3c-0.6,0.6-0.9,1.2-0.9,2.1c0,4.7,0,9.4,0,14.2
		c0,0.6,0,1.2,0.6,1.7c0.3,0.3,0.5,0.9,0.5,1.4c0.1,1.4,0.1,2.7,0,4.1c-0.1,1.6-1.1,2.4-2.7,2.2c-1-0.1-1.8-0.9-1.8-1.9
		c0-1.5-0.1-3,0-4.6c0-0.4,0.3-1,0.6-1.3c0.5-0.4,0.5-0.9,0.5-1.5c0-5.1,0-10.2,0-15.4c0-0.8,0.2-1.3,0.8-1.9
		c9.5-9.5,18.9-19,28.4-28.5c0.7-0.7,1.3-1,2.3-1c2.7,0.1,5.4,0,8.2,0c0.5,0,0.9-0.1,1.4-0.5c0.4-0.4,1.1-0.6,1.7-0.7
		c1.3-0.1,2.6,0,3.8,0c0.7,0,1.3,0.2,1.7,0.7c0.3,0.4,0.7,0.5,1.1,0.5c0.3,0,0.6,0,1,0c28.6,0,57.1,0,85.7,0c1.1,0,1.9,0.3,2.6,1.1
		c5.3,5.4,10.7,10.7,16,16.1c0.8,0.8,1.5,1.2,2.6,1.1c0.4-0.1,0.7,0,1.1,0C312.5,69.1,315.2,68.8,317,71.6z"/>
	<path d="M311.4,99c2.4-1.8,3.9-1.6,5.6,0.7c2.5,0,5.1,0,7.7,0c0.6-1,1.3-1.9,2.6-2.2c0.8-0.2,1.5-0.1,2.2,0.2
		c1.3,0.5,2.3,2,2.2,3.4c-0.1,1.6-1.2,2.9-2.7,3.3c-1.6,0.4-3.1-0.3-4.3-2.3c-2.5,0-5.1,0-7.6,0c-0.2,0.3-0.4,0.6-0.6,0.9
		c-1.4,1.6-3.9,1.4-5.1-0.3c-0.4-0.6-0.8-1.1-1.3-1.6c-3.1-3.1-6.2-6.2-9.3-9.3c-0.5-0.5-0.8-1-0.7-1.8c0-3.1,0-6.2,0-9.2
		c0-0.9-0.2-1.5-0.8-2.1c-5-5-10-10-15-15c-0.5-0.5-1.1-0.8-1.9-0.8c-26.6,0-53.3,0-79.9,0c-0.6,0-1.1,0-1.6,0.6
		c-0.3,0.4-1,0.6-1.5,0.6c-1.4,0.1-2.7,0-4.1,0c-0.6,0-1.2-0.2-1.6-0.6c-0.4-0.5-0.9-0.6-1.5-0.6c-1.8,0-3.6,0-5.4,0
		c-0.6,0-1,0.2-1.5,0.6c-7.5,7.6-15.1,15.1-22.7,22.7c-0.4,0.4-0.6,0.9-0.6,1.5c0,4.2,0,8.5,0,12.7c0,0.5,0,0.9,0.5,1.3
		c0.5,0.4,0.7,1,0.7,1.7c0,1.3,0,2.6,0,4c0,1.3-0.9,2.2-2.2,2.2c-1.3,0-2.3-0.7-2.3-2c-0.1-1.4,0-2.9,0-4.3c0-0.4,0.2-0.9,0.5-1.2
		c0.5-0.5,0.6-1.1,0.6-1.7c0-4.4,0-8.8,0-13.2c0-0.9,0.2-1.5,0.9-2.1c7.8-7.8,15.6-15.5,23.3-23.3c0.6-0.6,1.2-0.9,2-0.8
		c2.1,0,4.2,0,6.4,0c0.5,0,1,0,1.4-0.5c0.4-0.5,1.1-0.7,1.7-0.7c1.2,0,2.4,0,3.6,0c0.8,0,1.4,0.2,2,0.7c0.2,0.2,0.6,0.3,0.9,0.4
		c0.3,0.1,0.6,0,1,0c26.6,0,53.3,0,79.9,0c1.1,0,1.9,0.3,2.7,1.1c5.2,5.3,10.4,10.5,15.7,15.7c0.8,0.8,1.1,1.6,1.1,2.7
		c-0.1,2.9,0,5.8,0,8.8c0,0.7,0.2,1.2,0.7,1.7C305.7,93.4,308.5,96.2,311.4,99z"/>
	<path d="M26.1,10.8c0.8,0.5,1.5,1.1,1.5,2.2c0,1-0.5,1.6-1.2,2c-1,0.6-2.8,0.2-3.5-0.7c-0.7-0.9-0.5-2.2,0.5-3.2
		c0.1-0.1,0.3-0.2,0.3-0.3c0-1,0.1-1.9,0-2.9c0-0.4-0.5-0.8-0.8-1.1c-0.8-1.1-1.8-1.4-3.1-1.3c-3.2,0.1-6.5,0-9.7,0
		c-0.6,0-1.1,0.2-1.6,0.6C7.4,7.4,6.1,8.7,4.9,9.9c-0.4,0.4-0.6,0.9-0.6,1.5c0,2.2,0,4.5,0,6.7c0,12.8,0,25.5,0,38.3
		c0,0.5,0,1,0,1.4c2.7,1.9,2.7,4.3,0.1,6c0,17.9,0,35.9,0,53.9c2.6,2.2,2.6,4.4,0,6c0,17.5,0,35.1,0,52.6c1.8,1.3,2.3,2.6,1.8,4.1
		c-0.4,1.3-1.6,2-3,2c-1.5,0-2.6-0.9-3-2.3c-0.4-1.4,0.2-2.6,1.8-3.7c0-17.5,0-35.1,0-52.7c-1.1-0.6-1.9-1.5-1.9-2.9
		c0-1.4,0.7-2.3,1.9-3c0-18,0-36,0-53.9c-0.5-0.5-1.1-1-1.4-1.5c-0.8-1.3-0.6-3,0.6-3.9c0.7-0.6,0.9-1.2,0.9-2c0-15.1,0-30.2,0-45.2
		C1.9,10,2.3,9,3.2,8.2c1.4-1.3,2.7-2.7,4.1-4.1c0.6-0.6,1.2-0.9,2-0.9c4.2,0,8.3,0,12.5,0c0.7,0,1.3,0.2,1.8,0.7
		c0.6,0.7,1.3,1.3,1.9,2c0.4,0.4,0.6,0.9,0.6,1.5C26.1,8.5,26.1,9.7,26.1,10.8z"/>
	<path d="M264.9,144.7c0,11.1,0,22.2,0,33.2c0,0.9-0.3,1.6-0.9,2.2c-7.4,7.4-14.8,14.8-22.2,22.2c-0.2,0.2-0.4,0.4-0.6,0.6
		c-0.7,0.8-0.6,1.6,0.3,2.1c1.1,0.6,2,2.2,1.6,3.9c-0.3,1.5-1.7,2.5-3.2,2.6c-1.6,0.1-3-0.8-3.6-2.3c-0.6-1.5-0.1-3.3,1.3-4.1
		c0.7-0.4,1-0.8,0.9-1.6c-0.2-0.9,0.3-1.6,0.9-2.2c7.5-7.4,14.9-14.9,22.3-22.3c0.6-0.6,0.8-1.2,0.8-2c0-21.7,0-43.4,0-65
		c0-0.8-0.2-1.3-0.8-1.9c-3.9-3.8-7.7-7.7-11.5-11.5c-0.5-0.5-1.1-0.8-1.9-0.8c-16.2,0-32.4,0-48.6,0c-1.5,0-2,0.5-2,2
		c0,0.7,0,1.4,0.7,1.9c0.3,0.3,0.5,0.9,0.5,1.4c0.1,1.3,0.1,2.6,0,4c0,1.5-0.9,2.3-2.4,2.3c-1.3,0-2.1-0.9-2.2-2.3
		c0-1.2-0.1-2.5,0-3.7c0-0.6,0.2-1.2,0.6-1.6c0.4-0.5,0.5-0.9,0.5-1.5c0-0.1,0-0.2,0-0.4c-0.4-1.8,0.7-2.8,1.8-3.8
		c0.2-0.2,0.6-0.3,0.9-0.3c0.3-0.1,0.6,0,1,0c16.6,0,33.2,0,49.8,0c1.1,0,1.9,0.3,2.7,1.1c4,4.1,8.1,8.2,12.2,12.2
		c0.7,0.7,1,1.4,1,2.4C264.9,122.5,264.9,133.6,264.9,144.7z"/>
	<path d="M11.3,54c0,0.4,0,0.8,0,1.3c0,16.4,0,32.8,0,49.2c0,0.8,0.1,1.5,0.9,2c1.5,1,1.3,3.6,0.2,4.6c-0.3,0.3-0.6,0.5-1,0.8
		c0,18.2,0,36.4,0,54.6c2.6,1.6,2.5,4.7,0,6.1c0,0.4,0,0.8,0,1.3c0,17.4,0,34.7,0,52.1c0,0.8,0,1.5,0.9,2c1.1,0.7,1.3,2.3,0.8,3.6
		c-0.5,1.3-1.7,1.9-3.2,1.8c-1.3-0.1-2.4-1-2.7-2.3c-0.3-1.3,0-2.5,1.1-3.2c0.7-0.5,0.8-1,0.8-1.8c0-10.1,0-20.2,0-30.4
		c0-7.3,0-14.6,0-21.8c0-0.4,0-0.9,0-1.3c-2.7-2.1-2.7-4.1,0-6.2c0-0.4,0-0.8,0-1.2c0-17.4,0-34.7,0-52.1c0-0.9-0.2-1.4-0.9-2
		c-1.6-1.3-1.5-3.7,0.2-4.9c0.5-0.3,0.7-0.7,0.7-1.3c0-16.9,0-33.8,0-50.6c0-0.1,0-0.2,0-0.4c-1.2-0.6-2-1.6-2-3
		c0-0.8,0.3-1.6,0.9-2.3c1.2-1.2,3.3-1.2,4.5,0.1C13.9,50.3,13.4,52.4,11.3,54z"/>
	<path d="M238.9,12.5c0,0.8,0.1,1.3,0.1,2c0.4,0,0.7,0.1,1,0.1c4.2,0,8.3,0,12.5,0c0.6,0,1-0.1,1.4-0.6c1.6-1.6,3.9-1.6,5.4,0.1
		c0.3,0.4,0.6,0.5,1.1,0.5c3.1,0,6.2,0,9.2,0c0.6,0,0.8-0.3,1.2-0.6c1.9-2,5-1.3,5.9,0.9c0.7,2,0.1,3.8-1.7,4.7
		c-1.7,0.8-3.8,0.1-4.7-1.7c-0.2-0.3-0.3-0.7-0.4-1.1c-0.6,0-1.2,0-1.8,0c-0.6,0-1.1,0-1.7,0c0,0.4-0.1,0.7-0.1,1c0,2.7,0,5.4,0,8.2
		c0,0.6,0.1,1.1,0.6,1.5c0.6,0.6,1.2,1.2,1.8,1.8c0.3,0.3,0.7,0.5,1.1,0.5c2.1,0,4.2,0,6.2,0c1.4-1.8,2.6-2.3,4.1-1.7
		c1.3,0.5,2.1,1.7,2.1,3c0,1.3-0.9,2.5-2.2,2.9c-1.5,0.5-2.8-0.1-4-1.9c-0.7,0-1.4,0-2.2,0c-1.6,0-3.2,0-4.8,0
		c-0.5,0-0.9-0.1-1.3-0.5c-1-1.1-2-2.1-3.1-3.2c-0.5-0.5-0.7-1-0.7-1.7c0-2.8,0-5.7,0-8.5c0-0.4,0-0.9,0-1.4c-1.3,0-2.6,0-3.8,0
		c-0.6,1.9-1.7,3.1-3.9,3c-1.8-0.1-2.7-1.3-3.3-3c-4.6,0-9.2,0-14,0c0,0.6-0.1,1.2-0.1,2c-1.1,0-2.2,0.1-3.2,0
		c-1-0.1-1.6,0.2-2.3,0.9c-1.8,1.9-1.3,1.5-3.7,1.6c-0.5,0-1,0-1.5,0c-0.1,0.1-0.2,0.2-0.3,0.3c-1.2,1.7-2.6,2.1-4.4,1.2
		c-0.4-0.2-1-0.3-1.5-0.3c-6.8,0-13.7,0-20.5,0c-1,0-1.7-0.3-2.4-1c-1.6-1.7-3.4-3.4-5.1-5.1c-0.4-0.4-0.8-0.6-1.3-0.7
		c-2.1-0.3-3.4-2.1-3-4.2c0.3-1.8,2.1-3.1,4.1-2.7c1.9,0.3,3.2,2.3,2.8,4.2c-0.1,0.6-0.5,1.2-0.8,2c1.6,1.6,3.3,3.3,5,5
		c0.2,0.2,0.6,0.3,0.9,0.3c6.6,0,13.3,0,19.9,0c0.1,0,0.2-0.1,0.4-0.1c0.2-1.7,1.1-2.9,2.9-3.1c1.5-0.2,2.6,0.7,3.3,2
		c0.3,0,0.7,0,1.1,0.1c1.1,0.2,2-0.2,2.7-1.1c0.5-0.5,0.8-1,0.7-1.8c-0.1-1.2,0-2.4,0-3.8C234.8,12.5,236.9,12.4,238.9,12.5z"/>
	<path d="M94.4,123.1c-8,0-16,0-24,0c-0.9,0-1.6-0.2-2.3-0.9C58,112.1,47.9,102.1,37.9,92c-1.6-1.6-3.2-3.2-4.7-4.8
		c-0.6-0.6-1.2-0.9-2-0.8c-1,0.1-2,0-3,0c-0.5,0-0.9,0.1-1.3,0.5c-0.9,0.9-2,0.8-3.1,0.4c-1-0.3-1.4-1.3-1.2-2.5
		c0.1-0.9,0.8-1.7,1.8-1.8c1-0.2,2-0.1,2.8,0.8c0.3,0.4,0.7,0.4,1.1,0.4c1.5,0,3,0,4.4,0c0.6,0,1,0.1,1.4,0.6
		c0.2,0.2,0.3,0.3,0.5,0.5c11.6,11.6,23.1,23.1,34.7,34.7c0.7,0.7,1.3,1,2.3,1c16,0,31.9,0,47.9,0c1.2,0,2.1,0.4,2.9,1.2
		c3.4,3.4,6.8,6.8,10.2,10.2c0.7,0.7,1,1.4,1,2.4c-0.1,2.8,0,5.7,0,8.5c0,0.6,0.1,1,0.5,1.5c0.3,0.3,0.5,0.9,0.5,1.4
		c0.1,1.4,0,2.7,0,4.1c0,1.2-0.7,2.1-1.8,2.2c-1.3,0.2-2.2-0.4-2.6-1.6c-0.1-0.4-0.2-0.8-0.2-1.2c0-0.9,0-1.8,0-2.8
		c0-0.9,0.1-1.8,0.9-2.5c0.2-0.2,0.3-0.6,0.3-0.9c0-2.8,0-5.7,0-8.5c0-0.5-0.1-0.8-0.5-1.2c-3.4-3.4-6.9-6.8-10.3-10.3
		c-0.5-0.5-1-0.5-1.5-0.5c-5.2,0-10.3,0-15.5,0C100.4,123.1,97.4,123.1,94.4,123.1z"/>
	<path d="M89.1,128.9c-8,0-16,0-24,0c-0.8,0-1.3-0.2-1.9-0.8C52,116.9,40.8,105.6,29.6,94.4c-0.5-0.5-0.8-0.9-1.6-0.8
		c-0.4,0.1-0.7,0.1-1,0.4c-0.8,0.8-1.8,0.8-2.8,0.6c-1.2-0.3-1.7-1.3-1.6-2.6c0.1-1.1,0.9-1.8,2.1-1.9c0.9-0.1,1.9,0,2.5,0.8
		c0.3,0.4,0.7,0.4,1.1,0.3c1.2-0.2,2,0.4,2.8,1.2c11,11.1,22,22.1,33,33.1c0.7,0.7,1.5,1,2.5,1c15.7,0,31.4,0,47.1,0
		c1.1,0,1.9,0.3,2.6,1.1c3,3.1,6,6.1,9.1,9.1c0.6,0.6,0.9,1.2,0.8,2c-0.1,1.5,0,3,0,4.6c0,0.5,0.1,0.9,0.5,1.3
		c0.4,0.4,0.7,1,0.7,1.6c0.1,1.3,0.1,2.6,0,4c-0.1,1.6-1.2,2.4-2.7,2.2c-1-0.1-1.8-0.8-1.8-1.9c0-1.6,0-3.1,0-4.7
		c0-0.4,0.2-0.9,0.5-1.2c0.5-0.4,0.5-0.9,0.5-1.4c0-1.3,0-2.6,0-4c0-0.5-0.1-0.9-0.5-1.3c-2.9-2.9-5.8-5.7-8.6-8.7
		c-0.5-0.5-1-0.5-1.6-0.5C105.1,128.9,97.1,128.9,89.1,128.9z"/>
	<path d="M95.7,152.4c-1.3-0.6-1.7-1.7-1.6-3c0.1-1,0-2.1,0-3.1c0-1.4,1-2.3,2.2-2.3c1.3,0,2.3,0.9,2.3,2.2c0.1,1.4,0,2.7,0,4.1
		c0,0.3-0.1,0.7-0.2,0.9c-0.5,0.7-0.5,1.4-0.5,2.2c0,1.1,0,2.2,0,3.4c0,0.5,0.1,0.8,0.5,1.2c3.8,3.8,7.6,7.6,11.4,11.4
		c0.5,0.5,1,0.4,1.5,0.4c6.1,0,12.2,0,18.2,0c2.5,0,5,0,7.4,0c0.7,0,1.5-0.1,2.2-0.2c1.6-0.2,2.8,0.6,2.8,2.3c0.1,1.3,0,2.6,0,4
		c0,0.6-0.2,1.2-0.7,1.6c-0.4,0.4-0.5,0.8-0.5,1.4c0,8.2,0,16.3,0,24.5c0,0.5,0.1,0.9,0.5,1.4c0.4,0.4,0.6,1.1,0.7,1.6
		c0.1,1.4,0.1,2.7,0,4.1c-0.1,1.7-1.7,2.6-3.2,2c-0.9-0.4-1.3-1-1.3-1.9c0-1.4-0.1-2.9,0-4.3c0-0.5,0.3-1.1,0.6-1.5
		c0.3-0.4,0.4-0.7,0.4-1.2c0-8.3,0-16.6,0-24.8c0-0.5-0.1-0.8-0.5-1.2c-0.5-0.5-0.7-1.1-0.7-1.8c0-1.1,0-2.2,0-3.5c-0.6,0-1,0-1.5,0
		c-8.5,0-17,0-25.4,0c-1,0-1.7-0.3-2.4-1c-3.8-3.9-7.7-7.7-11.5-11.5c-0.7-0.7-1-1.3-1-2.3C95.8,155.6,95.7,154,95.7,152.4z"/>
	<path d="M102.9,152.4c-1.3-0.6-1.8-1.6-1.7-3c0.1-1.2,0-2.4,0.1-3.6c0.2-1.6,1.8-2.4,3.2-1.7c0.8,0.4,1.2,1,1.2,1.8
		c0,1.5,0,3,0,4.4c0,0.2,0,0.5-0.2,0.7c-0.7,1-0.4,2.1-0.4,3.1c0,0.3,0.2,0.7,0.5,0.9c2.3,2.3,4.6,4.6,6.8,6.9
		c0.5,0.5,1,0.5,1.6,0.5c9.2,0,18.3,0,27.5,0c1.1,0,1.9,0.3,2.6,1.1c1,1.1,2.1,2.1,3.1,3.1c0.5,0.5,0.9,1,0.8,1.8
		c-0.1,0.7,0.1,1.3,0.6,1.8c0.3,0.3,0.5,0.8,0.5,1.3c0.1,1.4,0.1,2.8,0,4.2c0,0.5-0.2,1.1-0.5,1.4c-0.6,0.5-0.6,1.1-0.6,1.7
		c0,5.1,0,10.2,0,15.2c0,3,0,5.9,0,8.9c0,0.6,0,1.1,0.6,1.6c0.4,0.3,0.5,1,0.5,1.5c0.1,1.3,0,2.6,0,4c0,1.4-0.9,2.3-2.2,2.3
		c-1.3,0-2.3-0.9-2.3-2.2c-0.1-1.4-0.1-2.7,0-4.1c0-0.5,0.2-1.2,0.6-1.5c0.5-0.5,0.6-1,0.6-1.6c0-6.8,0-13.7,0-20.5
		c0-1.3,0-2.6,0-3.8c0-0.5,0-1-0.5-1.4c-0.5-0.4-0.7-1-0.7-1.6c0-1.3,0-2.6,0-3.8c0-0.7,0.3-1.4,0.8-1.9c0.6-0.6,0.6-1.2,0-1.8
		c-1-1-2-2-3-3c-0.2-0.2-0.6-0.3-1-0.3c-0.7-0.1-1.4,0-2.2,0c-8.7,0-17.4,0-26,0c-0.9,0-1.6-0.2-2.2-0.9c-2.5-2.5-4.9-5-7.5-7.5
		c-0.6-0.6-0.9-1.2-0.8-2C103,153.8,102.9,153.2,102.9,152.4z"/>
	<path d="M48.5,54.2c0,5.1,0,10.2,0,15.2c0,0.8,0.2,1.4,0.8,2c7.4,7.3,14.7,14.7,22.1,22c1.2,1.2,2.6,2.4,3.9,3.5
		c0.6,0.5,0.9,1.1,0.8,1.9c0,0.5,0,1,0,1.4c0,0.5,0,0.9,0.5,1.4c0.4,0.4,0.6,1,0.7,1.6c0.1,1.3,0.1,2.6,0,3.8
		c-0.1,1.5-1.2,2.4-2.6,2.3c-1-0.1-1.8-0.8-1.9-1.8c-0.1-1.6-0.1-3.1,0-4.7c0-0.4,0.3-0.9,0.5-1.3c0.7-0.9,0.7-2.7-0.1-3.5
		c-0.7-0.6-1.5-1.2-2.2-1.8c-0.2-0.2-0.5-0.4-0.7-0.6c-7-7-14-14-21-21c-0.9-0.9-1.7-1.8-2.6-2.7c-0.3-0.3-0.5-0.7-0.5-1.2
		c0-0.3,0-0.6,0-0.8c0-10,0-20.1,0-30.1c0-0.9-0.2-1.5-0.9-2.1c-2.8-2.8-5.5-5.6-8.3-8.4c-0.5-0.6-1.1-0.8-1.9-0.8
		c-2.4,0.1-4.7,0-7.1,0c-0.6,0-1.1,0.1-1.5,0.5c-0.8,0.6-1.7,0.7-2.6,0.4c-1.2-0.4-1.7-1.2-1.5-2.6c0.1-1,0.9-1.7,2.1-1.8
		c1-0.1,1.9,0,2.6,0.9c0.3,0.5,0.8,0.4,1.2,0.4c2.6,0,5.1,0,7.7,0c0.9,0,1.6,0.3,2.2,0.9c3.1,3.2,6.3,6.4,9.5,9.5
		c0.6,0.6,0.8,1.1,0.8,1.9C48.5,43.9,48.5,49,48.5,54.2z"/>
	<path d="M80,134.6c-9.6,0-19.1,0-28.7,0c-0.9,0-1.5,0.2-2.1,0.9c-3.5,3.6-7.1,7.1-10.7,10.7c-0.6,0.6-1.2,0.9-2.1,0.9
		c-2.7,0-5.4,0-8.2,0c-0.5,0-0.9,0.1-1.4,0.5c-0.8,0.8-2.3,0.9-3.3,0.3c-0.8-0.5-1.1-1.2-1-2.1c0-0.8,0.4-1.5,1.1-1.8
		c1.1-0.5,2.2-0.5,3.2,0.3c0.4,0.4,0.9,0.5,1.4,0.5c2.5,0,5,0,7.6,0c0.7,0,1.2-0.2,1.7-0.7c3.6-3.6,7.2-7.2,10.8-10.8
		c0.6-0.6,1.2-0.9,2.1-0.9c19.8,0,39.6,0,59.4,0c0.9,0,1.5,0.3,2.1,0.9c2.2,2.2,4.4,4.4,6.6,6.6c0.4,0.4,0.7,0.9,0.6,1.5
		c0,0.6,0,1.1,0,1.7c0,0.7,0.1,1.2,0.6,1.7c0.3,0.4,0.6,1,0.6,1.5c0.1,1.3,0.1,2.6,0,3.8c0,1.5-0.9,2.3-2.3,2.3
		c-1.4,0-2.2-0.8-2.2-2.3c0-1.3-0.1-2.6,0-4c0-0.5,0.2-1,0.5-1.4c0.4-0.4,0.5-0.9,0.5-1.4c0-0.4,0-0.7,0-1.1c0.1-0.6-0.2-1-0.6-1.5
		c-1.9-1.8-3.7-3.6-5.5-5.5c-0.5-0.5-1-0.7-1.7-0.7C99.2,134.6,89.6,134.6,80,134.6z"/>
	<path d="M27.5,152.4c4.6,0,9.2,0,13.7,0c0.7,0,1-0.3,1.4-0.7c4.4-4.4,8.8-8.7,13.1-13.2c0.8-0.8,1.5-1.1,2.6-1.1
		c15.9,0,31.7,0,47.6,0c1.1,0,1.8,0.3,2.5,1.1c0.8,0.9,1.7,1.8,2.6,2.6c0.6,0.5,0.9,1.1,0.8,1.9c-0.1,0.7,0.1,1.3,0.6,1.8
		c0.3,0.3,0.5,0.9,0.5,1.3c0.1,1.4,0,2.7,0,4.1c0,1.3-1,2.2-2.2,2.2c-1.3,0-2.3-0.8-2.3-2.1c-0.1-1.4,0-2.8,0-4.2
		c0-0.7,0.3-1.2,0.8-1.7c0.6-0.6,0.6-1.2,0-1.8c-0.9-0.9-1.7-1.8-2.6-2.6c-0.2-0.2-0.6-0.3-1-0.4c-0.2-0.1-0.5,0-0.7,0
		c-15.2,0-30.5,0-45.7,0c-1,0-1.6,0.3-2.3,1c-4.3,4.4-8.7,8.7-13,13.1c-0.7,0.7-1.4,1-2.4,1c-4.5-0.1-9,0-13.4,0
		c-0.6,0-1.2,0-1.7,0.4c-0.7,0.4-1.5,0.5-2.3,0.2c-1.2-0.4-1.7-1.2-1.6-2.6c0.1-1.1,0.9-1.7,2.1-1.8C26,150.8,27,151.1,27.5,152.4z"
		/>
	<path d="M248.4,162.7c0.4,0.2,0.6,0.3,0.8,0.4c1.6,0.9,2.1,2.8,1.2,4.3c-0.9,1.5-2.9,2-4.4,1.1c-1.5-0.9-1.9-2.9-0.9-4.4
		c0-0.1,0.1-0.2,0.1-0.2c1.1-0.6,0.9-1.6,0.9-2.6c0-7.7,0-15.4,0-23.2c0-0.8-0.2-1.4-0.8-2c-1.2-1.1-2.4-2.3-3.5-3.5
		c-0.6-0.7-1.2-0.9-2.1-0.8c-0.7,0.1-1.4,0-2,0c-0.8,0-1.5,0-2.1,0.7c-0.3,0.3-0.9,0.4-1.3,0.5c-1.4,0.1-2.7,0.1-4.1,0
		c-0.6,0-1.2-0.3-1.6-0.7c-0.4-0.3-0.7-0.5-1.3-0.5c-2.7,0-5.4,0-8.2,0c-0.5,0-0.9,0.1-1.3,0.5c-4,4.1-8.1,8.2-12.1,12.3
		c0,0,0,0.1-0.1,0.1c0.8,1.9,0.5,3.9,0.4,5.9c-0.1,1.3-1.1,2-2.5,1.9c-1.2-0.1-2-0.9-2-2.1c0-1.4,0-2.7,0-4.1c0-0.7,0.3-1.2,0.7-1.7
		c3-3,6-6,9-8.9c1.8-1.7,3.5-3.5,5.3-5.3c0.5-0.5,1.1-0.8,1.8-0.7c2.9,0,5.8,0,8.8,0c0.6,0,1.1-0.1,1.5-0.5c0.4-0.5,1-0.6,1.6-0.6
		c1.3,0,2.6,0,3.8,0c0.7,0,1.3,0.2,1.7,0.7c0.4,0.5,0.8,0.5,1.3,0.5c1.4,0,2.7,0,4.1,0c0.6,0,1,0.2,1.4,0.6c1.7,1.7,3.4,3.4,5.1,5.1
		c0.6,0.6,0.7,1.2,0.7,1.9c0,8.1,0,16.2,0,24.2C248.4,161.7,248.4,162.2,248.4,162.7z"/>
	<path d="M58.8,176.7c0-2.6,0-5.2,0-7.8c0-0.8,0.2-1.4,0.8-2c4.4-4.4,8.8-8.8,13.2-13.1c0.2-0.2,0.4-0.4,0.6-0.6
		c0.4-0.4,0.5-0.9,0-1.2c-0.7-0.6-0.8-1.3-0.7-2.2c0-1.2,0-2.4,0-3.6c0-1.2,0.7-2,1.9-2.2c1.1-0.2,2.1,0.5,2.5,1.6
		c0.1,0.4,0.2,0.8,0.2,1.2c0,1,0,1.9,0,2.9c0,0.5,0,1.1-0.3,1.4c-1.1,1-0.7,2.7-1.8,3.7c-4.1,3.9-8,7.9-12,11.9c-2,2-2,2-2,4.8
		c0,4.6,0,9.3,0,13.9c0,0.9-0.3,1.6-0.9,2.2c-3.4,3.3-6.7,6.7-10,10c-0.4,0.4-0.7,0.7-0.8,1.3c0,0.3-0.4,0.6-0.6,0.9
		c-4.4,4.4-8.9,8.9-13.3,13.3c-0.5,0.5-1.1,0.8-1.8,0.7c-1.9,0-3.8,0-5.6,0c-0.5,0-0.9,0-1.3,0.4c-0.6,0.5-1.4,0.6-2.1,0.5
		c-1.4-0.1-2.1-1-2.1-2.4c0-1.3,0.8-2.1,2.2-2.1c1,0,1.8,0.1,2.5,0.9c0.2,0.2,0.5,0.3,0.8,0.3c1.8,0,3.5,0,5.3,0
		c0.3,0,0.8-0.2,1-0.5c4.2-4.1,8.3-8.3,12.5-12.5c0.1-0.1,0.4-0.3,0.4-0.5c0.1-0.9,0.8-1.4,1.3-1.9c2.4-2.4,4.8-4.7,7.1-7.1
		c1-1,1.9-2,2.8-2.9c0.4-0.4,0.4-0.8,0.4-1.3C58.8,182.1,58.8,179.4,58.8,176.7z"/>
	<path d="M40.6,58.5c0,5.1,0,10.2,0,15.2c0,0.8,0.2,1.4,0.8,2c8.2,8.2,16.4,16.4,24.6,24.6c0.4,0.4,0.8,0.8,1.5,0.7
		c1.4-0.2,2.4,0.8,2.5,2.2c0.1,1.4,0.1,2.8,0,4.2c-0.1,1.3-1.1,2.1-2.4,2.1c-1.2,0-2-0.9-2.1-2.2c0-1.1,0-2.2,0-3.2
		c0-0.7-0.2-1.2-0.7-1.7c-4.1-4-8.1-8.1-12.1-12.1c-4.5-4.5-8.9-9-13.4-13.4c-0.7-0.7-0.9-1.3-0.9-2.2c0-10.2,0-20.3,0-30.5
		c0-0.9-0.2-1.5-0.9-2.1c-1.9-1.8-3.7-3.6-5.5-5.5c-0.6-0.7-1.3-1-2.2-0.9c-0.4,0-0.8,0-1.2,0c-0.7,0-1.2,0.1-1.8,0.6
		c-0.9,0.8-2.1,0.8-3.1,0.3c-0.9-0.4-1.3-1.6-1.1-2.7c0.2-0.8,1-1.5,1.9-1.5c1,0,1.9-0.1,2.6,0.8c0.2,0.2,0.6,0.2,1,0.3c1,0,2,0,3,0
		c0.6,0,1.1,0.2,1.5,0.6c2.5,2.5,5,5,7.5,7.5c0.5,0.5,0.5,1,0.5,1.6C40.6,48.2,40.6,53.3,40.6,58.5z"/>
	<path d="M65.9,151.7c-0.3,0.3-0.5,0.5-0.7,0.7c-3.6,3.6-7.2,7.2-10.9,10.8c-0.5,0.5-0.7,1-0.7,1.8c0,4.8,0,9.5,0,14.3
		c0,0.9-0.2,1.5-0.9,2.1c-5.9,5.9-11.7,11.8-17.6,17.7c-2.1,2.1-4.2,4.3-6.4,6.3c-0.7,0.7-1.5,1.3-2.4,1.8c-0.9,0.5-1.9,0.5-2.8,0
		c-0.9-0.4-1.2-1.2-1.1-2.2c0.1-0.9,0.5-1.6,1.4-1.9c1-0.4,1.9-0.2,3.2,0.5c0.2-0.2,0.5-0.4,0.7-0.6c7.6-7.6,15.2-15.2,22.8-22.8
		c0.5-0.5,0.7-1,0.7-1.7c0-4.8,0-9.5,0-14.3c0-1.1,0.3-1.8,1.1-2.5c4.1-4.1,8.2-8.2,12.3-12.3c0.6-0.6,0.9-1.2,0.8-2
		c-0.1-0.4,0-0.9,0-1.3c-0.2-1.2,1-2.2,2.1-2.3c1.2-0.1,2.3,0.8,2.4,2c0.1,1.5,0.1,3,0,4.6c-0.1,1.5-1.7,2.3-3.2,1.7
		C66.5,152.1,66.3,151.9,65.9,151.7z"/>
	<path d="M159.1,208c0-0.6,0-1.2,0-1.8c0-0.6,0.1-1.2,0.6-1.6c0.5-0.4,0.5-0.9,0.5-1.4c0-3.7,0-7.4,0-11c0-4.5,0-9,0-13.4
		c0-0.6-0.1-1-0.5-1.5c-0.3-0.3-0.5-0.9-0.5-1.4c-0.1-1.4-0.1-2.8,0-4.2c0-0.5,0.2-1,0.5-1.4c0.4-0.4,0.5-0.9,0.5-1.4
		c0-5.2,0-10.3,0-15.5c0-0.6-0.1-1.1-0.7-1.4c-0.6-0.4-0.9-1-0.9-1.7c0-1.3,0-2.6,0-4c0-1.4,1-2.3,2.2-2.3c1.1,0,2.4,1,2.3,2.4
		c0,1.1,0,2.2,0,3.4c0,0.7-0.1,1.3-0.5,1.9c-0.2,0.3-0.2,0.7-0.2,1c0,5.4,0,10.8,0,16.2c0,0.5,0,0.9,0.5,1.3
		c0.6,0.4,0.7,1.1,0.7,1.8c0,1.2,0.1,2.4,0,3.6c-0.1,0.6-0.3,1.2-0.7,1.7c-0.3,0.4-0.5,0.8-0.5,1.3c0,8.3,0,16.6,0,24.8
		c0,0.5,0.2,0.8,0.5,1.1c0.4,0.4,0.7,1,0.7,1.6c0.1,1.4,0.1,2.7,0,4.1c0,0.9-0.5,1.7-1.4,2c-0.8,0.3-1.6,0.2-2.4-0.3
		c-0.5-0.4-0.7-0.9-0.7-1.6C159.1,209.5,159.1,208.8,159.1,208C159.1,208,159.1,208,159.1,208z"/>
	<path d="M174.5,152.4c-1.3-0.6-1.6-1.6-1.5-2.9c0.1-1.1,0-2.2,0-3.4c0-1.2,0.7-2.1,1.9-2.2c1.2-0.2,2.2,0.5,2.5,1.7
		c0.1,0.6,0.1,1.3,0.1,1.9c0,1,0.2,2.2-0.2,3.1c-0.6,1.4-0.5,2.8-0.5,4.2c0,4.6,0,9.2,0,13.8c0,0.6,0.1,1.1,0.6,1.6
		c0.3,0.3,0.4,0.8,0.5,1.2c0.1,1.5,0.1,3,0,4.4c0,0.5-0.3,1-0.6,1.4c-0.4,0.4-0.4,0.8-0.4,1.3c0,8.2,0,16.5,0,24.7
		c0,0.5,0,0.9,0.5,1.3c0.5,0.4,0.6,1,0.6,1.6c0,1.3,0,2.6,0,3.8c0,1.4-0.8,2.3-2,2.4c-1.3,0.1-2.4-0.8-2.5-2.1c-0.1-1.5-0.1-3,0-4.4
		c0-0.4,0.2-1,0.6-1.3c0.5-0.5,0.6-1,0.6-1.6c0-8.1,0-16.2,0-24.2c0-0.6-0.1-1.1-0.5-1.6c-0.4-0.4-0.6-1.1-0.6-1.7
		c-0.1-1.1,0-2.2,0-3.4c0-0.8,0.2-1.6,0.8-2.2c0.2-0.2,0.4-0.6,0.4-0.9C174.5,163.5,174.5,158,174.5,152.4z"/>
	<path d="M167.3,152.3c-1.2-0.5-1.5-1.5-1.5-2.7c0-1.2,0.1-2.3,0-3.5c-0.1-1.1,1-2.2,2.2-2.3c1.2-0.1,2.3,0.8,2.4,2.1
		c0.1,1.5,0,3,0,4.4c0,0.2-0.1,0.4-0.2,0.6c-0.7,0.8-0.5,1.8-0.5,2.8c0,4.9,0,9.8,0,14.8c0,0.6,0,1.2,0.6,1.7
		c0.3,0.3,0.6,0.9,0.6,1.4c0,1.5,0,3-0.1,4.5c0,0.4-0.2,0.8-0.5,1c-0.5,0.4-0.5,0.9-0.5,1.5c0,8.1,0,16.2,0,24.4c0,0.6,0,1,0.5,1.5
		c0.4,0.4,0.6,1,0.6,1.5c0,1.5,0,3-0.1,4.5c-0.1,1.2-1.2,1.9-2.4,1.8c-1.2-0.1-1.9-0.9-2-2.1c0-1.4,0-2.8,0-4.2
		c0-0.6,0.1-1.1,0.6-1.5c0.4-0.4,0.5-0.8,0.5-1.3c0-8.2,0-16.5,0-24.7c0-0.5,0-0.9-0.5-1.3c-0.4-0.3-0.6-0.8-0.6-1.4
		c0-1.4,0-2.9,0-4.3c0-0.6,0.2-1.1,0.6-1.5c0.4-0.3,0.4-0.7,0.4-1.2c0-5.4,0-10.7,0-16.1C167.3,152.7,167.3,152.6,167.3,152.3z"/>
	<path d="M153.1,152.4c-1.2-0.6-1.7-1.5-1.6-2.9c0.1-1.1,0-2.2,0-3.2c0-1.4,0.9-2.3,2.2-2.4c1.2,0,2.2,0.8,2.3,2.1
		c0.1,1.4,0,2.9,0,4.3c0,0.2,0,0.5-0.2,0.7c-0.6,0.8-0.5,1.6-0.5,2.5c0,5,0,9.9,0,14.9c0,0.7,0.1,1.3,0.6,1.9c0.3,0.4,0.5,1,0.5,1.5
		c0.1,1.2,0.1,2.5,0,3.7c0,0.6-0.2,1.3-0.5,1.6c-0.5,0.5-0.5,1.1-0.5,1.7c0,6.5,0,13,0,19.4c0,1.6,0,3.2,0,4.8
		c0,0.6,0.1,1.1,0.5,1.5c0.3,0.4,0.6,0.9,0.6,1.4c0.1,1.4,0.1,2.8,0,4.2c0,1.1-0.7,1.9-1.6,2.1c-1,0.3-2-0.1-2.5-0.9
		c-0.2-0.4-0.4-0.8-0.4-1.2c0-1.4,0-2.7,0-4.1c0-0.7,0.2-1.3,0.7-1.7c0.4-0.3,0.5-0.7,0.5-1.1c0-8.2,0-16.5,0-24.7
		c0-0.5-0.1-0.8-0.5-1.1c-0.6-0.4-0.7-1.1-0.7-1.8c0-1.3,0-2.6,0-3.8c0-0.7,0.3-1.3,0.8-1.8c0.2-0.2,0.4-0.6,0.4-0.9
		C153.1,163.5,153.1,158,153.1,152.4z"/>
	<path d="M188.8,152.4c-1.4-0.6-1.7-1.8-1.6-3.2c0.1-1,0-2.1,0-3.1c0.1-1,0.7-1.9,1.7-2.1c1-0.3,1.8,0,2.4,0.8
		c0.2,0.3,0.4,0.8,0.4,1.2c0.1,1.4,0,2.8,0,4.2c0,0.3,0,0.7-0.2,0.9c-0.6,0.7-0.5,1.5-0.5,2.3c0,5,0,10,0,15c0,0.6,0,1.2,0.6,1.7
		c0.4,0.4,0.6,1.1,0.6,1.7c0.1,1.2,0,2.4,0,3.6c0,0.7-0.2,1.4-0.7,1.8c-0.4,0.4-0.5,0.8-0.5,1.3c0,8.2,0,16.4,0,24.6
		c0,0.5,0.1,0.9,0.5,1.2c0.5,0.4,0.7,1,0.7,1.7c0,1.3,0,2.6,0,3.8c0,1.4-1,2.4-2.3,2.3c-1.4,0-2.2-0.9-2.2-2.4c0-1.2,0-2.5,0-3.7
		c0-0.7,0.1-1.3,0.7-1.7c0.4-0.4,0.5-0.8,0.5-1.3c0-8.2,0-16.5,0-24.7c0-0.5-0.2-0.9-0.5-1.3c-0.3-0.4-0.6-1.1-0.6-1.6
		c-0.1-1.3,0-2.6,0-3.8c0-0.7,0.2-1.2,0.6-1.7c0.2-0.3,0.5-0.7,0.5-1C188.8,163.5,188.8,158,188.8,152.4z"/>
	<path d="M181.6,152.4c-1.3-0.7-1.6-1.7-1.6-3c0-1,0-1.9,0-2.9c0.1-1.4,0.6-2.1,1.7-2.5c1.4-0.4,2.9,0.6,2.9,2c-0.1,1.4,0,2.8,0,4.2
		c0,0.3,0,0.8-0.2,1c-0.5,0.6-0.5,1.2-0.5,1.9c0,5.1,0,10.2,0,15.4c0,0.6,0,1.1,0.6,1.6c0.3,0.3,0.6,0.9,0.6,1.4
		c0.1,1.4,0,2.9,0,4.3c0,0.6-0.3,1.2-0.7,1.6c-0.4,0.3-0.5,0.7-0.5,1.2c0,8.2,0,16.5,0,24.7c0,0.5,0.1,0.8,0.5,1.1
		c0.6,0.5,0.7,1.1,0.7,1.8c0,1.3,0,2.6,0,3.8c0,1.4-0.9,2.3-2.2,2.3c-1.3,0-2.3-0.8-2.3-2.2c0-1.4-0.1-2.7,0-4.1
		c0-0.6,0.3-1.1,0.7-1.6c0.3-0.4,0.4-0.7,0.4-1.2c0-8.3,0-16.6,0-24.8c0-0.5-0.1-0.8-0.4-1.2c-0.5-0.5-0.7-1.1-0.7-1.9
		c0-1.2,0-2.3,0-3.5c0-0.8,0.2-1.4,0.7-2c0.2-0.3,0.4-0.7,0.4-1.1C181.6,163.5,181.6,158,181.6,152.4z"/>
	<path d="M88.3,101c-0.4-0.3-0.8-0.6-1.2-0.9c-9.3-9.2-18.5-18.5-27.8-27.7c-0.7-0.7-1-1.4-1-2.4c0.1-2.8,0-5.6,0-8.4
		c-1.7-1.2-2.3-2.3-1.7-4.1c0.4-1.3,1.7-2.1,3-2.1c1.4,0,2.5,0.9,2.9,2.3c0.4,1.5-0.2,2.7-1.9,3.9c0,0.5,0,1,0,1.6
		c0,2.1,0,4.2,0,6.2c0,0.8,0.2,1.3,0.8,1.9c9.2,9.2,18.4,18.4,27.7,27.6c0.6,0.6,1.4,1.2,1.4,2.3c0,0.1,0.1,0.3,0.2,0.4
		c0.8,0.6,0.8,1.4,0.8,2.3c0,1.1,0,2.2,0,3.4c0,1.4-0.8,2.3-2.2,2.3c-1.3,0-2.3-0.8-2.3-2.2c-0.1-1.3,0-2.6,0-4
		C86.9,102.4,87.5,101.7,88.3,101z"/>
	<path d="M73.4,61.5c-1.7-1.2-2.3-2.5-1.8-4c0.4-1.3,1.5-2.1,2.9-2.2c1.4,0,2.6,0.9,3.1,2.2c0.5,1.5-0.1,2.7-1.7,3.9
		c0,0.3,0,0.7,0,1c0,4.2,0,8.5,0,12.7c0,0.8,0.2,1.3,0.8,1.9c6.6,6.5,13.1,13.1,19.7,19.7c0.9,0.9,1.4,1.7,1.2,2.9
		c-0.1,0.8-0.1,1.6,0.7,2.3c0.3,0.3,0.4,0.9,0.4,1.3c0.1,1.3,0.1,2.6,0,4c0,1.5-1,2.3-2.4,2.2c-1.3,0-2.1-0.9-2.2-2.3
		c0-1.2-0.1-2.5,0-3.7c0-0.6,0.2-1.3,0.6-1.6c0.7-0.6,0.4-1.3,0.5-2c0.1-0.7-0.4-1-0.8-1.4c-6.7-6.7-13.3-13.4-20-20
		c-0.7-0.7-1-1.4-1-2.4c0-4.6,0-9.2,0-13.8C73.5,61.9,73.5,61.7,73.4,61.5z"/>
	<path d="M116.6,76.9c-0.3-0.1-0.6-0.1-0.9-0.2c0-2.8,0-5.5,0-8.3c0.3-0.1,0.5-0.1,0.9-0.2c0-0.3,0.1-0.6,0.1-0.9c0-1.7,0-3.4,0-5.2
		c0-0.7-0.1-1.2-0.4-1.8c-1.1-2.2,0.5-4.6,3-4.5c1.4,0.1,2.6,1.1,2.9,2.4c0.3,1.5-0.5,3-1.8,3.5c-0.4,0.1-0.8,0.2-1.2,0.4
		c0,2,0,4,0,6c0.3,0.1,0.7,0.1,1.1,0.2c0,2.7,0,5.5,0,8.3c-0.3,0.1-0.6,0.1-1,0.2c0,0.1-0.1,0.2-0.1,0.3c0,0.4,0,0.7,0,1.1
		c0,7.2,0,14.5,0,21.7c0,0.7,0,1.3,0.6,1.8c0.4,0.4,0.5,1,0.6,1.5c0.1,1.3,0.1,2.6,0,3.8c0,1.5-1,2.3-2.4,2.3
		c-1.4,0-2.2-0.8-2.2-2.3c0-1.3,0-2.6,0-3.8c0-0.6,0.2-1.1,0.6-1.6c0.2-0.3,0.4-0.7,0.4-1c0-7.8,0-15.6,0-23.4
		C116.7,77.2,116.6,77.1,116.6,76.9z"/>
	<path d="M102.4,62.1c-1.1-0.1-2.1-0.3-2.8-1.1c-1-1.1-1.2-2.5-0.5-3.7c0.7-1.2,2.2-1.8,3.6-1.4c1.4,0.4,2.3,1.5,2.1,2.9
		c-0.3,2.8-0.1,5.7-0.2,8.5c0,0.7,0.1,1.2,0.6,1.7c0.3,0.3,0.5,0.8,0.5,1.3c0.1,1.4,0,2.9,0,4.3c0,0.7-0.3,1.2-0.8,1.6
		c-0.4,0.3-0.6,0.7-0.5,1.2c0,1.8,0,3.6,0,5.4c0,0.6,0.2,1,0.6,1.5c2.1,2.1,4.1,4.2,6.1,6.2c0.5,0.5,0.7,1,0.7,1.7
		c0,2.6,0,5.3,0,7.9c0,0.6,0.2,1,0.5,1.5c0.3,0.4,0.5,1.1,0.6,1.6c0.1,1.2,0,2.5,0,3.7c0,1.4-0.9,2.3-2.2,2.3
		c-1.4,0-2.3-0.8-2.4-2.3c0-1.3,0-2.6,0-3.8c0-0.7,0.2-1.3,0.7-1.7c0.5-0.4,0.5-0.8,0.5-1.4c0-2.3,0-4.6,0-7c0-0.7-0.2-1.1-0.7-1.6
		c-2-2-3.9-4-6-5.9c-0.6-0.6-0.9-1.2-0.9-2.1c0.1-2.2,0-4.3,0-6.5c0-0.4,0-0.9-0.4-1.2c-0.5-0.5-0.6-1.1-0.6-1.8c0-1,0-2,0-3
		c0-0.9,0.1-1.8,0.9-2.5c0.2-0.2,0.3-0.5,0.3-0.7C102.4,66.1,102.4,64.2,102.4,62.1z"/>
	<path d="M277.2,204.4c0.8,0,1.5,0.1,2.3,0.1c0,2.4,0,4.7,0,7.1c-2.3,0-4.6,0-7,0c0-2.3,0-4.6,0-7.1c0.7,0,1.4-0.1,2.1-0.1
		c0.3-1,0.4-31.1,0.2-35.7c-1-0.6-1.8-1.4-1.9-2.7c-0.1-0.9,0.2-1.8,0.9-2.4c1.1-1.2,3.4-1.3,4.6,0.1c1.4,1.6,1,3.5-1.1,5.1
		C277.2,180.6,277.2,192.5,277.2,204.4z"/>
	<path d="M87.8,61.5C86,60.3,85.5,59,86,57.4c0.4-1.1,1.7-2.1,3-2.1c1.4,0,2.5,0.9,3,2.2c0.5,1.5,0,2.6-1.9,4.1c0,0.3,0,0.7,0,1
		c0,5.2,0,10.5,0,15.7c0,0.7,0.2,1.3,0.7,1.8c4.4,4.3,8.7,8.7,13.1,13c0.6,0.6,0.9,1.2,0.9,2.1c-0.1,1.7,0,3.4,0,5
		c0,0.5,0,1,0.5,1.4c0.5,0.4,0.6,1,0.6,1.6c0,1.3,0,2.6,0,4c0,1.2-0.8,2.1-1.9,2.2c-1.3,0.1-2.4-0.6-2.5-1.8c-0.1-1.6-0.1-3.2,0-4.8
		c0-0.4,0.3-0.9,0.6-1.1c0.5-0.4,0.5-0.9,0.5-1.5c0-1.4,0-2.7,0-4.1c0-0.8-0.2-1.3-0.8-1.9c-4.3-4.3-8.6-8.6-12.9-12.9
		c-0.7-0.7-1-1.4-1-2.4C87.8,73.2,87.8,67.4,87.8,61.5z"/>
	<path d="M23.8,222c-0.5-0.1-0.9-0.1-1.4-0.1c0-1.5,0-3,0-4.6c1.7,0,3.3,0,5,0c0.1,0.3,0.1,0.7,0.2,1.1c6.2,0,12.5,0,18.9,0
		c0-0.7,0.1-1.5,0.1-2.3c2.4,0,4.7,0,7,0c0,2.3,0,4.6,0,6.9c-0.8,0.2-5.6,0.3-7.1,0.1c0-0.7,0-1.5,0-2.3c-6.4,0-12.6,0-19,0
		c-0.1,0.3-0.1,0.7-0.2,1c-0.4,0.1-0.8,0.1-1.3,0.2c0,1.6,0,3.2,0,4.9c0,0.3,0.4,0.6,0.7,0.8c1.1,0.9,1.5,2.1,1.1,3.4
		c-0.3,1.2-1.3,2-2.5,2.2c-1.5,0.2-2.6-0.4-3.3-1.5c-0.6-1.2-0.5-2.5,0.3-3.5c0-0.1,0.1-0.1,0.2-0.2c1.1-0.6,1.1-1.7,1.1-2.8
		C23.8,224.2,23.8,223.1,23.8,222z"/>
	<path d="M221.6,122.3c1.9,0,3.8,0,5.6,0c0.6,0,1-0.1,1.5-0.5c0.4-0.3,1-0.6,1.5-0.6c1.3-0.1,2.6,0,4,0c1.3,0,2.3,1.2,2.4,2.3
		c0,1.3-1,2.3-2.4,2.3c-1.2,0-2.5,0-3.7,0c-0.8,0-1.4-0.2-1.9-0.8c-0.3-0.3-0.6-0.4-1-0.4c-3.6,0-7.3,0-10.9,0
		c-0.5,0-0.9,0.2-1.2,0.6c-5.6,5.6-11.2,11.1-16.8,16.7c-0.8,0.8-0.9,2-0.2,2.9c0.4,0.5,0.6,1.1,0.6,1.8c0,1.2,0,2.5,0,3.7
		c0,1.5-0.9,2.3-2.3,2.3c-1.3,0-2.2-0.9-2.2-2.3c0-1.3,0-2.6,0-3.8c0-0.6,0.1-1.2,0.7-1.6c0.5-0.4,0.6-0.9,0.5-1.5
		c-0.2-1.3,0.4-2.1,1.3-3c5.6-5.6,11.2-11.2,16.8-16.8c0.7-0.7,1.5-1.1,2.5-1.1C218,122.4,219.8,122.3,221.6,122.3z"/>
	<path d="M95.4,190.4c-4.5-4.5-8.9-9-13.4-13.4c-0.8-0.8-1.1-1.5-1.1-2.6c0-7,0-14,0-21c0-0.7,0-1.3-0.6-1.8c-0.4-0.4-0.6-1-0.6-1.5
		c-0.1-1.3-0.1-2.6,0-3.8c0.1-2,2-2.9,3.6-1.9c0.6,0.4,0.9,0.9,0.9,1.6c0,1.5,0,3,0,4.4c0,0.4-0.2,1-0.5,1.3
		c-0.4,0.5-0.5,0.9-0.5,1.5c0,6.9,0,13.8,0,20.8c0,0.8,0.3,1.3,0.8,1.8c4.3,4.3,8.6,8.5,12.8,12.8c0.6,0.6,1.1,0.8,1.9,0.8
		c1.6,0,2.5,0.9,2.6,2.4c0,1.5-0.9,2.5-2.5,2.6c-0.2,0-0.3,0-0.5,0c-2.3,0-3.3-1.1-3-3.4C95.3,190.8,95.3,190.6,95.4,190.4z"/>
	<path d="M91.9,29c4.7,0,9.3,0,13.9,0c0.5,0,0.8-0.2,1.1-0.5c0.7-0.8,1.7-1.4,2.2-2.4c0.4-0.8,0.1-2,0.1-3c0-2.4,0-4.7,0-7.1
		c0-0.6-0.1-1-0.5-1.5c-1.3-1.4-1.1-3.4-0.1-4.6c1.2-1.4,3.1-1.7,4.7-0.7c1.4,0.9,2,2.8,1.3,4.4c-0.4,0.9-1,1.5-1.9,1.9
		c-0.3,0.1-0.7,0.2-1.1,0.4c0,0.4,0,0.8,0,1.3c0,3,0,5.9,0,8.9c0,0.7-0.2,1.3-0.7,1.8c-0.9,0.9-1.8,1.8-2.7,2.7
		c-0.5,0.5-1.1,0.7-1.8,0.7c-4.4,0-8.8,0-13.2,0c-0.8,0-1.3,0.1-1.8,0.8c-0.8,1.2-2.6,1.5-3.9,0.8c-1.6-0.9-1.9-2.3-1.5-3.8
		c0.3-1.4,1.8-2.2,3.3-2.1C90.5,27.2,91.3,28,91.9,29z"/>
	<path d="M95.6,197.3c0.9-1,2.1-1.1,3.3-1c2,0.2,3,2.2,2,3.9c-0.4,0.7-1,1.1-1.9,1.1c-2.5,0.2-2.5,0.2-4.3-1.6
		c-1.4-1.4-2.8-2.8-4.2-4.2c-5.9-5.8-11.7-11.7-17.6-17.5c-0.7-0.6-1-1.3-0.9-2.2c0.1-0.9,0-1.8,0-2.7c-2-1.3-2.2-2.7-1.8-4.1
		c0.4-1.3,1.7-2.2,3-2.2c1.3,0,2.5,0.9,2.9,2.1c0.5,1.5,0,2.7-1.8,4c0,0.8-0.1,1.7,0,2.5c0,0.4,0.3,0.8,0.6,1.1
		c1.4,1.5,2.9,2.9,4.3,4.3c5.1,5.1,10.2,10.2,15.3,15.3C94.9,196.6,95.2,196.9,95.6,197.3z"/>
	<path d="M222.1,106.7c-1.3,0-2.7,0-4,0c-1.5,2.6-4.6,2.5-6,0c-0.9,0-1.9,0-2.8,0c-1,0-1.9,0-3,0c0,1,0,1.8,0,2.8c-1.6,0-3,0-4.5,0
		c0-2.8,0-5.6,0-8.4c1.4,0,2.9,0,4.4,0c0,1,0,2.1,0,3.3c2.1,0,4,0,5.9,0c2-2.6,4.1-2.6,6,0c1.3,0,2.7,0,4.1,0
		c0.6-1.1,1.5-1.8,2.8-1.9c0.9-0.1,1.6,0.2,2.3,0.8c1.4,1.3,1.4,3.4,0,4.7C225.6,109.3,223.7,108.8,222.1,106.7z"/>
	<path d="M100.2,118.1c0-0.1-0.1-0.1-0.1-0.2c-0.3-1.1-0.3-1.1-1.4-1.1c-3.8,0-7.7,0-11.5,0c-1.1,0-2-0.3-2.7-1.2
		c-0.9-1-1.9-2-2.9-3c-0.4-0.4-0.6-0.9-0.6-1.5c0-0.4,0.1-0.9,0-1.3c0-0.3-0.2-0.7-0.4-0.9c-0.5-0.6-0.8-1.2-0.8-1.9
		c0-1.2-0.1-2.4,0-3.6c0.1-1.9,1.6-2.9,3.2-2.2c0.8,0.3,1.3,0.9,1.3,1.8c0,1.5,0,3,0,4.4c0,0.4-0.2,0.9-0.5,1.3
		c-0.8,1-0.7,2.1,0.2,3.1c0.7,0.7,1.4,1.3,2,2c0.5,0.5,1,0.7,1.7,0.7c3.6,0,7.2,0,10.8,0c1.3,0,1.3,0,1.7-1.2c1.6-1.1,3.3-1,5,0
		c0.2,0.7,0.5,1.5,0.5,2.4c0,0.8-0.3,1.6-0.5,2.4C103.5,118.7,101.8,119,100.2,118.1z"/>
	<path d="M55.2,15.8c0,2.1,0.1,4.3,0,6.5c-0.2,1.9,0.4,3.4,1.9,4.5c0.2,0.2,0.4,0.5,0.5,0.7c0.6-0.2,0.9-0.3,1.3-0.4
		c1.5-0.3,3.1,0.5,3.6,2c0.5,1.4-0.2,3.1-1.5,3.8c-1.4,0.7-3.2,0.3-4-1c-0.3-0.5-0.5-1.2-0.5-1.8c0-0.6-0.2-1-0.6-1.4
		c-0.5-0.5-1-1-1.5-1.5c-1.7-1.7-1.5-1.2-1.5-3.6c0-2.2,0-4.5,0-6.7c0-0.4,0-0.8,0-1.3c-1.1-0.5-1.8-1.2-2.2-2.3
		c-0.3-0.8-0.2-1.6,0.1-2.3c0.5-1.5,1.9-2.3,3.6-2.2c1.5,0.1,2.8,1.2,3.2,2.7C57.9,13.2,57.2,14.6,55.2,15.8z"/>
	<path d="M82.1,15.9c0,0.5,0,1,0,1.5c0,1.7,0,3.4,0,5.2c0,0.8-0.2,1.3-0.8,1.9c-1.4,1.3-2.7,2.6-4,4c0.1,0.3,0.2,0.5,0.3,0.8
		c0.6,1.9-0.4,3.7-2.2,4.1c-1.8,0.4-3.5-0.8-3.8-2.6c-0.3-1.8,1.1-3.5,3-3.6c0.7,0,1.2-0.3,1.7-0.8c1-1.1,2.1-2.2,3.2-3.2
		c0.4-0.4,0.5-0.7,0.5-1.3c0-2.2,0-4.5,0-6.7c0-0.5-0.3-1.1-0.4-1.6c-0.7-2,0.3-4.1,2.3-4.7c2-0.6,4.1,0.6,4.5,2.5
		c0.5,2.2-0.8,4.1-3,4.4C82.9,15.8,82.5,15.9,82.1,15.9z"/>
	<path d="M90.5,167.1c0.9,0.3,1.6,0.8,2,1.7c0.5,1.2,0.3,2.5-0.5,3.4c-0.8,0.9-2.2,1.2-3.4,0.8c-1.2-0.4-1.9-1.5-2-2.9
		c0-0.9,0.2-1.8,1-2.3c0.5-0.4,0.6-0.8,0.6-1.3c0-4.5,0-9,0-13.4c0-0.5-0.1-0.9-0.5-1.3c-0.4-0.4-0.6-1-0.7-1.5
		c-0.1-1.4-0.1-2.8,0-4.2c0-1,0.8-1.9,1.7-2.1c1-0.3,1.8,0.1,2.4,0.9c0.2,0.3,0.4,0.8,0.4,1.2c0.1,1.4,0,2.7,0,4.1
		c0,0.6-0.2,1.2-0.6,1.6c-0.3,0.3-0.4,0.6-0.4,1.1c0,4.6,0,9.2,0,13.8C90.4,166.7,90.5,166.9,90.5,167.1z"/>
	<path d="M216.4,144.9c2.5-2.5,4.9-4.9,7.3-7.3c0.6-0.7,1.3-1,2.2-0.9c0.4,0,0.7,0,1.1,0c0.7,0,1.3,0,1.8-0.6
		c0.2-0.3,0.8-0.5,1.2-0.5c1.5-0.1,3-0.1,4.5,0c1.6,0.1,2.4,1.6,1.9,3.1c-0.3,0.9-1,1.4-1.9,1.4c-1.5,0.1-3,0.1-4.6,0
		c-0.4,0-1-0.2-1.3-0.6c-0.7-0.9-1.6-0.4-2.4-0.5c-0.6-0.1-0.9,0.3-1.3,0.7c-2.3,2.3-4.6,4.6-6.9,6.9c0.3,2.2-0.1,3.4-1.6,4.1
		c-1.2,0.6-2.7,0.3-3.6-0.7c-0.9-0.9-1.1-2.5-0.4-3.7C213.1,145,214.4,144.5,216.4,144.9z"/>
	<path d="M113.6,185c-1.3,1.7-2.6,3.3-3.9,5c-0.2,0.2-0.2,0.6-0.1,0.9c0.4,2.1-0.6,3.5-2.8,3.4c-0.5,0-1,0-1.5-0.2
		c-1.2-0.4-1.8-1.5-1.7-2.7c0.2-1.2,1.1-2.2,2.4-2.1c1.1,0.1,1.7-0.4,2.2-1.2c1.2-1.6,2.4-3.1,3.6-4.7c0.3-0.4,0.5-0.8,0.6-1.4
		c0.1-1.5,1.1-2.6,2.5-2.8c1.4-0.3,2.8,0.4,3.4,1.7c0.6,1.2,0.3,2.8-0.7,3.7c-0.8,0.7-1.7,1-2.8,0.7
		C114.4,185.3,114,185.1,113.6,185z"/>
	<path d="M23.8,44.1c-0.5-0.1-0.9-0.1-1.4-0.2c0-1.5,0-3,0-4.5c1.7,0,3.3,0,5,0c0,1.5,0,3,0,4.5c-0.4,0.1-0.8,0.1-1.3,0.2
		c0,1.2,0,2.4,0,3.8c0.2,0.2,0.5,0.4,0.8,0.6c1.4,1.2,1.5,3.3,0.3,4.6c-1.2,1.3-3.5,1.2-4.6-0.1c-1.2-1.4-1-3.6,0.5-4.6
		c0.5-0.3,0.6-0.6,0.6-1.2C23.8,46.2,23.8,45.2,23.8,44.1z"/>
	<path d="M22.4,162.5c0-1.5,0-3,0-4.5c1.7,0,3.3,0,5,0c0,1.5,0,3,0,4.5c-0.4,0.1-0.8,0.1-1.3,0.2c0,1.2,0,2.4,0,3.8
		c0.2,0.2,0.5,0.3,0.8,0.6c1.4,1.1,1.5,3.3,0.3,4.6c-1.2,1.3-3.5,1.2-4.6-0.1c-1.2-1.3-1.1-3.5,0.4-4.5c0.6-0.4,0.7-0.9,0.7-1.5
		c0-0.9,0-1.8,0-2.8C23.3,162.7,22.9,162.6,22.4,162.5z"/>
	<path d="M26.1,182.3c0,2,0,3.9,0,5.9c0,0.6,0.4,0.7,0.7,1c1.1,1.1,1,2.8-0.2,3.5c-1,0.6-2.1,0.6-3.1,0.1c-1.3-0.7-1.5-2.5-0.5-3.5
		c0.6-0.6,0.7-1.2,0.7-1.9c0-1.7,0-3.4,0-5.1c-1.7-1.3-2.3-2.6-1.7-4.1c0.5-1.3,1.6-2,3.2-1.9c1.3,0.1,2.4,0.9,2.7,2.1
		C28.5,180,27.9,181.3,26.1,182.3z"/>
	<path d="M27.5,101.8c-0.4,0-0.8,0.1-1.4,0.1c0,1.1,0,2.2,0,3.3c0,0.5,0.4,0.7,0.7,0.9c0.9,0.6,1.4,1.5,1.3,2.7
		c0,1.4-0.9,2.7-2.2,2.9c-1.5,0.3-2.7,0.1-3.6-1.5c-0.7-1.3-0.6-2.8,0.5-3.7c0.9-0.7,1.1-1.4,1-2.3c-0.1-0.7,0-1.5,0-2.3
		c-0.5-0.1-0.9-0.1-1.4-0.1c0-1.5,0-2.9,0-4.4c0.8-0.2,1.6-0.1,2.5-0.1c0.8,0,1.7,0,2.6,0C27.5,98.9,27.5,100.3,27.5,101.8z"/>
	<path d="M23.8,123.7c-1.8-0.9-2.2-2.7-1.8-3.9c0.4-1.3,1.7-2.2,2.9-2.2c1.3,0,2.6,0.9,3,2.2c0.5,1.5-0.1,2.8-1.8,4
		c0,1.8,0,3.6,0,5.6c0.2,0.1,0.4,0.3,0.6,0.5c0.8,0.7,1.1,1.7,0.7,2.6c-0.3,0.8-1.2,1.4-2.1,1.4c-0.6,0-1.2,0-1.7-0.3
		c-1.5-0.8-1.3-2.9-0.4-3.7c0.3-0.3,0.6-0.5,0.6-1C23.8,127.2,23.8,125.5,23.8,123.7z"/>
	<path d="M23.8,63.8c-1.7-1.2-2.2-2.4-1.7-4c0.4-1.3,1.7-2.2,3-2.1c1.4,0,2.6,1,3,2.2c0.5,1.6-0.1,2.8-1.9,3.9c0,1.6,0,3.2,0,4.9
		c0.7,0.5,1.4,1.1,1.4,2.2c0,1.2-0.8,2.2-2,2.3c-0.2,0-0.5,0-0.7,0c-1,0-1.8-0.4-2.2-1.3c-0.4-0.9-0.1-1.9,0.6-2.7
		c0.2-0.2,0.5-0.6,0.5-0.9C23.8,66.8,23.8,65.2,23.8,63.8z"/>
	<path d="M118,206.5c-2.3,0.2-4.2-2-4.2-4.1c0-2.2,1.8-4.3,4.2-4.3c2.3,0,4.2,1.9,4.2,4.2C122.2,204.7,120.3,206.5,118,206.5z"/>
	<path d="M86.9,206.5c-2.4,0-4.2-1.8-4.2-4.2c0-2.4,1.8-4.2,4.1-4.2c2.3,0,4.2,1.9,4.3,4.1C91.2,204.7,89.3,206.6,86.9,206.5z"/>
</g>
</svg>
