<?xml version="1.0" encoding="utf-8"?>
<!-- Generator: Adobe Illustrator 21.0.2, SVG Export Plug-In . SVG Version: 6.00 Build 0)  -->
<svg version="1.1" id="Layer_1" xmlns="http://www.w3.org/2000/svg" xmlns:xlink="http://www.w3.org/1999/xlink" x="0px" y="0px"
	 viewBox="0 0 1190.6 713.5" enable-background="new 0 0 1190.6 713.5" xml:space="preserve">
<g id="Layer_2">
</g>
<g id="Layer_1_1_">
	<g>
		<path fill="#1BAA73" d="M201,510.4l-65.1,65.1v69.6l-48.7,48.7H29.7c5.8,4.7,11.8,8.7,14.7,9.7c6.1,2.3,12.7,0.9,19.1,1.8
			c10.8,0.5,22,0.7,32.4-2.6c4.9,0.8,8.7,4.5,13.5,5.9c6.6,2.5,14.1-0.2,18.8-5.1c6.8-6.3,9.9-15.3,13.7-23.4
			c6.6-9.5,16.7-15.6,25.1-23.2c0,0,1.9-1.8,4.4-4.2v-27.9c-8.6-3-14.8-11.2-14.8-20.8c0-12.2,9.9-22.1,22.1-22.1
			c12.2,0,22.1,9.9,22.1,22.1c0,9.5-6,17.5-14.3,20.7v13.5c5.3-5.4,10-11.3,14.7-17.3c2.9-4.7,7.2-9.3,6.9-15.1
			c1.2-11.7-0.1-23.3,0-35c0.6-5.1,17.2-18.5,21.1-21.5c6.7-5.2,14-26.7,19.9-38.6L201,510.4L201,510.4z"/>
		<path fill="#1BAA73" d="M53.9,471.5l26.9-26.9h31.6l46.3-46.3c-1.4-2.9-2.2-6.2-2.2-9.6c0-12.2,9.9-22.1,22.1-22.1
			c12.2,0,22.1,9.9,22.1,22.1c0,3.3-0.8,6.5-2.1,9.3l59.2,59.2h287.7c0.7-5.3,1.8-11.1,3.2-16.4H302.2l-32-32
			c-2.8,1.3-6,2.1-9.3,2.1c-12.2,0-22.1-9.9-22.1-22.1c0-3.3,0.8-6.5,2.1-9.3L220,358.6h-69.2c-4.4,6.8-8.9,13.5-10.9,15.8
			c-9.1,5-18.5,10.3-25.1,18.5c-5.4,6.7-4.9,15.8-7.8,23.5c-11.3-1.9-23-4.6-34.5-2.3c-4.4,0.8-8.9,3-10.7,7.4
			c-5.2,11.4-1.1,24.2-3.8,36.1C57.4,459.6,55.8,464.9,53.9,471.5z"/>
		<path fill="#1BAA73" d="M301.8,526.8h6.7l6.3,6.3c2.8-1.3,6-2.1,9.3-2.1c12.2,0,22.1,9.9,22.1,22.1c0,12.2-9.9,22.1-22.1,22.1
			c-12.2,0-22.1-9.9-22.1-22.1c0-3.3,0.8-6.5,2.1-9.3l-1.9-1.9h-1.8c-1.1,10.3-8.2,31.8-13.9,48.1h57.9c4.2-6.7,9.6-15.3,15.4-24.5
			c-0.5-1.9-0.9-3.9-0.9-6c0-10.9,7.9-20,18.3-21.8c6.5-10.3,12.5-19.9,17.1-27.3H304C303.2,515.3,302.4,521.2,301.8,526.8z"/>
		<path fill="#1BAA73" d="M1073.8,545.8h62.1c2.3-11,8.3-28.6,13.1-41.7l-20.3-20.3h-46.5c-4,5.6-10.6,9.3-18,9.3
			c-7.3,0-13.7-3.5-17.7-8.9c5.1,13.2,10.6,30.3,11.4,39.7c0.5,9.2,0,25.5-0.8,38.7L1073.8,545.8z"/>
		<path fill="#1BAA73" d="M428.7,52.5l16.2-16.2c-5.3,0.9-10.7,1.8-16.3,3c-12,2.6-24.2,7-38,13.2H428.7z"/>
		<path fill="#1BAA73" d="M532.1,564.8c2.9-17.1,5.9-34.8,6.5-41.6c2-14.5,3.9-35,5.3-50.8H251.6L188,408.8c-2.8,1.3-6,2.1-9.3,2.1
			c-3.2,0-6.3-0.7-9-1.9l-50.8,50.9H87.1l-41.9,41.9c-1.8,6.6-3.2,11.6-3.3,12.7c-0.7,6.4-0.4,12.8,0.8,19.2c0.4,1.9,0,9.3-0.7,18.6
			h19.8l31.4-31.4c-1.9-3.5-2.9-7.5-2.9-11.8c0-13.9,11.2-25.1,25.1-25.1s25.1,11.2,25.1,25.1c0,13.9-11.2,25.1-25.1,25.1
			c-4.1,0-7.9-1-11.3-2.7l-36,36H40.8c-1.3,14.8-3,30-3.9,36.1c-1,5.8-1.4,11.6-3.1,17.3c-3.8,12.2-9,23.8-13.5,35.7
			c-2.3,6.5-5,13-5.1,19.9c0,0.7,0.2,1.5,0.6,2.3h65.1l39.8-39.8v-69.6l74-74h73c0.1-0.1,0.3-0.2,0.4-0.3
			c5.4-5.8,9.2-12.9,12.9-19.9c3,0.6,24.8,9.2,32.7,12.7c-0.7,1.3-2.5,4.4-4.1,7.5h131.7l3.9,3.9c3.5-3,6.8-6.2,10.6-8.8
			c1.1,7.5,1.9,15.1,3.2,22.6l51.8,51.8L532.1,564.8L532.1,564.8z"/>
		<path fill="#1BAA73" d="M1041,471.6c0.4,0.8,0.8,1.7,1.3,2.7c-0.2-1.1-0.3-2.2-0.3-3.3c0-12.2,9.9-22.1,22.1-22.1
			c3.4,0,6.7,0.8,9.6,2.2l21-21V303.5l-65.1-65.1h-8c-3.2,8.4-11.2,14.3-20.7,14.3c-9.5,0-17.5-6-20.7-14.3H725.9l-17.1-17.1v-12.1
			c-3.1-2.3-5.1-5.9-5.1-10.1V136c0-7,5.7-12.6,12.6-12.6c7,0,12.6,5.7,12.6,12.6v63.2c0,4.1-2,7.8-5.1,10.1v5.8l8.2,8.2H980
			c3-8.6,11.2-14.8,20.8-14.8c9.6,0,17.8,6.2,20.8,14.8h14.1l74,74v139.1l-22.1,22.2h51.4l19.5,19.5c7-19.1,15.8-43.5,16.8-59.5
			c-0.1-7-1.5-14-4.5-20.3c-3.7-8-6.1-16.5-8-25.1c-4.1-19.1-6-38.6-7.3-58.1c0-1.6-0.2-7-0.4-14.1l-24.9-24.9
			c-2.8,1.3-6,2.1-9.3,2.1c-8.6,0-16.1-5-19.7-12.2l-90.7-90.7h-79.1v24c0,7-5.7,12.6-12.6,12.6c-7,0-12.6-5.7-12.6-12.6V136
			c0-7,5.7-12.6,12.6-12.6c7,0,12.6,5.7,12.6,12.6v24h85.4l84.9,85c3.8-6.7,11-11.2,19.2-11.2c12.2,0,22.1,9.9,22.1,22.1
			c0,3.3-0.8,6.5-2.1,9.3l13.5,13.5c-0.3-13.6-0.5-26.8-0.2-31.2c0.1-5.2,0.6-26,1.2-47.1h-13.9c-3.2,8.4-11.2,14.3-20.7,14.3
			c-12.2,0-22.1-9.9-22.1-22.1c0-12.2,9.9-22.1,22.1-22.1c9.6,0,17.8,6.2,20.9,14.8h14.1c0.4-15.6,0.6-29.2,0.5-33.6
			c0.1-23.5,0.8-47.1-2.8-70.4c-1.7-10.7-5.1-21.5-12.3-29.7c-11.1-12.9-25.4-22.9-41-29.5L1067.4,55H877.7l-42,42l-10.4,10.4v18.4
			c3.1,2.3,5.1,5.9,5.1,10.1v63.2c0,7-5.7,12.6-12.6,12.6s-12.6-5.7-12.6-12.6V136c0-4.1,2-7.8,5.1-10.1v-24.7l9.5-9.5l-5.5-5.5
			c-2.8,1.3-6,2.1-9.3,2.1c-12.2,0-22.1-9.9-22.1-22.1c0-12.2,9.9-22.1,22.1-22.1s22.1,9.9,22.1,22.1c0,3.3-0.8,6.5-2.1,9.3l5.5,5.5
			l41.1-41.1h189.7L1084,17l-3-0.9c-9.4-1.7-19.2-1.7-28.5,0.8c-12.9,3.5-25.8,7.5-39.2,8.8c-12.8,1.3-25.7-0.8-38.5-1.2
			c-7.3-0.2-14.5,1.3-21.4,3.2c-22.7,6-46.4,5.7-69.7,5.9c-15.8,0-108.2-1-118.2-2c-2.9-0.2-14.2-0.4-28.8-0.7v1.8
			C745.1,36,751,44.1,751,53.5c0,3.3-0.8,6.5-2.1,9.3l25.7,25.7v37.4c3.1,2.3,5.1,5.9,5.1,10.1v63.2c0,7-5.7,12.6-12.6,12.6
			c-7,0-12.6-5.7-12.6-12.6V136c0-4.1,2-7.8,5.1-10.1V94.8l-21.2-21.2c-2.8,1.3-6,2.1-9.3,2.1c-12.2,0-22.1-9.9-22.1-22.1
			c0-9.6,6.2-17.8,14.8-20.8v-1.9c-28.6-0.5-62.1-1-71.6-1.2l-3.9-0.1l46.4,46.4V234l20.8,20.9h196.1l17.1,17.1V284
			c3.1,2.3,5.1,5.9,5.1,10.1v63.2c0,7-5.7,12.6-12.6,12.6c-7,0-12.6-5.7-12.6-12.6v-63.2c0-4.1,2-7.8,5.1-10.1v-5.8L903,270H707
			l-29.7-29.7V82.2l-53.1-53.1l-6.2-0.1c-19.6-0.6-39.2-0.7-58.9,0.1c-21.9,0.6-39,2.4-62.7,2.8c-9.1,0.2-19,0.6-29.3,1.6h126.1
			l67.7,67.7v24.7c3.1,2.3,5.1,5.9,5.1,10.1v63.2c0,7-5.7,12.6-12.6,12.6c-7,0-12.6-5.7-12.6-12.6V136c0-4.1,2-7.8,5.1-10.1v-18.4
			l-58.8-58.8H454l-19,19h-74.7c-2.5,1.3-5,2.7-7.6,4.1c-7.8,4.3-15.8,8.1-23.6,12.3h112.2l19-19h107.5l42.4,42.4v18.4
			c3.1,2.3,5.1,5.9,5.1,10.1v63.2c0,7-5.7,12.6-12.6,12.6c-7,0-12.6-5.7-12.6-12.6V136c0-4.1,2-7.8,5.1-10.1v-12.1l-33.5-33.5h-94.9
			l-19,19H304c-0.7,0.5-1.5,0.9-2.1,1.3c-19.7,12.5-34.4,32.5-41.2,54.9c-4.7,12.8-8.1,26.1-12.5,39c-0.7,2.3-4.6,11.8-9,22.5h50.3
			l30.2-30.2c-6.8-3.8-11.4-11-11.4-19.4c0-12.2,9.9-22.1,22.1-22.1c3.4,0,6.7,0.8,9.6,2.2l31.7-31.7H454l19-19h69.5l17.1,17.1v12.1
			c3.1,2.3,5.1,5.9,5.1,10.1v63.2c0,7-5.7,12.6-12.6,12.6c-7,0-12.6-5.7-12.6-12.6V136c0-4.1,2-7.8,5.1-10.1v-5.8l-8.2-8.2h-57
			l-19,19h-82.2l-27.4,27.4c1.2,2.8,1.9,5.8,1.9,9c0,8.3-4.6,15.5-11.3,19.3l-45.4,45.4h-63c-3,6.9-5.7,13-7.5,16.4h108.4l61.8-61.8
			c-6.8-3.8-11.4-11-11.4-19.4c0-12.2,9.9-22.1,22.1-22.1c9.6,0,17.8,6.2,20.8,14.8h61.6v-24c0-7,5.7-12.6,12.6-12.6
			c7,0,12.7,5.7,12.7,12.6v63.2c0,7-5.7,12.6-12.6,12.6s-12.6-5.7-12.6-12.6v-24H427c-1.8,4.9-5.4,9-9.9,11.5l-77,77.1H215.8
			c-3.4,5.2-7.4,11.1-10.9,16.4h135.2l36.1,36.1v1.9h112.6v-24c0-7,5.7-12.6,12.6-12.6c7,0,12.6,5.7,12.6,12.6v63.2
			c0,7-5.7,12.6-12.6,12.6s-12.6-5.7-12.6-12.6v-24h-88.6c1.9,3.3,3,7.1,3,11.2c0,12.2-9.9,22.1-22.1,22.1s-22.1-9.9-22.1-22.1
			c0-3.4,0.8-6.5,2.1-9.4v-9.4v-3.2l-27.2-27.2h-139c0,0,0,0.1,0,0.1c-4.2,5.4-8.2,10.8-12.1,16.4h113.1l12.6,12.6
			c2.8-1.3,6-2.1,9.3-2.1c12.2,0,22.1,9.9,22.1,22.1c0,8.2-4.5,15.4-11.2,19.2l30.3,30.3h164.5l20.9-20.9v-5.8
			c-3.1-2.3-5.1-5.9-5.1-10.1v-63.2c0-7,5.7-12.6,12.6-12.6c7,0,12.6,5.7,12.6,12.6v63.2c0,4.1-2,7.8-5.1,10.1v12.1l-29.7,29.7h-177
			l-45-45c-7.2-3.6-12.2-11.1-12.2-19.8c0-3.3,0.8-6.5,2.1-9.3l-8.2-8.2H171.5l-0.5,0.6c-3.1,4.7-6.4,9.2-9.5,13.9
			c0,0-0.5,0.7-1.2,1.9h65.9l25.3,25.3c2.8-1.3,6-2.1,9.3-2.1c12.2,0,22.1,9.9,22.1,22.1c0,3.3-0.8,6.5-2.1,9.3l27.6,27.6h234
			l52.5-52.5v-5.8c-3.1-2.3-5.1-5.9-5.1-10.1v-63.2c0-7,5.7-12.6,12.6-12.6c7,0,12.6,5.7,12.6,12.6v63.2c0,4.1-2,7.8-5.1,10.1v12.1
			l-35.7,35.7c6,1.7,12.9,4.8,20.5,8.6l50.6-50.5v-5.8c-3.1-2.3-5.1-5.9-5.1-10.1v-63.2c0-7,5.7-12.6,12.6-12.6
			c7,0,12.6,5.7,12.6,12.6v63.2c0,4.1-2,7.8-5.1,10.1v12.1L609.2,431c8,4.1,16.4,8.4,25.1,12.2c22.1,9.6,48.4,15.7,74.5,19v-94.7
			c-3.1-2.3-5.1-5.9-5.1-10.1v-63.2c0-7,5.7-12.6,12.6-12.6c7,0,12.6,5.7,12.6,12.6v63.2c0,4.1-2,7.8-5.1,10.1v96.3
			c11,0.9,21.9,1.3,32.2,1.1c0.9,0,2,0,3.2,0v-97.4c-3.1-2.3-5.1-5.9-5.1-10.1v-63.2c0-7,5.7-12.6,12.6-12.6c7,0,12.6,5.7,12.6,12.6
			v63.2c0,4.1-2,7.8-5.1,10.1v97c22.6-1.2,45.1-4.9,67-10.7v-17.3L810,404.7v-37.4c-3.1-2.3-5.1-5.9-5.1-10.1v-63.2
			c0-7,5.7-12.6,12.6-12.6s12.6,5.7,12.6,12.6v63.2c0,4.1-2,7.8-5.1,10.1v31.1l31.6,31.6v18.6c12.6-4.5,31-11.7,39-17.2
			c0,0,3.4,3.3,9.1,7.6v-15.4l-44.3-44.3v-12.1c-3.1-2.3-5.1-5.9-5.1-10.1v-63.2c0-7,5.7-12.6,12.6-12.6c7,0,12.6,5.7,12.6,12.6
			v63.2c0,4.1-2,7.8-5.1,10.1v5.8l44.3,44.3v9.8l73.4-36.7v-25.3c-8.6-3-14.8-11.2-14.8-20.9c0-12.2,9.9-22.1,22.1-22.1
			c12.2,0,22.1,9.9,22.1,22.1c0,9.5-6,17.5-14.3,20.7v22.5h33.5l8.2-8.2v-12.1c-3.1-2.3-5.1-5.9-5.1-10.1V332v-19
			c0-7,5.7-12.7,12.6-12.7s12.6,5.7,12.6,12.7v19v25.3c0,4.1-2,7.8-5.1,10.1v18.4l-17.1,17.1h-45.6l-82.7,41.4v4.4
			c7.7,4,16.7,7.5,26.5,8.7c1.5,7.6,2.7,15.3,4.4,22.8c1.1,6.1,7.8,9.3,13.5,9c2.5,0,5.5-1.5,5.7-4.3c1.5-8.1,2.5-16.2,3.8-24.3
			c3.8,0.2,7.5,0.8,11.2,1.2c0.1,7.5,0.8,15.3,3.9,22.2c1.9,4.3,7.3,7.3,11.9,5.4c2.7-0.9,4.8-3,5.6-5.7c2.2-6.6,3.5-13.5,4.9-20.3
			c7-1.4,13.4-2.6,20.4-6.2C1035.6,461.5,1038.5,466.5,1041,471.6z M855.6,136c0-4.1,2-7.8,5.1-10.1v-18.4l36.1-36.1h75.9l18.9,18.9
			c2.8-1.3,6-2.1,9.3-2.1c9.6,0,17.8,6.2,20.8,14.8h23.6h42.2c3-8.6,11.2-14.8,20.8-14.8c12.2,0,22.1,9.9,22.1,22.1
			s-9.9,22.1-22.1,22.1c-9.5,0-17.5-6-20.7-14.3h-24l25,25l-10.7,10.7l-35.7-35.7h-20.6c-3.2,8.4-11.2,14.3-20.7,14.3
			c-12.2,0-22.1-9.9-22.1-22.1c0-3.3,0.8-6.5,2.1-9.3l-14.5-14.5H903l-27.2,27.2v12.1c3.1,2.3,5.1,5.9,5.1,10.1v63.2
			c0,7-5.7,12.6-12.6,12.6c-7,0-12.6-5.7-12.6-12.6L855.6,136L855.6,136z"/>
		<path fill="#1BAA73" d="M1067.2,641.7c0-12.2,9.9-22.1,22.1-22.1c7.6,0,14.3,3.8,18.3,9.7h43.9c-0.1-0.5-0.2-0.9-0.4-1.4
			c-3.3-10.6-10.3-19.7-13.6-30.4c-3-9-3.9-24.2-3.5-36.5h-54.1l-26.8,26.8c-2,6.4-4.5,12.8-6.3,16.9c-4.5,9.9-9.6,19.5-14.4,29.3
			c-4.1,8.4-9.5,16.2-12.9,25c-2.3,6.4-5.2,12.8-5.6,19.7c6.8,4.3,14.6,6.6,22.3,8.4c8.2,1.9,16.8,2.4,25.1,1.3
			c12.1-3.2,20.2-13.9,25.8-24.6C1076.1,662.8,1067.2,653.3,1067.2,641.7z"/>
		<path fill="#1BAA73" d="M335.1,605.2H281c-1.2,3.3-2,5.3-2.1,5.6c-0.7,1.7-2.5,2.7-3.7,4c-6.2,5.7-10.7,12.8-15.6,19.6
			c-5.9,7.8-12.1,15.3-17.3,23.6c-1.7,2.7-3.3,5.7-2.9,9.1c0.3,6.6,0.2,14.3,5.2,19.3c5.3,4.1,12.5,3.7,18.8,4
			c0.6,1.9,1.3,3.9,1.9,5.9c11,0.3,22.4-1.6,32.1-7c5.7-3,9.3-8.5,13-13.5c4.2-6.1,8.4-12.4,11.6-19.2c-0.9-8-1.8-16.2,0.4-24.1
			C324.8,623.5,330.4,613.5,335.1,605.2z"/>
		<path fill="#1BAA73" d="M1107.4,654.6c-2.2,3.1-5.3,5.7-8.8,7.3c2,7.3,3.4,15,7.2,21.7c8.7,4.4,19.1,6.6,28.6,3.9
			c5.9-1.7,10.5-6.6,12.6-12.3c2.5-6.6,5.5-13.4,6.1-20.5H1107.4z"/>
		<path fill="#1BAA73" d="M526.5,651.2c-12.2,0-22.1-9.9-22.1-22.1c0-12.2,9.9-22.1,22.1-22.1c0-1.4,0-2.6,0-3.8
			c0-3,1.4-12.1,3.2-23.2h-25l-38.8-38.8c2.2,8.4,4.3,15.9,5.3,18.2c4.4,9.9,5.3,20.9,5.8,31.6c-0.1,19.1-4,38.3-12,55.8
			c-6.4,14.8-13.2,30.1-13.7,46.4c2.7,0.1,5.4-0.2,8.1,0.2c3.3,1.5,6.1,4.2,9.8,4.3c9.5,0.4,19.7,1.4,28.5-3
			c11.9-5.8,22.5-14.3,31.5-23.9c-0.9-6.5-2.1-13.1-2.6-19.6C526.6,651.2,526.5,651.2,526.5,651.2z"/>
	</g>
</g>
<g id="Layer_3">
	<path fill="#1BAA73" d="M527.3,618.8c-0.4,0-0.4,0-0.8,0c-5.7,0-10.3,4.6-10.3,10.3s4.6,10.3,10.3,10.3c0.4,0,0.4,0,0.7,0
		c0,0-0.2-8.2-0.2-10.9C527,626,527.3,618.8,527.3,618.8z"/>
	<path fill="#1BAA73" d="M1011.2,230.6c0-5.7-4.6-10.3-10.3-10.3c-5.7,0-10.3,4.6-10.3,10.3c0,5.7,4.6,10.3,10.3,10.3
		C1006.5,240.9,1011.2,236.3,1011.2,230.6"/>
	<path fill="#1BAA73" d="M1011.2,110.5c0-5.7-4.6-10.3-10.3-10.3c-5.7,0-10.3,4.6-10.3,10.3c0,5.7,4.6,10.3,10.3,10.3
		C1006.5,120.8,1011.2,116.1,1011.2,110.5"/>
	<path fill="#1BAA73" d="M1118.7,110.5c0-5.7-4.6-10.3-10.3-10.3c-5.7,0-10.3,4.6-10.3,10.3c0,5.7,4.6,10.3,10.3,10.3
		C1114,120.8,1118.7,116.1,1118.7,110.5"/>
	<path fill="#1BAA73" d="M1131.3,192.7c0-5.7-4.6-10.3-10.3-10.3c-5.7,0-10.3,4.6-10.3,10.3s4.6,10.3,10.3,10.3
		C1126.7,203,1131.3,198.4,1131.3,192.7"/>
	<path fill="#1BAA73" d="M1011.2,344.5c0-5.7-4.6-10.3-10.3-10.3c-5.7,0-10.3,4.6-10.3,10.3c0,5.7,4.6,10.3,10.3,10.3
		C1006.5,354.8,1011.2,350.2,1011.2,344.5"/>
	<path fill="#1BAA73" d="M1131.3,255.9c0-5.7-4.6-10.3-10.3-10.3c-5.7,0-10.3,4.6-10.3,10.3c0,5.7,4.6,10.3,10.3,10.3
		C1126.7,266.2,1131.3,261.6,1131.3,255.9"/>
	<path fill="#1BAA73" d="M815.1,66.2c0-5.7-4.6-10.3-10.3-10.3c-5.7,0-10.3,4.6-10.3,10.3c0,5.7,4.6,10.3,10.3,10.3
		C810.5,76.5,815.1,71.9,815.1,66.2"/>
	<path fill="#1BAA73" d="M739.2,53.5c0-5.7-4.6-10.3-10.3-10.3c-5.7,0-10.3,4.6-10.3,10.3c0,5.7,4.6,10.3,10.3,10.3
		C734.6,63.9,739.2,59.2,739.2,53.5"/>
	<path fill="#1BAA73" d="M1099.7,641.7c0-5.7-4.6-10.3-10.3-10.3c-5.7,0-10.3,4.6-10.3,10.3c0,5.7,4.6,10.3,10.3,10.3
		C1095.1,652,1099.7,647.4,1099.7,641.7"/>
	<path fill="#1BAA73" d="M1074.4,470.9c0-5.7-4.6-10.3-10.3-10.3c-5.7,0-10.3,4.6-10.3,10.3c0,5.7,4.6,10.3,10.3,10.3
		C1069.8,481.3,1074.4,476.6,1074.4,470.9"/>
	<path fill="#1BAA73" d="M391.4,344.5c0-5.7-4.6-10.3-10.3-10.3c-5.7,0-10.3,4.6-10.3,10.3c0,5.7,4.6,10.3,10.3,10.3
		C386.7,354.8,391.4,350.2,391.4,344.5"/>
	<path fill="#1BAA73" d="M340.8,167.4c0-5.7-4.6-10.3-10.3-10.3s-10.3,4.6-10.3,10.3c0,5.7,4.6,10.3,10.3,10.3
		S340.8,173.1,340.8,167.4"/>
	<path fill="#1BAA73" d="M328.1,344.5c0-5.7-4.6-10.3-10.3-10.3c-5.7,0-10.3,4.6-10.3,10.3c0,5.7,4.6,10.3,10.3,10.3
		C323.5,354.8,328.1,350.2,328.1,344.5"/>
	<path fill="#1BAA73" d="M271.2,388.7c0-5.7-4.6-10.3-10.3-10.3c-5.7,0-10.3,4.6-10.3,10.3c0,5.7,4.6,10.3,10.3,10.3
		C266.6,399.1,271.2,394.4,271.2,388.7"/>
	<path fill="#1BAA73" d="M189,603.8c0-5.7-4.6-10.3-10.3-10.3c-5.7,0-10.3,4.6-10.3,10.3c0,5.7,4.6,10.3,10.3,10.3
		C184.3,614.1,189,609.5,189,603.8"/>
	<path fill="#1BAA73" d="M334.4,553.2c0-5.7-4.6-10.3-10.3-10.3c-5.7,0-10.3,4.6-10.3,10.3c0,5.7,4.6,10.3,10.3,10.3
		C329.8,563.5,334.4,558.9,334.4,553.2"/>
	<path fill="#1BAA73" d="M125.7,508.9c0-5.7-4.6-10.3-10.3-10.3c-5.7,0-10.3,4.6-10.3,10.3c0,5.7,4.6,10.3,10.3,10.3
		C121.1,519.2,125.7,514.6,125.7,508.9"/>
	<path fill="#1BAA73" d="M416.7,167.4c0-5.7-4.6-10.3-10.3-10.3c-5.7,0-10.3,4.6-10.3,10.3c0,5.7,4.6,10.3,10.3,10.3
		C412,177.7,416.7,173.1,416.7,167.4"/>
	<path fill="#1BAA73" d="M189,388.7c0-5.7-4.6-10.3-10.3-10.3c-5.7,0-10.3,4.6-10.3,10.3c0,5.7,4.6,10.3,10.3,10.3
		C184.3,399.1,189,394.4,189,388.7"/>
</g>
</svg>
