<?xml version="1.0" encoding="utf-8"?>
<!-- Generator: Adobe Illustrator 21.0.2, SVG Export Plug-In . SVG Version: 6.00 Build 0)  -->
<svg version="1.1" id="Lager_1" xmlns="http://www.w3.org/2000/svg" xmlns:xlink="http://www.w3.org/1999/xlink" x="0px" y="0px"
	 viewBox="0 0 878.7 274.6" style="enable-background:new 0 0 878.7 274.6;" xml:space="preserve">
<style type="text/css">
	.st0{fill:#FFFFFF;}
</style>
<g>
	<g>
		<path class="st0" d="M101.9,20.8L51.1,172h77.1l3.6,10.6H47.6l-21.8,64.9h12.5L56,194.6h79.7l17.7,52.9H166L102.2,57.2l6-17.8
			L178,247.5h12.5L114.4,20.8H101.9z M124.2,160H67.7L96,75.8L124.2,160z"/>
	</g>
	<g>
		<polygon class="st0" points="414.2,20.8 401.7,20.8 355.3,158.8 330.8,85.4 318.3,85.4 349.1,177.4 344.1,192.4 308.2,85.4 
			295.7,85.4 337.8,211.1 331.8,228.8 283.7,85.4 271.2,85.4 235.3,192.5 177.6,20.8 165.1,20.8 229,211.1 223,228.8 153.2,20.8 
			140.7,20.8 216.8,247.5 216.8,247.5 216.8,247.5 229.3,247.5 277.5,104 283.4,121.7 241.2,247.5 253.7,247.5 289.7,140.3 
			325.6,247.5 338.1,247.5 338.1,247.5 338.1,247.5 		"/>
	</g>
	<g>
		<polygon class="st0" points="426.1,20.8 350,247.5 362.5,247.5 438.6,20.8 		"/>
	</g>
	<g>
		<polygon class="st0" points="450.5,20.8 374.4,247.5 386.9,247.5 463,20.8 		"/>
	</g>
</g>
<g>
	<g>
		<path class="st0" d="M531.3,65.4h-9.1l-22,60.3h9l5.7-15.8h23.4l5.7,15.7h9.2L531.3,65.4L531.3,65.4z M518.1,101.3l8.6-23.6
			l8.5,23.6H518.1L518.1,101.3z"/>
	</g>
	<g>
		<path class="st0" d="M574.7,80.7c-12.9,0-21,8.9-21,23.3c0,14.1,8,22.9,21,22.9c7.9,0,13.9-3.6,17.3-11.1l-7.8-3.9
			c-1.3,2.5-4,5.9-9.3,5.9c-7.4,0-11.7-5.1-11.7-13.9c0-9,4.1-14,11.7-14c4.7,0,7.8,2,10.4,7.7l7.4-5
			C589.1,84.4,583.1,80.7,574.7,80.7z"/>
	</g>
	<g>
		<path class="st0" d="M616.8,80.6c-8.5,0-14.5,3.8-18,12.2l7.7,3.6c2.3-5,5.1-6.6,9.8-6.6c4.4,0,7.4,2,7.4,4.9
			c0,1.9-3.5,2.5-7.6,3.3c-7.6,1.4-18.1,3.4-18.1,14.9c0,6.9,4.5,13.9,14.7,13.9c5,0,9.3-1.7,12.6-5c1.4,3.3,4.3,4.8,8,5l4.8-7.5
			c-3.9-0.6-5.3-2.7-5.3-5.8V96.9C632.8,86.4,627.1,80.6,616.8,80.6z M614.1,117.7c-4.1,0-6.6-2.2-6.6-5.8c0-3.3,3.6-4.5,11.2-6
			c2.3-0.4,4.8-1.1,5-1.1v6.4C623.7,114.3,618.6,117.7,614.1,117.7L614.1,117.7z"/>
	</g>
	<g>
		<path class="st0" d="M680,65.6h-9.1v19.6c-3.2-2.9-7.3-4.5-11.7-4.5c-11.5,0-19.6,9.5-19.6,23.1c0,14.5,9.8,23.2,19.3,23.2
			c4.2,0,8.5-1.8,11.9-5v3.9h9.1L680,65.6L680,65.6z M659.7,118.1c-6.1,0-10.5-6.1-10.5-14.5c0-8.3,4.5-14.1,10.8-14.1
			c6.6,0,10.9,4.8,10.9,12.2v4C670.8,113,666.2,118.1,659.7,118.1L659.7,118.1z"/>
	</g>
	<g>
		<path class="st0" d="M708,80.6c-12.6,0-21,9.2-21,23c0,13.9,8.7,23.3,21.7,23.3c6.6,0,13.7-2.9,17.3-7.4l-5.4-6.6
			c-3.6,3.2-7.8,4.9-11.6,4.9c-6.8,0-11.7-4.2-12.2-10.5h29.5c0,0,0.6-1.8,0.6-5.8C726.8,89,719.2,80.6,708,80.6z M697,98.5
			c0.4-3.7,4.3-8.7,10.6-8.7c5.7,0,9.4,3.4,9.5,8.7H697L697,98.5z"/>
	</g>
	<g>
		<path class="st0" d="M777.8,80.6c-5.8,0-10.5,3.2-12.7,6.4c-2.6-4-7.1-6.4-12.1-6.4c-4.5,0-8.6,1.8-11,4.7l-0.7-3.6h-8.1v44h9.1
			V99.2c0-6.6,2.6-9.7,8.1-9.7c5.6,0,8.2,3,8.2,9.5v26.8h9.1V99.2c0-6,3.2-9.7,8.2-9.7c5.6,0,8.2,2.9,8.2,9.5v26.8h9.1v-27
			C793.3,82.4,782.5,80.6,777.8,80.6L777.8,80.6z"/>
	</g>
	<g>
		<path class="st0" d="M806.6,65.3L806.6,65.3c-3.2,0-5.9,2.6-5.9,5.9c0,3.2,2.6,5.8,5.9,5.8c3.2,0,5.8-2.6,5.8-5.8
			C812.3,68,809.8,65.4,806.6,65.3L806.6,65.3L806.6,65.3z"/>
	</g>
	<g>
		<path class="st0" d="M811,81.7h-9.1v44h9.1V81.7L811,81.7z"/>
	</g>
	<g>
		<path class="st0" d="M573.2,142.4h-9.6l-11.1,46.4l0,0c0,0-0.1-0.1-0.1-0.2L541.6,159h-9.2L522,188.7c0,0.1-0.1,0.1-0.1,0.1
			s-0.1-0.1-0.1-0.2l-11.4-46.2h-9.5l15.9,60.3h8.4l11.8-30.9l11.9,30.9h8.4L573.2,142.4L573.2,142.4z"/>
	</g>
	<g>
		<path class="st0" d="M592.6,157.7c-10.5,0-21.8,7.4-21.8,23.5c0,13.3,9,22.6,21.8,22.6c10.6,0,22-7.2,22-23
			C614.5,164.9,603.5,157.7,592.6,157.7L592.6,157.7z M592.6,194.8c-7.6,0-12.3-5.3-12.3-13.8c0-7,3.8-14.1,12.3-14.1
			c7.8,0,12.5,5.4,12.5,14.3C605.1,189.7,600.4,194.8,592.6,194.8L592.6,194.8z"/>
	</g>
	<g>
		<path class="st0" d="M643.3,157.6c-6.2-0.1-9.8,1.6-12.9,5.4l-0.5-4.3h-8.8v44h9.1V178c0-7.4,3.8-10.8,13.1-10.6L643.3,157.6
			L643.3,157.6z"/>
	</g>
	<g>
		<path class="st0" d="M659.3,142.6h-9.1v60.2h9.1v-18.7l16.6,18.7h11.6L666,178.2l19.7-19.5h-11.9L659.4,173l-0.1,0.1L659.3,142.6
			L659.3,142.6z"/>
	</g>
	<g>
		<path class="st0" d="M838.6,80.7c-12.9,0-21,8.9-21,23.3c0,14.1,8,22.9,21,22.9c7.9,0,13.9-3.6,17.3-11.1l-7.8-3.9
			c-1.3,2.5-4,5.9-9.3,5.9c-7.4,0-11.7-5.1-11.7-13.9c0-9,4.1-14,11.7-14c4.7,0,7.8,2,10.4,7.7l7.4-5C853,84.4,847,80.7,838.6,80.7z
			"/>
	</g>
</g>
</svg>
