<?xml version="1.0" encoding="utf-8"?>
<!-- Generator: Adobe Illustrator 21.0.2, SVG Export Plug-In . SVG Version: 6.00 Build 0)  -->
<svg version="1.1" id="Layer_1" xmlns="http://www.w3.org/2000/svg" xmlns:xlink="http://www.w3.org/1999/xlink" x="0px" y="0px"
	 viewBox="0 0 705.3 288" style="enable-background:new 0 0 705.3 288;" xml:space="preserve">
<style type="text/css">
	.st0{fill:#FFFFFF;}
</style>
<title>academicwork</title>
<path class="st0" d="M155.9,118.5h-14.2l-7.8-18.5H97.7l-7.9,18.5H76l33.7-77.3h12.5L155.9,118.5z M115.7,57.4l-13.1,30.7H129
	L115.7,57.4z"/>
<path class="st0" d="M216.6,111.9c-2.2,1.7-4.5,3.1-7,4.3c-2.6,1.2-5.3,2.2-8.2,2.7c-3.2,0.6-6.5,1-9.8,0.9
	c-5.3,0.1-10.6-1-15.6-3.1c-4.6-2-8.8-4.8-12.3-8.4c-3.5-3.6-6.3-7.9-8.2-12.5c-2-4.9-3-10.2-3-15.6c0-5.3,1-10.5,2.9-15.4
	c3.8-9.6,11.2-17.2,20.6-21.2c5.1-2.1,10.5-3.2,16-3.1c3.2,0,6.4,0.3,9.6,0.9c2.7,0.5,5.4,1.4,7.9,2.5c2.4,1,4.6,2.3,6.7,3.7
	c2,1.5,4,3.1,5.8,4.8l-8.7,10c-2.9-2.7-6.2-5-9.7-6.9c-3.6-1.8-7.7-2.7-11.7-2.6c-3.5,0-6.9,0.7-10.1,2.1c-3,1.4-5.8,3.4-8,5.8
	c-2.3,2.5-4.1,5.4-5.3,8.6c-1.3,3.4-1.9,7-1.9,10.6c0,3.6,0.6,7.3,1.9,10.7c1.2,3.2,3,6.2,5.3,8.7c2.3,2.5,5,4.5,8,5.9
	c3.2,1.4,6.6,2.2,10.1,2.1c4.2,0.1,8.3-0.8,12-2.7c3.6-2,7-4.4,10-7.3l8.7,8.7C220.9,108.3,218.8,110.2,216.6,111.9z"/>
<path class="st0" d="M302,118.5h-14.2l-7.8-18.5h-36.3l-7.9,18.5H222l33.7-77.3h12.5L302,118.5z M261.8,57.4l-13.1,30.7H275
	L261.8,57.4z"/>
<path class="st0" d="M373.2,95.2c-1.9,4.6-4.7,8.8-8.4,12.2c-3.7,3.5-8.1,6.3-12.9,8.1c-5.3,2-10.9,3-16.5,3h-28.6V41.9h28.6
	c5.6-0.1,11.2,0.9,16.5,2.9c4.8,1.8,9.2,4.5,12.9,8c3.6,3.4,6.5,7.6,8.4,12.2c2,4.8,3,9.9,3,15.1C376.2,85.3,375.2,90.4,373.2,95.2z
	 M360,69.8c-1.2-3.1-3.1-5.9-5.4-8.3c-2.4-2.4-5.3-4.3-8.4-5.5c-3.5-1.4-7.2-2-11-2h-15.1v52.4h15.2c3.7,0.1,7.5-0.6,11-1.9
	c3.1-1.2,6-3,8.4-5.4c2.3-2.4,4.1-5.2,5.4-8.2c1.3-3.3,2-6.9,1.9-10.5C362,76.7,361.4,73.1,360,69.8z"/>
<path class="st0" d="M440.9,54h-43.4v19.7h38.4v12.2h-38.4v20.5h43.9v12.2h-57.3V41.9h56.7V54z"/>
<path class="st0" d="M487,99.7h-0.4l-24-35.9v54.8h-13.4V41.9h14.4l23.3,36.3l23.3-36.3h14.4v76.7h-13.4v-55L487,99.7z"/>
<path class="st0" d="M550.1,41.9v76.7h-13.4V41.9H550.1z"/>
<path class="st0" d="M622.9,111.9c-2.2,1.7-4.5,3.1-7,4.3c-2.6,1.2-5.3,2.2-8.2,2.7c-3.2,0.6-6.5,1-9.8,0.9
	c-5.3,0.1-10.6-1-15.6-3.1c-4.6-2-8.8-4.8-12.3-8.4c-3.5-3.6-6.3-7.9-8.2-12.5c-2-4.9-3-10.2-3-15.6c0-5.3,1-10.5,2.9-15.4
	c3.8-9.6,11.2-17.2,20.6-21.2c5.1-2.1,10.5-3.2,16-3.1c3.2,0,6.4,0.3,9.6,0.9c2.7,0.5,5.4,1.4,7.9,2.5c2.4,1,4.6,2.3,6.7,3.7
	c2,1.5,4,3.1,5.8,4.8l-8.7,10c-2.9-2.7-6.2-5.1-9.8-6.9c-3.6-1.8-7.7-2.7-11.7-2.6c-3.5,0-7,0.7-10.1,2.1c-3,1.4-5.8,3.4-8,5.8
	c-2.3,2.5-4.1,5.4-5.3,8.6c-1.3,3.4-1.9,7-1.9,10.6c0,3.6,0.6,7.3,1.9,10.7c1.2,3.2,3,6.2,5.3,8.7c2.3,2.5,5,4.5,8,5.9
	c3.2,1.4,6.6,2.2,10.1,2.1c4.2,0.1,8.3-0.8,12.1-2.7c3.6-2,7-4.4,10-7.3l8.7,8.7C627.2,108.3,625.1,110.2,622.9,111.9z"/>
<path class="st0" d="M320.4,135.8h11.4l18.8,57.1l18.3-56.9h14.1l-26.7,77.2h-11.6l-18.8-55.1l-18.8,55.1h-11.6l-26.7-77.2h14.6
	l18.3,56.9L320.4,135.8z"/>
<path class="st0" d="M458.2,189.6c-1.9,4.7-4.7,9-8.3,12.7c-7.6,7.7-18.1,11.9-28.9,11.8c-5.6,0.1-11.1-1-16.2-3.1
	c-9.5-3.9-17-11.5-20.8-21.1c-3.9-9.8-3.9-20.8,0-30.7c1.9-4.7,4.7-9,8.3-12.7c7.6-7.7,18.1-11.9,28.9-11.8c5.6-0.1,11.1,1,16.2,3.1
	c9.5,3.9,17,11.5,20.8,21.1C462.2,168.8,462.2,179.8,458.2,189.6L458.2,189.6z M445.2,163.9c-1.2-3.2-3-6.2-5.4-8.7
	c-2.3-2.5-5.2-4.5-8.3-5.9c-6.7-2.9-14.3-2.9-21-0.1c-3.1,1.4-5.9,3.3-8.2,5.8c-2.3,2.5-4.1,5.5-5.3,8.7c-2.6,6.8-2.6,14.3,0,21.1
	c1.2,3.2,3,6.2,5.4,8.7c2.3,2.5,5.1,4.5,8.3,5.9c6.7,2.9,14.3,2.9,21,0.1c3.1-1.4,5.9-3.3,8.2-5.8c2.3-2.5,4.1-5.5,5.3-8.7
	C447.7,178.3,447.7,170.8,445.2,163.9L445.2,163.9z"/>
<path class="st0" d="M517,212.7L498.1,186h-16.9v26.7h-13.4v-76.7H502c4-0.1,8,0.5,11.9,1.7c3.3,1,6.3,2.6,9,4.8
	c2.4,2.1,4.4,4.7,5.6,7.7c2.4,6,2.6,12.6,0.6,18.7c-0.9,2.4-2.1,4.7-3.8,6.7c-1.6,2-3.6,3.6-5.8,4.9c-2.3,1.4-4.8,2.4-7.4,3.1
	l20.7,29H517z M512.6,151.5c-2.8-2.2-6.7-3.2-11.8-3.2h-19.7v25.9h19.8c4.8,0,8.7-1.2,11.5-3.5c2.8-2.3,4.4-5.8,4.3-9.5
	C516.7,156.8,515.4,153.6,512.6,151.5z"/>
<path class="st0" d="M609.2,212.7h-16.3l-26.2-34.5l-11.9,12.3v22.2h-13.4v-76.7h13.4v38.6l36.5-38.6h16.5l-31.9,33L609.2,212.7z"/>
<path class="st0" d="M612.8,212.7v-15h14.6v15H612.8z"/>
<path class="st0" d="M81.1,243.2v8.4h-3.5v-20h3.5v8.3h9.6v-8.3h3.5v20h-3.5v-8.4H81.1z"/>
<path class="st0" d="M117.3,245.6c-0.5,1.2-1.2,2.4-2.2,3.3c-2,2-4.7,3.1-7.5,3.1c-1.4,0-2.9-0.2-4.2-0.8c-2.5-1-4.4-3-5.4-5.5
	c-1-2.6-1-5.4,0-8c0.5-1.2,1.2-2.4,2.2-3.3c2-2,4.7-3.1,7.5-3.1c1.4,0,2.9,0.2,4.2,0.8c2.5,1,4.4,3,5.4,5.5
	C118.4,240.2,118.4,243,117.3,245.6z M113.9,238.9c-0.3-0.8-0.8-1.6-1.4-2.3c-0.6-0.7-1.3-1.2-2.2-1.5c-1.7-0.8-3.7-0.8-5.5,0
	c-0.8,0.3-1.5,0.8-2.1,1.4c-0.6,0.7-1.1,1.4-1.4,2.3c-0.7,1.8-0.7,3.7,0,5.5c0.3,0.8,0.8,1.6,1.4,2.3c0.6,0.7,1.3,1.2,2.2,1.5
	c1.7,0.8,3.7,0.8,5.5,0c0.8-0.4,1.5-0.9,2.1-1.5c0.6-0.7,1.1-1.4,1.4-2.3C114.6,242.6,114.6,240.6,113.9,238.9L113.9,238.9z"/>
<path class="st0" d="M130.9,246.7h-0.1l-6.3-9.4v14.3h-3.5v-20h3.7l6.1,9.5l6-9.5h3.7v20h-3.5v-14.3L130.9,246.7z"/>
<path class="st0" d="M159.4,234.8h-11.3v5.1h10v3.2h-10v5.3h11.5v3.2h-15v-20h14.8V234.8z"/>
<path class="st0" d="M189,245.6c-0.5,1.2-1.2,2.4-2.2,3.3c-2,2-4.7,3.1-7.5,3.1c-1.4,0-2.9-0.2-4.2-0.8c-2.5-1-4.4-3-5.4-5.5
	c-1-2.6-1-5.4,0-8c0.5-1.2,1.2-2.4,2.2-3.3c2-2,4.7-3.1,7.5-3.1c1.4,0,2.9,0.2,4.2,0.8c2.5,1,4.4,3,5.4,5.5
	C190,240.2,190,243,189,245.6L189,245.6z M185.6,238.9c-0.3-0.8-0.8-1.6-1.4-2.3c-0.6-0.7-1.3-1.2-2.2-1.5c-1.7-0.8-3.7-0.8-5.5,0
	c-0.8,0.4-1.5,0.9-2.1,1.5c-0.6,0.7-1.1,1.4-1.4,2.3c-0.7,1.8-0.7,3.7,0,5.5c0.3,0.8,0.8,1.6,1.4,2.3c0.6,0.7,1.3,1.2,2.2,1.5
	c1.7,0.8,3.7,0.8,5.5,0c0.8-0.4,1.5-0.9,2.1-1.5c0.6-0.7,1.1-1.4,1.4-2.3C186.3,242.6,186.3,240.7,185.6,238.9z"/>
<path class="st0" d="M207.6,234.8h-11.4v5.5h10.1v3.2h-10.1v8.1h-3.5v-20h14.9V234.8z"/>
<path class="st0" d="M226,251.6h-3.5v-16.7h-6.4v-3.3h16.2v3.3h-6.4L226,251.6z"/>
<path class="st0" d="M238.2,243.2v8.4h-3.5v-20h3.5v8.3h9.6v-8.3h3.5v20h-3.5v-8.4H238.2z"/>
<path class="st0" d="M270,234.8h-11.3v5.1h10v3.2h-10v5.3h11.5v3.2h-14.9v-20H270V234.8z"/>
<path class="st0" d="M289.7,251.6h-3.5v-7.9l-7.9-12.1h4.1l5.6,8.9l5.7-8.9h4l-7.9,12L289.7,251.6z"/>
<path class="st0" d="M317,245.6c-0.5,1.2-1.2,2.4-2.2,3.3c-2,2-4.7,3.1-7.5,3.1c-1.4,0-2.9-0.2-4.2-0.8c-2.5-1-4.4-3-5.4-5.5
	c-1-2.6-1-5.4,0-8c0.5-1.2,1.2-2.4,2.2-3.3c2-2,4.7-3.1,7.5-3.1c1.4,0,2.9,0.2,4.2,0.8c2.5,1,4.4,3,5.4,5.5
	C318.1,240.2,318.1,243,317,245.6z M313.6,238.9c-0.3-0.8-0.8-1.6-1.4-2.3c-0.6-0.7-1.3-1.2-2.2-1.5c-1.7-0.8-3.7-0.8-5.5,0
	c-0.8,0.4-1.5,0.9-2.1,1.5c-0.6,0.7-1.1,1.4-1.4,2.3c-0.7,1.8-0.7,3.7,0,5.5c0.3,0.8,0.8,1.6,1.4,2.3c0.6,0.7,1.3,1.2,2.2,1.5
	c1.7,0.8,3.7,0.8,5.5,0c0.8-0.4,1.5-0.9,2.1-1.5c0.6-0.7,1.1-1.4,1.4-2.3C314.3,242.6,314.3,240.7,313.6,238.9z"/>
<path class="st0" d="M337.6,243c0,1.3-0.2,2.7-0.6,3.9c-0.4,1.1-1,2-1.7,2.8c-0.8,0.8-1.7,1.3-2.7,1.7c-1.1,0.4-2.3,0.6-3.6,0.6
	c-1.2,0-2.4-0.2-3.5-0.6c-1-0.3-1.9-0.9-2.7-1.7c-0.8-0.8-1.4-1.7-1.7-2.8c-0.4-1.2-0.6-2.5-0.6-3.8v-11.5h3.5V243
	c-0.1,1.5,0.4,3.1,1.3,4.3c1,1,2.3,1.5,3.7,1.5c1.4,0.1,2.7-0.4,3.7-1.4c1-1.2,1.5-2.7,1.3-4.2v-11.5h3.5L337.6,243z"/>
<path class="st0" d="M355.1,231.6h3.5v20h-2.9l-11-14.2v14.2h-3.5v-20h3.3l10.7,13.8V231.6z"/>
<path class="st0" d="M378.6,250c-0.6,0.4-1.3,0.7-1.9,1c-0.7,0.3-1.5,0.5-2.2,0.7c-0.8,0.2-1.7,0.2-2.5,0.2c-1.5,0-2.9-0.3-4.3-0.8
	c-2.5-1-4.4-3-5.4-5.4c-0.5-1.3-0.8-2.7-0.7-4.1c0-1.4,0.3-2.7,0.8-4c1-2.5,2.9-4.5,5.4-5.6c1.3-0.5,2.7-0.8,4.2-0.8
	c0.8,0,1.6,0.1,2.4,0.2c0.7,0.1,1.3,0.3,2,0.5c0.6,0.2,1.2,0.5,1.7,0.8c0.6,0.3,1.1,0.7,1.6,1.2l-2.2,2.7c-0.4-0.3-0.8-0.6-1.2-0.9
	c-0.4-0.3-0.8-0.5-1.3-0.7c-0.5-0.2-1-0.3-1.4-0.4c-0.6-0.1-1.1-0.2-1.7-0.2c-0.9,0-1.8,0.2-2.6,0.6c-0.8,0.4-1.5,0.9-2.1,1.5
	c-0.6,0.7-1.1,1.4-1.4,2.3c-0.3,0.9-0.5,1.8-0.5,2.7c0,1,0.2,1.9,0.5,2.9c0.3,0.8,0.8,1.6,1.4,2.3c0.6,0.6,1.3,1.2,2.1,1.5
	c0.9,0.4,1.8,0.6,2.8,0.5c0.9,0,1.8-0.1,2.7-0.4c0.8-0.2,1.5-0.6,2.2-1.1v-3.8h-5.1v-3.1h8.5v8.4C379.7,249.3,379.2,249.7,378.6,250
	z"/>
<path class="st0" d="M405.7,241.3c-0.4,0.8-1,1.6-1.7,2.1c-0.8,0.6-1.6,1-2.5,1.3c-1,0.3-2.1,0.5-3.1,0.4h-4v6.4h-3.5v-20h7.9
	c1.1,0,2.1,0.1,3.2,0.5c0.9,0.3,1.7,0.7,2.4,1.4c0.7,0.6,1.2,1.3,1.5,2.1c0.4,0.9,0.5,1.8,0.5,2.8
	C406.3,239.4,406.1,240.4,405.7,241.3z M401.6,235.7c-0.9-0.6-2-1-3.2-0.9h-4.1v7.2h4.1c1.1,0.1,2.3-0.3,3.2-1
	c0.8-0.7,1.2-1.6,1.2-2.6C402.8,237.4,402.4,236.4,401.6,235.7z"/>
<path class="st0" d="M421.4,251.6l-4.9-7h-4.4v7h-3.5v-20h8.9c1.1,0,2.1,0.1,3.1,0.4c0.9,0.3,1.7,0.7,2.4,1.3c0.6,0.5,1.1,1.2,1.5,2
	c0.6,1.6,0.7,3.3,0.2,4.9c-0.2,0.6-0.6,1.2-1,1.7c-0.4,0.5-0.9,0.9-1.5,1.3c-0.6,0.4-1.3,0.6-1.9,0.8l5.4,7.6L421.4,251.6z
	 M420.3,235.6c-0.9-0.6-2-0.9-3.1-0.8h-5.1v6.7h5.2c1.1,0.1,2.1-0.3,3-0.9c0.7-0.6,1.2-1.5,1.1-2.5
	C421.4,237.2,421,236.3,420.3,235.6z"/>
<path class="st0" d="M447.3,245.6c-0.5,1.2-1.2,2.4-2.2,3.3c-2,2-4.7,3.1-7.5,3.1c-1.4,0-2.9-0.2-4.2-0.8c-2.5-1-4.4-3-5.4-5.5
	c-1-2.6-1-5.4,0-8c0.5-1.2,1.2-2.4,2.2-3.3c2-2,4.7-3.1,7.5-3.1c1.4,0,2.9,0.2,4.2,0.8c2.5,1,4.4,3,5.4,5.5
	C448.3,240.2,448.3,243,447.3,245.6z M443.8,238.9c-0.3-0.8-0.8-1.6-1.4-2.3c-0.6-0.7-1.3-1.2-2.2-1.5c-2.6-1.2-5.6-0.6-7.6,1.5
	c-0.6,0.7-1.1,1.4-1.4,2.3c-0.7,1.8-0.7,3.7,0,5.5c0.3,0.8,0.8,1.6,1.4,2.3c0.6,0.7,1.3,1.2,2.2,1.5c1.7,0.8,3.7,0.8,5.5,0
	c0.8-0.4,1.5-0.9,2.1-1.5c0.6-0.7,1.1-1.4,1.4-2.3C444.5,242.6,444.5,240.6,443.8,238.9L443.8,238.9z"/>
<path class="st0" d="M465.9,234.8h-11.3v5.5h10.1v3.2h-10.1v8.1H451v-20h14.9L465.9,234.8z"/>
<path class="st0" d="M483.3,234.8H472v5.1h10v3.2h-10v5.3h11.4v3.2h-14.9v-20h14.8L483.3,234.8z"/>
<path class="st0" d="M489.4,237.9c0.2,0.3,0.4,0.6,0.7,0.8c0.5,0.3,0.9,0.5,1.5,0.7c0.6,0.2,1.4,0.4,2.4,0.7
	c0.9,0.2,1.9,0.5,2.8,0.9c0.7,0.3,1.4,0.7,2,1.2c0.5,0.4,0.9,1,1.2,1.6c0.3,0.7,0.4,1.4,0.4,2.2c0,0.9-0.2,1.7-0.5,2.5
	c-0.3,0.7-0.8,1.4-1.5,1.9c-0.7,0.5-1.4,0.9-2.2,1.2c-0.9,0.3-1.9,0.4-2.9,0.4c-1.5,0-3-0.3-4.4-0.8c-1.4-0.5-2.8-1.3-3.9-2.4
	l2.1-2.5c0.9,0.8,1.9,1.4,2.9,1.9c1.1,0.5,2.2,0.7,3.4,0.7c0.9,0,1.8-0.2,2.6-0.7c0.6-0.4,1-1.1,1-1.9c0-0.3-0.1-0.7-0.2-1
	c-0.2-0.3-0.4-0.6-0.7-0.8c-0.4-0.3-0.9-0.5-1.4-0.7c-0.7-0.3-1.5-0.5-2.3-0.7c-1-0.2-1.9-0.5-2.8-0.8c-0.8-0.3-1.5-0.6-2.1-1.1
	c-0.6-0.4-1-1-1.3-1.7c-0.3-0.8-0.5-1.6-0.4-2.4c0-0.8,0.2-1.6,0.5-2.4c0.3-0.7,0.8-1.3,1.4-1.8c0.6-0.5,1.4-0.9,2.1-1.2
	c0.9-0.3,1.8-0.4,2.7-0.4c1.4,0,2.7,0.2,4,0.6c1.2,0.4,2.3,1.1,3.3,1.9l-1.9,2.7c-0.8-0.6-1.7-1.2-2.7-1.6c-0.9-0.3-1.8-0.5-2.7-0.5
	c-0.9,0-1.7,0.2-2.4,0.7c-0.5,0.4-0.9,1-0.9,1.7C489.2,237.2,489.3,237.5,489.4,237.9z"/>
<path class="st0" d="M507.4,237.9c0.2,0.3,0.4,0.6,0.7,0.8c0.5,0.3,0.9,0.5,1.5,0.7c0.6,0.2,1.4,0.4,2.4,0.7
	c0.9,0.2,1.9,0.5,2.8,0.9c0.7,0.3,1.4,0.7,2,1.2c0.5,0.4,0.9,1,1.2,1.6c0.3,0.7,0.4,1.4,0.4,2.2c0,0.9-0.2,1.7-0.5,2.5
	c-0.3,0.7-0.8,1.4-1.5,1.9c-0.7,0.5-1.4,0.9-2.2,1.2c-0.9,0.3-1.9,0.4-2.9,0.4c-1.5,0-3-0.3-4.4-0.8c-1.4-0.5-2.8-1.3-3.9-2.4
	l2.1-2.5c0.9,0.8,1.9,1.4,2.9,1.9c1.1,0.5,2.2,0.7,3.4,0.7c0.9,0,1.8-0.2,2.6-0.7c0.6-0.4,1-1.1,1-1.9c0-0.3-0.1-0.7-0.2-1
	c-0.2-0.3-0.4-0.6-0.7-0.8c-0.4-0.3-0.9-0.5-1.4-0.7c-0.7-0.3-1.5-0.5-2.3-0.7c-1-0.2-1.9-0.5-2.8-0.8c-0.8-0.3-1.5-0.6-2.1-1.1
	c-0.6-0.4-1-1-1.3-1.7c-0.3-0.8-0.5-1.6-0.4-2.4c0-0.8,0.2-1.6,0.5-2.4c0.3-0.7,0.8-1.3,1.4-1.8c0.6-0.5,1.4-0.9,2.2-1.2
	c0.9-0.3,1.8-0.4,2.7-0.4c1.4,0,2.7,0.2,4,0.6c1.2,0.4,2.3,1.1,3.3,1.9l-1.9,2.6c-0.8-0.6-1.7-1.1-2.7-1.5c-0.9-0.3-1.8-0.5-2.7-0.5
	c-0.9,0-1.7,0.2-2.4,0.7c-0.5,0.4-0.9,1-0.9,1.7C507.2,237.2,507.2,237.6,507.4,237.9z"/>
<path class="st0" d="M526.1,231.6v20h-3.5v-20H526.1z"/>
<path class="st0" d="M549.5,245.6c-0.5,1.2-1.2,2.4-2.2,3.3c-2,2-4.7,3.1-7.5,3.1c-1.4,0-2.9-0.2-4.2-0.8c-2.5-1-4.4-3-5.4-5.5
	c-1-2.6-1-5.4,0-8c0.5-1.2,1.2-2.4,2.2-3.3c2-2,4.7-3.1,7.5-3.1c1.4,0,2.9,0.2,4.2,0.8c2.5,1,4.4,3,5.4,5.5
	C550.5,240.2,550.5,243,549.5,245.6z M546.1,238.9c-0.3-0.8-0.8-1.6-1.4-2.3c-0.6-0.7-1.3-1.2-2.2-1.5c-2.6-1.2-5.7-0.6-7.6,1.5
	c-0.6,0.7-1.1,1.4-1.4,2.3c-0.7,1.8-0.7,3.7,0,5.5c0.3,0.8,0.8,1.6,1.4,2.3c0.6,0.7,1.3,1.2,2.2,1.5c1.7,0.8,3.7,0.8,5.5,0
	c0.8-0.4,1.5-0.9,2.1-1.5c0.6-0.7,1.1-1.4,1.4-2.3C546.7,242.6,546.7,240.7,546.1,238.9L546.1,238.9z"/>
<path class="st0" d="M567.2,231.6h3.5v20h-2.9l-11-14.2v14.2h-3.5v-20h3.3l10.7,13.8L567.2,231.6z"/>
<path class="st0" d="M593.7,251.6h-3.7l-2.1-4.8h-9.4l-2.1,4.8h-3.6l8.8-20.1h3.3L593.7,251.6z M583.2,235.7l-3.4,8h6.9L583.2,235.7
	z"/>
<path class="st0" d="M595.8,231.6h3.5v16.8h10.5v3.2h-14V231.6z"/>
<path class="st0" d="M616.7,237.9c0.2,0.3,0.4,0.6,0.7,0.8c0.5,0.3,0.9,0.5,1.5,0.7c0.6,0.2,1.4,0.4,2.4,0.7
	c0.9,0.2,1.9,0.5,2.8,0.9c0.7,0.3,1.4,0.7,2,1.2c0.5,0.4,0.9,1,1.2,1.6c0.3,0.7,0.4,1.4,0.4,2.2c0,0.9-0.2,1.7-0.5,2.5
	c-0.3,0.7-0.8,1.4-1.5,1.9c-0.7,0.5-1.4,0.9-2.2,1.2c-0.9,0.3-1.9,0.4-2.9,0.4c-1.5,0-3-0.3-4.4-0.8c-1.4-0.5-2.8-1.3-3.9-2.4
	l2.1-2.5c0.9,0.8,1.9,1.4,2.9,1.9c1.1,0.5,2.2,0.7,3.4,0.7c0.9,0,1.8-0.2,2.6-0.7c0.6-0.4,1-1.1,1-1.9c0-0.3-0.1-0.7-0.2-1
	c-0.2-0.3-0.4-0.6-0.7-0.8c-0.4-0.3-0.9-0.5-1.4-0.7c-0.7-0.3-1.5-0.5-2.3-0.7c-1-0.2-1.9-0.5-2.8-0.8c-0.8-0.3-1.5-0.6-2.1-1.1
	c-0.6-0.4-1-1-1.3-1.7c-0.3-0.8-0.5-1.6-0.4-2.4c0-0.8,0.2-1.6,0.5-2.4c0.3-0.7,0.8-1.3,1.4-1.8c0.6-0.5,1.4-0.9,2.2-1.2
	c0.9-0.3,1.8-0.4,2.7-0.4c1.4,0,2.7,0.2,4,0.6c1.2,0.4,2.3,1.1,3.3,1.9l-1.9,2.6c-0.8-0.6-1.7-1.1-2.7-1.5c-0.9-0.3-1.8-0.5-2.7-0.5
	c-0.9,0-1.7,0.2-2.4,0.7c-0.5,0.4-0.9,1-0.9,1.7C616.5,237.2,616.6,237.6,616.7,237.9z"/>
</svg>
