<?xml version="1.0" encoding="utf-8"?>
<!-- Generator: Adobe Illustrator 21.0.2, SVG Export Plug-In . SVG Version: 6.00 Build 0)  -->
<svg version="1.1" xmlns="http://www.w3.org/2000/svg" xmlns:xlink="http://www.w3.org/1999/xlink" x="0px" y="0px"
	 viewBox="0 0 2624 804" style="enable-background:new 0 0 2624 804;" xml:space="preserve">
<style type="text/css">
	.st0{fill:#FFFFFF;}
</style>
<g id="Layer_2">
</g>
<g id="Layer_1">
	<g>
		<path class="st0" d="M1020.9,157.2c19.4,0,35.7,2.4,49,7.3c13.2,4.8,23.8,11.6,31.8,20.3c7.9,8.7,13.6,19.3,17,31.7
			c3.4,12.4,5.1,26.1,5.1,40.9v153.4c-9.1,1.9-22.7,4.3-41,7c-18.3,2.7-38.9,4.1-61.8,4.1c-15.2,0-29.1-1.5-41.7-4.4
			s-23.4-7.6-32.2-14c-8.9-6.5-15.8-14.8-20.8-25.2c-5-10.3-7.5-23.1-7.5-38.2c0-14.5,2.8-26.8,8.5-36.8c5.7-10,13.3-18.2,23-24.4
			c9.7-6.3,20.9-10.8,33.7-13.6c12.8-2.7,26.1-4.1,40-4.1c6.5,0,13.2,0.4,20.4,1.2c7.1,0.8,14.7,2.2,22.8,4.1v-9.7
			c0-6.8-0.8-13.2-2.4-19.4c-1.6-6.1-4.4-11.5-8.5-16.2c-4-4.7-9.4-8.3-16-10.9c-6.6-2.6-15-3.9-25-3.9c-13.6,0-26,1-37.3,2.9
			c-11.3,1.9-20.5,4.2-27.6,6.8l-7.3-47.4c7.4-2.6,18.3-5.2,32.5-7.7C989.6,158.5,1004.7,157.2,1020.9,157.2z M1025.8,375.5
			c18.1,0,31.8-1,41.2-2.9v-64.9c-3.2-1-7.9-1.9-14.1-2.9c-6.1-1-12.9-1.5-20.4-1.5c-6.5,0-13,0.5-19.6,1.5
			c-6.6,1-12.6,2.7-17.9,5.3c-5.3,2.6-9.6,6.2-12.8,10.9c-3.2,4.7-4.8,10.6-4.8,17.7c0,13.9,4.4,23.5,13.1,28.8
			C999.1,372.8,1010.9,375.5,1025.8,375.5z"/>
	</g>
	<g>
		<path class="st0" d="M1437.3,81.2V134h-103.3v282.7h-61.6V134h-103.3V81.2H1437.3z"/>
		<path class="st0" d="M1551.2,157.2c19.4,0,35.7,2.4,49,7.3c13.2,4.8,23.8,11.6,31.8,20.3c7.9,8.7,13.6,19.3,17,31.7
			c3.4,12.4,5.1,26.1,5.1,40.9v153.4c-9.1,1.9-22.7,4.3-41,7c-18.3,2.7-38.9,4.1-61.8,4.1c-15.2,0-29.1-1.5-41.7-4.4
			s-23.4-7.6-32.2-14c-8.9-6.5-15.8-14.8-20.8-25.2c-5-10.3-7.5-23.1-7.5-38.2c0-14.5,2.8-26.8,8.5-36.8c5.7-10,13.3-18.2,23-24.4
			c9.7-6.3,20.9-10.8,33.7-13.6c12.8-2.7,26.1-4.1,40-4.1c6.5,0,13.2,0.4,20.4,1.2c7.1,0.8,14.7,2.2,22.8,4.1v-9.7
			c0-6.8-0.8-13.2-2.4-19.4c-1.6-6.1-4.4-11.5-8.5-16.2c-4-4.7-9.4-8.3-16-10.9c-6.6-2.6-15-3.9-25-3.9c-13.6,0-26,1-37.3,2.9
			c-11.3,1.9-20.5,4.2-27.6,6.8l-7.3-47.4c7.4-2.6,18.3-5.2,32.5-7.7C1519.9,158.5,1535.1,157.2,1551.2,157.2z M1556.1,375.5
			c18.1,0,31.8-1,41.2-2.9v-64.9c-3.2-1-7.9-1.9-14.1-2.9c-6.1-1-12.9-1.5-20.4-1.5c-6.5,0-13,0.5-19.6,1.5
			c-6.6,1-12.6,2.7-17.9,5.3c-5.3,2.6-9.6,6.2-12.8,10.9c-3.2,4.7-4.8,10.6-4.8,17.7c0,13.9,4.4,23.5,13.1,28.8
			S1541.2,375.5,1556.1,375.5z"/>
		<path class="st0" d="M1818.8,421.5c-17.5-0.3-31.9-2.3-43.4-5.8c-11.5-3.5-20.6-8.6-27.4-15.2c-6.8-6.6-11.6-14.8-14.3-24.7
			c-2.7-9.8-4.1-21.1-4.1-33.6V50.7l58.7-9.7V331c0,7.1,0.6,13.1,1.7,17.9c1.1,4.8,3.2,9,6.1,12.3c2.9,3.4,6.9,6,11.9,7.7
			c5,1.8,11.4,3.1,19.1,4.1L1818.8,421.5z"/>
		<path class="st0" d="M1865.3,291.3c0-22.3,3.3-41.8,9.9-58.6c6.6-16.8,15.4-30.7,26.4-41.9c11-11.1,23.6-19.5,37.8-25.2
			c14.2-5.6,28.8-8.5,43.6-8.5c34.9,0,62.1,10.8,81.7,32.4c19.5,21.6,29.3,53.9,29.3,96.8c0,3.2-0.1,6.9-0.2,10.9
			c-0.2,4-0.4,7.7-0.7,10.9h-167.2c1.6,20.3,8.8,36.1,21.6,47.2c12.8,11.1,31.3,16.7,55.5,16.7c14.2,0,27.2-1.3,39-3.9
			c11.8-2.6,21.1-5.3,27.9-8.2l7.8,47.9c-3.2,1.6-7.7,3.3-13.3,5.1c-5.7,1.8-12.1,3.4-19.4,4.8c-7.3,1.5-15.1,2.7-23.5,3.6
			c-8.4,1-17,1.5-25.7,1.5c-22.3,0-41.7-3.3-58.2-9.9s-30.1-15.8-40.7-27.6c-10.7-11.8-18.6-25.7-23.8-41.6
			C1867.9,327.8,1865.3,310.3,1865.3,291.3z M2035.5,265.1c0-8.1-1.1-15.7-3.4-23c-2.3-7.3-5.6-13.6-9.9-18.9
			c-4.4-5.3-9.7-9.5-16-12.6c-6.3-3.1-13.8-4.6-22.5-4.6c-9.1,0-17,1.7-23.8,5.1c-6.8,3.4-12.5,7.8-17.2,13.3
			c-4.7,5.5-8.3,11.8-10.9,18.9c-2.6,7.1-4.4,14.4-5.3,21.8H2035.5z"/>
		<path class="st0" d="M2160.5,171.7c11.3-3.2,26-6.3,44.1-9.2c18.1-2.9,38.1-4.4,60.1-4.4c20.7,0,38,2.8,51.9,8.5
			c13.9,5.6,25,13.6,33.2,23.7c8.2,10.2,14.1,22.4,17.5,36.8c3.4,14.4,5.1,30.1,5.1,47.2v142.3h-58.7V283.5
			c0-13.6-0.9-25.1-2.7-34.6c-1.8-9.5-4.7-17.3-8.7-23.2c-4-6-9.5-10.3-16.5-13.1c-7-2.7-15.4-4.1-25.4-4.1
			c-7.4,0-15.2,0.5-23.3,1.5c-8.1,1-14.1,1.8-17.9,2.4v204.3h-58.7V171.7z"/>
		<path class="st0" d="M2446.1,96.7l58.7-9.7v76.5h90.2v48.9h-90.2v103.1c0,20.3,3.2,34.9,9.7,43.6c6.5,8.7,17.5,13.1,33,13.1
			c10.7,0,20.1-1.1,28.4-3.4c8.2-2.3,14.8-4.4,19.6-6.3l9.7,46.5c-6.8,2.9-15.7,5.9-26.7,9c-11,3.1-23.9,4.6-38.8,4.6
			c-18.1,0-33.2-2.4-45.3-7.3c-12.1-4.8-21.7-11.9-28.8-21.1c-7.1-9.2-12.1-20.3-15-33.4c-2.9-13.1-4.4-28-4.4-44.8V96.7z"/>
	</g>
	<g>
		<path class="st0" d="M1069.2,585c0,14.4-4.2,25.7-12.6,34c-8.4,8.3-19.5,14.3-33.3,18c3.3,3.7,7.5,8.7,12.8,14.9
			c5.2,6.3,10.6,13.1,16.2,20.6c5.5,7.5,11,15.3,16.3,23.4c5.3,8.1,9.9,15.9,13.5,23.2h-22.5c-4.3-7.4-9-14.8-14-22.1
			c-5-7.4-10.2-14.5-15.4-21.4c-5.2-6.9-10.3-13.3-15.2-19.2c-4.9-5.9-9.2-11.1-12.9-15.5c-6.6,0.6-13.1,0.8-19.7,0.8h-34.5v77.5
			h-20.9V531c7.4-1.8,16.1-3.2,26-4c10-0.8,19.1-1.2,27.6-1.2c29.4,0,51.5,5,66.4,14.9C1061.8,550.7,1069.2,565.4,1069.2,585z
			 M983,542.1c-7.8,0-14.6,0.2-20.5,0.7c-5.9,0.5-10.7,0.9-14.6,1.2v81.6h28.9c9.6,0,18.8-0.4,27.4-1.2c8.6-0.8,16.1-2.7,22.5-5.5
			c6.4-2.9,11.4-7,15.1-12.3c3.7-5.3,5.5-12.6,5.5-21.9c0-8.5-1.8-15.5-5.5-21c-3.7-5.5-8.5-9.9-14.5-13.1c-6-3.2-12.8-5.4-20.5-6.6
			C999.2,542.7,991.2,542.1,983,542.1z"/>
		<path class="st0" d="M1120.3,719.2V527.4h123.2v16.3h-102.2v66.7h91.1v16.1h-91.1v76.4h110.2v16.3H1120.3z"/>
		<path class="st0" d="M1378.1,723.3c-13.8,0-26.5-2.2-38.3-6.6c-11.8-4.4-22.1-10.9-30.8-19.4c-8.7-8.5-15.6-19-20.6-31.4
			c-5-12.5-7.5-26.7-7.5-42.8c0-16.1,2.7-30.3,8.2-42.8c5.4-12.5,12.7-22.9,21.7-31.4c9-8.5,19.5-14.9,31.4-19.2
			c11.9-4.3,24.3-6.5,37.3-6.5c8,0,15.3,0.5,21.9,1.4c6.6,0.9,12.3,2.1,17.2,3.5c4.9,1.4,9.1,2.8,12.6,4.2c3.5,1.4,6.2,2.6,8,3.7
			l-6.8,16.3c-5.1-2.8-11.7-5.5-19.6-8.2c-7.9-2.7-17.7-4-29.4-4c-13.3,0-25,2-35,6.1c-10,4.1-18.3,9.8-25.1,17.2
			c-6.8,7.4-11.9,16.1-15.2,26.3c-3.4,10.1-5.1,21.4-5.1,33.8c0,12.7,1.7,24.2,5.1,34.5s8.4,19,14.9,26.2
			c6.6,7.2,14.6,12.7,24.2,16.6c9.5,3.9,20.5,5.8,32.8,5.8c13.5,0,24.9-1.1,34-3.5c9.1-2.3,16.1-4.7,20.8-7.1l5.9,16.1
			c-1.4,0.9-3.9,2-7.4,3.2c-3.5,1.2-7.9,2.4-13.2,3.7c-5.3,1.3-11.5,2.4-18.5,3.2C1394.5,722.9,1386.7,723.3,1378.1,723.3z"/>
		<path class="st0" d="M1622,585c0,14.4-4.2,25.7-12.6,34c-8.4,8.3-19.5,14.3-33.3,18c3.3,3.7,7.5,8.7,12.8,14.9
			c5.2,6.3,10.6,13.1,16.2,20.6c5.5,7.5,11,15.3,16.3,23.4c5.3,8.1,9.9,15.9,13.5,23.2h-22.5c-4.3-7.4-9-14.8-14-22.1
			c-5-7.4-10.2-14.5-15.4-21.4c-5.2-6.9-10.3-13.3-15.2-19.2c-4.9-5.9-9.2-11.1-12.9-15.5c-6.6,0.6-13.1,0.8-19.7,0.8h-34.5v77.5
			h-20.9V531c7.4-1.8,16.1-3.2,26-4c10-0.8,19.1-1.2,27.6-1.2c29.4,0,51.5,5,66.4,14.9C1614.5,550.7,1622,565.4,1622,585z
			 M1535.7,542.1c-7.8,0-14.6,0.2-20.5,0.7c-5.9,0.5-10.7,0.9-14.6,1.2v81.6h28.9c9.6,0,18.8-0.4,27.4-1.2s16.1-2.7,22.5-5.5
			c6.4-2.9,11.4-7,15.1-12.3c3.7-5.3,5.5-12.6,5.5-21.9c0-8.5-1.8-15.5-5.5-21c-3.7-5.5-8.5-9.9-14.5-13.1c-6-3.2-12.8-5.4-20.5-6.6
			C1551.9,542.7,1543.9,542.1,1535.7,542.1z"/>
		<path class="st0" d="M1750,723.3c-14.2,0-26.2-1.9-36.2-5.8c-10-3.9-18-9.2-24.2-16.1c-6.2-6.8-10.6-14.8-13.4-23.9
			s-4.2-19-4.2-29.5V527.4h20.9v118.2c0,10.5,1.4,19.6,4.2,27.3c2.8,7.7,6.6,14,11.5,19s10.9,8.7,17.9,11.1c7,2.4,14.8,3.6,23.4,3.6
			c8.6,0,16.4-1.2,23.4-3.6c7-2.4,12.9-6.1,17.9-11.1s8.8-11.3,11.5-19c2.8-7.7,4.2-16.7,4.2-27.3V527.4h20.9v120.7
			c0,10.5-1.4,20.3-4.2,29.5s-7.2,17.1-13.4,23.9c-6.2,6.8-14.2,12.2-24.2,16.1C1776.3,721.4,1764.2,723.3,1750,723.3z"/>
		<path class="st0" d="M1885.5,527.4h20.9v191.8h-20.9V527.4z"/>
		<path class="st0" d="M2100.5,527.4v16.3h-68.4v175.5h-20.9V543.7h-68.4v-16.3H2100.5z"/>
		<path class="st0" d="M2136.8,527.4h20.9v191.8h-20.9V527.4z"/>
		<path class="st0" d="M2361.6,719.2c-4-6.4-8.9-14-14.9-22.7c-6-8.7-12.6-18-19.9-27.8c-7.3-9.8-14.9-19.9-22.9-30.4
			c-7.9-10.5-15.9-20.6-23.7-30.5c-7.9-9.9-15.6-19.1-23.1-27.8s-14.2-16.1-20.1-22.4v161.5h-20.6V527.4h16.6
			c10.5,10.5,21.7,22.6,33.7,36.4c12,13.8,23.7,27.8,35.2,42.1c11.5,14.3,22.2,28.3,32.2,41.9c10,13.6,18.1,25.5,24.5,35.7V527.4
			h20.6v191.8H2361.6z"/>
		<path class="st0" d="M2570.7,628.4h20.9v85.5c-3.9,1.5-11.5,3.4-22.9,5.7s-25.4,3.5-42,3.5c-14,0-26.9-2.2-38.8-6.6
			c-11.9-4.4-22.2-10.8-30.9-19.2c-8.7-8.4-15.6-18.8-20.5-31.3s-7.4-26.7-7.4-42.8c0-16.1,2.7-30.3,8-42.8
			c5.3-12.5,12.6-22.9,21.7-31.3c9.1-8.4,19.8-14.8,31.9-19.2c12.1-4.4,25-6.6,38.8-6.6c15.8,0,28.8,1.5,39.1,4.6
			c10.3,3,17.8,6,22.5,8.7l-7.1,16.1c-5.7-3.7-13.5-6.7-23.4-9c-9.9-2.3-20.5-3.5-32-3.5c-10.7,0-20.7,1.8-30.2,5.3
			c-9.4,3.5-17.7,8.8-24.6,15.8c-7,7-12.5,15.7-16.5,26c-4,10.3-6,22.3-6,36c0,12.7,1.6,24.2,4.9,34.5c3.3,10.2,8.3,19,14.9,26.3
			c6.7,7.3,14.9,12.9,24.8,16.7c9.9,3.9,21.2,5.8,34.2,5.8c10.5,0,19.2-0.5,26.3-1.5c7.1-1,11.9-2,14.3-2.9V628.4z"/>
	</g>
	<g>
		<path class="st0" d="M264.2,737.4c6.1-20.1,11.5-40.5,18-60.5c51-156.3,137.8-290.2,254.2-405.5c17.7-17.5,35.6-34.8,53.4-52.2
			c0.9-0.9,1.5-1.9,2.4-3c-8-2.5-12.9-2.2-21.9,1.1c-51.9,18.8-101.8,41.9-150.2,68.6C288.9,358.3,176.7,452.8,87.6,573.8
			c-2.4,3.3-4.5,6.8-6.5,10.3c40,72.1,103.5,129.3,180.2,161.4C262.4,742.8,263.4,740.2,264.2,737.4z"/>
		<path class="st0" d="M43.9,415c62.5-50.1,128.5-95.1,198.1-134.8c111.4-63.6,229.2-112.1,352.4-147.7c13.4-3.9,26.5-8.6,39.8-12.9
			c-1-1.3-1.8-2.5-2.7-3.7C568.7,66.5,489.6,37,403.5,37C200,37,35,202,35,405.5c0,4.8,0.1,9.6,0.3,14.3
			C38.3,418.5,41.4,417,43.9,415z"/>
		<path class="st0" d="M712.7,205c-3.5,2.7-6.9,5.1-9.6,8.1c-16.6,19-32.7,38.4-49.4,57.2c-29.7,33.3-57.7,67.9-82.4,105.1
			c-73.7,111.2-115.9,234.2-135.6,365.4c-1.6,10.7-3,21.4-4.4,32.1C621.8,758.8,772,599.7,772,405.5
			C772,331.5,750.2,262.7,712.7,205z"/>
	</g>
</g>
</svg>
