<?xml version="1.0" encoding="utf-8"?>
<!-- Generator: Adobe Illustrator 21.0.2, SVG Export Plug-In . SVG Version: 6.00 Build 0)  -->
<svg version="1.1" id="Layer_1" xmlns="http://www.w3.org/2000/svg" xmlns:xlink="http://www.w3.org/1999/xlink" x="0px" y="0px"
	 viewBox="0 0 1174 178" style="enable-background:new 0 0 1174 178;" xml:space="preserve">
<style type="text/css">
	.st0{fill:#FFFFFF;}
</style>
<g>
	<path class="st0" d="M102.1,135.5c0,23-14,32.7-40.9,32.7H8.5v-6.7l10.4-6.9c0-45.1,0-89.9,0-135l-8.7-6V7.2H61
		c21.4,0,36.3,5.8,36.3,29.4v23.2c0,9-4.6,17.7-12.9,21.2c10.6,4.1,17.7,12.4,17.7,27.4C102.1,108.4,102.1,135.5,102.1,135.5z
		 M60.7,154.4c12.2,0,17.5-6.9,17.5-18.9v-27.1c0-13.3-5.3-19.8-19.5-19.8H42c0,17.9,0,39.1,0,57c0,4.1-0.9,6.2-4.8,7.6v1.2
		L60.7,154.4L60.7,154.4z M73.3,59.9V36.6c0-8.7-4.8-16.1-14.3-16.1H42c0,20,0,36.6,0,56.6c6.4,0,10.6,0,17,0
		C69.2,77.1,73.3,70.5,73.3,59.9z"/>
	<path class="st0" d="M155.2,155.6l8.5,6.4v6.2c-11.7,0-27.4,0-39.3,0V162l8.7-6.4c0-40.3,0-80.3,0-120.5l-7.4-5.8v-6.2h36.8v6.2
		l-7.4,5.8v120.5H155.2z"/>
	<path class="st0" d="M273.2,131.6c0,23.5-16.3,38.6-41.9,38.6c-25.5,0-41.9-15.4-41.9-38.6c0-24.1,0-48.1,0-72.2
		c0-23.2,16.3-38.6,41.9-38.6c25.5,0,41.9,15.2,41.9,38.6V131.6z M212,131.6c0,15.9,6,24.1,19.3,24.1s19.5-11,19.5-24.1
		c0-24.1,0-48.1,0-72.2c0-13.3-6.2-24.1-19.5-24.1s-19.3,8-19.3,24.1V131.6z"/>
	<path class="st0" d="M437.4,73.2c0,28.7-20.5,36.3-45.8,36.3h-14.3c0,14.7,0,30.4,0,45.1l10.1,6.9v6.7c-13.1,0-30.4,0-43.7,0v-6.7
		l10.4-6.9c0-44.6,0-90.4,0-135l-8.7-6V7h46.7c24.8,0,45.3,9.4,45.3,37.5V73.2z M377.4,21.2c0,25.1,0,50.1,0,75h14.7
		c15.4,0,21.4-8.3,21.4-23V44.5c0-14.7-5.5-23.2-21.2-23.2L377.4,21.2L377.4,21.2z"/>
	<path class="st0" d="M468.2,129.3l-6.7,28.3l7.6,3.9v6.7h-29v-6.7l7.4-4.1c10.1-42.5,21.6-92.7,32.2-135H502l33.1,134.3l7.4,4.8
		v6.7H505v-5.5l7.1-4.8l-6.7-28.5L468.2,129.3L468.2,129.3z M486.6,48.8c-4.4,17.9-10.4,44.2-15.6,68.1h31.5l-15.6-68.1
		C486.9,48.8,486.6,48.8,486.6,48.8z"/>
	<path class="st0" d="M604.4,122.7c-4.1-10.8-6.9-13.8-18.9-13.8c0,12.7,0,33.6,0,46.7l8.7,6.4v6.2c-12.2,0-27.6,0-39.6,0V162
		l8.7-6.4c0-40,0-80.7,0-120.5l-7.4-5.8v-6.2H598c22.3,0,40.9,8.3,40.9,33.8c0,6,0,12.6,0,18.9c0,17.7-9.9,27.6-23,30.4
		c6.2,3.4,8.7,7.4,11,13.6c3.2,9,6.4,17.7,9.7,26.7c2.1,5.5,5.5,13.1,12,12v8.5c-4.4,2.1-10.8,2.8-15.4,2.8
		c-13.3,0.2-14.7-9.2-18.9-20.2L604.4,122.7z M585.3,36.4c0,22.3,0,37.5,0,59.8h12.6c13.6,0,18.6-7.6,18.6-20.5c0-6.2,0-12.9,0-18.9
		c0-12.9-4.4-20.5-18.4-20.5h-12.8V36.4z"/>
	<path class="st0" d="M714.8,36.6c0,39.3,0,78.4,0,117.5l8.5,6.7v7.4c-12,0-28.1,0-40,0v-7.4l8.7-6.7c0-39.1,0-78.2,0-117.5h-14.7
		l-6.9,23.2H660l0.7-36.8c28.5,0,56.8,0,85.1,0l0.9,36.8h-10.3L729,36.6H714.8z"/>
	<path class="st0" d="M788.6,155.8l8.5,5.8v6.7h-32.4v-6.7l8.3-5.8V35l-7.4-5.8V23h26.9c6.7,0.2,9.4,1.8,11.5,9l19.8,64l8.5,39.3
		h0.5c0-10.3-0.7-23.2-0.7-33.1V35.5l-7.6-5.8V23h30.4v6.7l-7.6,5.8v132.7h-18.6c-5.3,0-8-3-9.2-7.4L786.8,46.3
		c-0.2,0-0.5,0.2-0.7,0.2l2.5,19.5V155.8z"/>
	<path class="st0" d="M876,168.2V162l9-6.4V34.3l-7.6-5.8V23h74.1v32.4h-10.8l-6-19.5h-27.1v53.6h18.9l5.8-11.3h6.4v35h-6.4
		l-5.8-10.6h-18.9v44.8c0,3.5-0.9,5.3-4.6,6.4v1.1h34.3l7.4-19.3h9.7V168H876V168.2z"/>
	<path class="st0" d="M1024.8,122.7c-4.1-10.8-6.9-13.8-18.9-13.8c0,12.7,0,33.6,0,46.7l8.7,6.4v6.2c-12.2,0-27.6,0-39.6,0V162
		l8.7-6.4c0-40,0-80.7,0-120.5l-7.4-5.8v-6.2h42.1c22.3,0,40.9,8.3,40.9,33.8c0,6,0,12.6,0,18.9c0,17.7-9.9,27.6-23,30.4
		c6.2,3.4,8.7,7.4,11,13.6c3.2,9,6.4,17.7,9.7,26.7c2.1,5.5,5.5,13.1,12,12v8.5c-4.4,2.1-10.8,2.8-15.4,2.8
		c-13.3,0.2-14.7-9.2-18.9-20.2L1024.8,122.7z M1005.7,36.4c0,22.3,0,37.5,0,59.8h12.7c13.6,0,18.6-7.6,18.6-20.5
		c0-6.2,0-12.9,0-18.9c0-12.9-4.4-20.5-18.4-20.5h-12.9V36.4z"/>
	<path class="st0" d="M1125.3,155.8c10.6,0,14.9-7.1,14.9-17v-17.5c0-26.7-52-16.3-52-52.4V51.1c0-21.8,16.3-29.7,33.1-29.7
		c7.8,0,16.3,1.4,23.2,8.7h0.9l1.6-7.4h14.7c0,12.9,0,26,0,39.1h-22.3V51.1c0-9.9-5.3-15.2-14.7-15.2c-9.2,0-13.8,5.8-13.8,15.2
		v17.7c0,24.6,52.4,13.8,52.4,52.2v17.7c0,23.2-19.5,31.7-39.1,31.7c-20,0-37.5-9.7-37.5-32v-11.3h24.6v11.5
		C1111.5,151,1116.6,155.8,1125.3,155.8z"/>
</g>
</svg>
