<?xml version="1.0" encoding="utf-8"?>
<!-- Generator: Adobe Illustrator 21.0.2, SVG Export Plug-In . SVG Version: 6.00 Build 0)  -->
<svg version="1.1" id="Layer_1" xmlns="http://www.w3.org/2000/svg" xmlns:xlink="http://www.w3.org/1999/xlink" x="0px" y="0px"
	 viewBox="0 0 813 178" enable-background="new 0 0 813 178" xml:space="preserve">
<g>
	<path fill="#FFFFFF" d="M777.4,101.2c0-11.5-5.3-23.3-23.3-23.3c-15.5,0-22.8,11.5-24.1,23.3H777.4z M804.8,143.5
		C794.9,161,779.6,172,755,172c-36.3,0-55.1-23-55.1-59.3c0-36.1,21.3-58,53.6-58c31,0,52.5,16.6,52.5,52.7v13.3h-76.4
		c0.7,18.4,11.3,27.7,24.8,27.7c12.4,0,21.9-6.2,27-16.8L804.8,143.5z M632.6,54.7c27,0,41.9,11.5,49.2,35l-27,6.6
		c-3.8-11.3-10.6-17.1-21.3-17.1c-16.6,0-25,11.3-25,34.1c0,22.8,8.2,34.1,25,34.1c10.6,0,17.5-5.8,21.3-17.1l27,6.6
		c-7.3,23.5-22.1,35-49.2,35c-34.1,0-54.7-22.1-54.7-58.7C577.9,76.8,598.5,54.7,632.6,54.7 M550.4,169.8h-29.2V56.9h29.2V169.8z
		 M536,8.2c10,0,17.9,8,17.9,17.9c0,10-8,17.9-17.9,17.9c-10,0-17.9-8-17.9-17.9C518.1,16.1,526.1,8.2,536,8.2 M500.8,81.5h-39.2
		v88.4h-29.2V56.9h68.4V81.5z M372.2,123.5V56.9h29.2v66.4c0,32.8-16.6,48.7-49.2,48.7c-32.6,0-49.4-15.9-49.4-48.7V56.9h29.2v66.7
		c0,17.3,7.1,23.9,20.2,23.9S372.2,140.8,372.2,123.5 M214.5,14.8h29.2v42.1h36.1v24.6h-36.1v50c0,12.2,6.4,15.9,14.8,15.9
		c6.6,0,10.4-2.4,15.1-6.6l11.3,20.8c-7.5,5.8-17.9,10.4-31.4,10.4c-25.2,0-39-14.8-39-37V14.8z M156.5,123.5V56.9h29.2v66.4
		c0,32.8-16.6,48.7-49.2,48.7c-32.6,0-49.4-15.9-49.4-48.7V56.9h29.2v66.7c0,17.3,7.1,23.9,20.2,23.9
		C149.6,147.5,156.5,140.8,156.5,123.5 M5.9,43.2C5.9,21,19.7,6,44.9,6C56.2,6,66.4,9.3,74.6,15L63.1,35.4
		c-3.8-3.1-7.7-4.9-13.7-4.9c-9.5,0-14.2,6-14.2,15.9v10.4H69v24.6H35.2v88.4H5.9V43.2z"/>
</g>
</svg>
