<?xml version="1.0" encoding="utf-8"?>
<!-- Generator: Adobe Illustrator 21.0.2, SVG Export Plug-In . SVG Version: 6.00 Build 0)  -->
<svg version="1.1" id="Layer_1" xmlns="http://www.w3.org/2000/svg" xmlns:xlink="http://www.w3.org/1999/xlink" x="0px" y="0px"
	 viewBox="0 0 1049.8 448" style="enable-background:new 0 0 1049.8 448;" xml:space="preserve">
<style type="text/css">
	.st0{fill:#FFFFFF;}
</style>
<g>
	<path class="st0" d="M573.4,168.8c0-24.5,16.6-48.4,25.7-43.9C609.4,130.1,591.3,153.2,573.4,168.8 M460.3,177.7
		c0-19.7,19.5-57.3,31.4-53.3C505.7,129.1,480,167,460.3,177.7z M440.5,318.9c-9,0.4-14.9-5.3-14.9-14.9c0-25.7,35.7-50.3,62.6-63.5
		C483.4,276.5,471.3,317.5,440.5,318.9z M605.1,235.2c-20.3,0-35.9,15-35.9,32.9c0,15,9,26.9,20.9,26.9c4.2,0,8.4-2.4,8.4-7.8
		c0-7.8-10.3-9.7-9.5-21.3c0.5-7.7,7.7-12.8,14.9-12.8c14.4,0,21.1,13.9,21.1,28.3c-0.6,22.1-16.9,37.6-36,37.6
		c-25.1,0-41.3-23.9-41.3-49.7c0-38.3,25.1-53.3,38.3-56.8c0.1,0,34.4,6.1,33.3-9c-0.5-6.6-10.4-9.2-17.5-9.5
		c-8-0.3-15.9,2.5-15.9,2.5c-4.2-2.1-7.1-6.2-8.9-11c24.5-18.6,41.9-36.5,41.9-56.8c0-10.8-7.2-20.3-20.9-20.3
		c-24.5,0-43.1,31.1-43.1,59.2c0,4.8,0,9.6,1.2,13.8c-15.6,11.4-27.1,18.4-48.1,31c0-2.6,0.5-9.4,2.3-18.1c7.2-7.8,17-19.4,17-28.4
		c0-4.2-2.4-7.8-7.2-7.8c-12,0-20.9,17.9-23.3,30.5c-5.4,6.6-16.2,15-25.1,15c-7.2,0-9.6-6.6-10.2-9c22.7-7.8,50.9-38.9,50.9-67
		c0-6-2.4-19.2-20.3-19.2c-26.9,0-49.7,40.1-49.7,71.2c-9.6,0-13.2-10.2-13.2-17.9c0-7.8,3-15.6,3-18s-1.2-5.4-4.8-5.4
		c-9,0-14.4,12-14.4,25.7c0.6,19.1,13.2,31.1,29.9,32.3c2.4,11.4,12.6,22.1,25.1,22.1c7.8,0,17.4-2.4,23.9-8.4
		c-0.6,4.2-1.2,7.8-1.8,11.4c-26.3,13.8-45.5,23.3-62.8,38.9c-13.8,12.6-21.5,29.3-21.5,42.5c0,18,11.4,34.7,34.7,34.7
		c27.5,0,48.5-22.1,58.6-52.7c4.8-14.4,6.7-35.3,7.9-54.4c27.5-15.5,40.6-24.6,54.9-34.7c1.8,3,3.6,5.4,6,7.2
		c-12.6,6.6-42.5,25.1-42.5,68.8c0,31.1,20.9,65.8,62.2,65.8c34.1,0,57.5-28.1,57.5-55C645.2,257.9,631.4,235.2,605.1,235.2z
		 M707.9,286.6c-0.1,0.2-0.4,0.5-1.1,0.2c-0.5-0.2-0.7-0.5-0.7-0.8c0-0.4,7.2-21.6,7.2-46.1c-0.1-26.3-10.8-42.5-24.5-42.5
		c-8.4,0-14.4,6-14.4,15c0,16.2,19.7,17.4,19.7,52.7c0,14.4-3,28.1-7.8,43.1c-22,74.8-92.6,109.5-161.4,109.5
		c-31.7,0-54.3-6.5-61-9.5c-0.3-0.1-0.5-0.7-0.3-1.2c0.2-0.4,0.6-0.7,0.9-0.6c2.7,1.1,22.1,7.1,46,7.1c26.3,0,41.9-10.8,41.9-23.9
		c0-8.4-6.6-14.9-15-14.9c-16.2,0-17.4,20.3-52.1,20.3c-15,0-28.1-3-43.7-7.8c-74.1-22.8-109.4-92.8-109.4-162.2
		c0-33.8,9.5-60.7,9.7-61c0.1-0.2,0.5-0.4,1.1-0.2c0.5,0.2,0.7,0.6,0.6,0.8c-0.9,2.8-7.2,22.1-7.2,46c0,26.3,10.8,41.9,24.5,41.9
		c7.8,0,14.4-6,14.4-14.4c0-16.2-19.7-18-19.7-52.7c0-15,3-28.1,7.8-43.7c22.7-74.1,92.7-108.8,161.5-109.4c32-0.2,60,9.3,61,10.2
		c0.2,0.2,0.4,0.6,0.2,1.1c-0.2,0.6-0.6,0.6-0.8,0.6c-0.3,0-18.5-7.6-46.1-7.6c-25.7,0-41.9,10.8-41.9,24.5c0,7.8,6,14.4,14.9,14.4
		c16.2,0,17.4-19.7,52.1-19.7c15,0,28.1,3,43.7,7.8c74.9,22.6,108.9,93.2,109.6,161.4C717.9,259.9,708,286.4,707.9,286.6z
		 M524.9,19.2c-113.7,0-205.8,92.1-205.8,205.8s92.2,205.8,205.8,205.8c113.7,0,205.8-92.1,205.8-205.8
		C730.7,111.9,638.6,19.2,524.9,19.2z M524.9,441c-119.1,0-216-96.3-216-216c0-119.1,96.9-216,216-216c119,0,216,96.9,216,216
		C740.9,344.7,643.9,441,524.9,441z"/>
</g>
</svg>
