<?xml version="1.0" encoding="utf-8"?>
<!-- Generator: Adobe Illustrator 21.0.2, SVG Export Plug-In . SVG Version: 6.00 Build 0)  -->
<svg version="1.1" id="Layer_1" xmlns="http://www.w3.org/2000/svg" xmlns:xlink="http://www.w3.org/1999/xlink" x="0px" y="0px"
	 viewBox="0 0 291 46.7" enable-background="new 0 0 291 46.7" xml:space="preserve">
<path fill="#FFFFFF" d="M211.4,43.2h14.4v-2.3c-2.4-0.1-3.3-0.6-3.3-2V22.5c1.6-1,3.4-1.9,5.7-1.9c3,0,4.4,1.5,4.4,5.5v12.8
	c0,1.4-0.8,2-3.3,2v2.3h14.4v-2.3c-3.4-0.1-4.1-0.6-4.1-2V24.4c0-5.4-2.3-8.4-6.9-8.4c-3.8,0-7.3,2.2-10.3,4.5v-4.3l-11,0.5v2.3
	c3.3,0.1,4.1,1.1,4.1,2.9v17.1c0,1.4-0.8,2-4.1,2V43.2 M196,18.1c3.7,0,5.2,4,4.8,9l-10.3,0.2C190.9,21.1,192.9,18.1,196,18.1
	 M196.4,43.8c5.8,0,9.3-3,11.7-6.9l-1.6-1.3c-2.2,3-4.8,4.8-7.9,4.8c-5.5,0-8.2-4.3-8.2-10.5v-0.2H208c0.5-7.4-3.3-13.8-11.5-13.8
	c-8,0-13.5,5.7-13.5,14.3C183,38.4,187.8,43.8,196.4,43.8 M165.2,43.2h15.1v-2.3c-3.4-0.1-4.1-0.6-4.1-2V2.6L165,3.1v2.3
	c3.4,0.1,4.3,1.1,4.3,2.9v30.7c0,1.4-0.8,2-4.1,2V43.2z M147.4,39.8c-2.6,0-4-1.7-4-4.3c0-3.5,2-4.7,8.7-5.9V37
	C151,38.5,149.3,39.8,147.4,39.8 M143.5,43.7c3.4,0,6.3-1.8,8.7-4.3h0.3c0.6,2.9,1.5,4.1,5.1,4.1c2.1,0,3.9-0.6,6.1-1.8l-0.5-1.7
	c-3.6,0.6-4.1,0-4.1-2.9V25.4c0-6.2-3.3-9.4-10.1-9.4c-7.2,0-11.8,2.6-11.8,6.2c0,2.2,1.3,3.7,3.8,3.7c2.5,0,4-1.6,4-3.8
	c0-1-0.3-2-0.8-2.9c0.8-0.6,1.7-0.9,3.1-0.9c3.3,0,4.8,1.5,4.8,6.4v2.6c-1.6,0.7-8.3,1-12.6,3.4c-2.4,1.3-3.7,3.9-3.7,6.2
	C135.8,40.3,138.2,43.7,143.5,43.7 M124.4,43.7c4.3,0,6.9-2,9-6.1l-1.7-1.2c-1.3,2.2-2.7,3.4-4.4,3.4c-2.2,0-3.3-1.5-3.3-4.4V19.5
	h7.7v-3.1h-7.7V7.6L117,9.8v6.4l-5.1,1v2.3h5v16.1C116.8,41.3,119.9,43.7,124.4,43.7 M98.4,43.8c5.5,0,8.9-2.6,11.5-6.5l-1.5-1.3
	c-2,2.4-4.5,4.1-7.5,4.1c-5.6,0-8.4-4.4-8.4-10.9c0-7.6,2.7-11,6.7-11c1.9,0,3.4,0.9,4,1.9c-0.8,0.5-1.7,1.8-1.7,3.3
	c0,2,1.4,3.6,4,3.6c2.4,0,3.8-1.8,3.8-4.3c0-3.1-2.9-6.8-10.3-6.8C91,15.8,85,21.4,85,30.1C85,38.3,90.2,43.8,98.4,43.8 M68.9,18.1
	c3.7,0,5.2,4,4.8,9l-10.3,0.2C63.8,21.1,65.8,18.1,68.9,18.1 M69.4,43.8c5.8,0,9.3-3,11.7-6.9l-1.6-1.3c-2.2,3-4.8,4.8-7.9,4.8
	c-5.5,0-8.2-4.3-8.2-10.5v-0.2h17.5c0.5-7.4-3.3-13.8-11.5-13.8c-8,0-13.5,5.7-13.5,14.3C55.9,38.4,60.7,43.8,69.4,43.8 M22.6,43.2
	h13.2v-2.3c-2.7-0.1-3.2-0.6-3.2-2V24.6c0-0.4,0-0.8-0.1-1.5c1.9-1.4,3.8-2.4,5.5-2.4c3.1,0,4.3,1.6,4.3,5.5v12.8c0,1.4-0.5,2-3,2
	v2.3h14.1v-2.3c-3.3-0.1-4.1-0.6-4.1-2V24.4c0-5.4-2.3-8.4-6.9-8.4c-3.7,0-7.2,2.3-10.2,5.2c-0.9-3.3-3.1-5.2-6.6-5.2
	c-3.8,0-6.9,2.2-9.8,4.5v-4.3l-11,0.5v2.3C8.2,19,8.9,20,8.9,21.8v17.1c0,1.4-0.8,2-4.1,2v2.3h14v-2.3c-2.4-0.1-2.9-0.6-2.9-2V22.5
	c1.6-1,2.9-1.9,5.1-1.9c3,0,4.5,1.6,4.5,5.5v12.8c0,1.4-0.5,2-3,2V43.2z"/>
<path fill="#FFFFFF" d="M257.2,43.7c4.3,0,6.9-2,9-6.1l-1.7-1.2c-1.3,2.2-2.7,3.4-4.4,3.4c-2.2,0-3.3-1.5-3.3-4.4V19.5h7.7v-3.1
	h-7.7V7.6l-6.9,2.3v6.4l-5.1,1.1v2.3h5v16.1C249.6,41.3,252.7,43.7,257.2,43.7"/>
<path fill="#FFFFFF" d="M282.1,14.3c-0.7,1.1-0.6,1-1.6,1.1l-3.1,0l-2.4,4.2h8.1c0.6,0,0.9-0.3,1.1-0.6l4.1-7.1h-4.8L282.1,14.3"/>
<path fill="#FFFFFF" d="M274.6,12c-0.5-0.9-0.5-0.8,0.1-1.9l1.4-2.5l-2.4-4.2l-4.1,7.1c-0.1,0.3-0.2,0.7,0,1.2l4.1,7l2.4-4.2
	L274.6,12"/>
<path fill="#FFFFFF" d="M280.3,6.8c1.3,0.1,1.2,0,1.7,0.9l1.5,2.7h4.8l-4.1-7c-0.3-0.5-0.7-0.6-1-0.7l-8.2,0l2.4,4.2L280.3,6.8"/>
</svg>
