<?xml version="1.0" encoding="utf-8"?>
<!-- Generator: Adobe Illustrator 15.1.0, SVG Export Plug-In . SVG Version: 6.00 Build 0)  -->
<svg version="1.2" baseProfile="tiny" id="Layer_1" xmlns="http://www.w3.org/2000/svg" xmlns:xlink="http://www.w3.org/1999/xlink"
	 x="0px" y="0px" width="171.994px" height="90.337px" viewBox="0 0 171.994 90.337" xml:space="preserve">
<g>
	<path fill="none" d="M145.355,41.615c-1.022,0-1.791,0.395-2.308,1.185c-0.518,0.789-0.776,2.36-0.776,4.711
		c0,2.158,0.246,3.708,0.74,4.647c0.491,0.941,1.262,1.411,2.308,1.411c0.913,0,1.653-0.4,2.218-1.203
		c0.565-0.802,0.848-2.33,0.848-4.585c0-2.398-0.249-4.027-0.748-4.883S146.377,41.615,145.355,41.615z"/>
	<path fill="none" d="M83.623,51.399c0,0.64,0.198,1.191,0.595,1.655s0.962,0.696,1.694,0.696c0.95,0,1.747-0.395,2.39-1.186
		c0.644-0.788,0.964-1.763,0.964-2.92v-1.664C85.504,48.355,83.623,49.495,83.623,51.399z"/>
	<path fill="#FFFFFF" d="M26.164,90.242l43.98-8.101c6.884-1.268,6.854-8.268,6.854-8.268l-0.29-68.51
		c-0.03-7-6.778-5.14-6.778-5.14L5.045,18.115c-6.748,1.861-4.777,8.577-4.777,8.577L17.31,84.793
		C19.28,91.51,26.164,90.242,26.164,90.242z M59.234,40.666c1.165-1.718,2.853-2.577,5.063-2.577c1.945,0,3.442,0.765,4.493,2.297
		v-8.338h5.226v24.688h-4.973v-2.857c-1.232,2.159-2.911,3.237-5.036,3.237c-2.017,0-3.608-0.823-4.773-2.468
		C58.068,53,57.486,50.718,57.486,47.8C57.486,44.762,58.069,42.383,59.234,40.666z M41.314,40.766
		c1.658-1.785,3.789-2.677,6.394-2.677c2.35,0,4.368,0.829,6.049,2.486c1.682,1.659,2.524,4.302,2.524,7.931H44.524
		c-0.011,0.326-0.017,0.609-0.017,0.851c0,1.303,0.346,2.285,1.039,2.947c0.694,0.664,1.522,0.995,2.487,0.995
		c1.796,0,2.876-0.958,3.238-2.875l4.883,0.361c-1.363,4.22-4.13,6.33-8.302,6.33c-1.82,0-3.367-0.365-4.639-1.095
		s-2.321-1.793-3.147-3.191c-0.825-1.399-1.239-3.075-1.239-5.028C38.828,44.895,39.656,42.549,41.314,40.766z M16.726,56.735H11.5
		V38.467h5.064v2.786c0.857-2.11,2.572-3.165,5.145-3.165c2.331,0,4.015,1.055,5.054,3.165c1.013-2.11,2.78-3.165,5.3-3.165
		c1.206,0,2.243,0.247,3.111,0.741c0.868,0.495,1.489,1.14,1.863,1.936c0.374,0.795,0.561,2.164,0.561,4.105v11.864h-5.39v-10.11
		c0-1.422-0.042-2.348-0.126-2.776c-0.085-0.428-0.305-0.784-0.66-1.067c-0.356-0.283-0.847-0.425-1.474-0.425
		c-0.591,0-1.194,0.211-1.809,0.633c-0.615,0.422-0.922,1.634-0.922,3.635v10.11h-5.39v-10.11c0-1.458-0.066-2.402-0.199-2.83
		c-0.133-0.428-0.383-0.775-0.75-1.04c-0.368-0.265-0.836-0.398-1.402-0.398c-0.929,0-1.619,0.292-2.071,0.877
		c-0.452,0.585-0.679,1.716-0.679,3.391V56.735z"/>
	<path fill="#FFFFFF" d="M47.907,41.615c-2.026,0-3.16,1.255-3.4,3.762H51C50.831,42.87,49.799,41.615,47.907,41.615z"/>
	<path fill="#FFFFFF" d="M65.979,53.298c0.749,0,1.406-0.325,1.968-0.976c0.562-0.651,0.844-1.58,0.844-2.786v-3.418
		c0-2.87-0.871-4.305-2.613-4.305c-2.08,0-3.121,2.026-3.121,6.078C63.057,51.496,64.03,53.298,65.979,53.298z"/>
	<path fill="none" d="M19.476,42.356c0.566,0,1.034,0.133,1.402,0.398c0.367,0.265,0.617,0.612,0.75,1.04
		c0.133,0.428,0.199,1.372,0.199,2.83v10.11h5.39v-10.11c0-2.001,0.307-3.213,0.922-3.635c0.615-0.422,1.218-0.633,1.809-0.633
		c0.627,0,1.118,0.142,1.474,0.425c0.355,0.283,0.575,0.639,0.66,1.067c0.084,0.428,0.126,1.354,0.126,2.776v10.11h5.39V44.871
		c0-1.941-0.187-3.31-0.561-4.105c-0.374-0.796-0.995-1.441-1.863-1.936c-0.868-0.494-1.905-0.741-3.111-0.741
		c-2.52,0-4.287,1.055-5.3,3.165c-1.039-2.11-2.723-3.165-5.054-3.165c-2.573,0-4.288,1.055-5.145,3.165v-2.786H11.5v18.268h5.226
		v-10.11c0-1.675,0.227-2.806,0.679-3.391C17.856,42.648,18.546,42.356,19.476,42.356z"/>
	<path fill="none" d="M64.007,57.115c2.125,0,3.804-1.078,5.036-3.237v2.857h4.973V32.047h-5.226v8.338
		c-1.051-1.532-2.548-2.297-4.493-2.297c-2.21,0-3.898,0.859-5.063,2.577c-1.165,1.718-1.748,4.096-1.748,7.135
		c0,2.918,0.582,5.199,1.748,6.847C60.399,56.292,61.99,57.115,64.007,57.115z M66.177,41.813c1.742,0,2.613,1.435,2.613,4.305
		v3.418c0,1.206-0.282,2.135-0.844,2.786c-0.562,0.65-1.219,0.976-1.968,0.976c-1.948,0-2.922-1.803-2.922-5.407
		C63.057,43.839,64.097,41.813,66.177,41.813z"/>
	<path fill="none" d="M43.213,56.02c1.272,0.729,2.819,1.095,4.639,1.095c4.172,0,6.939-2.11,8.302-6.33l-4.883-0.361
		c-0.362,1.917-1.442,2.875-3.238,2.875c-0.965,0-1.793-0.331-2.487-0.995c-0.693-0.662-1.039-1.645-1.039-2.947
		c0-0.241,0.006-0.524,0.017-0.851h11.757c0-3.629-0.842-6.272-2.524-7.931c-1.681-1.657-3.699-2.486-6.049-2.486
		c-2.605,0-4.736,0.892-6.394,2.677c-1.658,1.784-2.487,4.129-2.487,7.035c0,1.953,0.414,3.629,1.239,5.028
		C40.893,54.227,41.941,55.291,43.213,56.02z M47.907,41.615c1.892,0,2.923,1.255,3.092,3.762h-6.492
		C44.748,42.87,45.881,41.615,47.907,41.615z"/>
	<path fill="#FFFFFF" d="M81.827,46.543c-1.361,0.549-2.348,1.305-2.962,2.269c-0.614,0.967-0.921,2.021-0.921,3.166
		c0,1.567,0.527,2.815,1.58,3.744c1.054,0.929,2.435,1.393,4.144,1.393c1.156,0,2.188-0.214,3.097-0.643
		c0.909-0.428,1.821-1.293,2.736-2.595c0,1.182,0.085,2.134,0.254,2.857h5.226c-0.216-0.688-0.324-1.826-0.324-3.419v-8.283
		c0-1.604-0.109-2.728-0.326-3.373c-0.217-0.645-0.633-1.257-1.248-1.836c-0.615-0.579-1.471-1.013-2.568-1.302
		c-1.097-0.29-2.267-0.435-3.509-0.435c-2.073,0-3.93,0.435-5.57,1.303c-1.64,0.868-2.623,2.339-2.948,4.413l4.974,0.47
		c0.216-1.772,1.267-2.659,3.155-2.659c1.767,0,2.649,0.887,2.649,2.659v1.049C85.667,45.587,83.187,45.996,81.827,46.543z
		 M89.266,49.645c0,1.157-0.32,2.132-0.964,2.92c-0.643,0.791-1.439,1.186-2.39,1.186c-0.732,0-1.297-0.232-1.694-0.696
		s-0.595-1.016-0.595-1.655c0-1.904,1.881-3.044,5.643-3.418V49.645z"/>
	<path fill="#FFFFFF" d="M127.967,42.122c1.735,0,2.688,1.097,2.856,3.292l5.029-0.29c-0.157-2.013-0.968-3.689-2.433-5.028
		c-1.465-1.338-3.313-2.008-5.543-2.008c-2.774,0-4.99,0.89-6.647,2.668c-1.658,1.779-2.487,4.096-2.487,6.954
		c0,2.858,0.812,5.14,2.433,6.846c1.622,1.707,3.724,2.56,6.303,2.56c2.376,0,4.315-0.666,5.815-1.998
		c1.502-1.332,2.354-3.078,2.56-5.236l-5.029-0.308c-0.324,2.11-1.319,3.165-2.982,3.165c-0.857,0-1.583-0.313-2.181-0.94
		c-0.597-0.627-0.895-2.104-0.895-4.431C124.766,43.871,125.833,42.122,127.967,42.122z"/>
	<path fill="#FFFFFF" d="M145.21,38.088c-1.879,0-3.433,0.416-4.66,1.248c-1.229,0.832-2.196,1.926-2.9,3.283
		c-0.705,1.356-1.057,3.004-1.057,4.946c0,2.798,0.779,5.089,2.34,6.873c1.56,1.784,3.641,2.677,6.242,2.677
		c2.686,0,4.839-0.9,6.459-2.704c1.619-1.803,2.43-4.054,2.43-6.755c0-2.737-0.779-5.016-2.339-6.837
		C150.163,38.999,147.993,38.088,145.21,38.088z M147.537,52.367c-0.564,0.803-1.305,1.203-2.218,1.203
		c-1.046,0-1.816-0.47-2.308-1.411c-0.494-0.939-0.74-2.489-0.74-4.647c0-2.351,0.259-3.922,0.776-4.711
		c0.517-0.79,1.285-1.185,2.308-1.185c1.021,0,1.782,0.428,2.281,1.284s0.748,2.484,0.748,4.883
		C148.385,50.037,148.103,51.565,147.537,52.367z"/>
	<path fill="#FFFFFF" d="M166.207,38.087c-0.941,0-1.814,0.211-2.622,0.633c-0.808,0.423-1.628,1.369-2.46,2.84v-3.093h-5.01v18.267
		h5.39V46.48c0-2.797,0.946-4.196,2.839-4.196c0.567,0,1.037,0.161,1.411,0.48s0.608,0.708,0.705,1.166
		c0.096,0.459,0.146,1.309,0.146,2.55v10.255h5.389V44.997c0-2.737-0.53-4.572-1.591-5.507
		C169.341,38.555,167.943,38.087,166.207,38.087z"/>
	<path fill="#FFFFFF" d="M104.202,35.899c0.241-0.386,0.73-0.578,1.465-0.578c0.507,0,1.146,0.029,1.917,0.09v-4.16
		c-0.939-0.133-1.771-0.199-2.495-0.199c-1.762,0-3.153,0.334-4.179,1.004c-1.023,0.669-1.661,1.434-1.908,2.297
		c-0.246,0.862-0.383,2.233-0.405,4.114H96.48v4.196h2.116v14.071h5.244V42.664h3.221h0.089h2.703v14.071h5.245V42.664h3.31v-4.196
		h-3.31v-0.687c0-0.869,0.12-1.495,0.361-1.881c0.241-0.386,0.729-0.578,1.466-0.578c0.506,0,1.145,0.029,1.917,0.09v-4.16
		c-0.941-0.133-1.773-0.199-2.496-0.199c-1.761,0-3.153,0.334-4.179,1.004c-1.024,0.669-1.66,1.434-1.907,2.297
		c-0.247,0.862-0.384,2.233-0.407,4.114h-2.703h-0.106h-3.203v-0.687C103.841,36.912,103.961,36.286,104.202,35.899z"/>
</g>
</svg>
