<?xml version="1.0" encoding="utf-8"?>
<!-- Generator: Adobe Illustrator 21.0.2, SVG Export Plug-In . SVG Version: 6.00 Build 0)  -->
<svg version="1.1" id="Layer_1" xmlns="http://www.w3.org/2000/svg" xmlns:xlink="http://www.w3.org/1999/xlink" x="0px" y="0px"
	 viewBox="0 0 81.3 32.5" style="enable-background:new 0 0 81.3 32.5;" xml:space="preserve">
<style type="text/css">
	.st0{fill:#FFFFFF;}
</style>
<g id="Guidelines">
</g>
<g id="Roche_Logo">
	<g>
		<path class="st0" d="M50.2,13c-0.3-0.3-0.9-0.4-1.4-0.4c-0.6,0-1.1,0.2-1.5,0.5V9.5h-1.8v11.7h1.8v-6.1c0-0.4,0.4-0.9,1-0.9
			c0.3,0,0.7,0.1,0.9,0.4c0.2,0.3,0.2,0.8,0.2,1.2v5.4h1.8v-5.4C51.2,14.2,51,13.6,50.2,13z"/>
		<path class="st0" d="M34.6,12.6c-1.6,0-2.7,1-2.8,3c0,0.2,0,0.4,0,1.4c0,0.7,0,1.2,0,1.4c0.1,1.8,1.2,3,2.8,3c1.7,0,2.7-1.2,2.8-3
			c0-0.1,0-0.7,0-1.4c0-0.3,0-1.1-0.1-1.4C37.2,13.2,35.8,12.6,34.6,12.6z M35.7,18.6c-0.1,0.6-0.3,1.3-1.1,1.3
			c-0.7,0-1-0.7-1.1-1.3c0,0,0-0.4,0-1.5s0-1.6,0-1.6c0-0.6,0.3-1.3,1.1-1.3c0.7,0,1.1,0.6,1.1,1.3c0,0,0,0.5,0,1.6
			S35.7,18.5,35.7,18.6z"/>
		<path class="st0" d="M58.1,16.5c0-0.1,0-0.4,0-0.9c-0.1-0.7-0.3-1.6-0.8-2.1c-0.5-0.6-1.2-0.9-2-0.9c-1.6,0-2.6,1-2.8,3
			c0,0.2,0,0.4,0,1.4c0,0.7,0,1.2,0,1.4c0.1,1.8,1.2,3,2.8,3s2.7-1.1,2.8-3.1h-1.7c0,0,0,0.1,0,0.3c0,0.4-0.2,1.3-1.1,1.3
			c-0.7,0-1-0.7-1.1-1.3c0-0.2,0-0.4,0-1.1h3.9C58.1,17.5,58.1,16.9,58.1,16.5z M54.1,16c0-0.4,0-0.5,0-0.6c0-0.7,0.4-1.3,1.1-1.3
			c0.8,0,1,0.8,1.1,1.3c0,0.2,0,0.4,0,0.6H54.1z"/>
		<path class="st0" d="M55.6,2.2H25.5L13.2,16.4l12.2,14.1h30.2l12.2-14.1L55.6,2.2z M54.9,29.2H26.1l-11-12.8l11-12.8h28.8l11,12.9
			L54.9,29.2z"/>
		<path class="st0" d="M30.5,17.6c-0.1-1.3-0.4-2-1.1-2.4c0.5-0.3,1.1-1,1.1-2.5c0-2.3-1.4-3.1-3.1-3.1h-2.7v11.6h1.7v-5.3h1
			c0.6,0,1.2,0.5,1.3,1.9l0.2,2.7c0,0.4,0.1,0.7,0.1,0.7h1.7c0,0-0.1-0.3-0.1-0.7C30.7,20.5,30.5,17.6,30.5,17.6z M28.8,13
			c-0.1,0.5-0.3,1.4-1.3,1.4h-0.9v-3.3h0.8c0.9,0,1.4,0.5,1.4,1.3c0,0.1,0,0.1,0,0.3S28.8,13,28.8,13z"/>
		<path class="st0" d="M41.5,14.1c0.7,0,1.1,0.6,1.1,1.3c0,0,0,0.2,0,0.5h1.8c0-0.1,0-0.2,0-0.3c-0.2-2.4-1.7-3-2.8-3
			c-1.6,0-2.7,1-2.8,3c0,0.2,0,0.4,0,1.4c0,0.7,0,1.2,0,1.4c0.1,1.8,1.2,3,2.8,3c1.7,0,2.7-1,2.8-3c0-0.1,0-0.1,0-0.2h-1.8
			c0,0.1,0,0.2,0,0.3c0,0.6-0.3,1.3-1.1,1.3c-0.7,0-1-0.7-1.1-1.3c0-0.3,0-0.6,0-1.6c0-1.1,0-1.4,0-1.6
			C40.5,14.7,40.8,14.1,41.5,14.1z"/>
	</g>
</g>
</svg>
