<?xml version="1.0" encoding="utf-8"?>
<!-- Generator: Adobe Illustrator 21.0.2, SVG Export Plug-In . SVG Version: 6.00 Build 0)  -->
<svg version="1.1" id="svg2" xmlns:svg="http://www.w3.org/2000/svg"
	 xmlns="http://www.w3.org/2000/svg" xmlns:xlink="http://www.w3.org/1999/xlink" x="0px" y="0px" viewBox="0 0 200 45"
	 enable-background="new 0 0 200 45" xml:space="preserve">
<g id="layer1" transform="translate(-149.46679,-308.88511)">
	<g id="g2416" transform="matrix(1.7576858,0,0,1.7576858,-1372.6412,-893.15041)">
		<path id="path2384" fill="#FFFFFF" d="M877.5,687.2v-2.4h-10.8v2.4h3.7v10.5h3.4v-10.5H877.5z M919.2,697.6
			c-0.1-0.9-0.1-1.5-0.1-2v-4.3c0-1.8-1.3-2.9-3.1-2.9c-1.3,0-2.4,0.6-3,1.6c-0.4-1-1.5-1.5-2.5-1.5c-1.2,0-2.3,0.4-2.9,1.5
			l-0.1-1.3h-3.1v9h3.2v-5.4c0-0.3-0.1-1.8,1.3-1.8c1,0,1.2,0.9,1.2,1.7v5.5h3.2v-5.4c0-0.3-0.1-1.8,1.3-1.8c1,0,1.2,0.9,1.2,1.7
			v5.5H919.2L919.2,697.6z M903.7,691.3v-2.7c-1.4,0-2.4,0.4-2.8,1.8l-0.1-1.7h-3.2c0.1,0.7,0.1,1.7,0.1,2.3v6.7h3.2v-3.9
			c0-1.5,0.4-2.4,2.2-2.4C903.3,691.3,903.5,691.3,903.7,691.3 M924.7,688.4c-2.9,0-4.8,1.6-4.8,4.7c0,3.2,1.9,4.8,4.8,4.8
			s4.8-1.6,4.8-4.8C929.5,690,927.6,688.4,924.7,688.4 M924.7,690.3c1.3,0,1.6,1.4,1.6,2.8c0,1.6-0.3,2.9-1.6,2.9s-1.6-1.3-1.6-2.9
			C923.1,691.6,923.3,690.3,924.7,690.3L924.7,690.3z M887.3,697.6c-0.1-0.9-0.1-1.5-0.1-2v-4.3c0-1.8-1.3-2.9-3.1-2.9
			c-0.5,0-1.1,0.1-1.5,0.3c-0.4,0.2-0.8,0.5-1.1,0.9v-4.9h-3.2v12.9h3.2v-5.4c0-0.3-0.1-1.8,1.3-1.8c1,0,1.2,0.9,1.2,1.7v5.5
			L887.3,697.6L887.3,697.6z M897,693.7c0-3.2-0.9-5.3-4.5-5.3c-2.8,0-4.5,1.7-4.5,4.5c0,3.4,1.2,5,4.7,5c1.1,0,2-0.3,2.8-0.7
			c0.8-0.5,1.4-1.3,1.5-2.5h-3c-0.1,0.8-0.6,1.4-1.5,1.4c-1.2,0-1.5-1.2-1.4-2.3H897z M893.9,692H891c0.1-0.9,0.3-1.9,1.5-2
			c0.5,0,0.9,0.2,1.1,0.6C893.8,691.1,893.9,691.6,893.9,692L893.9,692z"/>
		<path id="path2386" fill="#FFFFFF" d="M979.2,691.1v-2.7c-1.4,0-2.4,0.4-2.8,1.8l-0.1-1.6h-3.2c0.1,0.7,0.1,1.7,0.1,2.3v6.7h3.2
			v-3.9c0-1.5,0.4-2.5,2.2-2.6C978.7,691.1,978.9,691.1,979.2,691.1 M962.7,697.6c-0.1-0.9-0.1-1.5-0.1-2v-4.3
			c0-1.8-1.3-2.9-3.1-2.9c-0.5,0-1,0.1-1.5,0.3c-0.4,0.2-0.8,0.5-1.2,0.9v-4.8h-3.2v12.9h3.2v-5.4c0-0.3-0.1-1.8,1.3-1.8
			c1,0,1.2,0.9,1.2,1.7v5.5L962.7,697.6L962.7,697.6z M952.9,694.9c0-1.4-0.7-2.1-1.7-2.4c-1.9-0.7-3.3-0.7-3.3-1.4
			c0-0.5,0.3-0.8,0.8-0.8c0.4,0,0.7,0.1,0.9,0.3c0.2,0.2,0.2,0.5,0.2,0.9h3c-0.1-2.4-1.9-3-4-3c-1.7,0-4,0.6-4,2.8
			c0,3.1,5.1,2.3,5.1,4c0,0.6-0.5,0.9-1.1,0.9c-0.4,0-0.6-0.2-0.8-0.4c-0.2-0.2-0.3-0.6-0.2-0.9h-3c-0.1,2.7,1.9,3.2,4.1,3.2
			C950.9,697.9,952.9,697.1,952.9,694.9 M972.4,693.7c0-3.2-0.9-5.3-4.5-5.3c-2.8,0-4.5,1.7-4.5,4.5c0,3.4,1.2,5,4.7,5
			c1.1,0,2-0.3,2.8-0.7c0.8-0.5,1.4-1.3,1.5-2.5h-3c-0.1,0.8-0.6,1.4-1.5,1.4c-1.2,0-1.5-1.2-1.4-2.3H972.4z M969.3,692h-2.9
			c0.1-0.9,0.3-1.9,1.5-2c0.5,0,0.9,0.2,1.1,0.6C969.2,691.1,969.3,691.6,969.3,692L969.3,692z M943.9,688.6h-3.2v9h3.2V688.6z
			 M939.7,687.1l0.7-2.4h-8.5v12.9h3.4v-5.1h2.7l0.7-2.4h-3.5v-3.1L939.7,687.1L939.7,687.1z M943.9,687.1l0.8-2.4h-3.1l-0.8,2.4
			H943.9z"/>
		<rect id="rect2388" x="895.8" y="701.4" fill="#FFFFFF" width="1.2" height="7.3"/>
		<path id="path2390" fill="#FFFFFF" d="M974.2,708.8c-2.4,0-4.3-1.3-4.3-3.7c0-2.4,2-3.9,4.3-3.9c0.8,0,1.7,0.3,2.3,0.6l-0.6,0.7
			c-0.5-0.3-1.1-0.5-1.7-0.5c-0.9,0-1.7,0.3-2.3,0.9c-0.5,0.5-0.7,1.2-0.7,2.1c0,1,0.3,1.6,0.9,2.1c0.6,0.6,1.4,0.7,2.2,0.7
			c0.7,0,1.3-0.2,1.8-0.5l0.6,0.7C976.1,708.5,975.1,708.8,974.2,708.8"/>
		<rect id="rect2392" x="961.9" y="701.4" fill="#FFFFFF" width="1.2" height="7.3"/>
		<polygon id="polygon2394" fill="#FFFFFF" points="935.6,702.3 932.9,702.3 932.9,708.7 931.7,708.7 931.7,702.3 929,702.3 
			929,701.4 935.7,701.4 		"/>
		<path id="path2396" fill="#FFFFFF" d="M875,708.4c-0.6,0.3-1.3,0.4-2.1,0.4c-1,0-2.1-0.2-3-0.7l0.5-0.8c0.8,0.4,1.7,0.6,2.5,0.6
			c0.6,0,1-0.1,1.3-0.3c0.4-0.2,0.6-0.5,0.6-0.9c0-0.6-0.5-1-1.6-1.3l-1.2-0.3c-1.2-0.3-1.9-1-1.9-1.9c0-1.2,1.2-2.1,3-2.1
			c1,0,2.1,0.3,2.8,0.7l-0.5,0.8c-0.7-0.4-1.5-0.6-2.2-0.6c-1,0-1.8,0.4-1.8,1.1c0,0.5,0.4,0.8,1.5,1.1l1.1,0.3
			c0.6,0.2,1.3,0.4,1.6,0.7c0.3,0.3,0.6,0.8,0.6,1.3C876.3,707.3,875.8,708,875,708.4"/>
		<path id="path2398" fill="#FFFFFF" d="M921.7,708.7l-2.9-3.9c-0.5-0.7-1.5-2.2-1.5-2.2s0.1,1.2,0.1,2.3l0,3.7h-1.2v-7.3h1.4l2.9,4
			c0.6,0.8,1.4,2,1.4,2s-0.2-1.3-0.2-2.3l0-3.7h1.1v7.3H921.7L921.7,708.7z"/>
		<rect id="rect2400" x="941.7" y="701.4" fill="#FFFFFF" width="1.2" height="7.3"/>
		<polygon id="polygon2402" fill="#FFFFFF" points="955.6,702.2 951.6,702.2 951.6,704.4 954.9,704.4 954.9,705.3 951.6,705.3 
			951.6,708.7 950.4,708.7 950.4,701.4 955.7,701.4 		"/>
		<polygon id="polygon2404" fill="#FFFFFF" points="904.5,708.7 904.5,701.4 909.9,701.4 909.7,702.3 905.6,702.3 905.6,704.4 
			909.1,704.4 909.1,705.3 905.7,705.3 905.7,707.8 910,707.8 910,708.7 		"/>
		<path id="path2406" fill="#FFFFFF" d="M886.8,708.8c-2.4,0-4.3-1.3-4.3-3.7c0-2.4,2-3.9,4.3-3.9c0.8,0,1.7,0.3,2.3,0.6l-0.6,0.7
			c-0.5-0.3-1.1-0.5-1.7-0.5c-0.9,0-1.7,0.3-2.3,0.9c-0.5,0.5-0.7,1.2-0.7,2.1c0,1,0.3,1.6,0.9,2.1c0.6,0.6,1.4,0.7,2.2,0.7
			c0.7,0,1.3-0.2,1.8-0.5l0.6,0.7C888.8,708.5,887.8,708.8,886.8,708.8"/>
	</g>
</g>
</svg>
